<?xml version="1.0" standalone="no"?>
<!DOCTYPE svg PUBLIC "-//W3C//DTD SVG 20010904//EN"
 "http://www.w3.org/TR/2001/REC-SVG-20010904/DTD/svg10.dtd">
<svg version="1.0" xmlns="http://www.w3.org/2000/svg"
 width="512.000000pt" height="512.000000pt" viewBox="0 0 512.000000 512.000000"
 preserveAspectRatio="xMidYMid meet">

<g transform="translate(0.000000,512.000000) scale(0.100000,-0.100000)"
fill="" stroke="none">
<path d="M2453 4522 c-65 -23 -114 -61 -151 -115 -16 -23 -462 -793 -992
-1712 -610 -1056 -969 -1688 -978 -1720 -37 -139 37 -297 173 -365 l50 -25
1985 -3 c1733 -2 1991 0 2035 13 154 45 255 225 213 380 -16 57 -1942 3402
-1996 3465 -72 85 -226 122 -339 82z m175 -156 c15 -8 37 -25 48 -38 20 -21
1892 -3255 1944 -3359 39 -76 16 -155 -60 -206 l-33 -23 -1967 0 -1967 0 -33
23 c-76 51 -99 130 -60 207 41 80 1922 3335 1939 3354 46 53 131 72 189 42z"/>
<path d="M2495 3426 c-37 -17 -70 -52 -84 -89 -8 -19 -11 -248 -11 -698 0
-742 -2 -713 66 -765 31 -24 47 -29 94 -29 46 0 63 5 92 27 72 55 69 18 66
782 -3 674 -3 685 -24 712 -11 15 -32 37 -46 47 -34 25 -113 32 -153 13z"/>
<path d="M2495 1506 c-41 -18 -83 -69 -91 -111 -10 -58 4 -103 46 -145 67 -67
153 -67 220 0 125 125 -14 326 -175 256z"/>
</g>
</svg>
