<svg id="Group_200" data-name="Group 200" xmlns="http://www.w3.org/2000/svg" width="40" height="40" viewBox="0 0 40 40">
  <path id="Path_276" data-name="Path 276" d="M31.365,19.594l.21-.21a1.684,1.684,0,1,1,2.382,2.382L31.813,23.91Z" fill="#fcd462"/>
  <path id="Path_277" data-name="Path 277" d="M32.2,28.268l.228-.228a1.684,1.684,0,0,1,2.382,2.382l-2.144,2.144Z" fill="#fcd462"/>
  <path id="Path_278" data-name="Path 278" d="M20.407,8.636l.21-.21a1.684,1.684,0,0,0-2.382-2.382L16.091,8.187Z" fill="#fcd462"/>
  <path id="Path_279" data-name="Path 279" d="M11.733,7.8l.228-.227A1.684,1.684,0,0,0,9.578,5.19L7.434,7.334Z" fill="#fcd462"/>
  <path id="Path_280" data-name="Path 280" d="M24.439,9.06,3.625,7.074,0,10.7,15.186,18.62l6.194,6.194L29.3,40l3.625-3.625L30.94,15.561Z" fill="#44c4a1"/>
  <path id="Path_281" data-name="Path 281" d="M9.667,25.063l-7.5.139-1.89,1.89,6.734,2.271,3.617,3.591,2.284,6.772,1.89-1.89.131-7.51Z" fill="#ccddde"/>
  <path id="Path_282" data-name="Path 282" d="M6.592,33.408A23.372,23.372,0,0,1,13.126,20.68L30.744,3.062A10.454,10.454,0,0,1,39.857.143a10.454,10.454,0,0,1-2.919,9.113L19.319,26.874A23.369,23.369,0,0,1,6.592,33.408Z" fill="#e2ecec"/>
  <path id="Path_283" data-name="Path 283" d="M8.169,15.235a.814.814,0,1,0-.575.238A.82.82,0,0,0,8.169,15.235Z"/>
  <path id="Path_284" data-name="Path 284" d="M25.437,15.713a.813.813,0,1,0-1.15-1.15L17.8,21.049a.813.813,0,1,0,1.15,1.15Z"/>
  <path id="Path_285" data-name="Path 285" d="M27.154,13.659a.81.81,0,0,0,.575-.238l.007-.007a.813.813,0,0,0-1.15-1.15l-.007.007a.813.813,0,0,0,.575,1.388Z"/>
</svg>
