<svg id="Layer_x0020_1" xmlns="http://www.w3.org/2000/svg" width="50" height="50" viewBox="0 0 50 50">
  <rect id="Rectangle_36" data-name="Rectangle 36" width="50" height="50" fill="none"/>
  <rect id="Rectangle_37" data-name="Rectangle 37" width="36.271" height="36.271" transform="translate(6.864 6.864)" fill="none"/>
  <g id="_487551912" transform="translate(11.067 6.864)">
    <path id="_487554000" d="M3.486,1.392H27.743a1.828,1.828,0,0,1,1.275.514,1.72,1.72,0,0,1,.53,1.237V31.58a1.72,1.72,0,0,1-.53,1.237,1.828,1.828,0,0,1-1.275.514H3.486a1.828,1.828,0,0,1-1.275-.514,1.72,1.72,0,0,1-.53-1.237V3.143a1.72,1.72,0,0,1,.53-1.237,1.828,1.828,0,0,1,1.275-.514Z" transform="translate(-1.681 2.94)" fill="#bdbdbd"/>
    <path id="_487554120" d="M26.443,1.6H2.185a.326.326,0,0,0-.225.09.3.3,0,0,0-.094.215v28a.3.3,0,0,0,.094.215.326.326,0,0,0,.225.09H26.443a.326.326,0,0,0,.225-.09.3.3,0,0,0,.094-.215V1.9a.3.3,0,0,0-.094-.215.326.326,0,0,0-.225-.09Z" transform="translate(-0.38 4.396)" fill="#eee"/>
    <g id="Group_86" data-name="Group 86" transform="translate(8.491)">
      <path id="_487554048" d="M10.742,3.143h.564v0a2.34,2.34,0,0,1,1.62.646,2.214,2.214,0,0,1,.7,1.6v.028a2.214,2.214,0,0,1-.7,1.6,2.341,2.341,0,0,1-1.62.65H5.053a2.34,2.34,0,0,1-1.62-.646,2.218,2.218,0,0,1-.7-1.608V5.4a2.218,2.218,0,0,1,.7-1.608,2.34,2.34,0,0,1,1.62-.646v0h.564a2.442,2.442,0,0,1,.757-1.578A2.581,2.581,0,0,1,8.16.853H8.2a2.579,2.579,0,0,1,1.786.712v0a2.442,2.442,0,0,1,.757,1.575Z" transform="translate(-2.737 -0.853)" fill="#ff9100"/>
      <path id="_487554192" d="M10.248,3.533h-.8A1.747,1.747,0,0,1,8.243,3.05v0a1.678,1.678,0,0,1-.527-1.215V1.806a.712.712,0,0,0-.221-.515l0,0a.866.866,0,0,0-.6-.234H6.85a.864.864,0,0,0-.6.23.712.712,0,0,0-.222.516V1.83A1.678,1.678,0,0,1,5.5,3.046a1.749,1.749,0,0,1-1.209.488v0h-.8v0a.608.608,0,0,0-.422.163.471.471,0,0,0-.148.341v.03a.471.471,0,0,0,.148.341.607.607,0,0,0,.422.163h6.755a.606.606,0,0,0,.422-.159.475.475,0,0,0,.148-.345v-.03a.476.476,0,0,0-.148-.345.607.607,0,0,0-.422-.162v0Z" transform="translate(-1.428 0.598)" fill="#ef6c00"/>
    </g>
    <g id="Group_88" data-name="Group 88" transform="translate(2.794 9.909)">
      <g id="Group_87" data-name="Group 87">
        <path id="_487553712" d="M2.734,2.983a2.41,2.41,0,1,1-.706,1.7A2.4,2.4,0,0,1,2.734,2.983Z" transform="translate(-2.029 -2.278)" fill="#989898"/>
        <path id="_487554456" d="M4.013,2.338a1.924,1.924,0,1,0,1.36.563A1.918,1.918,0,0,0,4.013,2.338Z" transform="translate(-1.603 -1.852)" fill="#fefefe"/>
        <path id="_487554408" d="M2.573,3.254a.243.243,0,0,0-.344.344l.729.729h0a.243.243,0,0,0,.344,0h0L4.76,2.869a.243.243,0,0,0-.344-.344L3.13,3.811l-.557-.557Z" transform="translate(-1.116 -1.037)" fill="#989898"/>
      </g>
      <path id="_487553664" d="M3.686,2.466a.894.894,0,1,0,0,1.788H18.035a.894.894,0,0,0,0-1.788H3.686Z" transform="translate(3.35 -0.95)" fill="#29b6f6"/>
    </g>
    <g id="Group_90" data-name="Group 90" transform="translate(2.794 15.395)">
      <g id="Group_89" data-name="Group 89">
        <path id="_487553064" d="M2.734,3.772a2.41,2.41,0,1,1-.706,1.7,2.4,2.4,0,0,1,.706-1.7Z" transform="translate(-2.029 -3.066)" fill="#989898"/>
        <path id="_487552944" d="M4.013,3.127a1.924,1.924,0,1,0,1.36.563A1.918,1.918,0,0,0,4.013,3.127Z" transform="translate(-1.603 -2.641)" fill="#fefefe"/>
        <path id="_487553400" d="M2.573,4.043a.243.243,0,0,0-.344.344l.729.729h0a.243.243,0,0,0,.344,0h0L4.76,3.657a.243.243,0,0,0-.344-.344L3.13,4.6l-.557-.557Z" transform="translate(-1.116 -1.826)" fill="#989898"/>
      </g>
      <path id="_487553184" d="M3.686,3.255a.894.894,0,1,0,0,1.788H18.035a.894.894,0,0,0,0-1.788H3.686Z" transform="translate(3.35 -1.739)" fill="#29b6f6"/>
    </g>
    <g id="Group_92" data-name="Group 92" transform="translate(2.794 20.881)">
      <g id="Group_91" data-name="Group 91">
        <path id="_487553208" d="M2.734,4.561a2.41,2.41,0,1,1-.706,1.7,2.4,2.4,0,0,1,.706-1.7Z" transform="translate(-2.029 -3.855)" fill="#989898"/>
        <path id="_487552416" d="M4.013,3.915a1.924,1.924,0,1,0,1.36.563,1.918,1.918,0,0,0-1.36-.563Z" transform="translate(-1.603 -3.429)" fill="#fefefe"/>
        <path id="_487552344" d="M2.573,4.831a.243.243,0,0,0-.344.344l.729.729h0a.243.243,0,0,0,.344,0h0L4.76,4.446A.243.243,0,0,0,4.417,4.1L3.13,5.389l-.557-.557Z" transform="translate(-1.116 -2.614)" fill="#989898"/>
      </g>
      <path id="_487552680" d="M3.686,4.043a.894.894,0,1,0,0,1.788H18.035a.894.894,0,0,0,0-1.788H3.686Z" transform="translate(3.35 -2.527)" fill="#29b6f6"/>
    </g>
    <g id="Group_94" data-name="Group 94" transform="translate(2.794 25.573)">
      <g id="Group_93" data-name="Group 93">
        <path id="_487552560" d="M2.734,5.349a2.41,2.41,0,1,1-.706,1.7,2.4,2.4,0,0,1,.706-1.7Z" transform="translate(-2.029 -4.643)" fill="#989898"/>
        <path id="_487552536" d="M4.013,4.7a1.924,1.924,0,1,0,1.36.563A1.918,1.918,0,0,0,4.013,4.7Z" transform="translate(-1.603 -4.218)" fill="#fefefe"/>
        <path id="_487552296" d="M2.573,5.62a.243.243,0,0,0-.344.344l.729.729h0a.243.243,0,0,0,.344,0h0L4.76,5.234a.243.243,0,0,0-.344-.344L3.13,6.177,2.573,5.62Z" transform="translate(-1.116 -3.403)" fill="#989898"/>
      </g>
      <path id="_487551552" d="M3.686,4.832a.894.894,0,1,0,0,1.788H18.035a.894.894,0,0,0,0-1.788H3.686Z" transform="translate(3.35 -3.316)" fill="#29b6f6"/>
    </g>
  </g>
</svg>
