<svg id="Group_229" data-name="Group 229" xmlns="http://www.w3.org/2000/svg" width="40" height="40" viewBox="0 0 40 40">
  <path id="Path_386" data-name="Path 386" d="M8.807,2.4H3.252A3.252,3.252,0,0,0,0,5.65v31.1A3.252,3.252,0,0,0,3.252,40H27.968a3.252,3.252,0,0,0,3.252-3.252V5.65A3.252,3.252,0,0,0,27.968,2.4Z" fill="#ffcb7c"/>
  <path id="Path_387" data-name="Path 387" d="M3.9,6.3H27.317V36.1H3.9Z" fill="#fff"/>
  <path id="Path_388" data-name="Path 388" d="M18.819,2.4A3.253,3.253,0,0,0,15.681,0h-.143A3.253,3.253,0,0,0,12.4,2.4H10.508a1.4,1.4,0,0,0-1.4,1.4V6.3H22.114V3.8a1.4,1.4,0,0,0-1.4-1.4Z" fill="#d3d7df"/>
  <path id="Path_389" data-name="Path 389" d="M11.436,10.279,9.317,12.4l-.489-.489a.813.813,0,1,0-1.15,1.15l1.065,1.064a.813.813,0,0,0,1.15,0l2.695-2.695a.813.813,0,0,0-1.15-1.15Z" fill="#44c4a1"/>
  <path id="Path_390" data-name="Path 390" d="M15.61,11.667h7.764a.813.813,0,0,0,0-1.626H15.61a.813.813,0,0,0,0,1.626Z" fill="#44c4a1"/>
  <path id="Path_391" data-name="Path 391" d="M15.61,20.163h7.764a.813.813,0,1,0,0-1.626H15.61a.813.813,0,0,0,0,1.626Z" fill="#44c4a1"/>
  <path id="Path_392" data-name="Path 392" d="M15.61,14.918h3.679a.813.813,0,0,0,0-1.626H15.61a.813.813,0,0,0,0,1.626Z" fill="#44c4a1"/>
  <path id="Path_393" data-name="Path 393" d="M11.436,18.734,9.317,20.854l-.489-.489a.813.813,0,0,0-1.15,1.15l1.065,1.065a.813.813,0,0,0,1.15,0l2.695-2.695a.813.813,0,0,0-1.15-1.15Z" fill="#44c4a1"/>
  <path id="Path_394" data-name="Path 394" d="M15.61,23.374h3.679a.813.813,0,0,0,0-1.626H15.61a.813.813,0,0,0,0,1.626Z" fill="#44c4a1"/>
  <path id="Path_395" data-name="Path 395" d="M11.436,27.271,9.317,29.39,8.827,28.9a.813.813,0,1,0-1.15,1.15l1.065,1.065a.813.813,0,0,0,1.15,0l2.695-2.695a.813.813,0,0,0-1.15-1.15Z" fill="#44c4a1"/>
  <path id="Path_396" data-name="Path 396" d="M15.61,28.659h7.764a.813.813,0,0,0,0-1.626H15.61a.813.813,0,0,0,0,1.626Z" fill="#44c4a1"/>
  <path id="Path_397" data-name="Path 397" d="M15.61,31.911h3.679a.813.813,0,0,0,0-1.626H15.61a.813.813,0,0,0,0,1.626Z" fill="#44c4a1"/>
  <path id="Path_398" data-name="Path 398" d="M15.61,3.963a.813.813,0,1,0-.575-.238A.82.82,0,0,0,15.61,3.963Z"/>
  <path id="Path_399" data-name="Path 399" d="M40,20a8.049,8.049,0,1,1-8.049-8.049A8.049,8.049,0,0,1,40,20Z" fill="#2eb6f5"/>
  <path id="Path_400" data-name="Path 400" d="M31.951,28.049a8.017,8.017,0,0,0,5.334-2.022,5.528,5.528,0,0,0-10.668,0A8.017,8.017,0,0,0,31.951,28.049Z" fill="#91def5"/>
  <path id="Path_401" data-name="Path 401" d="M34.476,18.8v.631a2.524,2.524,0,0,1-5.049,0V18.8a2.524,2.524,0,0,1,5.049,0Z" fill="#ffddcf"/>
</svg>
