<svg xmlns="http://www.w3.org/2000/svg" xmlns:xlink="http://www.w3.org/1999/xlink" width="92.116" height="92.993" viewBox="0 0 92.116 92.993">
  <defs>
    <clipPath id="clip-path">
      <path id="Combined_Shape" data-name="Combined Shape" d="M40.638,78.909a51.841,51.841,0,0,0,8.068-39.655l-.086-.427A8.038,8.038,0,0,0,32.847,41.7l.144.724c.015.075.024.13.039.225a15.429,15.429,0,0,1-1.709.414l.245,1.434-1.709.291-.336-1.668a11.546,11.546,0,1,1,22.637-4.564l.292,1.449a55.5,55.5,0,0,1-8.914,40.885ZM29.43,77.441a42.162,42.162,0,0,0,9.7-36.255l3.44-.693a45.67,45.67,0,0,1-10.5,39.264Zm23.85-.89a61.654,61.654,0,0,0,5.727-19.142l3.48.448a65.147,65.147,0,0,1-6.053,20.231Zm-33.4-3.279A32.5,32.5,0,0,0,30.187,49.223l3.509-.038A36.008,36.008,0,0,1,22.279,75.834Zm-7.794-6.16a22.7,22.7,0,0,0,8.067-21.048l-.2-1.011a21.308,21.308,0,1,1,41.776-8.424l.219,1.086A66.263,66.263,0,0,1,62.98,51.539l-3.508-.105a61.845,61.845,0,0,0-1.189-14.11l-.067-.334a17.8,17.8,0,0,0-34.984,6.463l.182.9a26.2,26.2,0,0,1-9.1,25.473Zm54.8.8a71.215,71.215,0,0,0,1.143-31.681l-.171-.842A27.506,27.506,0,0,0,50.721,15.137l1.263-3.274a31.016,31.016,0,0,1,19.036,21.6L71.3,34.7a74.738,74.738,0,0,1-1.027,34.12Zm-60.815-8.5A12.927,12.927,0,0,0,10.506,47.6l-.126-.623a31.123,31.123,0,0,1-.6-6.55l3.509.043a27.822,27.822,0,0,0,.37,4.921l.18.89a16.434,16.434,0,0,1-5.5,15.8ZM1.157,50.629.811,48.911A40.779,40.779,0,0,1,12.052,11.885l2.476,2.486a37.273,37.273,0,0,0-10.507,32.6l.25,1.24q.162.805.358,1.593l-1.743.431-.954.235-.711.176C1.22,50.638,1.157,50.629,1.157,50.629Zm77.025-9.035a37.418,37.418,0,0,0-.506-6.878l-.252-1.252a37.32,37.32,0,0,0-58.406-22.9L16.965,7.716A40.829,40.829,0,0,1,80.481,31.06l.4,1.705a40.994,40.994,0,0,1,.805,8.9Zm-67.619-7.66A30.951,30.951,0,0,1,45.656,10.173l-.546,3.466A27.443,27.443,0,0,0,13.984,34.717Z" fill="#62cc44"/>
    </clipPath>
  </defs>
  <g id="Group_2" data-name="Group 2" transform="translate(-24.916 -14.024)">
    <g id="Icon_TouchID" data-name="Icon/TouchID" transform="translate(24.916 14.024)">
      <g id="thin-0637_fingerprint_scan_security_access" transform="translate(7.352 5.702)">
        <g id="Group" transform="translate(0 0)">
          <path id="Combined_Shape-2" data-name="Combined Shape" d="M40.638,78.909a51.841,51.841,0,0,0,8.068-39.655l-.086-.427A8.038,8.038,0,0,0,32.847,41.7l.144.724c.015.075.024.13.039.225a15.429,15.429,0,0,1-1.709.414l.245,1.434-1.709.291-.336-1.668a11.546,11.546,0,1,1,22.637-4.564l.292,1.449a55.5,55.5,0,0,1-8.914,40.885ZM29.43,77.441a42.162,42.162,0,0,0,9.7-36.255l3.44-.693a45.67,45.67,0,0,1-10.5,39.264Zm23.85-.89a61.654,61.654,0,0,0,5.727-19.142l3.48.448a65.147,65.147,0,0,1-6.053,20.231Zm-33.4-3.279A32.5,32.5,0,0,0,30.187,49.223l3.509-.038A36.008,36.008,0,0,1,22.279,75.834Zm-7.794-6.16a22.7,22.7,0,0,0,8.067-21.048l-.2-1.011a21.308,21.308,0,1,1,41.776-8.424l.219,1.086A66.263,66.263,0,0,1,62.98,51.539l-3.508-.105a61.845,61.845,0,0,0-1.189-14.11l-.067-.334a17.8,17.8,0,0,0-34.984,6.463l.182.9a26.2,26.2,0,0,1-9.1,25.473Zm54.8.8a71.215,71.215,0,0,0,1.143-31.681l-.171-.842A27.506,27.506,0,0,0,50.721,15.137l1.263-3.274a31.016,31.016,0,0,1,19.036,21.6L71.3,34.7a74.738,74.738,0,0,1-1.027,34.12Zm-60.815-8.5A12.927,12.927,0,0,0,10.506,47.6l-.126-.623a31.123,31.123,0,0,1-.6-6.55l3.509.043a27.822,27.822,0,0,0,.37,4.921l.18.89a16.434,16.434,0,0,1-5.5,15.8ZM1.157,50.629.811,48.911A40.779,40.779,0,0,1,12.052,11.885l2.476,2.486a37.273,37.273,0,0,0-10.507,32.6l.25,1.24q.162.805.358,1.593l-1.743.431-.954.235-.711.176C1.22,50.638,1.157,50.629,1.157,50.629Zm77.025-9.035a37.418,37.418,0,0,0-.506-6.878l-.252-1.252a37.32,37.32,0,0,0-58.406-22.9L16.965,7.716A40.829,40.829,0,0,1,80.481,31.06l.4,1.705a40.994,40.994,0,0,1,.805,8.9Zm-67.619-7.66A30.951,30.951,0,0,1,45.656,10.173l-.546,3.466A27.443,27.443,0,0,0,13.984,34.717Z" fill="#62cc44"/>
          <g id="Group-2" data-name="Group" clip-path="url(#clip-path)">
            <g id="Color_Gray" data-name="Color/Gray" transform="translate(-2.088 -22.37)">
              <path id="Rectangle_4" data-name="Rectangle 4" d="M0,0H114.048V116.68H0Z" transform="translate(0 -0.877)" fill="#62cc44"/>
            </g>
          </g>
        </g>
      </g>
    </g>
  </g>
</svg>
