<svg id="Group_207" data-name="Group 207" xmlns="http://www.w3.org/2000/svg" width="46.939" height="43.77" viewBox="0 0 46.939 43.77">
  <path id="Path_359" data-name="Path 359" d="M45.648,35.261H6.564A.741.741,0,0,0,5.823,36V59a.741.741,0,0,0,.741.741H45.648A.741.741,0,0,0,46.389,59V36A.741.741,0,0,0,45.648,35.261Z" transform="translate(-2.637 -15.969)" fill="#f7434c"/>
  <path id="Path_360" data-name="Path 360" d="M45.648,35.261H6.564A.741.741,0,0,0,5.823,36v2.965H46.389V36A.741.741,0,0,0,45.648,35.261Z" transform="translate(-2.637 -15.969)" fill="#db2e37"/>
  <path id="Path_361" data-name="Path 361" d="M42.935,35.261H35.362a.741.741,0,0,0-.741.741V59a.741.741,0,0,0,.741.741h7.572A.741.741,0,0,0,43.676,59V36A.741.741,0,0,0,42.935,35.261Z" transform="translate(-15.679 -15.969)" fill="#ffdb57"/>
  <path id="Path_362" data-name="Path 362" d="M42.935,35.261H35.362a.741.741,0,0,0-.741.741V38.95h9.055V36A.741.741,0,0,0,42.935,35.261Z" transform="translate(-15.679 -15.969)" fill="#f5ba3d"/>
  <path id="Path_363" data-name="Path 363" d="M62.95,5.6A14.978,14.978,0,0,0,59.883.652,2.262,2.262,0,0,0,58.183,0c-2.225.052-5.851,2.845-10.777,8.3a.741.741,0,0,0-.191.5v3.92a.741.741,0,0,0,.741.741h11.4c2.54,0,3.589-1.236,4.021-2.273C63.953,9.8,63.8,7.821,62.95,5.6Z" transform="translate(-21.382 0)" fill="#ffdb57"/>
  <path id="Path_364" data-name="Path 364" d="M65.829,11.538a.739.739,0,0,0-.1-.214c-1.119-1.692-3.537-1.059-5.369-.23a18.311,18.311,0,0,0-7.609,5.866.741.741,0,0,0,.622,1.145h8.435a4.216,4.216,0,0,0,3.563-1.475C66.262,15.468,66.419,13.707,65.829,11.538Z" transform="translate(-23.837 -4.645)" fill="#ef9325"/>
  <path id="Path_365" data-name="Path 365" d="M24.723,8.3C19.8,2.845,16.171.052,13.945,0a2.258,2.258,0,0,0-1.7.652A14.975,14.975,0,0,0,9.179,5.6c-.852,2.22-1,4.2-.427,5.586.432,1.037,1.481,2.273,4.021,2.273h11.4a.741.741,0,0,0,.741-.741V8.8A.74.74,0,0,0,24.723,8.3Z" transform="translate(-3.808 0)" fill="#ffdb57"/>
  <path id="Path_366" data-name="Path 366" d="M21.826,16.96a18.31,18.31,0,0,0-7.609-5.866c-1.832-.829-4.25-1.462-5.369.23a.742.742,0,0,0-.1.214c-.591,2.169-.433,3.93.455,5.092a4.215,4.215,0,0,0,3.563,1.475H21.2a.741.741,0,0,0,.622-1.145Z" transform="translate(-3.804 -4.645)" fill="#ef9325"/>
  <path id="Path_367" data-name="Path 367" d="M42.817,13.388H36.608a.741.741,0,0,0-.741.741v4.653a.741.741,0,0,0,.741.741h6.209a.741.741,0,0,0,.741-.741V14.129A.741.741,0,0,0,42.817,13.388Z" transform="translate(-16.243 -6.063)" fill="#f5ba3d"/>
  <path id="Path_368" data-name="Path 368" d="M46.2,21.893H.741A.741.741,0,0,0,0,22.634v7.313a.741.741,0,0,0,.741.741H46.2a.741.741,0,0,0,.741-.741V22.634A.741.741,0,0,0,46.2,21.893Z" transform="translate(0 -9.915)" fill="#f7434c"/>
  <path id="Path_369" data-name="Path 369" d="M43.877,21.893H32.491v8.8H43.877Z" transform="translate(-14.714 -9.915)" fill="#ffdb57"/>
</svg>
