<svg xmlns="http://www.w3.org/2000/svg" width="46" height="40" viewBox="0 0 46 40">
  <g id="Group_184" data-name="Group 184" transform="translate(-275 -302)">
    <path id="Path_192" data-name="Path 192" d="M317.385,302h-7.309a.673.673,0,0,0-.674.673v5.864a.673.673,0,0,0,.674.672h7.309a3.6,3.6,0,1,0,0-7.209Z" fill="#494949"/>
    <path id="Path_193" data-name="Path 193" d="M285.924,302h-7.309a3.6,3.6,0,1,0,0,7.209h7.309a.673.673,0,0,0,.674-.672v-5.864A.673.673,0,0,0,285.924,302Z" fill="#494949"/>
    <path id="Path_194" data-name="Path 194" d="M310.077,305.125h7.308a3.62,3.62,0,0,1,3.257,2.042,3.561,3.561,0,0,0,.358-1.562A3.614,3.614,0,0,0,317.385,302h-7.309a.673.673,0,0,0-.674.673V305.8A.674.674,0,0,1,310.077,305.125Z" fill="#353535"/>
    <path id="Path_195" data-name="Path 195" d="M285.924,302h-7.309A3.614,3.614,0,0,0,275,305.605a3.576,3.576,0,0,0,.358,1.562,3.621,3.621,0,0,1,3.257-2.042h7.309a.674.674,0,0,1,.674.673v-3.125A.673.673,0,0,0,285.924,302Z" fill="#353535"/>
    <path id="Path_196" data-name="Path 196" d="M310.056,302H285.943v39.327a.674.674,0,0,0,.675.673h22.763a.674.674,0,0,0,.675-.673V302Z" fill="#44c4a1"/>
    <path id="Path_197" data-name="Path 197" d="M310.057,302H285.944v3.094h24.113Z" fill="#3db493"/>
    <path id="Path_198" data-name="Path 198" d="M307.169,302H288.83v33.585a.671.671,0,0,0,.67.673,2.212,2.212,0,0,1,2.217,2.21.672.672,0,0,0,.675.669h11.216a.671.671,0,0,0,.674-.669,2.212,2.212,0,0,1,2.217-2.21.671.671,0,0,0,.67-.673Z" fill="#61e6c1"/>
    <path id="Path_199" data-name="Path 199" d="M307.17,302H288.831v3.094H307.17Z" fill="#5ad6b4"/>
    <path id="Path_200" data-name="Path 200" d="M298,312.662a6.523,6.523,0,1,0,6.541,6.522A6.539,6.539,0,0,0,298,312.662Z" fill="#ffdb56"/>
  </g>
</svg>
