<svg id="Group_205" data-name="Group 205" xmlns="http://www.w3.org/2000/svg" width="39.999" height="40" viewBox="0 0 39.999 40">
  <path id="Path_316" data-name="Path 316" d="M11.329,22.3A10.865,10.865,0,0,0,22.088,11.329,10.865,10.865,0,0,0,11.329.36,10.865,10.865,0,0,0,.57,11.329,10.865,10.865,0,0,0,11.329,22.3Z" fill="#27a2db"/>
  <path id="Path_317" data-name="Path 317" d="M11.33,0A11.33,11.33,0,1,0,22.66,11.33,11.343,11.343,0,0,0,11.33,0Zm.57,7.005a25.022,25.022,0,0,0,3.929-.4,18.094,18.094,0,0,1,.589,4.151H11.9Zm0-1.14V1.211c1.462.342,2.757,1.978,3.585,4.3A23.883,23.883,0,0,1,11.9,5.865ZM10.76,1.211V5.865a23.882,23.882,0,0,1-3.585-.353C8,3.189,9.3,1.554,10.76,1.211Zm0,5.794V10.76H6.243a18.089,18.089,0,0,1,.589-4.151A25.021,25.021,0,0,0,10.76,7.005ZM5.1,10.76H1.169a10.121,10.121,0,0,1,1.769-5.2A25.057,25.057,0,0,0,5.7,6.376,19.363,19.363,0,0,0,5.1,10.76Zm0,1.14a19.368,19.368,0,0,0,.6,4.384,25.035,25.035,0,0,0-2.765.813,10.121,10.121,0,0,1-1.769-5.2H5.1Zm1.139,0H10.76v3.755a25,25,0,0,0-3.928.4A18.1,18.1,0,0,1,6.243,11.9Zm4.517,4.895v4.654C9.3,21.106,8,19.471,7.175,17.148A23.879,23.879,0,0,1,10.76,16.795Zm1.14,4.654V16.795a23.869,23.869,0,0,1,3.585.353C14.657,19.471,13.362,21.106,11.9,21.448Zm0-5.794V11.9h4.518a18.088,18.088,0,0,1-.589,4.151A25.015,25.015,0,0,0,11.9,15.655ZM17.557,11.9h3.934a10.121,10.121,0,0,1-1.769,5.2,25.079,25.079,0,0,0-2.764-.813A19.368,19.368,0,0,0,17.557,11.9Zm0-1.14a19.367,19.367,0,0,0-.6-4.384,25.082,25.082,0,0,0,2.765-.813,10.121,10.121,0,0,1,1.769,5.2Zm1.419-6.143a23.939,23.939,0,0,1-2.347.666A10.5,10.5,0,0,0,14.661,1.71,10.208,10.208,0,0,1,18.976,4.617ZM8,1.71A10.508,10.508,0,0,0,6.031,5.283a23.937,23.937,0,0,1-2.347-.666A10.211,10.211,0,0,1,8,1.71ZM3.684,18.043a23.918,23.918,0,0,1,2.347-.666A10.5,10.5,0,0,0,8,20.95,10.208,10.208,0,0,1,3.684,18.043ZM14.66,20.949a10.5,10.5,0,0,0,1.969-3.572,23.937,23.937,0,0,1,2.347.666A10.209,10.209,0,0,1,14.66,20.949Z" fill="#1c75a1"/>
  <path id="Path_318" data-name="Path 318" d="M40,17.441H8.067v2.568H40Z" fill="#fcd462"/>
  <path id="Path_319" data-name="Path 319" d="M40,37.432H8.067V40H40Z" fill="#ebf0f3"/>
  <path id="Path_320" data-name="Path 320" d="M24.033,8.067,8.067,17.441H40Z" fill="#ebf0f3"/>
  <path id="Path_321" data-name="Path 321" d="M14.473,15.7l9.56-5.613,9.56,5.613Z" fill="#e1e6e9"/>
  <path id="Path_322" data-name="Path 322" d="M15.212,21.5H10.2V36.191h5.012Z" fill="#ebf0f3"/>
  <path id="Path_323" data-name="Path 323" d="M15.3,35.478h-5.2a.408.408,0,0,0-.408.408v1.546h6.011V35.885A.408.408,0,0,0,15.3,35.478Z" fill="#e1e6e9"/>
  <path id="Path_324" data-name="Path 324" d="M9.7,20.009v1.546a.408.408,0,0,0,.408.408h5.2a.408.408,0,0,0,.408-.408V20.009Z" fill="#e1e6e9"/>
  <path id="Path_325" data-name="Path 325" d="M11.333,34.62a.29.29,0,0,1-.29-.29V23.368a.29.29,0,1,1,.581,0V34.33A.29.29,0,0,1,11.333,34.62Z" fill="#e1e6e9"/>
  <path id="Path_326" data-name="Path 326" d="M12.706,34.62a.29.29,0,0,1-.29-.29V23.368a.29.29,0,1,1,.581,0V34.33A.29.29,0,0,1,12.706,34.62Z" fill="#e1e6e9"/>
  <path id="Path_327" data-name="Path 327" d="M14.079,34.62a.29.29,0,0,1-.29-.29V23.368a.29.29,0,1,1,.581,0V34.33A.29.29,0,0,1,14.079,34.62Z" fill="#e1e6e9"/>
  <path id="Path_328" data-name="Path 328" d="M26.539,21.5H21.526V36.191h5.012Z" fill="#ebf0f3"/>
  <path id="Path_329" data-name="Path 329" d="M26.631,35.478h-5.2a.408.408,0,0,0-.408.408v1.546h6.011V35.885A.408.408,0,0,0,26.631,35.478Z" fill="#e1e6e9"/>
  <path id="Path_330" data-name="Path 330" d="M21.027,20.009v1.546a.408.408,0,0,0,.408.408h5.2a.408.408,0,0,0,.408-.408V20.009Z" fill="#e1e6e9"/>
  <path id="Path_331" data-name="Path 331" d="M22.66,34.62a.29.29,0,0,1-.29-.29V23.368a.29.29,0,1,1,.58,0V34.33A.29.29,0,0,1,22.66,34.62Z" fill="#e1e6e9"/>
  <path id="Path_332" data-name="Path 332" d="M24.033,34.62a.29.29,0,0,1-.29-.29V23.368a.29.29,0,1,1,.58,0V34.33A.29.29,0,0,1,24.033,34.62Z" fill="#e1e6e9"/>
  <path id="Path_333" data-name="Path 333" d="M25.406,34.62a.29.29,0,0,1-.29-.29V23.368a.29.29,0,1,1,.581,0V34.33A.29.29,0,0,1,25.406,34.62Z" fill="#e1e6e9"/>
  <path id="Path_334" data-name="Path 334" d="M37.865,21.5H32.853V36.191h5.012Z" fill="#ebf0f3"/>
  <path id="Path_335" data-name="Path 335" d="M37.958,35.478h-5.2a.408.408,0,0,0-.408.408v1.546h6.011V35.885A.408.408,0,0,0,37.958,35.478Z" fill="#e1e6e9"/>
  <path id="Path_336" data-name="Path 336" d="M32.354,20.009v1.546a.408.408,0,0,0,.408.408h5.2a.408.408,0,0,0,.408-.408V20.009Z" fill="#e1e6e9"/>
  <path id="Path_337" data-name="Path 337" d="M33.987,34.62a.29.29,0,0,1-.29-.29V23.368a.29.29,0,1,1,.581,0V34.33A.29.29,0,0,1,33.987,34.62Z" fill="#e1e6e9"/>
  <path id="Path_338" data-name="Path 338" d="M35.36,34.62a.29.29,0,0,1-.29-.29V23.368a.29.29,0,1,1,.581,0V34.33A.29.29,0,0,1,35.36,34.62Z" fill="#e1e6e9"/>
  <path id="Path_339" data-name="Path 339" d="M36.733,34.62a.29.29,0,0,1-.29-.29V23.368a.29.29,0,1,1,.58,0V34.33A.29.29,0,0,1,36.733,34.62Z" fill="#e1e6e9"/>
  <path id="Path_340" data-name="Path 340" d="M23.936,14.961V14.64a1.911,1.911,0,0,1-1.083-.48l.321-.383a1.527,1.527,0,0,0,.762.383v-.854a1.8,1.8,0,0,1-.729-.313.707.707,0,0,1-.231-.574.8.8,0,0,1,.266-.623,1.079,1.079,0,0,1,.694-.264v-.22h.281v.224a1.84,1.84,0,0,1,.916.33l-.286.4a1.42,1.42,0,0,0-.629-.255v.828h.013a1.784,1.784,0,0,1,.744.321.729.729,0,0,1,.238.588.8.8,0,0,1-.273.627,1.135,1.135,0,0,1-.722.264v.317Zm-.311-2.841a.315.315,0,0,0-.112.247.31.31,0,0,0,.088.233.89.89,0,0,0,.335.165V12A.527.527,0,0,0,23.625,12.12Zm.927,1.93a.34.34,0,0,0,.026-.5.962.962,0,0,0-.361-.169v.792A.616.616,0,0,0,24.552,14.05Z" fill="#dc8744"/>
</svg>
