<svg id="Group_206" data-name="Group 206" xmlns="http://www.w3.org/2000/svg" width="39" height="40" viewBox="0 0 39 40">
  <path id="Path_341" data-name="Path 341" d="M16.522,16.155h5.955V35.731H16.522Z" fill="#f1f1f1"/>
  <path id="Path_342" data-name="Path 342" d="M19.5,16.155h2.978V35.731H19.5Z" fill="#ddd"/>
  <path id="Path_343" data-name="Path 343" d="M14.946,32.739h9.108v4.878H14.946Z" fill="#dbeeff"/>
  <path id="Path_344" data-name="Path 344" d="M19.5,32.739h4.554v4.878H19.5Z" fill="#bfe1ff"/>
  <path id="Path_345" data-name="Path 345" d="M29.074,16.155h5.955V35.731H29.074Z" fill="#ddd"/>
  <path id="Path_346" data-name="Path 346" d="M27.5,32.739h9.108v4.878H27.5Z" fill="#bfe1ff"/>
  <path id="Path_347" data-name="Path 347" d="M3.969,16.155H9.925V35.731H3.969Z" fill="#f1f1f1"/>
  <path id="Path_348" data-name="Path 348" d="M2.393,32.739H11.5v4.878H2.393Z" fill="#dbeeff"/>
  <path id="Path_349" data-name="Path 349" d="M14.946,12.457h9.108v4.878H14.946Z" fill="#dbeeff"/>
  <path id="Path_350" data-name="Path 350" d="M19.5,12.457h4.554v4.878H19.5Z" fill="#bfe1ff"/>
  <path id="Path_351" data-name="Path 351" d="M27.5,12.457h9.108v4.878H27.5Z" fill="#bfe1ff"/>
  <path id="Path_352" data-name="Path 352" d="M2.393,12.457H11.5v4.878H2.393Z" fill="#dbeeff"/>
  <path id="Path_353" data-name="Path 353" d="M0,35.731H39V40H0Z" fill="#a3d4ff"/>
  <path id="Path_354" data-name="Path 354" d="M19.5,35.731H39V40H19.5Z" fill="#87c7ff"/>
  <path id="Path_355" data-name="Path 355" d="M39,14.591H0V10.322L19.5,0,39,10.322Z" fill="#a3d4ff"/>
  <path id="Path_356" data-name="Path 356" d="M39,10.322,19.5,0V14.591H39Z" fill="#87c7ff"/>
  <path id="Path_357" data-name="Path 357" d="M12.056,8.019H26.944v3.3H12.056Z" fill="#fff"/>
  <path id="Path_358" data-name="Path 358" d="M19.5,8.019h7.444v3.3H19.5Z" fill="#ddd"/>
</svg>
