<svg xmlns="http://www.w3.org/2000/svg" width="34.228" height="40" viewBox="0 0 34.228 40">
  <g id="Group_185" data-name="Group 185" transform="translate(-162 -422)">
    <path id="Path_177" data-name="Path 177" d="M179.114,422c9.435,0,17.114,7.327,17.114,16.361,0,12.7-17.114,23.639-17.114,23.639S162,451.059,162,438.361C162,429.327,169.679,422,179.114,422Z" fill="#00acea"/>
    <path id="Path_178" data-name="Path 178" d="M179,427a12,12,0,1,1-12,12,12,12,0,0,1,12-12Z" fill="#fedb41"/>
    <path id="Path_179" data-name="Path 179" d="M178.59,446v-1.321a8.222,8.222,0,0,1-4.59-1.972l1.362-1.574a6.547,6.547,0,0,0,3.228,1.574V439.2a7.736,7.736,0,0,1-3.088-1.285,2.864,2.864,0,0,1-.98-2.361,3.258,3.258,0,0,1,1.128-2.561,4.655,4.655,0,0,1,2.94-1.085V431h1.193v.923a7.955,7.955,0,0,1,3.881,1.357l-1.213,1.665a6.12,6.12,0,0,0-2.668-1.05v3.4h.057a7.689,7.689,0,0,1,3.152,1.32A2.956,2.956,0,0,1,184,441.033a3.243,3.243,0,0,1-1.157,2.579,4.9,4.9,0,0,1-3.06,1.086V446Zm-1.316-11.679a1.274,1.274,0,0,0-.476,1.013,1.254,1.254,0,0,0,.374.958,3.8,3.8,0,0,0,1.418.679v-3.13A2.268,2.268,0,0,0,177.274,434.321Zm3.928,7.934a1.37,1.37,0,0,0,.112-2.054,4.141,4.141,0,0,0-1.531-.7v3.256A2.67,2.67,0,0,0,181.2,442.255Z" fill="#fff"/>
  </g>
</svg>
