<svg xmlns="http://www.w3.org/2000/svg" width="40" height="40.001" viewBox="0 0 40 40.001">
  <g id="Group_187" data-name="Group 187" transform="translate(-278 -422)">
    <path id="Path_180" data-name="Path 180" d="M287.47,442.4a.391.391,0,0,0,.394-.387V440.4h.395a.39.39,0,0,0,.394-.387v-2.093h-7.034v2.093a.39.39,0,0,0,.393.387h.4v1.605a.39.39,0,0,0,.394.387h.683v13.022H282.8a.39.39,0,0,0-.394.386v1.606h-.4a.39.39,0,0,0-.393.387v2.093h7.034V457.8a.39.39,0,0,0-.394-.387h-.395V455.8a.391.391,0,0,0-.394-.386h-.683V442.4Z" fill="#f6e7ca"/>
    <path id="Path_181" data-name="Path 181" d="M317.652,434.254l-19.206-12.125a.836.836,0,0,0-.892,0l-19.206,12.125a.738.738,0,0,0,.408,1.363h38.488A.738.738,0,0,0,317.652,434.254Z" fill="#ffc600"/>
    <path id="Path_182" data-name="Path 182" d="M298.446,423.9a.836.836,0,0,0-.892,0L279,435.617h38Z" fill="#baaa94"/>
    <path id="Path_183" data-name="Path 183" d="M297.446,425.625l-15.827,9.992h32.762l-15.828-9.992A1.043,1.043,0,0,0,297.446,425.625Z" fill="#f6e7ca"/>
    <path id="Path_184" data-name="Path 184" d="M300.334,442.4a.39.39,0,0,0,.394-.387v-1.6h.4a.39.39,0,0,0,.393-.387v-2.093h-7.034v2.093a.391.391,0,0,0,.394.387h.395v1.6a.391.391,0,0,0,.394.387h.683V455.42h-.683a.391.391,0,0,0-.394.386v1.606h-.395a.39.39,0,0,0-.394.387v2.093h7.034V457.8a.39.39,0,0,0-.393-.387h-.4v-1.606a.39.39,0,0,0-.394-.386h-.683V442.4Z" fill="#f6e7ca"/>
    <path id="Path_185" data-name="Path 185" d="M313.2,442.4a.391.391,0,0,0,.394-.387v-1.6h.395a.39.39,0,0,0,.394-.387v-2.093h-7.034v2.093a.391.391,0,0,0,.393.387h.4v1.6a.39.39,0,0,0,.394.387h.683V455.42h-.683a.39.39,0,0,0-.394.386v1.606h-.4a.39.39,0,0,0-.393.387v2.093h7.034V457.8a.39.39,0,0,0-.394-.387h-.395v-1.606a.391.391,0,0,0-.394-.386h-.683V442.4Z" fill="#f6e7ca"/>
    <path id="Path_186" data-name="Path 186" d="M316.478,462H279.523a1.212,1.212,0,1,1,0-2.424h36.955a1.212,1.212,0,1,1,0,2.424Z" fill="#ff6d3a"/>
    <path id="Path_187" data-name="Path 187" d="M316.478,462H279.523a1.212,1.212,0,1,1,0-2.424h36.955a1.212,1.212,0,1,1,0,2.424Z" fill="#d9cdba"/>
    <path id="Path_188" data-name="Path 188" d="M316.478,460.9H279.523a1.235,1.235,0,0,1-1.1-.662,1.187,1.187,0,0,0-.135.55A1.224,1.224,0,0,0,279.523,462h36.955a1.225,1.225,0,0,0,1.236-1.212,1.187,1.187,0,0,0-.136-.55A1.235,1.235,0,0,1,316.478,460.9Z" fill="#baaa94"/>
    <path id="Path_189" data-name="Path 189" d="M314.381,435.618H281.619v2.621h32.762Z" fill="#d9cdba"/>
    <path id="Path_190" data-name="Path 190" d="M314.381,436.927H281.619v1.311h32.762Z" fill="#baaa94"/>
    <path id="Path_191" data-name="Path 191" d="M297.72,434.153c-1.105-.018-1.853-.6-1.853-1.031,0-.21.187-.5.41-.5.294,0,.534.612,1.443.682v-2.054c-.8-.279-1.693-.594-1.693-1.712,0-1.1.847-1.538,1.693-1.626v-.253a.233.233,0,0,1,.258-.2c.133,0,.267.1.267.2v.236c.606.017,1.461.2,1.461.629,0,.166-.125.5-.392.5-.214,0-.446-.279-1.069-.323v1.774c.775.279,1.621.664,1.621,1.852a1.7,1.7,0,0,1-1.621,1.8v.3c0,.105-.134.2-.267.2a.234.234,0,0,1-.258-.2Zm.053-3.845v-1.591c-.5.062-.855.28-.855.734C296.918,429.95,297.3,430.133,297.773,430.308Zm.419,1.136v1.844a.837.837,0,0,0,.783-.865C298.975,431.872,298.628,431.627,298.192,431.444Z" fill="#cd9f00"/>
  </g>
</svg>
