<svg id="Group_202" data-name="Group 202" xmlns="http://www.w3.org/2000/svg" width="40" height="40" viewBox="0 0 40 40">
  <path id="Path_299" data-name="Path 299" d="M15.162,0H3.413A3.416,3.416,0,0,0,0,3.413V15.162a3.416,3.416,0,0,0,3.413,3.412H15.162a3.416,3.416,0,0,0,3.412-3.412V3.413A3.416,3.416,0,0,0,15.162,0Zm2.117,15.162a2.119,2.119,0,0,1-2.117,2.117H3.413A2.119,2.119,0,0,1,1.3,15.162V3.413A2.119,2.119,0,0,1,3.413,1.3H15.162a2.119,2.119,0,0,1,2.117,2.117Z" fill="#44c4a1"/>
  <path id="Path_300" data-name="Path 300" d="M36.588,0H24.838a3.416,3.416,0,0,0-3.412,3.413V15.162a3.416,3.416,0,0,0,3.412,3.412h11.75A3.416,3.416,0,0,0,40,15.162V3.413A3.416,3.416,0,0,0,36.588,0ZM38.7,15.162a2.119,2.119,0,0,1-2.117,2.117H24.838a2.119,2.119,0,0,1-2.117-2.117V3.413A2.119,2.119,0,0,1,24.838,1.3h11.75A2.119,2.119,0,0,1,38.7,3.413Z" fill="#44c4a1"/>
  <path id="Path_301" data-name="Path 301" d="M15.162,21.426H3.413A3.416,3.416,0,0,0,0,24.838v11.75A3.416,3.416,0,0,0,3.413,40H15.162a3.416,3.416,0,0,0,3.412-3.412V24.838A3.416,3.416,0,0,0,15.162,21.426Zm2.117,15.162A2.119,2.119,0,0,1,15.162,38.7H3.413A2.119,2.119,0,0,1,1.3,36.588V24.838a2.119,2.119,0,0,1,2.117-2.117H15.162a2.119,2.119,0,0,1,2.117,2.117Z" fill="#44c4a1"/>
  <path id="Path_302" data-name="Path 302" d="M36.588,21.426H24.838a3.416,3.416,0,0,0-3.412,3.412v11.75A3.416,3.416,0,0,0,24.838,40h11.75A3.416,3.416,0,0,0,40,36.588V24.838A3.416,3.416,0,0,0,36.588,21.426ZM38.7,36.588A2.119,2.119,0,0,1,36.588,38.7H24.838a2.119,2.119,0,0,1-2.117-2.117V24.838a2.119,2.119,0,0,1,2.117-2.117h11.75A2.119,2.119,0,0,1,38.7,24.838Z" fill="#44c4a1"/>
</svg>
