<svg id="Layer_x0020_1" xmlns="http://www.w3.org/2000/svg" width="50" height="50" viewBox="0 0 50 50">
  <rect id="Rectangle_10" data-name="Rectangle 10" width="50" height="50" fill="none"/>
  <g id="_489327400" transform="translate(6.625 6.625)">
    <rect id="_487485504" width="36.75" height="36.75" fill="none"/>
    <rect id="_487485672" width="36.75" height="36.75" fill="none"/>
    <path id="_487485528" d="M3.982,1.3H18.217a1.942,1.942,0,0,1,2.014,1.848v29.6a1.942,1.942,0,0,1-2.014,1.848H3.982a1.942,1.942,0,0,1-2.014-1.848V3.146A1.942,1.942,0,0,1,3.982,1.3Z" transform="translate(5.475 2.159)" fill="#475059" fill-rule="evenodd"/>
    <path id="_487485168" d="M2.106,1.94H18.221V27.882H2.106Z" transform="translate(6.385 3.496)" fill="#e6e7e8" fill-rule="evenodd"/>
    <ellipse id="_487485120" cx="1.344" cy="1.344" rx="1.344" ry="1.344" transform="translate(15.108 32.671)" fill="#5a6570"/>
    <ellipse id="_487484328" cx="1.11" cy="1.11" rx="1.11" ry="1.11" transform="translate(15.34 32.905)" fill="#353b42"/>
    <g id="Group_33" data-name="Group 33" transform="translate(12.253 13.732)">
      <g id="Group_27" data-name="Group 27" transform="translate(9.799 0)">
        <g id="Group_17" data-name="Group 17" transform="translate(0.387 11.457)">
          <path id="_487484976" d="M10.046,4.431c2.9,0,5.318.813,5.914,1.9V7.37c-.6,1.086-3.017,1.9-5.914,1.9s-5.324-.815-5.916-1.9V6.334c.592-1.088,3.016-1.9,5.916-1.9Z" transform="translate(-4.13 -3.936)" fill="#e3b732" fill-rule="evenodd"/>
          <ellipse id="_487484904" cx="5.916" cy="2.363" rx="5.916" ry="2.363" fill="#fbd462"/>
        </g>
        <g id="Group_18" data-name="Group 18" transform="translate(0.387 10.154)">
          <path id="_487484496" d="M10.046,4.263c2.9,0,5.318.813,5.914,1.9V7.2c-.6,1.086-3.017,1.9-5.914,1.9S4.722,8.286,4.13,7.2V6.166c.592-1.088,3.016-1.9,5.916-1.9Z" transform="translate(-4.13 -3.768)" fill="#e3b732" fill-rule="evenodd"/>
          <ellipse id="_487484760" cx="5.916" cy="2.363" rx="5.916" ry="2.363" fill="#fbd462"/>
        </g>
        <g id="Group_19" data-name="Group 19" transform="translate(0.387 8.851)">
          <path id="_489329344" d="M10.046,4.1c2.9,0,5.318.813,5.914,1.9v1.04c-.6,1.086-3.017,1.9-5.914,1.9s-5.324-.815-5.916-1.9V6c.592-1.088,3.016-1.9,5.916-1.9Z" transform="translate(-4.13 -3.6)" fill="#e3b732" fill-rule="evenodd"/>
          <ellipse id="_489333424" cx="5.916" cy="2.363" rx="5.916" ry="2.363" fill="#fbd462"/>
        </g>
        <g id="Group_20" data-name="Group 20" transform="translate(0 7.548)">
          <path id="_489333208" d="M10,3.928c2.9,0,5.318.813,5.914,1.9v1.04c-.6,1.086-3.017,1.9-5.914,1.9s-5.324-.815-5.916-1.9V5.83C4.672,4.743,7.1,3.928,10,3.928Z" transform="translate(-4.08 -3.432)" fill="#e3b732" fill-rule="evenodd"/>
          <ellipse id="_489333016" cx="5.916" cy="2.363" rx="5.916" ry="2.363" fill="#fbd462"/>
        </g>
        <g id="Group_21" data-name="Group 21" transform="translate(0 6.245)">
          <path id="_489333040" d="M10,3.76c2.9,0,5.318.813,5.914,1.9V6.7c-.6,1.086-3.017,1.9-5.914,1.9s-5.324-.815-5.916-1.9V5.663C4.672,4.575,7.1,3.76,10,3.76Z" transform="translate(-4.08 -3.265)" fill="#e3b732" fill-rule="evenodd"/>
          <ellipse id="_489332944" cx="5.916" cy="2.363" rx="5.916" ry="2.363" fill="#fbd462"/>
        </g>
        <g id="Group_22" data-name="Group 22" transform="translate(0.387 4.942)">
          <path id="_489332728" d="M10.046,3.592c2.9,0,5.318.813,5.914,1.9v1.04c-.6,1.086-3.017,1.9-5.914,1.9s-5.324-.815-5.916-1.9V5.495c.592-1.088,3.016-1.9,5.916-1.9Z" transform="translate(-4.13 -3.097)" fill="#e3b732" fill-rule="evenodd"/>
          <ellipse id="_489332632" cx="5.916" cy="2.363" rx="5.916" ry="2.363" fill="#fbd462"/>
        </g>
        <g id="Group_23" data-name="Group 23" transform="translate(0.387 3.826)">
          <path id="_489332512" d="M10.046,3.448c2.9,0,5.318.813,5.914,1.9v1.04c-.6,1.086-3.017,1.9-5.914,1.9s-5.324-.815-5.916-1.9V5.351c.592-1.088,3.016-1.9,5.916-1.9Z" transform="translate(-4.13 -2.953)" fill="#e3b732" fill-rule="evenodd"/>
          <ellipse id="_489332320" cx="5.916" cy="2.363" rx="5.916" ry="2.363" fill="#fbd462"/>
        </g>
        <g id="Group_24" data-name="Group 24" transform="translate(0.763 2.861)">
          <path id="_489331984" d="M10.095,3.324c2.9,0,5.318.813,5.914,1.9v1.04c-.6,1.086-3.017,1.9-5.914,1.9s-5.324-.815-5.916-1.9V5.227c.592-1.088,3.016-1.9,5.916-1.9Z" transform="translate(-4.178 -2.829)" fill="#e3b732" fill-rule="evenodd"/>
          <ellipse id="_489331624" cx="5.916" cy="2.363" rx="5.916" ry="2.363" fill="#fbd462"/>
        </g>
        <g id="Group_25" data-name="Group 25" transform="translate(0.763 1.879)">
          <path id="_489331456" d="M10.095,3.2c2.9,0,5.318.813,5.914,1.9v1.04c-.6,1.086-3.017,1.9-5.914,1.9S4.77,7.22,4.178,6.132V5.1c.592-1.088,3.016-1.9,5.916-1.9Z" transform="translate(-4.178 -2.702)" fill="#e3b732" fill-rule="evenodd"/>
          <ellipse id="_489331840" cx="5.916" cy="2.363" rx="5.916" ry="2.363" fill="#fbd462"/>
        </g>
        <g id="Group_26" data-name="Group 26" transform="translate(0.387 0.992)">
          <path id="_489331744" d="M10.046,3.083c2.9,0,5.318.813,5.914,1.9v1.04c-.6,1.086-3.017,1.9-5.914,1.9s-5.324-.815-5.916-1.9V4.986c.592-1.088,3.016-1.9,5.916-1.9Z" transform="translate(-4.13 -2.588)" fill="#e3b732" fill-rule="evenodd"/>
          <ellipse id="_489330640" cx="5.916" cy="2.363" rx="5.916" ry="2.363" fill="#fbd462"/>
        </g>
        <path id="_489330976" d="M10.046,2.956c2.9,0,5.318.813,5.914,1.9v1.04c-.6,1.086-3.017,1.9-5.914,1.9S4.722,6.978,4.13,5.89V4.858c.592-1.088,3.016-1.9,5.916-1.9Z" transform="translate(-3.743 -2.46)" fill="#e3b732" fill-rule="evenodd"/>
        <ellipse id="_489330736" cx="5.916" cy="2.363" rx="5.916" ry="2.363" transform="translate(0.387)" fill="#fbd462"/>
        <ellipse id="_489330520" cx="3.863" cy="1.543" rx="3.863" ry="1.543" transform="translate(2.44 0.82)" fill="#e3b732"/>
        <path id="_489330760" d="M7.513,4.813a.431.431,0,0,0,.257-.2.191.191,0,0,0-.06-.225.579.579,0,0,0-.277-.138,1.642,1.642,0,0,0-.477-.024l.557.586ZM5.725,3.435a.422.422,0,0,0-.213.124.11.11,0,0,0,.005.151.413.413,0,0,0,.208.111,1.5,1.5,0,0,0,.385.044ZM7.038,4.907l-.578-.65a5.5,5.5,0,0,1-.635.009A2.793,2.793,0,0,1,5.311,4.2,1.024,1.024,0,0,1,4.7,3.862a.271.271,0,0,1,.08-.411,1.042,1.042,0,0,1,.3-.157A2.565,2.565,0,0,1,5.5,3.186l-.1-.108.406-.051.1.105a3.094,3.094,0,0,1,.788.024,1.6,1.6,0,0,1,.579.211l-.62.143a.981.981,0,0,0-.513-.133L6.6,3.85c.255-.015.474-.017.658-.01a2.5,2.5,0,0,1,.456.053,1.325,1.325,0,0,1,.6.295.451.451,0,0,1,.183.5.59.59,0,0,1-.2.257,1.756,1.756,0,0,1-.432.235l.318.337-.468.15-.3-.343a3.425,3.425,0,0,1-.6.075,2.852,2.852,0,0,1-.578-.038A1.827,1.827,0,0,1,5.3,4.934l.9-.264a1.166,1.166,0,0,0,.391.178,1.7,1.7,0,0,0,.444.059Z" transform="translate(-0.296 -1.977)" fill="#fbd462" fill-rule="evenodd"/>
      </g>
      <g id="Group_28" data-name="Group 28" transform="translate(0 11.738)">
        <path id="_489330568" d="M8.734,4.468c2.9,0,5.318.813,5.914,1.9v1.04c-.6,1.086-3.017,1.9-5.914,1.9S3.41,8.49,2.818,7.4V6.37c.592-1.088,3.016-1.9,5.916-1.9Z" transform="translate(-2.818 -3.972)" fill="#e3b732" fill-rule="evenodd"/>
        <ellipse id="_489330016" cx="5.916" cy="2.363" rx="5.916" ry="2.363" fill="#fbd462"/>
      </g>
      <g id="Group_29" data-name="Group 29" transform="translate(0 10.623)">
        <path id="_489330064" d="M8.734,4.324c2.9,0,5.318.813,5.914,1.9v1.04c-.6,1.086-3.017,1.9-5.914,1.9s-5.324-.815-5.916-1.9V6.226c.592-1.088,3.016-1.9,5.916-1.9Z" transform="translate(-2.818 -3.828)" fill="#e3b732" fill-rule="evenodd"/>
        <ellipse id="_489330160" cx="5.916" cy="2.363" rx="5.916" ry="2.363" fill="#fbd462"/>
      </g>
      <g id="Group_30" data-name="Group 30" transform="translate(0.377 9.657)">
        <path id="_489330232" d="M8.783,4.2c2.9,0,5.318.813,5.914,1.9v1.04c-.6,1.086-3.017,1.9-5.914,1.9s-5.324-.815-5.916-1.9V6.1c.592-1.088,3.016-1.9,5.916-1.9Z" transform="translate(-2.866 -3.704)" fill="#e3b732" fill-rule="evenodd"/>
        <ellipse id="_489329296" cx="5.916" cy="2.363" rx="5.916" ry="2.363" fill="#fbd462"/>
      </g>
      <g id="Group_31" data-name="Group 31" transform="translate(0.377 8.675)">
        <path id="_489329392" d="M8.783,4.073c2.9,0,5.318.813,5.914,1.9v1.04c-.6,1.086-3.017,1.9-5.914,1.9S3.458,8.1,2.867,7.008V5.976c.592-1.088,3.016-1.9,5.916-1.9Z" transform="translate(-2.866 -3.577)" fill="#e3b732" fill-rule="evenodd"/>
        <ellipse id="_489329632" cx="5.916" cy="2.363" rx="5.916" ry="2.363" fill="#fbd462"/>
      </g>
      <g id="Group_32" data-name="Group 32" transform="translate(0 7.788)">
        <path id="_489329608" d="M8.734,3.959c2.9,0,5.318.813,5.914,1.9V6.9c-.6,1.086-3.017,1.9-5.914,1.9s-5.324-.815-5.916-1.9V5.861c.592-1.088,3.016-1.9,5.916-1.9Z" transform="translate(-2.818 -3.463)" fill="#e3b732" fill-rule="evenodd"/>
        <ellipse id="_489329320" cx="5.916" cy="2.363" rx="5.916" ry="2.363" fill="#fbd462"/>
      </g>
      <path id="_489328408" d="M8.734,3.831c2.9,0,5.318.813,5.914,1.9V6.77c-.6,1.086-3.017,1.9-5.914,1.9s-5.324-.815-5.916-1.9V5.734c.592-1.088,3.016-1.9,5.916-1.9Z" transform="translate(-2.818 3.461)" fill="#e3b732" fill-rule="evenodd"/>
      <ellipse id="_489328264" cx="5.916" cy="2.363" rx="5.916" ry="2.363" transform="translate(0 6.796)" fill="#fbd462"/>
      <ellipse id="_489328792" cx="3.863" cy="1.543" rx="3.863" ry="1.543" transform="translate(2.053 7.616)" fill="#e3b732"/>
      <path id="_489328168" d="M6.2,5.688a.431.431,0,0,0,.257-.2.191.191,0,0,0-.06-.225.579.579,0,0,0-.277-.138A1.642,1.642,0,0,0,5.644,5.1l.557.586ZM4.413,4.31a.422.422,0,0,0-.213.124.11.11,0,0,0,.005.151.413.413,0,0,0,.208.111,1.5,1.5,0,0,0,.385.044ZM5.726,5.783l-.578-.65a5.506,5.506,0,0,1-.635.009A2.792,2.792,0,0,1,4,5.073a1.023,1.023,0,0,1-.608-.336.271.271,0,0,1,.08-.411,1.043,1.043,0,0,1,.3-.157,2.558,2.558,0,0,1,.422-.108l-.1-.108L4.5,3.9l.1.105a3.094,3.094,0,0,1,.788.023,1.6,1.6,0,0,1,.579.211l-.62.143a.981.981,0,0,0-.513-.133l.452.473c.255-.015.474-.017.658-.01a2.5,2.5,0,0,1,.456.053,1.325,1.325,0,0,1,.6.295.451.451,0,0,1,.183.5.59.59,0,0,1-.2.257,1.759,1.759,0,0,1-.432.235l.318.337-.468.15L6.1,6.2a3.424,3.424,0,0,1-.6.075,2.853,2.853,0,0,1-.578-.038,1.826,1.826,0,0,1-.928-.428l.9-.264a1.167,1.167,0,0,0,.391.178,1.7,1.7,0,0,0,.444.059Z" transform="translate(0.629 3.944)" fill="#fbd462" fill-rule="evenodd"/>
    </g>
    <g id="Group_34" data-name="Group 34" transform="translate(11.345 10.032)">
      <rect id="_489328432" width="10.302" height="0.687" transform="translate(0 9.251)" fill="#2196f3"/>
      <path id="_489328864" d="M3.446,3.077a.86.86,0,1,1-.608.252A.857.857,0,0,1,3.446,3.077Z" transform="translate(-1.763 3.033)" fill="#64b5f6"/>
      <path id="_489327664" d="M7.338,5.463l1.6-2.774.005.005a1.105,1.105,0,0,0,.407.259L7.772,5.69A1.1,1.1,0,0,0,7.338,5.463ZM4.821,4.648l0,0,0,0,.119.069,1.687.974a1.1,1.1,0,0,0-.254.418l-1.555-.9h0l0,0L3.059,6.231A1.105,1.105,0,0,0,2.833,5.9q-.035-.035-.072-.066L4.7,4.716l.118-.068Z" transform="translate(-0.582 0.408)" fill="#eb533a"/>
      <path id="_489327592" d="M4.383,2.509a.86.86,0,1,1-.608.252A.857.857,0,0,1,4.383,2.509Z" transform="translate(4.572 -0.813)" fill="#64b5f6"/>
      <path id="_489328072" d="M4.079,3.045a.86.86,0,1,1-.608.252A.857.857,0,0,1,4.079,3.045Z" transform="translate(2.519 2.819)" fill="#64b5f6"/>
      <rect id="_489327952" width="10.302" height="0.687" fill="#2196f3"/>
    </g>
    <rect id="_489328120" width="5.781" height="0.342" rx="0.171" transform="translate(13.577 6.062)" fill="#333a42"/>
  </g>
</svg>
