<svg id="Layer_x0020_1" xmlns="http://www.w3.org/2000/svg" width="50" height="50" viewBox="0 0 50 50">
  <rect id="Rectangle_19" data-name="Rectangle 19" width="50" height="50" fill="none"/>
  <rect id="Rectangle_20" data-name="Rectangle 20" width="35.877" height="35.877" transform="translate(7.061 7.015)" fill="none"/>
  <path id="Path_8" data-name="Path 8" d="M29.432,1.3a2.759,2.759,0,0,1,.594,1.746V35.581a2.759,2.759,0,0,1-.594,1.745,1.868,1.868,0,0,1-1.328.72l-24.8,0a1.849,1.849,0,0,1-1.425-.723,2.759,2.759,0,0,1-.594-1.746V3.05A2.759,2.759,0,0,1,1.879,1.3,1.849,1.849,0,0,1,3.3.581h24.7a1.849,1.849,0,0,1,1.425.723Z" transform="translate(9.345 4.229)" fill="#d2d3d5" fill-rule="evenodd"/>
  <path id="Path_9" data-name="Path 9" d="M28.729,1.354a2.748,2.748,0,0,1,.579,1.723V35.184a2.747,2.747,0,0,1-.579,1.723,1.811,1.811,0,0,1-1.292.711l-24.141,0a1.792,1.792,0,0,1-1.387-.714,2.748,2.748,0,0,1-.579-1.723V3.077a2.748,2.748,0,0,1,.578-1.723A1.791,1.791,0,0,1,3.3.64H27.342a1.791,1.791,0,0,1,1.387.714Z" transform="translate(9.681 4.656)" fill="#e6e7e8" fill-rule="evenodd"/>
  <path id="Path_10" data-name="Path 10" d="M3.673,4.587H18.509a.552.552,0,0,1,.376.141.451.451,0,0,1,.149.336V8.635a.451.451,0,0,1-.149.336.553.553,0,0,1-.377.141H15.391V10.1h-8.6V9.11H3.673A.553.553,0,0,1,3.3,8.969a.451.451,0,0,1-.149-.336V5.063A.451.451,0,0,1,3.3,4.727a.553.553,0,0,1,.377-.141Z" transform="translate(18.731 28.535)" fill="#3f4a5a" fill-rule="evenodd"/>
  <rect id="Rectangle_21" data-name="Rectangle 21" width="12.923" height="1.298" transform="translate(23.423 35.049)" fill="#313b4a"/>
  <path id="Path_11" data-name="Path 11" d="M12.3,4.85v7.916a.9.9,0,0,1-.9.9H4.475a.9.9,0,0,1-.9-.9V4.85H12.3Z" transform="translate(22.018 28.79)" fill="#2d404e" fill-rule="evenodd"/>
  <path id="Path_12" data-name="Path 12" d="M5.825,13.662H3.956V4.85H5.825Z" transform="translate(24.892 28.79)" fill="#cccaca" fill-rule="evenodd"/>
  <path id="Path_13" data-name="Path 13" d="M3.693,6.229A.826.826,0,1,0,4.519,5.4.826.826,0,0,0,3.693,6.229Z" transform="translate(23.248 24.775)" fill="#f2b643" fill-rule="evenodd"/>
  <path id="Path_14" data-name="Path 14" d="M3.693,6.39a.826.826,0,1,1,.826.826A.826.826,0,0,1,3.693,6.39Z" transform="translate(23.248 33.989)" fill="#df584c" fill-rule="evenodd"/>
  <path id="Path_15" data-name="Path 15" d="M1.707,2.388a1.377,1.377,0,0,1,.424-.993,1.419,1.419,0,0,1,.988-.4H28.54a1.42,1.42,0,0,1,.988.4,1.377,1.377,0,0,1,.424.993v9.8a1.382,1.382,0,0,1-.427,1,1.414,1.414,0,0,1-.984.4H3.118a1.414,1.414,0,0,1-.984-.4,1.382,1.382,0,0,1-.427-1v-9.8Z" transform="translate(9.171 7.226)" fill="#6bc7d9" fill-rule="evenodd"/>
  <path id="Path_16" data-name="Path 16" d="M1.813,2.394a1.3,1.3,0,0,1,.411-.945,1.388,1.388,0,0,1,.957-.382H27.812a1.388,1.388,0,0,1,.957.382,1.3,1.3,0,0,1,.411.945v9.328a1.3,1.3,0,0,1-.414.948,1.383,1.383,0,0,1-.954.379H3.18a1.383,1.383,0,0,1-.954-.379,1.3,1.3,0,0,1-.414-.948V2.394Z" transform="translate(9.845 6.473)" fill="#9de8f7" fill-rule="evenodd"/>
  <path id="Path_17" data-name="Path 17" d="M6.621,5.842a.448.448,0,0,1-.449.447H3.543a.448.448,0,0,1-.449-.447V3.222a.448.448,0,0,1,.449-.447H6.172a.448.448,0,0,1,.449.447Z" transform="translate(19.37 17.378)" fill="#f67656" fill-rule="evenodd"/>
  <path id="Path_18" data-name="Path 18" d="M7.154,5.842a.448.448,0,0,1-.449.447H4.076a.448.448,0,0,1-.449-.447V3.222a.448.448,0,0,1,.449-.447H6.705a.448.448,0,0,1,.449.447Z" transform="translate(22.709 17.378)" fill="#9e9e9e" fill-rule="evenodd"/>
  <path id="Path_19" data-name="Path 19" d="M7.687,5.842a.448.448,0,0,1-.449.447H4.609a.448.448,0,0,1-.449-.447V3.222a.448.448,0,0,1,.449-.447H7.239a.448.448,0,0,1,.449.447Z" transform="translate(26.048 17.378)" fill="#9e9e9e" fill-rule="evenodd"/>
  <path id="Path_20" data-name="Path 20" d="M8.221,5.842a.448.448,0,0,1-.449.447H5.143a.448.448,0,0,1-.449-.447V3.222a.448.448,0,0,1,.449-.447H7.772a.448.448,0,0,1,.449.447Z" transform="translate(29.387 17.378)" fill="#f67656" fill-rule="evenodd"/>
  <path id="Path_21" data-name="Path 21" d="M6.621,6.427a.448.448,0,0,1-.449.447H3.543a.448.448,0,0,1-.449-.447V3.808a.448.448,0,0,1,.449-.447H6.172a.448.448,0,0,1,.449.447Z" transform="translate(19.37 21.044)" fill="#9e9e9e" fill-rule="evenodd"/>
  <path id="Path_22" data-name="Path 22" d="M7.154,6.427a.448.448,0,0,1-.449.447H4.076a.448.448,0,0,1-.449-.447V3.808a.448.448,0,0,1,.449-.447H6.705a.448.448,0,0,1,.449.447Z" transform="translate(22.709 21.044)" fill="#f67656" fill-rule="evenodd"/>
  <path id="Path_23" data-name="Path 23" d="M7.687,6.427a.448.448,0,0,1-.449.447H4.609a.448.448,0,0,1-.449-.447V3.808a.448.448,0,0,1,.449-.447H7.239a.448.448,0,0,1,.449.447Z" transform="translate(26.048 21.044)" fill="#9e9e9e" fill-rule="evenodd"/>
  <path id="Path_24" data-name="Path 24" d="M8.221,6.427a.448.448,0,0,1-.449.447H5.143a.448.448,0,0,1-.449-.447V3.808a.448.448,0,0,1,.449-.447H7.772a.448.448,0,0,1,.449.447Z" transform="translate(29.387 21.044)" fill="#9e9e9e" fill-rule="evenodd"/>
  <path id="Path_25" data-name="Path 25" d="M6.621,7.013a.448.448,0,0,1-.449.447H3.543a.448.448,0,0,1-.449-.447V4.394a.448.448,0,0,1,.449-.447H6.172a.448.448,0,0,1,.449.447Z" transform="translate(19.37 24.711)" fill="#9e9e9e" fill-rule="evenodd"/>
  <path id="Path_26" data-name="Path 26" d="M7.154,7.013a.448.448,0,0,1-.449.447H4.076a.448.448,0,0,1-.449-.447V4.394a.448.448,0,0,1,.449-.447H6.705a.448.448,0,0,1,.449.447Z" transform="translate(22.709 24.711)" fill="#9e9e9e" fill-rule="evenodd"/>
  <path id="Path_27" data-name="Path 27" d="M7.687,7.013a.448.448,0,0,1-.449.447H4.609a.448.448,0,0,1-.449-.447V4.394a.448.448,0,0,1,.449-.447H7.239a.448.448,0,0,1,.449.447Z" transform="translate(26.048 24.711)" fill="#9e9e9e" fill-rule="evenodd"/>
  <path id="Path_28" data-name="Path 28" d="M8.221,7.013a.448.448,0,0,1-.449.447H5.143a.448.448,0,0,1-.449-.447V4.394a.448.448,0,0,1,.449-.447H7.772a.448.448,0,0,1,.449.447Z" transform="translate(29.387 24.711)" fill="#f67656" fill-rule="evenodd"/>
  <path id="Path_29" data-name="Path 29" d="M11.669,7.743c0,.393-.216.712-.483.712h-9c-.267,0-.483-.319-.483-.712V4A.482.482,0,0,1,2.19,3.52h9A.482.482,0,0,1,11.669,4Z" transform="translate(10.447 21.941)" fill="#9e9e9e" fill-rule="evenodd"/>
  <rect id="Rectangle_22" data-name="Rectangle 22" width="8.075" height="0.602" transform="translate(13.047 27.737)" fill="#616161"/>
  <path id="Path_30" data-name="Path 30" d="M1.85,3.123l.508-.883.516.883.5-.883.51.883.5-.883.516.883.5-.883.522.883.5-.883.518.883.487-.883.524.883.48-.883.519.883.512-.883V15.48H1.85Z" transform="translate(11.423 13.514)" fill="#fefefe" fill-rule="evenodd"/>
  <path id="Path_31" data-name="Path 31" d="M1.938,2.425H8.068V2.7H1.938Z" transform="translate(12.035 15.322)" fill="#d2d3d5"/>
  <path id="Path_32" data-name="Path 32" d="M1.938,2.577H8.068v.276H1.938Z" transform="translate(12.035 16.283)" fill="#d2d3d5"/>
  <path id="Path_33" data-name="Path 33" d="M1.938,2.729H8.068V3H1.938Z" transform="translate(12.035 17.244)" fill="#d2d3d5"/>
  <path id="Path_34" data-name="Path 34" d="M1.938,2.881H8.068v.276H1.938Z" transform="translate(12.035 18.204)" fill="#d2d3d5"/>
  <path id="Path_35" data-name="Path 35" d="M1.938,3.033H8.068v.276H1.938Z" transform="translate(12.035 19.165)" fill="#d2d3d5"/>
  <path id="Path_36" data-name="Path 36" d="M1.938,3.185H8.068v.276H1.938Z" transform="translate(12.035 20.126)" fill="#d2d3d5"/>
  <path id="Path_37" data-name="Path 37" d="M1.938,3.337H8.068v.276H1.938Z" transform="translate(12.035 21.086)" fill="#d2d3d5"/>
  <path id="Path_38" data-name="Path 38" d="M1.938,3.489H8.068v.276H1.938Z" transform="translate(12.035 22.047)" fill="#d2d3d5"/>
  <ellipse id="Ellipse_1" data-name="Ellipse 1" cx="0.338" cy="0.338" rx="0.338" ry="0.338" transform="translate(14.281 26.606)" fill="#d2d3d5"/>
  <ellipse id="Ellipse_2" data-name="Ellipse 2" cx="0.338" cy="0.338" rx="0.338" ry="0.338" transform="translate(15.224 26.606)" fill="#d2d3d5"/>
  <ellipse id="Ellipse_3" data-name="Ellipse 3" cx="0.338" cy="0.338" rx="0.338" ry="0.338" transform="translate(16.166 26.606)" fill="#d2d3d5"/>
  <ellipse id="Ellipse_4" data-name="Ellipse 4" cx="0.338" cy="0.338" rx="0.338" ry="0.338" transform="translate(17.109 26.606)" fill="#d2d3d5"/>
  <ellipse id="Ellipse_5" data-name="Ellipse 5" cx="0.338" cy="0.338" rx="0.338" ry="0.338" transform="translate(18.051 26.606)" fill="#d2d3d5"/>
  <ellipse id="Ellipse_6" data-name="Ellipse 6" cx="0.338" cy="0.338" rx="0.338" ry="0.338" transform="translate(18.994 26.606)" fill="#d2d3d5"/>
</svg>
