<svg xmlns="http://www.w3.org/2000/svg" width="38.999" height="40" viewBox="0 0 38.999 40">
  <g id="Group_186" data-name="Group 186" transform="translate(-42 -422)">
    <path id="Path_201" data-name="Path 201" d="M61.776,448.526l7.437-5.248a6.959,6.959,0,0,0,2.973-5.682V426.8a.335.335,0,0,0-.2-.306L61.56,422.028a.34.34,0,0,0-.269,0l-10.424,4.466a.335.335,0,0,0-.2.306v10.8a6.959,6.959,0,0,0,2.974,5.682l7.437,5.248A.609.609,0,0,0,61.776,448.526Z" fill="#44c4a1"/>
    <path id="Path_202" data-name="Path 202" d="M55.2,441.106a4.316,4.316,0,0,1-1.843-3.51v-9.262l8.07-3.456,8.07,3.456V437.6a4.316,4.316,0,0,1-1.843,3.51L61.426,445.5Z" fill="#cdf0e7"/>
    <path id="Path_203" data-name="Path 203" d="M59.886,439.4a.68.68,0,0,1-.4-.133l-3.074-2.286a.664.664,0,0,1,.139-1.146.676.676,0,0,1,.668.079l2.556,1.9,5.741-7.115a.677.677,0,0,1,.946-.1.663.663,0,0,1,.106.937l-6.149,7.617A.671.671,0,0,1,59.886,439.4Z" fill="#333"/>
    <path id="Path_204" data-name="Path 204" d="M50.952,450.492l-3.072-3.046a7.262,7.262,0,0,1-1.553-2.274l-1.505-3.479a1.475,1.475,0,0,0-2.588-.214,1.447,1.447,0,0,0-.1,1.392l2.636,5.748a6.466,6.466,0,0,0,1.324,1.894l4.862,4.82h6.513v-1.907a6.267,6.267,0,0,0-1.326-3.95,4.2,4.2,0,0,0-1.929-1.4,14.43,14.43,0,0,1-4.071-2.572,2.425,2.425,0,0,0-3.254.15" fill="#f7caa5"/>
    <path id="Path_205" data-name="Path 205" d="M72.046,450.492l3.073-3.046a7.264,7.264,0,0,0,1.553-2.274l1.506-3.479a1.476,1.476,0,0,1,2.588-.214,1.448,1.448,0,0,1,.1,1.392l-2.635,5.748a6.466,6.466,0,0,1-1.324,1.894l-4.863,4.82H65.534v-1.907a6.268,6.268,0,0,1,1.327-3.95,4.2,4.2,0,0,1,1.929-1.4,14.423,14.423,0,0,0,4.07-2.572,2.427,2.427,0,0,1,3.254.15" fill="#f7caa5"/>
    <path id="Path_206" data-name="Path 206" d="M64.862,462h7.4a.669.669,0,0,0,.673-.667V456a.67.67,0,0,0-.673-.667h-7.4a.67.67,0,0,0-.673.667v5.333A.669.669,0,0,0,64.862,462Z" fill="#00acea"/>
    <path id="Path_207" data-name="Path 207" d="M67.552,459.333H66.88a.667.667,0,1,1,0-1.333h.673a.667.667,0,1,1,0,1.333Z" fill="#fcd462"/>
    <path id="Path_208" data-name="Path 208" d="M58.137,455.333h-7.4a.67.67,0,0,0-.673.667v5.333a.669.669,0,0,0,.673.667h7.4a.669.669,0,0,0,.672-.667V456A.67.67,0,0,0,58.137,455.333Z" fill="#00acea"/>
    <path id="Path_209" data-name="Path 209" d="M56.12,459.333h-.673a.667.667,0,1,1,0-1.333h.673a.667.667,0,1,1,0,1.333Z" fill="#fcd462"/>
    <path id="Path_210" data-name="Path 210" d="M52.031,450.66a.686.686,0,0,1-.955,0L48,447.613a7.946,7.946,0,0,1-1.17-1.473c-.06-.1-.114-.193-.168-.293l.256-.234a2.331,2.331,0,0,1,.854-.54,6.538,6.538,0,0,0,1.184,1.6l3.073,3.04A.668.668,0,0,1,52.031,450.66Z" fill="#edb288"/>
    <path id="Path_211" data-name="Path 211" d="M71.022,450.66a.686.686,0,0,0,.955,0l3.073-3.047a7.947,7.947,0,0,0,1.17-1.473c.061-.1.114-.193.168-.293l-.255-.234a2.331,2.331,0,0,0-.854-.54,6.541,6.541,0,0,1-1.184,1.6l-3.073,3.04A.668.668,0,0,0,71.022,450.66Z" fill="#edb288"/>
  </g>
</svg>
