<svg id="Group_223" data-name="Group 223" xmlns="http://www.w3.org/2000/svg" width="95" height="95" viewBox="0 0 95 95">
  <circle id="Ellipse_9" data-name="Ellipse 9" cx="47.5" cy="47.5" r="47.5" fill="#03a000"/>
  <path id="Path_384" data-name="Path 384" d="M37.352,69.162,19.738,51.78a2.775,2.775,0,0,1,0-3.77l3.9-3.77a2.3,2.3,0,0,1,1.793-.838,2.748,2.748,0,0,1,2,.838L39.25,55.969,64.563,30.838a2.632,2.632,0,0,1,1.9-.838,2.415,2.415,0,0,1,1.9.838l3.9,3.77a2.775,2.775,0,0,1,0,3.77L41.148,69.162a2.57,2.57,0,0,1-3.8,0Z" fill="#fff"/>
</svg>
