<svg xmlns="http://www.w3.org/2000/svg" width="45" height="40" viewBox="0 0 45 40">
  <g id="Group_177" data-name="Group 177" transform="translate(-40 -182)">
    <path id="Path_160" data-name="Path 160" d="M83.783,198.308l-2.919-3.2H43.5a3.508,3.508,0,0,1,0-7.016H80.28a3.506,3.506,0,0,1,3.5,3.508Z" fill="#f6c358"/>
    <path id="Path_161" data-name="Path 161" d="M42.251,201.048l18.668-18.7a1.2,1.2,0,0,1,1.7,0L72.8,192.55a1.2,1.2,0,0,1,0,1.7l-18.668,18.7a1.2,1.2,0,0,1-1.7,0l-10.182-10.2A1.2,1.2,0,0,1,42.251,201.048Z" fill="#44c4a1"/>
    <path id="Path_162" data-name="Path 162" d="M63.657,186.794l4.706,4.713a2.679,2.679,0,0,0,0,3.785L55.171,208.5a2.67,2.67,0,0,0-3.779,0l-4.706-4.713a2.679,2.679,0,0,0,0-3.785l13.191-13.211A2.67,2.67,0,0,0,63.657,186.794Z" fill="#3ea69b"/>
    <path id="Path_163" data-name="Path 163" d="M50.911,204.489l18.668-18.7a1.2,1.2,0,0,1,1.7,0l10.182,10.2a1.2,1.2,0,0,1,0,1.7l-18.668,18.7a1.2,1.2,0,0,1-1.7,0l-10.182-10.2A1.2,1.2,0,0,1,50.911,204.489Z" fill="#44c4a1"/>
    <path id="Path_164" data-name="Path 164" d="M72.316,190.235l4.706,4.713a2.679,2.679,0,0,0,0,3.785L63.831,211.945a2.668,2.668,0,0,0-3.779,0l-4.706-4.713a2.679,2.679,0,0,0,0-3.785l13.191-13.212A2.668,2.668,0,0,0,72.316,190.235Z" fill="#3ea69b"/>
    <path id="Path_165" data-name="Path 165" d="M40,191.6v26.894A3.506,3.506,0,0,0,43.5,222H80.28a3.506,3.506,0,0,0,3.5-3.508V198.029a2.921,2.921,0,0,0-2.919-2.923H43.5A3.506,3.506,0,0,1,40,191.6Z" fill="#fcd462"/>
    <path id="Path_166" data-name="Path 166" d="M83.8,212.646H75.247l-2.1-2.1v-3.984l2.1-2.1H83.8a1.2,1.2,0,0,1,1.2,1.2v5.782A1.2,1.2,0,0,1,83.8,212.646Z" fill="#27a2db"/>
    <path id="Path_167" data-name="Path 167" d="M80.3,208.551a2.332,2.332,0,0,1-1.781,2.268,2.142,2.142,0,0,1-.555.071,2.339,2.339,0,0,1,0-4.678,2.141,2.141,0,0,1,.555.071A2.332,2.332,0,0,1,80.3,208.551Z" fill="#d5d6db"/>
    <path id="Path_168" data-name="Path 168" d="M80.3,208.551a2.332,2.332,0,0,1-1.781,2.268,2.337,2.337,0,0,1,0-4.537A2.334,2.334,0,0,1,80.3,208.551Z" fill="#e1e6e9"/>
  </g>
</svg>
