<svg width="48" height="48" viewBox="0 0 48 48" fill="none" xmlns="http://www.w3.org/2000/svg">
<circle cx="24" cy="24" r="24" fill="" fill-opacity="0.02"/>
<path d="M8.4 36H21.6C21.9419 35.9989 22.2796 35.9243 22.5902 35.7813C22.9008 35.6382 23.1769 35.43 23.4 35.1709C23.6231 35.43 23.8992 35.6382 24.2098 35.7813C24.5204 35.9243 24.8581 35.9989 25.2 36H38.4C39.0365 36 39.647 35.7472 40.0971 35.2971C40.5471 34.847 40.8 34.2366 40.8 33.6V28.8C41.1183 28.8 41.4235 28.6736 41.6485 28.4486C41.8736 28.2235 42 27.9183 42 27.6V26.4C42 26.0818 41.8736 25.7766 41.6485 25.5515C41.4235 25.3265 41.1183 25.2 40.8 25.2V24C41.1183 24 41.4235 23.8736 41.6485 23.6486C41.8736 23.4235 42 23.1183 42 22.8V21.6C42 21.2818 41.8736 20.9766 41.6485 20.7515C41.4235 20.5265 41.1183 20.4 40.8 20.4V19.2C41.1183 19.2 41.4235 19.0736 41.6485 18.8486C41.8736 18.6235 42 18.3183 42 18V16.8C42 16.4818 41.8736 16.1766 41.6485 15.9515C41.4235 15.7265 41.1183 15.6 40.8 15.6V14.4C40.8 13.7635 40.5471 13.1531 40.0971 12.703C39.647 12.2529 39.0365 12 38.4 12H31.0896C30.966 11.6503 30.7373 11.3473 30.4348 11.1325C30.1324 10.9177 29.771 10.8016 29.4 10.8H27C26.629 10.8016 26.2676 10.9177 25.9652 11.1325C25.6627 11.3473 25.434 11.6503 25.3104 12H25.2C24.8581 12.0012 24.5204 12.0758 24.2098 12.2188C23.8992 12.3619 23.6231 12.5701 23.4 12.8292C23.1769 12.5701 22.9008 12.3619 22.5902 12.2188C22.2796 12.0758 21.9419 12.0012 21.6 12H8.4C7.76348 12 7.15303 12.2529 6.70294 12.703C6.25286 13.1531 6 13.7635 6 14.4L6 33.6C6 34.2366 6.25286 34.847 6.70294 35.2971C7.15303 35.7472 7.76348 36 8.4 36ZM40.8 27.6H36V26.4H40.8V27.6ZM40.8 22.8H36V21.6H40.8V22.8ZM40.8 18H36V16.8H40.8V18ZM26.4 12.6C26.4 12.4409 26.4632 12.2883 26.5757 12.1758C26.6883 12.0633 26.8409 12 27 12H29.4C29.5591 12 29.7117 12.0633 29.8243 12.1758C29.9368 12.2883 30 12.4409 30 12.6L30.0042 24H30L29.0484 23.0484C28.8234 22.8235 28.5182 22.6971 28.2 22.6971C27.8818 22.6971 27.5766 22.8235 27.3516 23.0484L26.4 24V12.6ZM25.2 13.2V24C25.2001 24.2373 25.2705 24.4693 25.4023 24.6666C25.5342 24.8639 25.7216 25.0177 25.9408 25.1085C26.1601 25.1993 26.4013 25.223 26.634 25.1767C26.8668 25.1305 27.0806 25.0162 27.2484 24.8484L28.2 23.8956L29.1516 24.8472C29.3193 25.0149 29.533 25.1292 29.7657 25.1755C29.9983 25.2218 30.2394 25.1981 30.4586 25.1075C30.6778 25.0168 30.8652 24.8633 30.9972 24.6661C31.1291 24.469 31.1997 24.2372 31.2 24V13.2H38.4C38.7183 13.2 39.0235 13.3265 39.2485 13.5515C39.4736 13.7766 39.6 14.0818 39.6 14.4V15.6H36C35.6817 15.6 35.3765 15.7265 35.1515 15.9515C34.9264 16.1766 34.8 16.4818 34.8 16.8V18C34.8 18.3183 34.9264 18.6235 35.1515 18.8486C35.3765 19.0736 35.6817 19.2 36 19.2H39.6V20.4H36C35.6817 20.4 35.3765 20.5265 35.1515 20.7515C34.9264 20.9766 34.8 21.2818 34.8 21.6V22.8C34.8 23.1183 34.9264 23.4235 35.1515 23.6486C35.3765 23.8736 35.6817 24 36 24H39.6V25.2H36C35.6817 25.2 35.3765 25.3265 35.1515 25.5515C34.9264 25.7766 34.8 26.0818 34.8 26.4V27.6C34.8 27.9183 34.9264 28.2235 35.1515 28.4486C35.3765 28.6736 35.6817 28.8 36 28.8H39.6V33.6C39.6 33.9183 39.4736 34.2235 39.2485 34.4486C39.0235 34.6736 38.7183 34.8 38.4 34.8H25.2C24.8817 34.8 24.5765 34.6736 24.3515 34.4486C24.1264 34.2235 24 33.9183 24 33.6V14.4C24 14.0818 24.1264 13.7766 24.3515 13.5515C24.5765 13.3265 24.8817 13.2 25.2 13.2ZM7.2 14.4C7.2 14.0818 7.32643 13.7766 7.55147 13.5515C7.77652 13.3265 8.08174 13.2 8.4 13.2H21.6C21.9183 13.2 22.2235 13.3265 22.4485 13.5515C22.6736 13.7766 22.8 14.0818 22.8 14.4V33.6C22.8 33.9183 22.6736 34.2235 22.4485 34.4486C22.2235 34.6736 21.9183 34.8 21.6 34.8H8.4C8.08174 34.8 7.77652 34.6736 7.55147 34.4486C7.32643 34.2235 7.2 33.9183 7.2 33.6V14.4Z" />
<path d="M15.6 16.8001H16.2C16.3591 16.8001 16.5117 16.7369 16.6243 16.6244C16.7368 16.5118 16.8 16.3592 16.8 16.2001C16.8 16.041 16.7368 15.8884 16.6243 15.7758C16.5117 15.6633 16.3591 15.6001 16.2 15.6001H15.6C15.4409 15.6001 15.2883 15.6633 15.1757 15.7758C15.0632 15.8884 15 16.041 15 16.2001C15 16.3592 15.0632 16.5118 15.1757 16.6244C15.2883 16.7369 15.4409 16.8001 15.6 16.8001Z" />
<path d="M18.6 16.8001H21C21.1591 16.8001 21.3117 16.7369 21.4243 16.6244C21.5368 16.5118 21.6 16.3592 21.6 16.2001C21.6 16.041 21.5368 15.8884 21.4243 15.7758C21.3117 15.6633 21.1591 15.6001 21 15.6001H18.6C18.4409 15.6001 18.2883 15.6633 18.1757 15.7758C18.0632 15.8884 18 16.041 18 16.2001C18 16.3592 18.0632 16.5118 18.1757 16.6244C18.2883 16.7369 18.4409 16.8001 18.6 16.8001Z" />
<path d="M15.6 19.2H16.2C16.3591 19.2 16.5117 19.1368 16.6243 19.0243C16.7368 18.9117 16.8 18.7591 16.8 18.6C16.8 18.4409 16.7368 18.2883 16.6243 18.1757C16.5117 18.0632 16.3591 18 16.2 18H15.6C15.4409 18 15.2883 18.0632 15.1757 18.1757C15.0632 18.2883 15 18.4409 15 18.6C15 18.7591 15.0632 18.9117 15.1757 19.0243C15.2883 19.1368 15.4409 19.2 15.6 19.2Z" />
<path d="M18.6 19.2H21C21.1591 19.2 21.3117 19.1368 21.4243 19.0243C21.5368 18.9117 21.6 18.7591 21.6 18.6C21.6 18.4409 21.5368 18.2883 21.4243 18.1757C21.3117 18.0632 21.1591 18 21 18H18.6C18.4409 18 18.2883 18.0632 18.1757 18.1757C18.0632 18.2883 18 18.4409 18 18.6C18 18.7591 18.0632 18.9117 18.1757 19.0243C18.2883 19.1368 18.4409 19.2 18.6 19.2Z" />
<path d="M15.6 21.6H16.2C16.3591 21.6 16.5117 21.5368 16.6243 21.4243C16.7368 21.3118 16.8 21.1592 16.8 21C16.8 20.8409 16.7368 20.6883 16.6243 20.5758C16.5117 20.4632 16.3591 20.4 16.2 20.4H15.6C15.4409 20.4 15.2883 20.4632 15.1757 20.5758C15.0632 20.6883 15 20.8409 15 21C15 21.1592 15.0632 21.3118 15.1757 21.4243C15.2883 21.5368 15.4409 21.6 15.6 21.6Z" />
<path d="M18.6 21.6H21C21.1591 21.6 21.3117 21.5368 21.4243 21.4243C21.5368 21.3118 21.6 21.1592 21.6 21C21.6 20.8409 21.5368 20.6883 21.4243 20.5758C21.3117 20.4632 21.1591 20.4 21 20.4H18.6C18.4409 20.4 18.2883 20.4632 18.1757 20.5758C18.0632 20.6883 18 20.8409 18 21C18 21.1592 18.0632 21.3118 18.1757 21.4243C18.2883 21.5368 18.4409 21.6 18.6 21.6Z" />
<path d="M15.6 24H16.2C16.3591 24 16.5117 23.9368 16.6243 23.8243C16.7368 23.7118 16.8 23.5592 16.8 23.4C16.8 23.2409 16.7368 23.0883 16.6243 22.9758C16.5117 22.8633 16.3591 22.8 16.2 22.8H15.6C15.4409 22.8 15.2883 22.8633 15.1757 22.9758C15.0632 23.0883 15 23.2409 15 23.4C15 23.5592 15.0632 23.7118 15.1757 23.8243C15.2883 23.9368 15.4409 24 15.6 24Z" />
<path d="M18.6 24H21C21.1591 24 21.3117 23.9368 21.4243 23.8243C21.5368 23.7118 21.6 23.5592 21.6 23.4C21.6 23.2409 21.5368 23.0883 21.4243 22.9758C21.3117 22.8633 21.1591 22.8 21 22.8H18.6C18.4409 22.8 18.2883 22.8633 18.1757 22.9758C18.0632 23.0883 18 23.2409 18 23.4C18 23.5592 18.0632 23.7118 18.1757 23.8243C18.2883 23.9368 18.4409 24 18.6 24Z" />
<path d="M9.6 27.6H20.4C20.5591 27.6 20.7117 27.5368 20.8243 27.4243C20.9368 27.3118 21 27.1592 21 27C21 26.8409 20.9368 26.6883 20.8243 26.5758C20.7117 26.4632 20.5591 26.4 20.4 26.4H9.6C9.44087 26.4 9.28826 26.4632 9.17574 26.5758C9.06321 26.6883 9 26.8409 9 27C9 27.1592 9.06321 27.3118 9.17574 27.4243C9.28826 27.5368 9.44087 27.6 9.6 27.6Z" />
<path d="M9.6 30H20.4C20.5591 30 20.7117 29.9368 20.8243 29.8243C20.9368 29.7118 21 29.5592 21 29.4C21 29.2409 20.9368 29.0883 20.8243 28.9758C20.7117 28.8633 20.5591 28.8 20.4 28.8H9.6C9.44087 28.8 9.28826 28.8633 9.17574 28.9758C9.06321 29.0883 9 29.2409 9 29.4C9 29.5592 9.06321 29.7118 9.17574 29.8243C9.28826 29.9368 9.44087 30 9.6 30Z" />
<path d="M9.6 32.4001H20.4C20.5591 32.4001 20.7117 32.3369 20.8243 32.2243C20.9368 32.1118 21 31.9592 21 31.8001C21 31.6409 20.9368 31.4883 20.8243 31.3758C20.7117 31.2633 20.5591 31.2001 20.4 31.2001H9.6C9.44087 31.2001 9.28826 31.2633 9.17574 31.3758C9.06321 31.4883 9 31.6409 9 31.8001C9 31.9592 9.06321 32.1118 9.17574 32.2243C9.28826 32.3369 9.44087 32.4001 9.6 32.4001Z" />
<path d="M26.4 27.6H33C33.1591 27.6 33.3117 27.5368 33.4243 27.4243C33.5368 27.3118 33.6 27.1592 33.6 27C33.6 26.8409 33.5368 26.6883 33.4243 26.5758C33.3117 26.4632 33.1591 26.4 33 26.4H26.4C26.2409 26.4 26.0882 26.4632 25.9757 26.5758C25.8632 26.6883 25.8 26.8409 25.8 27C25.8 27.1592 25.8632 27.3118 25.9757 27.4243C26.0882 27.5368 26.2409 27.6 26.4 27.6Z" />
<path d="M26.4 30H33C33.1591 30 33.3117 29.9368 33.4243 29.8243C33.5368 29.7118 33.6 29.5592 33.6 29.4C33.6 29.2409 33.5368 29.0883 33.4243 28.9758C33.3117 28.8633 33.1591 28.8 33 28.8H26.4C26.2409 28.8 26.0882 28.8633 25.9757 28.9758C25.8632 29.0883 25.8 29.2409 25.8 29.4C25.8 29.5592 25.8632 29.7118 25.9757 29.8243C26.0882 29.9368 26.2409 30 26.4 30Z" />
<path d="M26.4 32.4001H33C33.1591 32.4001 33.3117 32.3369 33.4243 32.2243C33.5368 32.1118 33.6 31.9592 33.6 31.8001C33.6 31.6409 33.5368 31.4883 33.4243 31.3758C33.3117 31.2633 33.1591 31.2001 33 31.2001H26.4C26.2409 31.2001 26.0882 31.2633 25.9757 31.3758C25.8632 31.4883 25.8 31.6409 25.8 31.8001C25.8 31.9592 25.8632 32.1118 25.9757 32.2243C26.0882 32.3369 26.2409 32.4001 26.4 32.4001Z" />
<path d="M11.135 18.695L11.06 17.75C11.15 17.71 11.28 17.69 11.45 17.69C11.63 17.68 11.755 17.675 11.825 17.675C11.885 17.675 11.95 17.675 12.02 17.675C12.11 17.695 12.17 17.705 12.2 17.705C12.49 17.745 12.725 17.845 12.905 18.005C13.095 18.155 13.26 18.365 13.4 18.635C13.5 18.825 13.555 18.985 13.565 19.115C13.585 19.245 13.595 19.475 13.595 19.805C13.595 19.955 13.575 20.09 13.535 20.21C13.465 20.37 13.415 20.485 13.385 20.555C13.355 20.625 13.325 20.685 13.295 20.735C13.205 20.865 13.145 20.955 13.115 21.005L12.35 20.405C12.58 20.255 12.755 20.055 12.875 19.805C12.995 19.545 13.055 19.3 13.055 19.07C13.055 18.73 12.915 18.49 12.635 18.35C12.555 18.31 12.465 18.29 12.365 18.29C12.275 18.29 12.165 18.31 12.035 18.35C11.915 18.39 11.79 18.43 11.66 18.47C11.53 18.51 11.445 18.54 11.405 18.56C11.285 18.62 11.195 18.665 11.135 18.695ZM14.3 16.22H11.36C11.54 16.61 11.63 17.035 11.63 17.495C11.63 17.945 11.395 18.44 10.925 18.98C10.555 19.41 10.265 19.665 10.055 19.745C10.055 19.935 10.085 20.1 10.145 20.24C10.165 20.28 10.215 20.375 10.295 20.525C10.335 20.595 10.39 20.675 10.46 20.765C10.54 20.845 10.615 20.92 10.685 20.99L12.185 22.79L12.005 23L10.355 21.14C9.855 20.58 9.5 20.17 9.29 19.91C9.09 19.65 8.965 19.47 8.915 19.37C8.865 19.26 8.82 19.155 8.78 19.055C8.74 18.955 8.72 18.86 8.72 18.77C8.72 18.74 8.73 18.685 8.75 18.605C8.82 18.415 8.89 18.295 8.96 18.245C9.04 18.185 9.155 18.155 9.305 18.155C9.415 18.165 9.505 18.17 9.575 18.17H10.265C10.615 17.94 10.79 17.655 10.79 17.315C10.79 17.005 10.765 16.78 10.715 16.64C10.665 16.5 10.55 16.36 10.37 16.22H8.015V15.5H14.3V16.22Z" />
</svg>
