<svg width="28" height="30" viewBox="0 0 24 26" fill="" xmlns="http://www.w3.org/2000/svg">
<path d="M3.49999 10.0001C3.50019 9.05199 3.74546 8.12005 4.21201 7.29471C4.67855 6.46936 5.35053 5.77862 6.16273 5.28954C6.97492 4.80045 7.89976 4.52963 8.84748 4.50334C9.7952 4.47705 10.7336 4.69619 11.5717 5.13949C12.4097 5.5828 13.119 6.23522 13.6306 7.03343C14.1421 7.83165 14.4387 8.74855 14.4915 9.69517C14.5442 10.6418 14.3514 11.586 13.9317 12.4361C13.5119 13.2862 12.8796 14.0134 12.096 14.5471C13.7835 15.166 15.2472 16.2758 16.2986 17.7336C17.3501 19.1914 17.9412 20.9305 17.996 22.7271C17.9937 22.9208 17.9166 23.1061 17.7808 23.2443C17.6451 23.3825 17.4612 23.4629 17.2676 23.4687C17.0739 23.4745 16.8855 23.4053 16.7418 23.2755C16.598 23.1456 16.5099 22.9653 16.496 22.7721C16.4364 20.8235 15.8993 18.3572 14.5 17C13.1006 15.6427 10.9494 15.5 9 15.5C7.05055 15.5 4.89936 15.6427 3.5 17C2.10063 18.3572 1.56254 20.8235 1.50299 22.7721C1.49298 22.9679 1.40667 23.152 1.26255 23.285C1.11843 23.418 0.927967 23.4892 0.731962 23.4835C0.535957 23.4777 0.350001 23.3954 0.21393 23.2542C0.0778594 23.113 0.00249738 22.9242 0.00398901 22.7281C0.0585404 20.9313 0.649596 19.192 1.70107 17.734C2.75255 16.276 4.21633 15.1661 5.90399 14.5471C5.16282 14.0427 4.55628 13.3647 4.13726 12.5721C3.71824 11.7796 3.49946 10.8966 3.49999 10.0001ZM8.99949 5.28954C7.93862 5.28954 6.75015 5.74985 6 6.5C5.24986 7.25014 4.37425 8.63431 4.37425 9.69517C4.37425 10.756 4.74986 12.2499 5.5 13C6.25015 13.7501 7.93913 14.5 9 14.5C10.0609 14.5 11.7499 13.7501 12.5 13C13.2502 12.2499 13.6306 11.0909 13.6306 10.0301C13.6306 8.96921 12.7502 7.25014 12 6.5C11.2499 5.74985 10.0604 5.28954 8.99949 5.28954ZM17.29 10.0001C17.142 10.0001 16.998 10.0101 16.856 10.0301C16.7568 10.0478 16.6551 10.0454 16.5569 10.023C16.4588 10.0006 16.3661 9.95866 16.2845 9.89966C16.2028 9.84066 16.1339 9.76582 16.0818 9.67961C16.0298 9.5934 15.9956 9.49759 15.9813 9.39788C15.9671 9.29818 15.9731 9.19662 15.9989 9.09928C16.0248 9.00194 16.07 8.9108 16.1318 8.8313C16.1937 8.7518 16.2709 8.68558 16.3589 8.63658C16.4469 8.58757 16.5438 8.55679 16.644 8.54607C17.6386 8.40228 18.6527 8.59327 19.5269 9.089C20.401 9.58472 21.0855 10.357 21.4726 11.2844C21.8597 12.2118 21.9275 13.2415 21.6652 14.2116C21.403 15.1817 20.8256 16.0371 20.024 16.6431C21.2024 17.1707 22.2029 18.0281 22.9049 19.1117C23.6068 20.1953 23.9802 21.4589 23.98 22.7501C23.98 22.949 23.901 23.1398 23.7603 23.2804C23.6197 23.4211 23.4289 23.5001 23.23 23.5001C23.0311 23.5001 22.8403 23.4211 22.6997 23.2804C22.559 23.1398 22.48 22.949 22.48 22.7501C22.4799 21.6342 22.1203 20.5481 21.4546 19.6526C20.7889 18.757 19.8525 18.0997 18.784 17.7781L18.25 17.6181V15.9421L18.66 15.7331C19.2677 15.4252 19.754 14.9215 20.0403 14.3033C20.3266 13.6851 20.3962 12.9885 20.2378 12.3258C20.0795 11.6632 19.7024 11.0733 19.1676 10.6513C18.6327 10.2293 17.9713 9.99989 17.29 10.0001Z" fill=""/>
<path d="M20 5H17V8H16V5H13L13 4H16V1H17V4H20L20 5Z" fill=""/>
</svg>
