<?xml version="1.0" standalone="no"?>
<!DOCTYPE svg PUBLIC "-//W3C//DTD SVG 20010904//EN"
 "http://www.w3.org/TR/2001/REC-SVG-20010904/DTD/svg10.dtd">
<svg version="1.0" xmlns="http://www.w3.org/2000/svg"
 width="30.000000pt" height="32.000000pt" viewBox="0 0 155.000000 113.000000"
 preserveAspectRatio="xMidYMid meet">

<g transform="translate(0.000000,113.000000) scale(0.100000,-0.100000)"
fill="" stroke="none">
<path d="M545 1086 c-60 -28 -87 -56 -114 -116 -40 -87 -22 -180 49 -250 93
-94 227 -94 320 0 115 115 83 297 -64 366 -66 31 -127 31 -191 0z m163 -31
c49 -21 81 -52 103 -100 36 -78 14 -165 -57 -223 -143 -118 -360 43 -289 216
21 49 52 81 100 103 49 23 94 24 143 4z"/>
<path d="M237 1043 c-58 -61 -81 -158 -56 -234 24 -71 98 -144 122 -120 8 8 2
20 -25 49 -86 88 -89 194 -6 279 29 30 31 53 4 53 -7 0 -24 -12 -39 -27z"/>
<path d="M984 1059 c-3 -6 8 -25 24 -42 37 -38 62 -95 62 -139 -1 -42 -30
-106 -64 -137 -14 -14 -26 -30 -26 -38 0 -26 39 -12 73 27 76 89 76 211 0 300
-35 40 -56 49 -69 29z"/>
<path d="M1260 770 l0 -120 -130 0 c-123 0 -130 -1 -130 -20 0 -19 7 -20 130
-20 l130 0 0 -140 c0 -133 1 -140 20 -140 19 0 20 7 20 140 l0 140 125 0 c118
0 125 1 125 20 0 19 -7 20 -125 20 l-125 0 0 120 c0 113 -1 120 -20 120 -19 0
-20 -7 -20 -120z"/>
<path d="M455 441 c-47 -12 -87 -36 -121 -73 -59 -62 -68 -91 -72 -235 l-4
-133 382 0 382 0 -4 132 c-5 148 -17 185 -80 244 -67 64 -86 68 -278 71 -96 1
-188 -2 -205 -6z m401 -53 c45 -25 101 -91 113 -135 6 -21 11 -80 11 -130 l0
-93 -341 0 -342 0 5 113 c5 124 14 151 71 205 57 56 91 62 282 59 135 -2 176
-6 201 -19z"/>
<path d="M100 373 c-63 -63 -80 -120 -80 -265 0 -99 2 -108 19 -108 17 0 19
11 23 127 5 147 13 169 83 231 25 22 45 45 45 51 0 26 -46 8 -90 -36z"/>
<path d="M1090 409 c0 -6 20 -29 45 -51 70 -62 78 -84 83 -230 4 -120 6 -128
24 -128 20 0 20 5 16 133 -5 151 -17 187 -87 250 -40 36 -81 49 -81 26z"/>
</g>
</svg>
