<svg width="39" height="29" viewBox="0 0 39 29" fill="" xmlns="http://www.w3.org/2000/svg">
<path d="M39 13H32.5V20H31.5V13H25V12H31.5V6H32.5V12H39V13Z" fill=""/>
<path d="M7 1.94125C6.30506 2.42453 5.73743 3.06886 5.34561 3.81918C4.9538 4.56951 4.74944 5.40353 4.75 6.25C4.74952 7.15587 4.98357 8.04644 5.42938 8.83503C5.87519 9.62361 6.51758 10.2833 7.294 10.75M25 1.94125C25.6949 2.42453 26.2626 3.06886 26.6544 3.81918C27.0462 4.56951 27.2506 5.40353 27.25 6.25C27.2507 7.09659 27.0464 7.93077 26.6546 8.68123C26.2627 9.4317 25.695 10.0761 25 10.5595M31 28V27.1C31 23.74 31 22.06 30.346 20.776C29.7708 19.6471 28.8529 18.7292 27.724 18.154M1 28V27.1C1 23.74 1 22.06 1.654 20.776C2.22923 19.6471 3.14708 18.7292 4.276 18.154M16 11.5C16.6894 11.5 17.3721 11.3642 18.0091 11.1004C18.646 10.8365 19.2248 10.4498 19.7123 9.96231C20.1998 9.4748 20.5865 8.89605 20.8504 8.25909C21.1142 7.62213 21.25 6.93944 21.25 6.25C21.25 5.56056 21.1142 4.87787 20.8504 4.24091C20.5865 3.60395 20.1998 3.0252 19.7123 2.53769C19.2248 2.05018 18.646 1.66347 18.0091 1.39963C17.3721 1.1358 16.6894 1 16 1C14.6076 1 13.2723 1.55312 12.2877 2.53769C11.3031 3.52226 10.75 4.85761 10.75 6.25C10.75 7.64239 11.3031 8.97774 12.2877 9.96231C13.2723 10.9469 14.6076 11.5 16 11.5ZM7 26.5V28H25V26.5C25 23.7048 25 22.3067 24.5432 21.2035C23.9341 19.7334 22.766 18.5655 21.2958 17.9567C20.194 17.5 18.796 17.5 16 17.5C13.204 17.5 11.8067 17.5 10.7042 17.9567C9.97621 18.2583 9.31469 18.7003 8.75748 19.2575C8.20027 19.8147 7.75828 20.4762 7.45675 21.2042C7 22.3067 7 23.7048 7 26.5Z" stroke="black" stroke-width="1.0056" stroke-linecap="round" stroke-linejoin="round"/>
</svg>
