<svg width="20" height="20" viewBox="0 0 20 20" fill="none" xmlns="http://www.w3.org/2000/svg">
<path d="M19.4287 2.08046H18.1302V1.91382C18.1297 1.49749 17.9641 1.09835 17.6697 0.803965C17.3753 0.509577 16.9762 0.343981 16.5599 0.343506H3.1427C2.83752 0.343847 2.54494 0.465228 2.32915 0.681019C2.11336 0.89681 1.99198 1.18939 1.99164 1.49456V3.58542H1.2634C0.929546 3.58728 0.610001 3.7212 0.374586 3.95793C0.13917 4.19466 0.00702504 4.51494 0.00702504 4.8488C0.00702504 5.18266 0.13917 5.50294 0.374586 5.73967C0.610001 5.9764 0.929546 6.11032 1.2634 6.11218H1.99164V8.73663H1.2634C0.928324 8.73663 0.606974 8.86974 0.370041 9.10667C0.133108 9.34361 0 9.66496 0 10C0 10.3351 0.133108 10.6565 0.370041 10.8934C0.606974 11.1303 0.928324 11.2634 1.2634 11.2634H1.99164V13.8879H1.2634C0.929546 13.8897 0.610001 14.0237 0.374586 14.2604C0.13917 14.4971 0.00702504 14.8174 0.00702504 15.1513C0.00702504 15.4851 0.13917 15.8054 0.374586 16.0421C0.610001 16.2789 0.929546 16.4128 1.2634 16.4146H1.99164V18.5055C1.99197 18.8107 2.11335 19.1033 2.32914 19.3191C2.54493 19.5349 2.83751 19.6562 3.1427 19.6566H16.5598C16.9762 19.6561 17.3753 19.4905 17.6697 19.1961C17.9641 18.9017 18.1297 18.5026 18.1302 18.0863V17.9196H19.4286C19.5801 17.9195 19.7254 17.8592 19.8325 17.7521C19.9396 17.6449 19.9999 17.4997 20 17.3482V14.0201C19.9999 13.8686 19.9396 13.7234 19.8325 13.6162C19.7254 13.5091 19.5802 13.4489 19.4287 13.4487H18.1302V12.2355H19.4287C19.5802 12.2354 19.7254 12.1751 19.8325 12.068C19.9397 11.9608 19.9999 11.8156 20 11.6641V8.33597C19.9999 8.18449 19.9396 8.03926 19.8325 7.93216C19.7254 7.82505 19.5802 7.7648 19.4287 7.76464H18.1302V6.55155H19.4287C19.5802 6.55137 19.7254 6.4911 19.8325 6.38398C19.9396 6.27686 19.9999 6.13163 20 5.98015V2.65202C19.9999 2.50051 19.9397 2.35523 19.8326 2.24807C19.7254 2.14092 19.5802 2.08063 19.4287 2.08046ZM1.2634 5.48718C1.09495 5.48586 0.933859 5.41802 0.815214 5.29845C0.69657 5.17887 0.629994 5.01725 0.629994 4.8488C0.629994 4.68035 0.69657 4.51873 0.815214 4.39915C0.933859 4.27958 1.09495 4.21174 1.2634 4.21042H3.16516C3.3336 4.21174 3.4947 4.27958 3.61334 4.39915C3.73199 4.51873 3.79856 4.68035 3.79856 4.8488C3.79856 5.01725 3.73199 5.17887 3.61334 5.29845C3.4947 5.41802 3.3336 5.48586 3.16516 5.48718H1.2634ZM1.2634 10.6384C1.09408 10.6384 0.931705 10.5712 0.811983 10.4514C0.69226 10.3317 0.625 10.1693 0.625 10C0.625 9.83072 0.69226 9.66834 0.811983 9.54861C0.931705 9.42889 1.09408 9.36163 1.2634 9.36163H3.16516C3.33447 9.36163 3.49685 9.42889 3.61657 9.54861C3.73629 9.66834 3.80355 9.83072 3.80355 10C3.80355 10.1693 3.73629 10.3317 3.61657 10.4514C3.49685 10.5712 3.33447 10.6384 3.16516 10.6384H1.2634ZM1.2634 15.7896C1.09495 15.7883 0.933859 15.7205 0.815214 15.6009C0.69657 15.4813 0.629994 15.3197 0.629994 15.1513C0.629994 14.9828 0.69657 14.8212 0.815214 14.7016C0.933859 14.582 1.09495 14.5142 1.2634 14.5129H3.16516C3.3336 14.5142 3.4947 14.582 3.61334 14.7016C3.73199 14.8212 3.79856 14.9828 3.79856 15.1513C3.79856 15.3197 3.73199 15.4813 3.61334 15.6009C3.4947 15.7205 3.3336 15.7883 3.16516 15.7896H1.2634ZM17.5052 18.0862C17.5049 18.3369 17.4052 18.5771 17.228 18.7544C17.0508 18.9316 16.8105 19.0313 16.5599 19.0316H3.1427C3.00323 19.0314 2.86952 18.9759 2.7709 18.8773C2.67228 18.7787 2.61681 18.645 2.61664 18.5055V16.4146H3.16516C3.49901 16.4128 3.81855 16.2789 4.05397 16.0421C4.28938 15.8054 4.42153 15.4851 4.42153 15.1513C4.42153 14.8174 4.28938 14.4971 4.05397 14.2604C3.81855 14.0237 3.49901 13.8897 3.16516 13.8879H2.61664V11.2634H3.16516C3.50023 11.2634 3.82158 11.1303 4.05851 10.8934C4.29545 10.6565 4.42855 10.3351 4.42855 10C4.42855 9.66496 4.29545 9.34361 4.05851 9.10667C3.82158 8.86974 3.50023 8.73663 3.16516 8.73663H2.61664V6.11218H3.16516C3.49901 6.11032 3.81855 5.9764 4.05397 5.73967C4.28938 5.50294 4.42153 5.18266 4.42153 4.8488C4.42153 4.51494 4.28938 4.19466 4.05397 3.95793C3.81855 3.7212 3.49901 3.58728 3.16516 3.58542H2.61664V1.49456C2.6168 1.35509 2.67227 1.22137 2.77089 1.12274C2.86951 1.02411 3.00322 0.968632 3.1427 0.968467H16.5598C16.8105 0.968756 17.0507 1.06844 17.228 1.24566C17.4052 1.42288 17.5049 1.66316 17.5052 1.91378L17.5052 18.0862ZM19.375 14.0735V17.2946H18.1302V14.0735H19.375ZM19.375 8.38952V11.6105H18.1302V8.38952H19.375ZM19.375 5.92655H18.1302V2.70546H19.375V5.92655ZM10.0609 3.22269C9.2344 3.22268 8.42643 3.46777 7.73919 3.92696C7.05195 4.38615 6.51631 5.03882 6.2 5.80243C5.88369 6.56604 5.80093 7.4063 5.96217 8.21696C6.12341 9.02761 6.52141 9.77225 7.10586 10.3567C7.6903 10.9411 8.43492 11.3392 9.24557 11.5004C10.0562 11.6617 10.8965 11.5789 11.6601 11.2626C12.4237 10.9463 13.0764 10.4107 13.5356 9.72348C13.9948 9.03625 14.2399 8.22828 14.2399 7.40175C14.2387 6.29377 13.7981 5.23152 13.0146 4.44806C12.2312 3.66459 11.1689 3.22391 10.0609 3.22269ZM10.0609 10.9557C9.23522 10.9565 8.43524 10.6684 7.79957 10.1414C7.99145 9.70178 8.30782 9.32789 8.70966 9.0659C9.1115 8.80389 9.58123 8.66524 10.0609 8.66702C10.5398 8.66904 11.0079 8.80927 11.4089 9.07086C11.81 9.33245 12.1271 9.70428 12.322 10.1417C11.6864 10.6686 10.8865 10.9566 10.0609 10.9558V10.9557ZM8.99668 6.87448C8.99667 6.66399 9.05908 6.45822 9.17602 6.2832C9.29296 6.10818 9.45917 5.97177 9.65364 5.89121C9.8481 5.81065 10.0621 5.78957 10.2685 5.83063C10.475 5.87169 10.6646 5.97305 10.8135 6.12189C10.9623 6.27072 11.0637 6.46036 11.1047 6.6668C11.1458 6.87325 11.1247 7.08724 11.0442 7.28171C10.9636 7.47618 10.8272 7.6424 10.6522 7.75934C10.4772 7.87628 10.2714 7.9387 10.0609 7.9387C9.77878 7.93838 9.50828 7.82616 9.30876 7.62665C9.10925 7.42714 8.99701 7.15664 8.99668 6.87448ZM12.7896 9.67636C12.421 8.99577 11.8129 8.47621 11.0831 8.21831C11.3645 8.00452 11.5718 7.70785 11.6757 7.37007C11.7797 7.03229 11.7751 6.67041 11.6626 6.33538C11.5501 6.00036 11.3353 5.70905 11.0486 5.50248C10.7618 5.29591 10.4175 5.18448 10.0641 5.18387C9.71066 5.18326 9.36595 5.29351 9.07849 5.4991C8.79102 5.70469 8.57527 5.99525 8.46162 6.32989C8.34796 6.66453 8.34212 7.02639 8.44492 7.36452C8.54771 7.70266 8.75397 8.00004 9.03465 8.2148C8.30321 8.46961 7.69499 8.99126 7.33172 9.67534C6.89896 9.15644 6.62309 8.52493 6.53643 7.85484C6.44978 7.18474 6.55594 6.50383 6.84247 5.89192C7.129 5.28 7.58402 4.76245 8.1542 4.39991C8.72438 4.03738 9.38609 3.8449 10.0618 3.84502C10.7374 3.84515 11.3991 4.03788 11.9691 4.40062C12.5392 4.76337 12.994 5.28109 13.2803 5.89311C13.5666 6.50513 13.6725 7.18609 13.5856 7.85615C13.4987 8.52621 13.2226 9.15762 12.7896 9.67636ZM14.1317 13.0926C14.1317 13.1755 14.0988 13.255 14.0402 13.3136C13.9815 13.3722 13.9021 13.4051 13.8192 13.4051H6.3027C6.21982 13.4051 6.14033 13.3722 6.08172 13.3136C6.02312 13.255 5.9902 13.1755 5.9902 13.0926C5.9902 13.0097 6.02312 12.9302 6.08172 12.8716C6.14033 12.813 6.21982 12.7801 6.3027 12.7801H13.8192C13.9021 12.7801 13.9815 12.813 14.0402 12.8716C14.0988 12.9302 14.1317 13.0097 14.1317 13.0926ZM14.1317 15.0413C14.1317 15.1242 14.0988 15.2037 14.0402 15.2623C13.9815 15.3209 13.9021 15.3538 13.8192 15.3538H6.3027C6.21982 15.3538 6.14033 15.3209 6.08172 15.2623C6.02312 15.2037 5.9902 15.1242 5.9902 15.0413C5.9902 14.9584 6.02312 14.879 6.08172 14.8203C6.14033 14.7617 6.21982 14.7288 6.3027 14.7288H13.8192C13.9021 14.7288 13.9815 14.7617 14.0402 14.8203C14.0988 14.879 14.1317 14.9584 14.1317 15.0413ZM14.1317 16.99C14.1317 17.0729 14.0988 17.1524 14.0402 17.211C13.9815 17.2696 13.9021 17.3025 13.8192 17.3025H6.3027C6.21982 17.3025 6.14033 17.2696 6.08172 17.211C6.02312 17.1524 5.9902 17.0729 5.9902 16.99C5.9902 16.9071 6.02312 16.8277 6.08172 16.7691C6.14033 16.7105 6.21982 16.6775 6.3027 16.6775H13.8192C13.9021 16.6775 13.9815 16.7105 14.0402 16.7691C14.0988 16.8277 14.1317 16.9071 14.1317 16.99Z" />
</svg>
