<svg width="36" height="37" viewBox="0 0 36 37" fill="" xmlns="http://www.w3.org/2000/svg">
<path d="M14.7238 7.05879C16.8615 7.05879 18.7974 7.85338 20.1975 9.13413C21.5968 10.4149 22.4642 12.1874 22.4642 14.1433C22.4642 16.1 21.5968 17.8718 20.1975 19.1532C18.7974 20.434 16.8615 21.2279 14.7238 21.2279C12.5868 21.2279 10.6502 20.434 9.25082 19.1532C7.8515 17.8718 6.98335 16.1 6.98335 14.1433C6.98335 12.1874 7.8515 10.4149 9.25082 9.13413C10.6502 7.85338 12.5868 7.05879 14.7238 7.05879ZM30.8863 27.3773V28.618C30.8863 28.9103 30.6192 29.1541 30.3014 29.1541H27.974V31.2842C27.974 31.5758 27.7077 31.8196 27.3891 31.8196H26.0328C25.7158 31.8196 25.4479 31.5786 25.4479 31.2842V29.1541H23.119C22.8012 29.1541 22.5356 28.9131 22.5356 28.618V27.3773C22.5356 27.083 22.7981 26.842 23.119 26.842H25.4479V24.7119C25.4479 24.4168 25.7111 24.1765 26.0328 24.1765H27.3891C27.7107 24.1765 27.974 24.421 27.974 24.7119V26.842H30.3014C30.6238 26.842 30.8863 27.09 30.8863 27.3773ZM26.7121 19.4961C29.2751 19.4961 31.5986 20.4481 33.2789 21.9859L33.3257 22.0316C34.9783 23.566 36 25.6744 36 27.997C36 30.3435 34.9599 32.4709 33.2789 34.0094L33.229 34.0523C31.5533 35.5642 29.2498 36.5 26.7121 36.5C24.1483 36.5 21.8263 35.5466 20.1461 34.0094C18.462 32.4709 17.4219 30.3435 17.4219 27.997C17.4219 25.6526 18.4635 23.5273 20.143 21.9888C21.8233 20.4481 24.1483 19.4961 26.7121 19.4961ZM32.0123 23.1459C30.6568 21.9044 28.7808 21.1366 26.7121 21.1366C24.6427 21.1366 22.7651 21.9044 21.4095 23.1459C20.0547 24.3852 19.215 26.1036 19.215 27.997C19.215 29.8911 20.0532 31.6095 21.4095 32.8502C22.7636 34.0895 24.6411 34.8588 26.7121 34.8588C28.7616 34.8588 30.6222 34.105 31.9747 32.8875L32.0123 32.8502C33.3687 31.6095 34.2077 29.8911 34.2077 27.997C34.2077 26.1212 33.3833 24.4182 32.053 23.1803L32.0123 23.1459ZM14.7238 35.2987C15.3041 34.9615 16.4542 34.386 17 34.0094C17.3086 34.468 17.5076 34.456 17.8893 34.8659C17.1786 35.3527 16.4409 35.8136 15.6748 36.2408C15.3908 36.4333 14.9932 36.4571 14.677 36.2745C11.2328 34.2708 8.33815 31.854 6.05839 29.2356C2.92046 25.6301 0.940834 21.6319 0.263815 17.7833C-0.423951 13.8806 0.22083 10.1233 2.3417 7.06863C3.17761 5.86375 4.24764 4.76565 5.55485 3.81229C8.54771 1.62946 11.9743 0.473755 15.3739 0.500452C18.6508 0.525042 21.8962 1.64421 24.6987 3.98512C25.6812 4.80711 26.5094 5.73939 27.1834 6.75739C29.2221 9.83809 29.8331 13.6846 29.2206 17.6463C28.6526 17.5318 28.5957 17.5358 28 17.5C28.558 13.8938 28.3184 10.2477 26.5 7.5C25.9166 6.6204 24.8628 5.72082 24 5C21.5329 2.94011 18.2233 1.8838 15.3739 1.86343C12.3826 1.84095 9.17814 2.5462 6.5 4.5C5.35705 5.33253 4.23612 6.43914 3.5 7.5C1.61786 10.2112 0.88055 13.9802 1.5 17.5C2.12866 21.0746 4.0509 25.1123 7 28.5C9.05562 30.8599 11.6465 33.4468 14.7238 35.2987ZM18.9486 10.2772C17.8694 9.2894 16.3733 8.67466 14.7238 8.67466C13.075 8.67466 11.5789 9.2894 10.4997 10.2772C9.42046 11.265 8.74882 12.6343 8.74882 14.1433C8.74882 15.6531 9.42046 17.0224 10.4997 18.0102C11.5789 18.998 13.075 19.612 14.7238 19.612C16.3733 19.612 17.8694 18.998 18.9486 18.0102C20.0279 17.0224 20.6987 15.6531 20.6987 14.1433C20.6987 12.6343 20.0279 11.265 18.9486 10.2772Z" fill=""/>
</svg>
