<svg width="36" height="36" viewBox="0 0 36 36" fill="" xmlns="http://www.w3.org/2000/svg">
<mask id="mask0_70_147" style="mask-type:luminance" maskUnits="userSpaceOnUse" x="0" y="0" width="36" height="36">
<path d="M36 0H0V36H36V0Z" fill="white"/>
</mask>
<g mask="url(#mask0_70_147)">
<path d="M28.8 11.7002H1.8C0.80589 11.7002 0 12.5061 0 13.5002V27.9002C0 28.8943 0.80589 29.7002 1.8 29.7002H28.8C29.7941 29.7002 30.6 28.8943 30.6 27.9002V13.5002C30.6 12.5061 29.7941 11.7002 28.8 11.7002ZM29.4 27.9002C29.4 28.2315 29.1314 28.5002 28.8 28.5002H1.8C1.46863 28.5002 1.2 28.2315 1.2 27.9002V13.5002C1.2 13.1688 1.46863 12.9002 1.8 12.9002H28.8C29.1314 12.9002 29.4 13.1688 29.4 13.5002V27.9002Z" />
<path d="M12 15.9002C12 15.2374 11.4627 14.7002 10.8 14.7002H4.2C3.53726 14.7002 3 15.2374 3 15.9002V17.7002C3 18.3629 3.53726 18.9002 4.2 18.9002H10.8C11.4627 18.9002 12 18.3629 12 17.7002V15.9002ZM4.2 17.7002V15.9002H10.8V17.7002H4.2Z" />
<path d="M10.2 20.7002H3.6C3.26863 20.7002 3 20.9688 3 21.3002C3 21.6315 3.26863 21.9002 3.6 21.9002H10.2C10.5314 21.9002 10.8 21.6315 10.8 21.3002C10.8 20.9688 10.5314 20.7002 10.2 20.7002Z" />
<path d="M10.2 23.1001H3.6C3.26863 23.1001 3 23.3687 3 23.7001C3 24.0315 3.26863 24.3001 3.6 24.3001H10.2C10.5314 24.3001 10.8 24.0315 10.8 23.7001C10.8 23.3687 10.5314 23.1001 10.2 23.1001Z" />
<path d="M10.2 25.5H3.6C3.26863 25.5 3 25.7686 3 26.1C3 26.4314 3.26863 26.7 3.6 26.7H10.2C10.5314 26.7 10.8 26.4314 10.8 26.1C10.8 25.7686 10.5314 25.5 10.2 25.5Z" />
<path d="M34.2 6.30005H13.8C13.4686 6.30005 13.2 6.56875 13.2 6.90005C13.2 7.23145 13.4686 7.50005 13.8 7.50005H34.2C34.5314 7.50005 34.8 7.76875 34.8 8.10005V22.5C34.8 22.8314 34.5314 23.1 34.2 23.1H32.4C32.0686 23.1 31.8 23.3687 31.8 23.7001C31.8 24.0314 32.0686 24.3 32.4 24.3H34.2C35.1941 24.3 36 23.4942 36 22.5V8.10005C36 7.10595 35.1941 6.30005 34.2 6.30005Z" />
<path d="M7.20002 6.30005C6.20592 6.30005 5.40002 7.10595 5.40002 8.10005V9.90005C5.40002 10.2314 5.66872 10.5 6.00002 10.5C6.33142 10.5 6.60003 10.2314 6.60003 9.90005V8.10005C6.60003 7.76875 6.86872 7.50005 7.20002 7.50005H10.8C11.1314 7.50005 11.4 7.23145 11.4 6.90005C11.4 6.56875 11.1314 6.30005 10.8 6.30005H7.20002Z" />
<path d="M15.724 25V24.712C16.136 24.644 16.446 24.562 16.654 24.466C16.862 24.366 17.018 24.232 17.122 24.064C17.226 23.892 17.328 23.666 17.428 23.386L19.726 17.032L19.39 16.27L20.638 15.622L23.806 23.98C23.874 24.164 23.948 24.304 24.028 24.4C24.112 24.496 24.23 24.566 24.382 24.61C24.534 24.654 24.748 24.688 25.024 24.712V25H21.1V24.712C21.488 24.688 21.778 24.66 21.97 24.628C22.162 24.592 22.272 24.514 22.3 24.394C22.328 24.27 22.292 24.068 22.192 23.788L20.032 17.866H19.996L17.962 23.524C17.874 23.768 17.85 23.968 17.89 24.124C17.93 24.276 18.048 24.398 18.244 24.49C18.44 24.578 18.726 24.652 19.102 24.712V25H15.724ZM18.412 21.736V21.232H21.7V21.736H18.412Z" />
</g>
</svg>
