<svg xmlns="http://www.w3.org/2000/svg" enable-background="new 0 0 32 32" viewBox="0 0 32 32"><path d="M11.403,27.46c-0.019,0-0.036-0.001-0.055-0.003c-0.15-0.017-0.286-0.101-0.367-0.229l-2.415-3.795l-3.795-2.415   c-0.128-0.081-0.212-0.217-0.229-0.367s0.036-0.301,0.144-0.408l1.414-1.415c0.141-0.141,0.349-0.185,0.533-0.113l2.62,1.008   l6.402-7.396L7.588,6.868C7.465,6.784,7.385,6.65,7.37,6.502C7.356,6.354,7.409,6.206,7.515,6.101l1.414-1.414   C9.073,4.542,9.291,4.503,9.479,4.58l9.397,4.027l0.81-0.936c1.425-1.635,3.485-2.571,5.653-2.571c0.887,0,1.56,0.673,1.56,1.5   c0,2.228-0.937,4.288-2.57,5.712l-0.937,0.811l4.027,9.397c0.08,0.188,0.038,0.406-0.106,0.551l-1.414,1.414   c-0.105,0.105-0.247,0.152-0.401,0.145c-0.148-0.015-0.282-0.095-0.366-0.218l-5.459-8.068l-7.396,6.402l1.008,2.62   c0.071,0.185,0.026,0.394-0.113,0.533l-1.415,1.414C11.662,27.408,11.535,27.46,11.403,27.46z M5.834,20.51l3.363,2.14   c0.062,0.039,0.114,0.092,0.153,0.153l2.14,3.363l0.745-0.744l-1.018-2.645c-0.075-0.197-0.02-0.42,0.14-0.558l8.087-7.001   c0.106-0.094,0.251-0.138,0.393-0.118s0.269,0.098,0.349,0.216l5.436,8.033l0.746-0.746l-4.038-9.422   c-0.085-0.2-0.032-0.433,0.133-0.575l1.212-1.049c1.414-1.233,2.226-3.019,2.226-4.897c0-0.335-0.225-0.56-0.5-0.56   c-1.938,0-3.724,0.812-4.958,2.227l-1.048,1.211c-0.142,0.165-0.376,0.22-0.575,0.133L9.396,5.633L8.65,6.379l8.033,5.436   c0.118,0.08,0.196,0.207,0.216,0.349c0.019,0.142-0.024,0.284-0.118,0.393L9.78,20.643c-0.139,0.16-0.361,0.215-0.558,0.14   l-2.645-1.018L5.834,20.51z"/></svg>