<svg width="28" height="28" viewBox="0 0 28 28" fill="none" xmlns="http://www.w3.org/2000/svg">
<path d="M12.8333 12.8333H0V3.5C0 2.57174 0.368749 1.6815 1.02513 1.02513C1.6815 0.368749 2.57174 0 3.5 0L12.8333 0V12.8333ZM2.33333 10.5H10.5V2.33333H3.5C3.19058 2.33333 2.89383 2.45625 2.67504 2.67504C2.45625 2.89383 2.33333 3.19058 2.33333 3.5V10.5Z" />
<path d="M28 12.8333H15.1666V0H24.5C25.4282 0 26.3185 0.368749 26.9748 1.02513C27.6312 1.6815 28 2.57174 28 3.5V12.8333ZM17.5 10.5H25.6666V3.5C25.6666 3.19058 25.5437 2.89383 25.3249 2.67504C25.1061 2.45625 24.8094 2.33333 24.5 2.33333H17.5V10.5Z"  fill-opacity="0.5"/>
<path d="M12.8333 28H3.5C2.57174 28 1.6815 27.6312 1.02513 26.9748C0.368749 26.3185 0 25.4282 0 24.5L0 15.1666H12.8333V28ZM2.33333 17.5V24.5C2.33333 24.8094 2.45625 25.1061 2.67504 25.3249C2.89383 25.5437 3.19058 25.6666 3.5 25.6666H10.5V17.5H2.33333Z" />
<path d="M24.5 28H15.1666V15.1666H28V24.5C28 25.4282 27.6312 26.3185 26.9748 26.9748C26.3185 27.6312 25.4282 28 24.5 28ZM17.5 25.6666H24.5C24.8094 25.6666 25.1061 25.5437 25.3249 25.3249C25.5437 25.1061 25.6666 24.8094 25.6666 24.5V17.5H17.5V25.6666Z" />
</svg>
