<svg width="14" height="15" viewBox="0 0 14 15" fill="none" xmlns="http://www.w3.org/2000/svg">
<mask id="path-1-outside-1_32_819" maskUnits="userSpaceOnUse" x="0.656867" y="0.585786" width="14.1421" height="14.1421" fill="black">
<rect fill="white" x="0.656867" y="0.585786" width="14.1421" height="14.1421"/>
<path d="M6.31372 2L11.9706 7.65685L6.31372 13.3137L0.656867 7.65685L6.31372 2Z"/>
</mask>
<path d="M6.31372 2L11.9706 7.65685L6.31372 13.3137L0.656867 7.65685L6.31372 2Z" fill="white"/>
<path d="M11.9706 7.65685L13.3848 9.07107C14.1658 8.29002 14.1658 7.02369 13.3848 6.24264L11.9706 7.65685ZM4.89951 3.41421L10.5564 9.07107L13.3848 6.24264L7.72793 0.585786L4.89951 3.41421ZM10.5564 6.24264L4.89951 11.8995L7.72793 14.7279L13.3848 9.07107L10.5564 6.24264Z" fill="" mask="url(#path-1-outside-1_32_819)"/>
</svg>
