
<svg version="1.0" xmlns="http://www.w3.org/2000/svg"
 width="28.000000pt" height="28.000000pt" viewBox="0 0 512.000000 512.000000"
 preserveAspectRatio="xMidYMid meet">

<g transform="translate(0.000000,512.000000) scale(0.100000,-0.100000)"
fill="" stroke="none">
<path d="M1182 5109 c-45 -13 -108 -80 -121 -126 -6 -21 -11 -88 -11 -149 l0
-112 -192 -4 c-173 -4 -202 -8 -283 -32 -256 -77 -462 -281 -542 -541 l-28
-90 0 -1695 0 -1695 28 -90 c80 -259 283 -462 542 -542 l90 -28 941 0 940 0
41 27 c62 41 88 90 88 168 0 78 -26 127 -88 168 l-41 27 -915 5 -916 5 -58 23
c-111 45 -195 133 -234 246 -17 48 -18 138 -18 1686 0 1548 1 1638 18 1686 39
113 124 202 234 245 50 19 82 23 224 27 l167 4 3 -134 c4 -119 6 -137 28 -171
13 -21 42 -50 64 -65 34 -23 52 -27 107 -27 55 0 73 4 107 27 22 15 51 44 64
65 22 34 24 52 27 171 l4 132 448 0 448 0 4 -133 c3 -125 5 -136 30 -174 41
-63 90 -88 169 -88 54 0 72 5 106 27 22 15 51 44 64 65 22 34 24 52 27 171 l4
132 453 0 453 0 4 -133 c3 -125 5 -136 30 -174 41 -63 90 -88 169 -88 54 0 72
5 106 27 22 15 51 44 64 65 22 34 24 52 28 171 l3 134 172 -4 c145 -4 179 -7
225 -26 111 -44 189 -121 233 -229 l23 -58 5 -786 5 -785 27 -41 c41 -62 90
-88 168 -88 78 0 127 26 168 88 l27 41 0 810 0 811 -28 90 c-91 291 -320 498
-619 559 -52 11 -131 16 -242 16 l-164 0 -4 133 c-3 125 -5 136 -30 174 -41
62 -90 88 -168 88 -78 0 -127 -26 -168 -88 -25 -38 -27 -49 -30 -174 l-4 -133
-453 0 -453 0 -4 133 c-3 118 -5 136 -27 170 -13 21 -42 50 -64 65 -34 22 -52
27 -106 27 -79 0 -128 -25 -169 -88 -25 -38 -27 -49 -30 -174 l-4 -133 -448 0
-448 0 -4 133 c-3 125 -5 136 -30 174 -15 22 -43 50 -62 62 -41 26 -125 35
-174 20z"/>
<path d="M1182 3209 c-48 -14 -109 -80 -123 -131 -23 -89 12 -182 88 -229 57
-36 154 -34 210 3 62 41 88 90 88 168 0 77 -26 127 -85 166 -43 29 -125 39
-178 23z"/>
<path d="M2052 3209 c-48 -14 -109 -80 -123 -131 -23 -89 12 -182 88 -229 57
-36 154 -34 210 3 62 41 88 90 88 168 0 77 -26 127 -85 166 -43 29 -125 39
-178 23z"/>
<path d="M2922 3209 c-48 -14 -109 -80 -123 -131 -23 -89 12 -182 88 -229 57
-36 154 -34 210 3 62 41 88 90 88 168 0 77 -26 127 -85 166 -43 29 -125 39
-178 23z"/>
<path d="M3792 3209 c-48 -14 -109 -80 -123 -131 -23 -89 12 -182 88 -229 57
-36 154 -34 210 3 62 41 88 90 88 168 0 77 -26 127 -85 166 -43 29 -125 39
-178 23z"/>
<path d="M1182 2339 c-48 -14 -109 -80 -123 -131 -23 -89 12 -182 88 -229 57
-36 154 -34 210 3 62 41 88 90 88 168 0 77 -26 127 -85 166 -43 29 -125 39
-178 23z"/>
<path d="M2052 2339 c-48 -14 -109 -80 -123 -131 -23 -89 12 -182 88 -229 57
-36 154 -34 210 3 62 41 88 90 88 168 0 77 -26 127 -85 166 -43 29 -125 39
-178 23z"/>
<path d="M2922 2339 c-48 -14 -109 -80 -123 -131 -23 -89 12 -182 88 -229 57
-36 154 -34 210 3 62 41 88 90 88 168 0 77 -26 127 -85 166 -43 29 -125 39
-178 23z"/>
<path d="M3792 2339 c-48 -14 -109 -80 -123 -131 -23 -89 12 -182 88 -229 57
-36 154 -34 210 3 62 41 88 90 88 168 0 77 -26 127 -85 166 -43 29 -125 39
-178 23z"/>
<path d="M4855 1887 c-16 -6 -40 -18 -52 -25 -12 -6 -252 -334 -533 -727 -479
-669 -515 -716 -550 -726 -21 -6 -50 -9 -65 -5 -16 4 -158 135 -369 340 -369
359 -390 375 -476 363 -107 -14 -189 -115 -177 -217 3 -27 17 -65 30 -85 21
-31 475 -480 655 -647 119 -111 226 -154 382 -152 73 1 109 6 155 24 78 30
150 77 201 131 59 63 1023 1415 1047 1468 37 84 5 185 -76 235 -53 33 -125 43
-172 23z"/>
<path d="M1182 1469 c-48 -14 -109 -80 -123 -131 -23 -89 12 -182 88 -229 57
-36 154 -34 210 3 62 41 88 90 88 168 0 77 -26 127 -85 166 -43 29 -125 39
-178 23z"/>
<path d="M2052 1469 c-48 -14 -109 -80 -123 -131 -23 -89 12 -182 88 -229 57
-36 154 -34 210 3 62 41 88 90 88 168 0 77 -26 127 -85 166 -43 29 -125 39
-178 23z"/>
</g>
</svg>
