<svg width="83" height="83" viewBox="0 0 83 83" fill="none" xmlns="http://www.w3.org/2000/svg">
<path d="M18.0665 0.261375C17.7577 0.497505 17.6166 0.742432 17.5621 3.55786L17.4329 6.72778H13.7434C10.4921 6.72778 9.65652 6.78227 8.47586 7.09106C6.38699 7.61782 5.04285 8.41704 3.35359 10.0881C2.15477 11.2688 1.73699 11.8319 1.13758 13.0852C0.73797 13.9389 0.320197 15.0651 0.211212 15.5918C-0.0794129 16.9541 -0.0612488 71.9004 0.211212 73.2446C0.701642 75.5514 2.24559 78.0217 4.24363 79.6565C5.36981 80.601 7.47684 81.6182 8.87547 81.9088C9.52938 82.0542 14.579 82.1086 25.0596 82.1086C39.9542 82.1086 40.2811 82.1086 40.6081 81.7454C41.0077 81.2913 41.0259 80.1106 40.6081 79.6565C40.2993 79.3295 39.8452 78.5545 25.0596 78.5H11H8.87547C5.8784 77.3738 4.24363 75.5579 3.35359 73.2446V71.5V44.0579V17V15.5374C4.06199 13.3213 5.55645 11.6262 7.5 10.5C9.15293 9.55547 9.54754 9.54321 13.7434 9.54321H17.4329V12.0579C17.4329 14.9096 17.6487 15.1014 18.0847 15.5374C18.6296 16.0823 19.0655 16.1004 19.7013 15.61L20.1735 15.2467L20.5 12.2497V9.54321H29.8913H39V12.0579C39 14.9096 38.9368 15.4626 40 16C40.5449 16.5449 41.044 16.1004 41.6798 15.61L42.152 15.2467L42.5 12.177V9.54321H51.9606H61V12V15.2467L61.5 16C62.1357 16.4904 63.9551 16.5449 64.5 16C64.9359 15.5641 65 15.0288 65 12.177V9.54321H68.2719C71.16 9.54321 72.2008 9.88833 73 10.0881C75.8154 10.8329 78.0191 12.6129 79 15.5374C79.3814 16.6999 78.9273 16.7362 79 29.5418C79.0545 42.075 79.5 42.9651 80.1149 42.9651C80.569 43.3829 81.2956 43.3647 81.7497 42.9651C82.113 42.6381 82.113 42.3293 82.113 29.5418C82.113 15.0106 82.1493 15.4647 80.896 12.9036C80.0786 11.1961 77.8626 8.90746 76.1733 8.03559C74.1026 6.94575 72.7585 6.72778 68.2719 6.72778H65V3.55786C65 0.796921 64.2759 0.697311 63.9489 0.370361C63.4403 -0.138229 62.4231 -0.120071 62.0598 0.406685C61.8237 0.733635 61 1.17837 61 3.55786V6.72778H51.9606H42.5V3.73071C42.5 1.35122 42.0975 0.733635 41.8614 0.406685C41.4981 -0.120071 40.4809 -0.138229 39.9723 0.370361C39.6454 0.697311 39 0.796921 39 3.55786V6.72778H29.8913H20.5V3.73071C20.5 0.370361 20.0464 0.00708008 19.011 0.00708008C18.6841 0.00708008 18.2663 0.116066 18.0665 0.261375Z" fill="#B71C1C"/>
</svg>
