<?xml version="1.0" standalone="no"?>
<!DOCTYPE svg PUBLIC "-//W3C//DTD SVG 20010904//EN"
 "http://www.w3.org/TR/2001/REC-SVG-20010904/DTD/svg10.dtd">
<svg version="1.0" xmlns="http://www.w3.org/2000/svg"
 width="28.000000pt" height="28.000000pt" viewBox="0 0 512.000000 512.000000"
 preserveAspectRatio="xMidYMid meet">

<g transform="translate(0.000000,512.000000) scale(0.100000,-0.100000)"
fill="" stroke="none">
<path d="M1294 4806 c-17 -13 -19 -30 -22 -185 l-3 -171 -213 0 c-179 0 -225
-3 -290 -20 -115 -29 -189 -73 -282 -165 -66 -65 -89 -96 -122 -165 -22 -47
-45 -109 -51 -138 -16 -75 -15 -3100 0 -3174 27 -127 112 -263 222 -353 62
-52 178 -108 255 -124 36 -8 314 -11 891 -11 820 0 838 0 856 20 22 25 23 65
0 90 -17 18 -45 19 -859 22 l-841 4 -59 22 c-165 62 -263 161 -318 320 l-23
67 0 1525 0 1525 22 70 c39 122 119 222 226 284 91 52 148 61 379 61 l208 0 0
-160 c0 -157 1 -161 25 -185 30 -30 54 -31 89 -4 l26 20 0 165 0 164 535 0
535 0 0 -160 c0 -157 1 -161 25 -185 30 -30 54 -31 89 -4 l26 20 0 165 0 164
540 0 540 0 0 -164 0 -165 26 -20 c35 -27 59 -26 89 4 24 24 25 28 25 185 l0
160 213 0 c159 0 228 -4 272 -15 155 -41 284 -164 338 -325 21 -64 21 -76 25
-781 3 -690 4 -718 22 -734 25 -23 65 -22 90 0 20 18 20 35 20 739 0 800 2
775 -67 916 -45 94 -167 220 -260 268 -114 60 -188 72 -435 72 l-218 0 0 165
c0 152 -2 167 -20 185 -28 28 -84 27 -104 -2 -13 -18 -16 -54 -16 -185 l0
-163 -540 0 -540 0 0 163 c0 131 -3 167 -16 185 -20 29 -76 30 -104 2 -18 -18
-20 -33 -20 -185 l0 -165 -535 0 -535 0 0 163 c0 185 -7 207 -64 207 -18 0
-41 -6 -52 -14z"/>
<path d="M2110 3171 c-80 -25 -121 -66 -141 -142 -22 -83 23 -173 106 -210
132 -60 282 53 261 196 -16 103 -134 185 -226 156z"/>
<path d="M1270 3159 c-32 -13 -78 -56 -96 -91 -8 -15 -14 -50 -14 -78 0 -172
206 -253 319 -124 106 120 23 305 -136 303 -26 0 -59 -5 -73 -10z"/>
<path d="M2865 3146 c-107 -64 -120 -220 -25 -300 79 -66 203 -54 264 26 50
67 53 147 8 220 -48 77 -166 102 -247 54z"/>
<path d="M3669 3141 c-100 -63 -114 -198 -30 -282 88 -88 243 -65 294 44 19
40 22 128 6 160 -17 32 -60 77 -91 93 -47 25 -128 18 -179 -15z"/>
<path d="M2100 2359 c-130 -39 -179 -197 -93 -300 90 -106 255 -82 314 46 25
54 24 102 -3 155 -41 80 -135 123 -218 99z"/>
<path d="M1265 2348 c-32 -17 -76 -61 -91 -90 -20 -39 -18 -122 6 -168 55
-108 203 -129 291 -41 119 119 37 312 -133 311 -29 0 -62 -6 -73 -12z"/>
<path d="M2862 2334 c-112 -67 -114 -230 -3 -309 35 -25 52 -30 101 -30 49 0
66 5 101 30 151 107 81 335 -102 335 -40 0 -65 -7 -97 -26z"/>
<path d="M3678 2340 c-106 -56 -126 -205 -39 -291 118 -119 311 -37 311 132 0
105 -76 179 -181 179 -33 -1 -68 -8 -91 -20z"/>
<path d="M4723 1824 c-7 -3 -225 -303 -485 -666 -350 -490 -483 -668 -512
-687 -52 -34 -155 -42 -212 -15 -23 11 -166 143 -354 326 -282 275 -318 308
-347 308 -20 0 -41 -8 -53 -20 -44 -44 -36 -56 238 -324 380 -372 411 -401
479 -426 47 -18 74 -21 143 -18 99 4 172 33 231 91 20 19 166 216 325 438 158
222 368 516 466 652 189 263 199 286 158 327 -19 19 -50 24 -77 14z"/>
<path d="M1304 1550 c-124 -28 -183 -166 -119 -277 52 -88 175 -115 258 -57
58 41 82 86 82 156 0 47 -5 64 -30 99 -45 63 -122 95 -191 79z"/>
<path d="M2092 1549 c-47 -14 -109 -79 -122 -130 -48 -177 161 -309 302 -191
38 32 68 95 68 142 0 78 -62 159 -138 180 -44 12 -65 12 -110 -1z"/>
</g>
</svg>
