<svg width="36" height="39" viewBox="0 0 36 39" fill="" xmlns="http://www.w3.org/2000/svg" stroke="none">
<path d="M7.9207 0.114599C7.78533 0.21813 7.72348 0.325515 7.69959 1.55992L7.64295 2.94975H6.0254C4.59993 2.94975 4.23361 2.97365 3.71598 3.10903C2.80018 3.33999 2.21089 3.6904 1.47028 4.42308C0.944692 4.94073 0.761532 5.18761 0.498737 5.73712C0.323541 6.11143 0.14038 6.60519 0.0925996 6.83614C-0.0348162 7.43344 -0.0268527 31.5243 0.0925996 32.1136C0.307614 33.125 0.98451 34.2081 1.86049 34.9249C2.35423 35.339 3.27799 35.785 3.89118 35.9124C4.17787 35.9761 6.39172 36 10.9866 36C17.5167 36 17.66 36 17.8034 35.8407C17.9786 35.6416 17.9865 35.124 17.8034 34.9249C17.668 34.7815 17.4689 34.4417 10.9866 34.4178H4.82262H3.89118C2.57721 33.9241 1.86049 33.1279 1.47028 32.1136V31.3487V19.3169V7.45354V6.81225C1.78086 5.84065 2.43606 5.09742 3.28815 4.60366C4.01283 4.18953 4.18583 4.18416 6.0254 4.18416H7.64295V5.28669C7.64295 6.53703 7.73754 6.62112 7.92867 6.81225C8.16757 7.05117 8.3587 7.05913 8.63742 6.84411L8.84447 6.68483L8.98761 5.37078V4.18416H13.1049H17.0984V5.28669C17.0984 6.53703 17.0707 6.7795 17.5368 7.0151C17.7757 7.25401 17.9945 7.05913 18.2732 6.84411L18.4803 6.68483L18.6328 5.33893V4.18416H22.7806H26.7436V5.26132V6.68483L26.9628 7.0151C27.2415 7.23012 28.0392 7.25401 28.2781 7.0151C28.4692 6.82396 28.4973 6.58926 28.4973 5.33893V4.18416H29.9318C31.198 4.18416 31.6543 4.33547 32.0046 4.42308C33.239 4.7496 34.2051 5.53006 34.6352 6.81225C34.8024 7.32194 34.6033 7.33787 34.6352 12.9524C34.6591 18.4475 34.8544 18.8378 35.124 18.8378C35.3231 19.0209 35.6416 19.013 35.8407 18.8378C35.9999 18.6944 35.9999 18.559 35.9999 12.9524C35.9999 6.5813 36.0159 6.7804 35.4664 5.65748C35.108 4.90888 34.1365 3.90542 33.3959 3.52315C32.4881 3.04532 31.8988 2.94975 29.9318 2.94975H28.4973V1.55992C28.4973 0.349407 28.1798 0.305734 28.0365 0.162383C27.8135 -0.0606062 27.3675 -0.0526444 27.2083 0.178309C27.1047 0.32166 26.7436 0.516649 26.7436 1.55992V2.94975H22.7806H18.6328V1.63571C18.6328 0.592435 18.4564 0.32166 18.3529 0.178309C18.1936 -0.0526444 17.7476 -0.0606062 17.5247 0.162383C17.3813 0.305734 17.0984 0.349407 17.0984 1.55992V2.94975H13.1049H8.98761V1.63571C8.98761 0.162383 8.78872 0.00310507 8.33481 0.00310507C8.19146 0.00310507 8.0083 0.0508879 7.9207 0.114599Z"/>
<path d="M28 37.8918C28.9193 37.8918 29.8295 37.7107 30.6788 37.359C31.5281 37.0072 32.2997 36.4916 32.9497 35.8416C33.5998 35.1915 34.1154 34.4199 34.4672 33.5706C34.8189 32.7213 35 31.8111 35 30.8918V26.9998C35.0001 25.2802 34.3672 23.6207 33.222 22.3378M21 28.5538V30.8918C20.9995 32.2698 21.4058 33.6173 22.1679 34.7654C22.93 35.9135 24.0139 36.8111 25.284 37.3458M31.5 20.9378C29.8922 20.0096 27.9816 19.758 26.1884 20.2385C24.3952 20.719 22.8663 21.8921 21.938 23.4998C21.5558 24.1599 21.2861 24.8791 21.14 25.6278" stroke-linecap="round" stroke-linejoin="round"/>
<path d="M27.272 24.0598C27.7869 23.9529 28.3192 23.963 28.8297 24.0892C29.3403 24.2154 29.8159 24.4546 30.2217 24.7892C30.6275 25.1237 30.953 25.5451 31.1742 26.0222C31.3954 26.4993 31.5067 27.02 31.5 27.5458V29.7998M30.604 32.7398C30.1276 33.2704 29.5006 33.6429 28.8067 33.8073C28.1129 33.9718 27.3854 33.9204 26.7216 33.66C26.0578 33.3997 25.4893 32.9428 25.0923 32.3505C24.6952 31.7582 24.4886 31.0588 24.5 30.3458V27.5458C24.4973 27.065 24.5926 26.5886 24.78 26.1458M28 27.6998V30.0378" stroke-linecap="round" stroke-linejoin="round"/>
</svg>
