<svg width="36" height="36" viewBox="0 0 36 36" fill="none" xmlns="http://www.w3.org/2000/svg">
<path fill-rule="evenodd" clip-rule="evenodd" d="M17.4176 3.98689C17.7702 3.75177 18.2297 3.75177 18.5825 3.98689L31.0916 12.3263C31.956 12.9026 31.548 14.25 30.5091 14.25H5.49078C4.4519 14.25 4.04394 12.9026 4.90835 12.3263L17.4176 3.98689ZM18 5.40138L6.97703 12.75H29.0229L18 5.40138ZM30.2595 13.5744C30.2594 13.5743 30.2591 13.5741 30.2589 13.574L30.2595 13.5744Z" />
<path fill-rule="evenodd" clip-rule="evenodd" d="M27 25.5C26.5859 25.5 26.25 25.1642 26.25 24.75V16.5C26.25 16.0859 26.5859 15.75 27 15.75C27.4142 15.75 27.75 16.0859 27.75 16.5V24.75C27.75 25.1642 27.4142 25.5 27 25.5Z" />
<path fill-rule="evenodd" clip-rule="evenodd" d="M21 25.5C20.5859 25.5 20.25 25.1642 20.25 24.75V16.5C20.25 16.0859 20.5859 15.75 21 15.75C21.4142 15.75 21.75 16.0859 21.75 16.5V24.75C21.75 25.1642 21.4142 25.5 21 25.5Z" />
<path fill-rule="evenodd" clip-rule="evenodd" d="M15 25.5C14.5858 25.5 14.25 25.1642 14.25 24.75V16.5C14.25 16.0859 14.5858 15.75 15 15.75C15.4142 15.75 15.75 16.0859 15.75 16.5V24.75C15.75 25.1642 15.4142 25.5 15 25.5Z" />
<path fill-rule="evenodd" clip-rule="evenodd" d="M9 25.5C8.58579 25.5 8.25 25.1642 8.25 24.75V16.5C8.25 16.0859 8.58579 15.75 9 15.75C9.41421 15.75 9.75 16.0859 9.75 16.5V24.75C9.75 25.1642 9.41421 25.5 9 25.5Z" />
<path fill-rule="evenodd" clip-rule="evenodd" d="M5.25 29.25C5.25 28.0074 6.25735 27 7.5 27H28.5C29.7426 27 30.75 28.0074 30.75 29.25C30.75 30.4926 29.7426 31.5 28.5 31.5H7.5C6.25735 31.5 5.25 30.4926 5.25 29.25ZM7.5 28.5C7.08579 28.5 6.75 28.8359 6.75 29.25C6.75 29.6641 7.08579 30 7.5 30H28.5C28.9142 30 29.25 29.6641 29.25 29.25C29.25 28.8359 28.9142 28.5 28.5 28.5H7.5Z" />
</svg>
