<svg width="48" height="48" viewBox="0 0 36 36" fill="" xmlns="http://www.w3.org/2000/svg">
<g clip-path="url(#clip0_191_2)">
<path d="M3.78632 8.85179L11.1147 8.85285C11.7463 8.85021 11.74 9.89749 11.1147 9.89749H3.78632C3.15368 9.89749 3.16053 8.85179 3.78632 8.85179ZM9.19421 25.8352C9.60526 25.781 9.93 26.1829 9.79053 26.5738C9.71789 26.7719 9.54895 26.9115 9.33947 26.9394C8.85579 27.0011 8.36947 27.0158 7.88263 26.9831C6.09158 26.8625 4.48053 26.0855 3.28632 24.8902C1.98474 23.5874 1.17895 21.7873 1.17895 19.7981C1.17895 17.8105 1.98474 16.0099 3.28632 14.7066C4.58842 13.4039 6.38737 12.5973 8.37368 12.5973C9.06263 12.5973 9.73316 12.6964 10.3737 12.8818C10.9047 13.0351 11.4095 13.2479 11.8811 13.5113L11.7389 13.1405C11.6205 12.8291 11.7768 12.4809 12.0879 12.3619C12.3984 12.2433 12.7474 12.3993 12.8653 12.7111L13.4647 14.2805C13.4879 14.3421 13.5005 14.4053 13.5037 14.4669C13.5511 14.7598 13.3758 15.0496 13.0847 15.1381L11.4795 15.6296C11.1616 15.726 10.8258 15.5463 10.7295 15.2287C10.6337 14.911 10.8132 14.5749 11.1305 14.4785L11.2626 14.438C10.8853 14.233 10.4842 14.0682 10.0653 13.947C9.53316 13.7932 8.96579 13.711 8.37368 13.711C6.69421 13.711 5.17316 14.3921 4.07263 15.4937C2.97158 16.5952 2.29105 18.1177 2.29105 19.7981C2.29105 21.4797 2.97158 23.0016 4.07263 24.1037C5.07053 25.1019 6.41263 25.7552 7.90526 25.8684C8.33263 25.9016 8.77158 25.8906 9.19421 25.8352ZM7.27263 16.8697C7.27263 16.5625 7.52105 16.3128 7.82842 16.3128C8.13579 16.3128 8.38368 16.5625 8.38368 16.8697V20.2575L10.7005 21.2763C10.9811 21.4001 11.1084 21.7283 10.9853 22.0091C10.8616 22.2899 10.5342 22.4174 10.2532 22.2941L7.63263 21.1409C7.42211 21.0619 7.27263 20.8581 7.27263 20.6199V16.8697ZM11.1316 25.2405C10.6847 25.4696 10.7437 26.1271 11.2263 26.2709C11.3658 26.3109 11.5047 26.2983 11.6347 26.2335C11.9932 26.0528 12.3379 25.841 12.6605 25.6019C12.8184 25.4844 12.9 25.299 12.8832 25.103C12.84 24.6705 12.3479 24.4508 11.9979 24.7084C11.7247 24.9101 11.4349 25.0881 11.1316 25.2405ZM13.3995 23.246C13.1463 23.6237 13.4311 24.1321 13.8863 24.1126C14.0637 24.1026 14.2226 24.0157 14.3232 23.8666C14.5479 23.5321 14.7426 23.1818 14.9095 22.8146C15.07 22.4527 14.8195 22.0465 14.4232 22.0291C14.1958 22.0218 13.99 22.1487 13.8963 22.3563C13.7547 22.6676 13.5905 22.9626 13.3995 23.246ZM14.4216 20.3918C14.4016 20.6105 14.5068 20.8154 14.6958 20.926C15.0505 21.1283 15.4874 20.9018 15.5284 20.4972C15.5668 20.0953 15.5726 19.697 15.5453 19.2935C15.5316 19.1001 15.4189 18.9294 15.2479 18.8394C14.8621 18.6392 14.4053 18.9384 14.4358 19.372C14.4589 19.7138 14.4537 20.0505 14.4216 20.3918ZM13.9605 17.3991C14.0853 17.6857 14.42 17.8158 14.7047 17.6841C14.9784 17.5577 15.1011 17.2363 14.9826 16.9592C14.8241 16.5898 14.6354 16.234 14.4184 15.8956C14.1458 15.4763 13.5042 15.5985 13.4053 16.089C13.3779 16.2333 13.4037 16.3739 13.4837 16.4983C13.6679 16.7859 13.8274 17.0846 13.9605 17.3991ZM11.0153 2.25259L15 6H11.0153V2.25259ZM17 6.56496C17 6.27312 16.7837 6.00866 16.5337 5.75685L10.8684 0.236006C10.7516 0.0895557 10.5716 0 10.3747 0H1.15105C0.514211 0 0 0.514155 0 1.15158V16.0447C0.340526 15.3325 0.488421 14.5963 1 14V1H10V6.5C10 6.85401 10.1411 7 10.5 7H16V14C16.6195 14.4631 16.6689 15.5084 17 16.1827V6.56496ZM3.78632 5.15788H7.27474C7.90684 5.15788 7.89895 6.20252 7.27474 6.20252H3.78632C3.15368 6.20252 3.16 5.15788 3.78632 5.15788Z" fill=""/>
</g>
<defs>
<clipPath id="clip0_191_2">
<rect width="17" height="27" fill=""/>
</clipPath>
</defs>
</svg>
