<?xml version="1.0" standalone="no"?>
<!DOCTYPE svg PUBLIC "-//W3C//DTD SVG 20010904//EN"
 "http://www.w3.org/TR/2001/REC-SVG-20010904/DTD/svg10.dtd">
<svg version="1.0" xmlns="http://www.w3.org/2000/svg"
 width="32.000000pt" height="28.000000pt" viewBox="0 0 108.000000 108.000000"
 preserveAspectRatio="xMidYMid meet">

<g transform="translate(24.000000,108.000000) scale(0.100000,-0.100000)"
fill="" stroke="none">
<path d="M16 1064 c-14 -13 -16 -56 -16 -317 l1 -302 19 39 c18 36 20 61 20
298 l0 258 180 0 180 0 0 -120 0 -120 120 0 120 0 0 -144 c0 -84 4 -147 10
-151 5 -3 14 -20 19 -38 6 -23 9 26 10 163 l1 195 -128 128 -127 127 -197 0
c-165 0 -199 -2 -212 -16z m509 -154 l69 -70 -77 0 -77 0 0 70 c0 39 3 70 8
70 4 0 39 -31 77 -70z"/>
<path d="M134 859 c-13 -22 15 -30 92 -27 66 3 79 6 82 21 3 15 -6 17 -82 17
-50 0 -88 -4 -92 -11z"/>
<path d="M140 714 c-24 -28 8 -34 165 -31 143 2 150 3 150 22 0 19 -8 20 -151
23 -129 2 -153 0 -164 -14z"/>
<path d="M477 583 c-4 -3 -7 -14 -7 -24 0 -17 -2 -17 -37 -2 -21 9 -65 16 -98
16 -154 1 -285 -127 -285 -279 0 -164 114 -286 270 -288 59 -1 65 1 65 19 0
17 -8 21 -66 25 -50 4 -77 12 -114 35 -130 81 -149 272 -38 377 62 59 166 83
241 57 26 -9 31 -15 26 -34 -8 -31 5 -36 57 -21 40 13 44 16 43 45 -3 49 -37
94 -57 74z"/>
<path d="M540 435 c0 -24 22 -65 36 -65 21 0 27 20 14 51 -13 30 -50 41 -50
14z"/>
<path d="M278 419 c-43 -22 -78 -81 -78 -131 1 -51 34 -114 90 -168 28 -28 55
-50 60 -50 19 0 112 102 130 142 38 84 16 164 -56 205 -48 28 -97 28 -146 2z
m140 -35 c13 -9 30 -32 39 -51 22 -53 3 -111 -58 -177 l-47 -51 -37 35 c-49
47 -89 131 -80 167 21 89 109 126 183 77z"/>
<path d="M323 350 c-72 -29 -34 -143 42 -124 55 14 69 86 22 119 -24 17 -33
17 -64 5z m52 -60 c0 -18 -6 -26 -23 -28 -24 -4 -38 18 -28 44 3 9 15 14 28
12 17 -2 23 -10 23 -28z"/>
<path d="M587 324 c-4 -4 -7 -25 -7 -46 0 -32 3 -39 18 -36 13 2 17 13 17 42
0 37 -13 55 -28 40z"/>
<path d="M550 170 c-22 -31 -20 -50 5 -50 19 0 49 46 41 65 -8 23 -22 18 -46
-15z"/>
<path d="M462 78 c-33 -21 -39 -32 -21 -43 13 -9 66 13 73 30 10 27 -18 35
-52 13z"/>
</g>
</svg>
