<svg width="48" height="48" viewBox="0 0 48 48" fill="" xmlns="http://www.w3.org/2000/svg">
<g>
<path d="M3.78632 8.85179L11.1147 8.85285C11.7463 8.85021 11.74 9.89749 11.1147 9.89749H3.78632C3.15368 9.89749 3.16053 8.85179 3.78632 8.85179ZM9.19421 25.8352C9.60526 25.781 9.93 26.1829 9.79053 26.5738C9.71789 26.7719 9.54895 26.9115 9.33947 26.9394C8.85579 27.0011 8.36947 27.0158 7.88263 26.9831C6.09158 26.8625 4.48053 26.0855 3.28632 24.8902C1.98474 23.5874 1.17895 21.7873 1.17895 19.7981C1.17895 17.8105 1.98474 16.0099 3.28632 14.7066C4.58842 13.4039 6.38737 12.5973 8.37368 12.5973C9.06263 12.5973 9.73316 12.6964 10.3737 12.8818C10.9047 13.0351 11.4095 13.2479 11.8811 13.5113L11.7389 13.1405C11.6205 12.8291 11.7768 12.4809 12.0879 12.3619C12.3984 12.2433 12.7474 12.3993 12.8653 12.7111L13.4647 14.2805C13.4879 14.3421 13.5005 14.4053 13.5037 14.4669C13.5511 14.7598 13.3758 15.0496 13.0847 15.1381L11.4795 15.6296C11.1616 15.726 10.8258 15.5463 10.7295 15.2287C10.6337 14.911 10.8132 14.5749 11.1305 14.4785L11.2626 14.438C10.8853 14.233 10.4842 14.0682 10.0653 13.947C9.53316 13.7932 8.96579 13.711 8.37368 13.711C6.69421 13.711 5.17316 14.3921 4.07263 15.4937C2.97158 16.5952 2.29105 18.1177 2.29105 19.7981C2.29105 21.4797 2.97158 23.0016 4.07263 24.1037C5.07053 25.1019 6.41263 25.7552 7.90526 25.8684C8.33263 25.9016 8.77158 25.8906 9.19421 25.8352ZM7.20302 16.5742C7.5 16.5 7.04789 16.3926 7.35526 16.3926C7.66263 16.3926 7.35526 16.3513 7.60186 16.3128L7.77876 16.2432C8.05929 16.367 7.75579 15.9624 7.63263 16.2432C7.50895 16.5239 7.63631 16.5159 7.35526 16.3926L7.20302 16.5742L7.5 16.5C7.28947 16.421 7.28047 16.7726 7.28047 16.5344L7.20302 16.5742ZM11.1316 25.2405C10.6847 25.4696 10.7437 26.1271 11.2263 26.2709C11.3658 26.3109 11.5047 26.2983 11.6347 26.2335C11.9932 26.0528 12.3379 25.841 12.6605 25.6019C12.8184 25.4844 12.9 25.299 12.8832 25.103C12.84 24.6705 12.3479 24.4508 11.9979 24.7084C11.7247 24.9101 11.4349 25.0881 11.1316 25.2405ZM13.3995 23.246C13.1463 23.6237 13.4311 24.1321 13.8863 24.1126C14.0637 24.1026 14.2226 24.0157 14.3232 23.8666C14.5479 23.5321 14.7426 23.1818 14.9095 22.8146C15.07 22.4527 14.8195 22.0465 14.4232 22.0291C14.1958 22.0218 13.99 22.1487 13.8963 22.3563C13.7547 22.6676 13.5905 22.9626 13.3995 23.246ZM14.4216 20.3918C14.4016 20.6105 14.5068 20.8154 14.6958 20.926C15.0505 21.1283 15.4874 20.9018 15.5284 20.4972C15.5668 20.0953 15.5726 19.697 15.5453 19.2935C15.5316 19.1001 15.4189 18.9294 15.2479 18.8394C14.8621 18.6392 14.4053 18.9384 14.4358 19.372C14.4589 19.7138 14.4537 20.0505 14.4216 20.3918ZM13.9605 17.3991C14.0853 17.6857 14.42 17.8158 14.7047 17.6841C14.9784 17.5577 15.1011 17.2363 14.9826 16.9592C14.8241 16.5898 14.6354 16.234 14.4184 15.8956C14.1458 15.4763 13.5042 15.5985 13.4053 16.089C13.3779 16.2333 13.4037 16.3739 13.4837 16.4983C13.6679 16.7859 13.8274 17.0846 13.9605 17.3991ZM11.0153 2.25259L15 6H11.0153V2.25259ZM17 6.56496C17 6.27312 16.7837 6.00866 16.5337 5.75685L10.8684 0.236006C10.7516 0.0895557 10.5716 0 10.3747 0H1.15105C0.514211 0 0 0.514155 0 1.15158V16.0447C0.340526 15.3325 0.488421 14.5963 1 14V1H10V6.5C10 6.85401 10.1411 7 10.5 7H16V14C16.6195 14.4631 16.6689 15.5084 17 16.1827V6.56496ZM3.78632 5.15788H7.27474C7.90684 5.15788 7.89895 6.20252 7.27474 6.20252H3.78632C3.15368 6.20252 3.16 5.15788 3.78632 5.15788Z" fill=""/>
<path d="M8.75 16.8333C7.97645 16.8333 7.23459 17.1406 6.68761 17.6876C6.14062 18.2346 5.83333 18.9765 5.83333 19.75C5.83333 20.9425 6.57583 22.0929 7.39083 22.9842C7.80778 23.438 8.26247 23.8556 8.75 24.2325C9.23752 23.8559 9.69221 23.4385 10.1092 22.985C10.9242 22.0929 11.6667 20.9429 11.6667 19.75C11.6667 18.9765 11.3594 18.2346 10.8124 17.6876C10.2654 17.1406 9.52355 16.8333 8.75 16.8333ZM8.75 25.2558L8.51375 25.0933L8.5125 25.0925L8.51 25.0904L8.50167 25.0846L8.47042 25.0625C8.29789 24.9371 8.1292 24.8065 7.96458 24.6708C7.54266 24.3242 7.14544 23.9486 6.77583 23.5467C5.92417 22.615 5 21.2654 5 19.75C5 18.7554 5.39509 17.8016 6.09835 17.0983C6.80161 16.3951 7.75544 16 8.75 16C9.74456 16 10.6984 16.3951 11.4016 17.0983C12.1049 17.8016 12.5 18.7554 12.5 19.75C12.5 21.2654 11.5758 22.6154 10.7242 23.5467C10.2416 24.0715 9.7122 24.5513 9.1425 24.98C9.09503 25.0155 9.04711 25.0503 8.99875 25.0846L8.99 25.0904L8.9875 25.0925L8.98667 25.0929L8.75 25.2558ZM8.75 18.9167C8.52899 18.9167 8.31702 19.0045 8.16074 19.1607C8.00446 19.317 7.91667 19.529 7.91667 19.75C7.91667 19.971 8.00446 20.183 8.16074 20.3393C8.31702 20.4955 8.52899 20.5833 8.75 20.5833C8.97101 20.5833 9.18298 20.4955 9.33926 20.3393C9.49554 20.183 9.58333 19.971 9.58333 19.75C9.58333 19.529 9.49554 19.317 9.33926 19.1607C9.18298 19.0045 8.97101 18.9167 8.75 18.9167ZM7.08333 19.75C7.08333 19.308 7.25893 18.884 7.57149 18.5715C7.88405 18.2589 8.30797 18.0833 8.75 18.0833C9.19203 18.0833 9.61595 18.2589 9.92851 18.5715C10.2411 18.884 10.4167 19.308 10.4167 19.75C10.4167 20.192 10.2411 20.616 9.92851 20.9285C9.61595 21.2411 9.19203 21.4167 8.75 21.4167C8.30797 21.4167 7.88405 21.2411 7.57149 20.9285C7.25893 20.616 7.08333 20.192 7.08333 19.75Z" fill=""/>
</g>
<defs>
<clipPath>
<rect width="48" height="48" fill=""/>
</clipPath>
</defs>
</svg>
