<svg width="24" height="24" viewBox="0 0 24 24" fill="none" xmlns="http://www.w3.org/2000/svg">
<path d="M23.259 16.2001L20.659 6.82905C20.1038 4.82447 18.8941 3.06319 17.2223 1.82554C15.5506 0.587883 13.5128 -0.055026 11.4335 -0.000866288C9.35417 0.0532934 7.35269 0.801409 5.74762 2.12441C4.14255 3.44742 3.02613 5.26928 2.57604 7.30005L0.565038 16.35C0.46773 16.7885 0.470104 17.2432 0.571983 17.6806C0.673862 18.118 0.872647 18.5269 1.15367 18.8773C1.4347 19.2276 1.79079 19.5103 2.19568 19.7047C2.60057 19.899 3.04393 19.9999 3.49304 20H7.10004C7.32955 21.1303 7.94277 22.1465 8.83578 22.8764C9.72879 23.6063 10.8467 24.0051 12 24.0051C13.1534 24.0051 14.2713 23.6063 15.1643 22.8764C16.0573 22.1465 16.6705 21.1303 16.9 20H20.37C20.8321 19.9998 21.288 19.8929 21.7019 19.6875C22.1159 19.4821 22.4768 19.1839 22.7566 18.8161C23.0363 18.4483 23.2273 18.0208 23.3146 17.567C23.4019 17.1132 23.3833 16.6454 23.26 16.2001H23.259ZM12 22C11.3818 21.9975 10.7794 21.804 10.2753 21.446C9.77127 21.088 9.39012 20.583 9.18404 20H14.816C14.61 20.583 14.2288 21.088 13.7247 21.446C13.2207 21.804 12.6183 21.9975 12 22ZM21.165 17.605C21.0717 17.7287 20.9508 17.8289 20.8119 17.8975C20.673 17.966 20.52 18.0012 20.365 18H3.49304C3.3433 18 3.19548 17.9664 3.06048 17.9016C2.92549 17.8368 2.80677 17.7425 2.71309 17.6257C2.61941 17.5089 2.55316 17.3725 2.51922 17.2267C2.48529 17.0808 2.48454 16.9292 2.51704 16.7831L4.52804 7.73305C4.88239 6.13926 5.75934 4.70965 7.01949 3.6715C8.27964 2.63334 9.85066 2.04622 11.4828 2.00346C13.115 1.96071 14.7146 2.46477 16.0273 3.43552C17.3401 4.40627 18.2907 5.788 18.728 7.36105L21.328 16.732C21.3705 16.8802 21.3779 17.0363 21.3496 17.1878C21.3213 17.3393 21.2581 17.4822 21.165 17.605Z" />
</svg>
