<svg width="35" height="34" viewBox="0 0 35 34" fill="none" xmlns="http://www.w3.org/2000/svg">
<path d="M31.3088 24.7239C30.3916 23.9547 25.0122 20.5482 24.1181 20.7045C23.6983 20.7791 23.3772 21.1369 22.5177 22.1622C22.1202 22.6669 21.6837 23.1395 21.2122 23.5758C20.3483 23.3671 19.512 23.0571 18.7208 22.6523C15.6179 21.1416 13.1112 18.6342 11.6014 15.5308C11.1966 14.7396 10.8866 13.9034 10.6779 13.0394C11.1142 12.5679 11.5868 12.1314 12.0915 11.7339C13.1157 10.8744 13.4747 10.5554 13.5492 10.1335C13.7055 9.23732 10.2959 3.85998 9.52981 2.94277C9.20868 2.56288 8.91693 2.30786 8.54333 2.30786C7.46031 2.30786 2.56152 8.36523 2.56152 9.15021C2.56152 9.21423 2.66647 15.5203 10.6307 23.623C18.7334 31.5872 25.0395 31.6922 25.1035 31.6922C25.8885 31.6922 31.9459 26.7934 31.9459 25.7104C31.9459 25.3368 31.6908 25.045 31.3088 24.7239Z" />
<path d="M24.5997 15.9506H26.6986C26.6961 13.7247 25.8108 11.5907 24.2369 10.0168C22.6629 8.44288 20.529 7.55755 18.3031 7.55505V9.65393C19.9726 9.6556 21.5732 10.3195 22.7537 11.5C23.9341 12.6805 24.5981 14.2811 24.5997 15.9506Z" />
<path d="M29.8469 15.9506H31.9458C31.9417 12.3336 30.503 8.86593 27.9454 6.30832C25.3878 3.75072 21.9201 2.31203 18.3031 2.30786V4.40674C21.3636 4.41035 24.2977 5.62773 26.4618 7.79184C28.6259 9.95595 29.8433 12.8901 29.8469 15.9506Z" />
</svg>
