<?xml version="1.0" standalone="no"?>
<!DOCTYPE svg PUBLIC "-//W3C//DTD SVG 20010904//EN"
 "http://www.w3.org/TR/2001/REC-SVG-20010904/DTD/svg10.dtd">
<svg version="1.0" xmlns="http://www.w3.org/2000/svg"
 width="512.000000pt" height="512.000000pt" viewBox="0 0 512.000000 512.000000"
 preserveAspectRatio="xMidYMid meet">

<g transform="translate(0.000000,512.000000) scale(0.100000,-0.100000)"
fill="" stroke="none">
<path d="M2011 4354 c-75 -20 -165 -70 -225 -125 -32 -29 -107 -131 -201 -272
l-150 -225 -58 -6 c-431 -50 -782 -403 -836 -841 -15 -121 -15 -1169 0 -1290
48 -389 320 -705 705 -817 l79 -23 1202 -3 c1147 -2 1207 -2 1295 16 327 67
605 312 712 628 50 149 51 166 51 844 0 678 -1 695 -51 844 -117 343 -435 601
-791 642 l-58 6 -150 225 c-161 242 -215 303 -316 354 -116 58 -127 59 -664
58 -395 0 -500 -3 -544 -15z m784 -1189 c228 -67 411 -217 519 -425 63 -121
87 -211 93 -356 13 -277 -89 -509 -305 -695 -71 -62 -231 -142 -337 -170 -112
-30 -298 -29 -410 0 -158 42 -296 123 -406 237 -107 113 -171 224 -215 374
-29 100 -27 337 4 444 93 322 354 555 689 616 89 16 269 4 368 -25z m1108 24
c21 -6 56 -26 77 -45 143 -130 53 -367 -140 -367 -182 0 -277 213 -157 350 57
64 134 86 220 62z"/>
<path d="M2428 2751 c-76 -24 -115 -50 -177 -116 -92 -97 -133 -228 -111 -354
60 -345 474 -479 719 -234 129 130 162 312 86 481 -28 61 -110 151 -169 186
-97 56 -239 72 -348 37z"/>
</g>
</svg>
