<?xml version="1.0" encoding="UTF-8"?>
<!DOCTYPE svg PUBLIC "-//W3C//DTD SVG 1.1//EN" "http://www.w3.org/Graphics/SVG/1.1/DTD/svg11.dtd">
<svg xmlns="http://www.w3.org/2000/svg" version="1.1" width="32px" height="32px" style="shape-rendering:geometricPrecision; text-rendering:geometricPrecision; image-rendering:optimizeQuality; fill-rule:evenodd; clip-rule:evenodd" xmlns:xlink="http://www.w3.org/1999/xlink">
<g><path style="opacity:0.951" fill="" d="M 179.5,-0.5 C 228.833,-0.5 278.167,-0.5 327.5,-0.5C 329.144,0.316435 330.31,1.64977 331,3.5C 331.5,28.8311 331.667,54.1645 331.5,79.5C 353.503,79.3334 375.503,79.5 397.5,80C 402.327,83.1513 403.494,87.3179 401,92.5C 353.5,148 306,203.5 258.5,259C 252.538,261.347 247.704,259.847 244,254.5C 197.291,200.127 150.958,145.46 105,90.5C 104.181,85.9742 105.681,82.4742 109.5,80C 131.497,79.5 153.497,79.3334 175.5,79.5C 175.333,54.1645 175.5,28.8311 176,3.5C 176.69,1.64977 177.856,0.316435 179.5,-0.5 Z M 191.5,15.5 C 232.833,15.5 274.167,15.5 315.5,15.5C 315.333,41.1688 315.5,66.8355 316,92.5C 317.319,94.4875 319.152,95.6541 321.5,96C 339.167,96.3333 356.833,96.6667 374.5,97C 334.324,144.006 293.991,190.839 253.5,237.5C 213.009,190.839 172.676,144.006 132.5,97C 150.167,96.6667 167.833,96.3333 185.5,96C 187.848,95.6541 189.681,94.4875 191,92.5C 191.5,66.8355 191.667,41.1688 191.5,15.5 Z"/></g>
<g><path style="opacity:0.952" fill="" d="M 511.5,327.5 C 511.5,330.167 511.5,332.833 511.5,335.5C 510.684,337.144 509.35,338.31 507.5,339C 487.503,339.5 467.503,339.667 447.5,339.5C 447.5,391.5 447.5,443.5 447.5,495.5C 467.503,495.333 487.503,495.5 507.5,496C 509.35,496.69 510.684,497.856 511.5,499.5C 511.5,502.167 511.5,504.833 511.5,507.5C 510.5,509.167 509.167,510.5 507.5,511.5C 483.5,511.5 459.5,511.5 435.5,511.5C 433.856,510.684 432.69,509.35 432,507.5C 431.5,498.173 431.334,488.839 431.5,479.5C 373.499,479.667 315.499,479.5 257.5,479C 237.151,477.328 217.818,471.995 199.5,463C 172.847,450.015 147.514,435.015 123.5,418C 86.4805,392.157 49.8139,365.824 13.5,339C -0.75359,324.299 -3.25359,307.799 6,289.5C 17.0665,273.589 31.8998,268.422 50.5,274C 59.2295,277.198 67.5629,281.198 75.5,286C 105.667,304.167 135.833,322.333 166,340.5C 171.348,333.403 178.514,329.236 187.5,328C 205.833,327.667 224.167,327.333 242.5,327C 257.349,326.307 272.016,324.307 286.5,321C 300.167,316.667 313.833,312.333 327.5,308C 366.3,296.29 402.633,301.29 436.5,323C 460.167,323.333 483.833,323.667 507.5,324C 509.35,324.69 510.684,325.856 511.5,327.5 Z M 35.5,288.5 C 45.5388,290.015 54.8721,293.515 63.5,299C 95.0009,318.252 126.668,337.252 158.5,356C 157.102,370.829 162.436,382.496 174.5,391C 186.549,397.931 199.549,401.931 213.5,403C 254.17,404.576 294.837,405.909 335.5,407C 337.333,406.5 338.5,405.333 339,403.5C 341.13,396.923 338.964,392.756 332.5,391C 298.524,389.057 264.524,387.723 230.5,387C 214.295,387.493 198.962,384.16 184.5,377C 176.005,370.045 174.172,361.545 179,351.5C 180.938,348.894 183.438,347.061 186.5,346C 191.756,344.767 197.09,343.934 202.5,343.5C 245.265,347.655 286.598,341.821 326.5,326C 363.547,313.381 398.213,317.881 430.5,339.5C 431.5,380.828 431.833,422.161 431.5,463.5C 373.823,463.877 316.156,463.377 258.5,462C 241.73,460.474 225.73,456.141 210.5,449C 193.227,441.032 176.56,432.032 160.5,422C 115.334,391.833 71.001,360.499 27.5,328C 14.9814,317.002 14.3147,305.335 25.5,293C 28.5636,290.63 31.8969,289.13 35.5,288.5 Z"/></g>
</svg>
