<svg width="28" height="28" viewBox="0 0 28 28" fill="none" xmlns="http://www.w3.org/2000/svg">
<path d="M24.5001 28H18.6667V25.6666H24.5001C24.8095 25.6666 25.1062 25.5437 25.325 25.3249C25.5438 25.1061 25.6667 24.8094 25.6667 24.5V18.6666H28.0001V24.5C28.0001 25.4282 27.6313 26.3185 26.975 26.9748C26.3186 27.6312 25.4283 28 24.5001 28Z" />
<path d="M2.33333 9.33333H0V3.5C0 2.57174 0.368749 1.6815 1.02513 1.02513C1.6815 0.368749 2.57174 0 3.5 0L9.33333 0V2.33333H3.5C3.19058 2.33333 2.89383 2.45625 2.67504 2.67504C2.45625 2.89383 2.33333 3.19058 2.33333 3.5V9.33333Z" />
<path d="M9.33333 28H3.5C2.57174 28 1.6815 27.6312 1.02513 26.9748C0.368749 26.3185 0 25.4282 0 24.5L0 18.6666H2.33333V24.5C2.33333 24.8094 2.45625 25.1061 2.67504 25.3249C2.89383 25.5437 3.19058 25.6666 3.5 25.6666H9.33333V28Z" />
<path d="M28.0001 9.33333H25.6667V3.5C25.6667 3.19058 25.5438 2.89383 25.325 2.67504C25.1062 2.45625 24.8095 2.33333 24.5001 2.33333H18.6667V0H24.5001C25.4283 0 26.3186 0.368749 26.975 1.02513C27.6313 1.6815 28.0001 2.57174 28.0001 3.5V9.33333Z" />
<path d="M13.9999 12.8333C13.0769 12.8333 12.1747 12.5596 11.4073 12.0469C10.6398 11.5341 10.0417 10.8052 9.68848 9.95253C9.33527 9.0998 9.24286 8.16149 9.42292 7.25625C9.60299 6.351 10.0474 5.51948 10.7001 4.86684C11.3527 4.21419 12.1843 3.76974 13.0895 3.58967C13.9947 3.40961 14.9331 3.50202 15.7858 3.85523C16.6385 4.20844 17.3673 4.80658 17.8801 5.57401C18.3929 6.34144 18.6666 7.24369 18.6666 8.16667C18.6666 9.40435 18.1749 10.5913 17.2998 11.4665C16.4246 12.3417 15.2376 12.8333 13.9999 12.8333ZM13.9999 5.83334C13.5384 5.83334 13.0873 5.97018 12.7036 6.22657C12.3199 6.48296 12.0208 6.84738 11.8442 7.27374C11.6676 7.7001 11.6214 8.16926 11.7114 8.62188C11.8015 9.0745 12.0237 9.49026 12.35 9.81658C12.6763 10.1429 13.0921 10.3651 13.5447 10.4552C13.9973 10.5452 14.4665 10.499 14.8928 10.3224C15.3192 10.1458 15.6836 9.84671 15.94 9.463C16.1964 9.07928 16.3333 8.62816 16.3333 8.16667C16.3333 7.54783 16.0874 6.95434 15.6498 6.51675C15.2123 6.07917 14.6188 5.83334 13.9999 5.83334Z" />
<path d="M22.1666 23.3333H19.8333V18.6666C19.8333 18.3572 19.7103 18.0605 19.4915 17.8417C19.2728 17.6229 18.976 17.5 18.6666 17.5H9.33325C9.02383 17.5 8.72709 17.6229 8.50829 17.8417C8.2895 18.0605 8.16659 18.3572 8.16659 18.6666V23.3333H5.83325V18.6666C5.83325 17.7384 6.202 16.8481 6.85838 16.1918C7.51476 15.5354 8.40499 15.1666 9.33325 15.1666H18.6666C19.5948 15.1666 20.4851 15.5354 21.1415 16.1918C21.7978 16.8481 22.1666 17.7384 22.1666 18.6666V23.3333Z" />
</svg>
