<svg width="34" height="34" viewBox="0 0 34 34" fill="none" xmlns="http://www.w3.org/2000/svg">
<g clip-path="url(#clip0_147_1527)">
<path d="M30.9267 23.7539C30.4503 23.4922 29.8522 23.6663 29.5907 24.1424C29.329 24.6187 29.503 25.2169 29.9792 25.4784C31.1512 26.1223 31.8234 26.836 31.8234 27.4367C31.8234 28.1714 30.7825 29.31 27.8609 30.3026C24.9746 31.2833 21.1174 31.8233 17 31.8233C12.8826 31.8233 9.02546 31.2833 6.13917 30.3026C3.2176 29.3101 2.17668 28.1714 2.17668 27.4367C2.17668 26.836 2.84885 26.1223 4.02081 25.4784C4.49706 25.2168 4.67101 24.6186 4.40937 24.1424C4.14773 23.6662 3.54975 23.4922 3.07337 23.7538C1.76668 24.4717 0.208984 25.6934 0.208984 27.4367C0.208984 28.773 1.12803 30.6783 5.50617 32.1657C8.59099 33.2138 12.6729 33.791 17 33.791C21.3271 33.791 25.4091 33.2138 28.4939 32.1657C32.872 30.6783 33.7911 28.773 33.7911 27.4367C33.7911 25.6934 32.2334 24.4717 30.9267 23.7539Z" />
<path d="M9.57213 28.8803C11.5693 29.4445 14.2073 29.7553 17.0001 29.7553C19.7928 29.7553 22.4308 29.4446 24.428 28.8803C26.8714 28.1901 28.1104 27.1909 28.1104 25.9107C28.1104 24.6305 26.8714 23.6314 24.428 22.9412C23.8856 22.788 23.2957 22.6536 22.6685 22.5389C22.3279 23.1274 21.971 23.7331 21.5979 24.3563C22.2921 24.4605 22.9438 24.5882 23.5357 24.739C25.3339 25.197 25.9909 25.7126 26.1259 25.9108C25.9908 26.1091 25.334 26.6247 23.5358 27.0826C21.8338 27.5161 19.644 27.7634 17.3377 27.7855C17.226 27.7938 17.1134 27.7984 17.0001 27.7984C16.8867 27.7984 16.7742 27.7938 16.6624 27.7855C14.3561 27.7634 12.1663 27.5162 10.4643 27.0826C8.66607 26.6247 8.00918 26.109 7.87413 25.9108C8.00918 25.7126 8.66613 25.197 10.4643 24.739C11.0562 24.5882 11.708 24.4605 12.4023 24.3563C12.0291 23.7332 11.6723 23.1273 11.3316 22.5389C10.7045 22.6537 10.1145 22.788 9.57213 22.9412C7.1287 23.6314 5.88977 24.6305 5.88977 25.9107C5.88977 27.1909 7.1287 28.19 9.57213 28.8803Z" />
<path d="M17 25.8306C17.8758 25.8306 18.6714 25.3843 19.1283 24.6368C22.3297 19.399 26.1459 12.4959 26.1459 9.35473C26.1459 4.31171 22.0431 0.208923 17 0.208923C11.9569 0.208923 7.85413 4.31171 7.85413 9.35473C7.85413 12.4959 11.6704 19.399 14.8717 24.6368C15.3286 25.3843 16.1242 25.8306 17 25.8306ZM13.3239 8.72677C13.3239 6.69984 14.973 5.05078 17 5.05078C19.027 5.05078 20.6761 6.69984 20.6761 8.72677C20.6761 10.7538 19.027 12.4028 17 12.4028C14.973 12.4028 13.3239 10.7538 13.3239 8.72677Z" />
</g>
<defs>
<clipPath id="clip0_147_1527">
<rect width="33.5821" height="33.5821"  transform="translate(0.208984 0.208923)"/>
</clipPath>
</defs>
</svg>
