<?xml version="1.0" standalone="no"?>
<!DOCTYPE svg PUBLIC "-//W3C//DTD SVG 20010904//EN"
 "http://www.w3.org/TR/2001/REC-SVG-20010904/DTD/svg10.dtd">
<svg version="1.0" xmlns="http://www.w3.org/2000/svg"
 width="28.000000pt" height="28.000000pt" viewBox="0 0 512.000000 512.000000"
 preserveAspectRatio="xMidYMid meet">

<g transform="translate(0.000000,512.000000) scale(0.100000,-0.100000)"
fill="" stroke="none">
<path d="M2255 4835 c-503 -81 -927 -349 -1206 -764 -159 -235 -255 -492 -290
-774 -19 -155 -7 -452 25 -602 50 -237 150 -478 281 -675 66 -100 1079 -1346
1168 -1438 166 -170 460 -180 633 -20 52 48 1070 1289 1164 1420 125 174 252
463 300 688 49 225 53 543 11 754 -143 709 -686 1252 -1397 1397 -141 29 -545
37 -689 14z m597 -324 c149 -26 276 -69 419 -142 380 -196 651 -548 750 -978
15 -62 22 -137 26 -271 5 -159 2 -202 -16 -309 -36 -213 -124 -438 -239 -611
-80 -120 -1125 -1393 -1161 -1414 -41 -24 -101 -24 -142 0 -36 21 -1081 1294
-1161 1414 -115 173 -203 398 -239 611 -18 107 -21 150 -16 309 8 254 44 407
148 613 67 136 137 234 249 350 124 130 237 213 395 292 238 118 393 153 687
154 142 1 213 -4 300 -18z"/>
<path d="M3125 3551 c-16 -10 -172 -161 -345 -335 -173 -174 -319 -316 -325
-316 -6 0 -82 72 -170 161 -88 88 -172 167 -187 175 -61 32 -159 8 -200 -48
-23 -33 -34 -101 -24 -145 8 -31 461 -494 508 -519 32 -17 95 -18 135 -3 38
14 799 774 825 823 52 101 -26 226 -141 226 -28 0 -58 -8 -76 -19z"/>
</g>
</svg>
