<svg width="48" height="48" viewBox="0 0 48 48" fill="none" xmlns="http://www.w3.org/2000/svg">
<circle cx="24" cy="24" r="24" fill="" fill-opacity="0.02"/>
<g clip-path="url(#clip0_39_773)">
<path d="M34.8 17.7001H7.8C6.80589 17.7001 6 18.506 6 19.5001V33.9001C6 34.8942 6.80589 35.7001 7.8 35.7001H34.8C35.7941 35.7001 36.6 34.8942 36.6 33.9001V19.5001C36.6 18.506 35.7941 17.7001 34.8 17.7001ZM35.4 33.9001C35.4 34.2314 35.1314 34.5001 34.8 34.5001H7.8C7.46863 34.5001 7.2 34.2314 7.2 33.9001V19.5001C7.2 19.1687 7.46863 18.9001 7.8 18.9001H34.8C35.1314 18.9001 35.4 19.1687 35.4 19.5001V33.9001Z" />
<path d="M32.4 24.6C32.4 24.9314 32.6686 25.2 33 25.2C33.3313 25.2 33.6 24.9314 33.6 24.6C33.5421 23.2551 32.533 22.1428 31.2 21.9546V21.9C31.2 21.5687 30.9313 21.3 30.6 21.3C30.2686 21.3 30 21.5687 30 21.9V21.9546C28.667 22.1428 27.6579 23.2551 27.6 24.6C27.6579 25.945 28.667 27.0573 30 27.2454V30.2076C29.3323 30.0562 28.8439 29.4833 28.8 28.8C28.8 28.4687 28.5313 28.2 28.2 28.2C27.8686 28.2 27.6 28.4687 27.6 28.8C27.6579 30.145 28.667 31.2573 30 31.4454V31.5C30 31.8314 30.2686 32.1 30.6 32.1C30.9313 32.1 31.2 31.8314 31.2 31.5V31.4454C32.533 31.2573 33.5421 30.145 33.6 28.8C33.5421 27.4551 32.533 26.3428 31.2 26.1546V23.1924C31.8677 23.3439 32.3561 23.9168 32.4 24.6ZM28.8 24.6C28.8439 23.9168 29.3323 23.3439 30 23.1924V26.0076C29.3323 25.8562 28.8439 25.2833 28.8 24.6ZM32.4 28.8C32.3561 29.4833 31.8677 30.0562 31.2 30.2076V27.3924C31.8677 27.5439 32.3561 28.1168 32.4 28.8Z" />
<path d="M18 21.9001C18 21.2373 17.4627 20.7001 16.8 20.7001H10.2C9.53726 20.7001 9 21.2373 9 21.9001V23.7001C9 24.3628 9.53726 24.9001 10.2 24.9001H16.8C17.4627 24.9001 18 24.3628 18 23.7001V21.9001ZM10.2 23.7001V21.9001H16.8V23.7001H10.2Z" />
<path d="M25.2 26.7001H18.6C18.2686 26.7001 18 26.9687 18 27.3001C18 27.6314 18.2686 27.9001 18.6 27.9001H25.2C25.5314 27.9001 25.8 27.6314 25.8 27.3001C25.8 26.9687 25.5314 26.7001 25.2 26.7001Z" />
<path d="M16.2 26.7001H9.6C9.26863 26.7001 9 26.9687 9 27.3001C9 27.6314 9.26863 27.9001 9.6 27.9001H16.2C16.5314 27.9001 16.8 27.6314 16.8 27.3001C16.8 26.9687 16.5314 26.7001 16.2 26.7001Z" />
<path d="M16.2 29.1001H9.6C9.26863 29.1001 9 29.3687 9 29.7001C9 30.0315 9.26863 30.3001 9.6 30.3001H16.2C16.5314 30.3001 16.8 30.0315 16.8 29.7001C16.8 29.3687 16.5314 29.1001 16.2 29.1001Z" />
<path d="M25.2 29.1001H18.6C18.2686 29.1001 18 29.3687 18 29.7001C18 30.0315 18.2686 30.3001 18.6 30.3001H25.2C25.5314 30.3001 25.8 30.0315 25.8 29.7001C25.8 29.3687 25.5314 29.1001 25.2 29.1001Z" />
<path d="M16.2 31.5H9.6C9.26863 31.5 9 31.7686 9 32.1C9 32.4314 9.26863 32.7 9.6 32.7H16.2C16.5314 32.7 16.8 32.4314 16.8 32.1C16.8 31.7686 16.5314 31.5 16.2 31.5Z" />
<path d="M25.2 31.5H18.6C18.2686 31.5 18 31.7686 18 32.1C18 32.4314 18.2686 32.7 18.6 32.7H25.2C25.5314 32.7 25.8 32.4314 25.8 32.1C25.8 31.7686 25.5314 31.5 25.2 31.5Z" />
<path d="M40.2 12.3H19.8C19.4686 12.3 19.2 12.5687 19.2 12.9C19.2 13.2314 19.4686 13.5 19.8 13.5H40.2C40.5314 13.5 40.8 13.7687 40.8 14.1V28.5C40.8 28.8314 40.5314 29.1 40.2 29.1H38.4C38.0686 29.1 37.8 29.3687 37.8 29.7001C37.8 30.0314 38.0686 30.3 38.4 30.3H40.2C41.1941 30.3 42 29.4942 42 28.5V14.1C42 13.1059 41.1941 12.3 40.2 12.3Z" />
<path d="M13.2 12.3C12.2059 12.3 11.4 13.1059 11.4 14.1V15.9C11.4 16.2314 11.6687 16.5 12 16.5C12.3314 16.5 12.6 16.2314 12.6 15.9V14.1C12.6 13.7687 12.8687 13.5 13.2 13.5H16.8C17.1314 13.5 17.4 13.2314 17.4 12.9C17.4 12.5687 17.1314 12.3 16.8 12.3H13.2Z" />
</g>
<defs>
<clipPath id="clip0_39_773">
<rect width="36" height="36"  transform="translate(6 6)"/>
</clipPath>
</defs>
</svg>
