<?xml version="1.0" encoding="UTF-8"?>
<!DOCTYPE svg PUBLIC "-//W3C//DTD SVG 1.1//EN" "http://www.w3.org/Graphics/SVG/1.1/DTD/svg11.dtd">
<svg xmlns="http://www.w3.org/2000/svg" version="1.1" width="48px" height="48px" style="shape-rendering:geometricPrecision; text-rendering:geometricPrecision; image-rendering:optimizeQuality; fill-rule:evenodd; clip-rule:evenodd" xmlns:xlink="http://www.w3.org/1999/xlink">
<g><path style="opacity:0.945" fill="" d="M 10.5,8.5 C 34.8356,8.33336 59.1689,8.50003 83.5,9C 84.4162,9.37424 85.2496,9.87424 86,10.5C 86.6667,34.8333 86.6667,59.1667 86,83.5C 85.6258,84.4162 85.1258,85.2496 84.5,86C 60.1667,86.6667 35.8333,86.6667 11.5,86C 10.5838,85.6258 9.75044,85.1258 9,84.5C 8.33333,60.1667 8.33333,35.8333 9,11.5C 9.51328,10.4734 10.0133,9.47344 10.5,8.5 Z M 14.5,12.5 C 33.5,12.5 52.5,12.5 71.5,12.5C 71.5,14.1667 71.5,15.8333 71.5,17.5C 62.3709,18.0089 60.0376,22.3422 64.5,30.5C 66.7466,31.3742 69.0799,31.7076 71.5,31.5C 71.5,34.5 71.5,37.5 71.5,40.5C 62.3709,41.0089 60.0376,45.3422 64.5,53.5C 66.7466,54.3742 69.0799,54.7076 71.5,54.5C 71.5,57.5 71.5,60.5 71.5,63.5C 65.8664,62.4683 62.8664,64.8017 62.5,70.5C 62.9867,75.9226 65.9867,78.256 71.5,77.5C 71.5,79.1667 71.5,80.8333 71.5,82.5C 52.4971,82.6666 33.4971,82.4999 14.5,82C 14,81.5 13.5,81 13,80.5C 12.3333,58.5 12.3333,36.5 13,14.5C 13.7172,13.9558 14.2172,13.2891 14.5,12.5 Z M 75.5,12.5 C 78.0444,12.1043 80.2111,12.771 82,14.5C 82.6667,36.5 82.6667,58.5 82,80.5C 80.2111,82.229 78.0444,82.8957 75.5,82.5C 75.5,79.1667 75.5,75.8333 75.5,72.5C 73.1432,72.6633 70.8098,72.4966 68.5,72C 67.6634,70.9887 67.33,69.8221 67.5,68.5C 74.9457,69.7243 77.6124,66.5576 75.5,59C 75.1667,56.1667 74.8333,53.3333 74.5,50.5C 71.6843,49.9818 69.0176,49.1485 66.5,48C 69.0024,45.788 72.0024,44.9547 75.5,45.5C 75.8293,39.4632 75.4959,33.4632 74.5,27.5C 71.6843,26.9818 69.0176,26.1485 66.5,25C 69.0024,22.788 72.0024,21.9547 75.5,22.5C 75.5,19.1667 75.5,15.8333 75.5,12.5 Z"/></g>
<g><path style="opacity:0.973" fill="" d="M 19.5,24.5 C 29.5,24.5 39.5,24.5 49.5,24.5C 49.5,25.8333 49.5,27.1667 49.5,28.5C 39.5,28.5 29.5,28.5 19.5,28.5C 19.5,27.1667 19.5,25.8333 19.5,24.5 Z"/></g>
<g><path style="opacity:0.98" fill="" d="M 19.5,46.5 C 32.8333,46.5 46.1667,46.5 59.5,46.5C 59.5,47.8333 59.5,49.1667 59.5,50.5C 46.1667,50.5 32.8333,50.5 19.5,50.5C 19.5,49.1667 19.5,47.8333 19.5,46.5 Z"/></g>
<g><path style="opacity:0.98" fill="" d="M 19.5,68.5 C 32.8333,68.5 46.1667,68.5 59.5,68.5C 59.5,69.8333 59.5,71.1667 59.5,72.5C 46.1667,72.5 32.8333,72.5 19.5,72.5C 19.5,71.1667 19.5,69.8333 19.5,68.5 Z"/></g>
</svg>
