<svg width="36" height="36" viewBox="0 0 36 36" fill="" xmlns="http://www.w3.org/2000/svg">
<path d="M14.5 17.75H5.5M18.5 21.227V18.857H17.383C16.8245 18.857 16.375 18.407 16.375 17.849V17.58C16.375 17.0215 16.825 16.572 17.383 16.572H18.5V13.232H17.258C16.6995 13.232 16.25 12.782 16.25 12.224V11.955C16.25 11.3965 16.7 10.947 17.258 10.947H18.5V7.482H17.258C16.6995 7.482 16.25 7.032 16.25 6.474V6.205C16.25 5.647 16.7 5.1975 17.258 5.1975H18.5V2.77M14.5 12.25H5.5M12 6.75H5.5M20.25 2.75H3.75C3.48478 2.75 3.23043 2.85536 3.04289 3.04289C2.85536 3.23043 2.75 3.48478 2.75 3.75V20.25C2.75 20.5152 2.85536 20.7696 3.04289 20.9571C3.23043 21.1446 3.48478 21.25 3.75 21.25H20.25C20.5152 21.25 20.7696 21.1446 20.9571 20.9571C21.1446 20.7696 21.25 20.5152 21.25 20.25V3.75C21.25 3.48478 21.1446 3.23043 20.9571 3.04289C20.7696 2.85536 20.5152 2.75 20.25 2.75Z" stroke="black" stroke-linecap="round" stroke-linejoin="round"/>
</svg>
