<svg width="42" height="28" viewBox="0 0 42 28" fill="" xmlns="http://www.w3.org/2000/svg">
<path d="M33.5783 20.4731C32.5747 20.4731 31.6213 20.8662 30.902 21.5771C30.1828 22.2963 29.7814 23.233 29.7814 24.2366C29.7814 25.2402 30.1744 26.1768 30.902 26.8961C31.6296 27.607 32.5747 28 33.5783 28C35.6356 28 37.3082 26.3107 37.3082 24.2366C37.3082 22.1625 35.6356 20.4731 33.5783 20.4731ZM33.5783 26.3274C32.4241 26.3274 31.454 25.374 31.454 24.2366C31.454 23.0992 32.4241 22.1458 33.5783 22.1458C34.7157 22.1458 35.6356 23.0825 35.6356 24.2366C35.6356 25.3907 34.7157 26.3274 33.5783 26.3274Z" fill=""/>
<path d="M34.5484 7.93668C34.3979 7.79451 34.1971 7.71924 33.9881 7.71924H29.6977C29.2378 7.71924 28.8614 8.09558 28.8614 8.55556V15.4134C28.8614 15.8734 29.2378 16.2497 29.6977 16.2497H36.5054C36.9654 16.2497 37.3417 15.8734 37.3417 15.4134V10.822C37.3417 10.5878 37.2413 10.362 37.0657 10.2031L34.5484 7.93668ZM35.6691 14.5771H30.5341V9.38352H33.6619L35.6691 11.19V14.5771Z" fill=""/>
<path d="M13.1553 20.4731C12.1517 20.4731 11.1983 20.8662 10.4791 21.5771C9.75986 22.2963 9.35843 23.233 9.35843 24.2366C9.35843 25.2402 9.7515 26.1768 10.4791 26.8961C11.2067 27.607 12.1517 28 13.1553 28C15.2127 28 16.8853 26.3107 16.8853 24.2366C16.8853 22.1625 15.2127 20.4731 13.1553 20.4731ZM13.1553 26.3274C12.0012 26.3274 11.0311 25.374 11.0311 24.2366C11.0311 23.0992 12.0012 22.1458 13.1553 22.1458C14.2927 22.1458 15.2127 23.0825 15.2127 24.2366C15.2127 25.3907 14.2927 26.3274 13.1553 26.3274Z" fill=""/>
<path d="M7.5 22H5.5V19.5C5.5 19.04 5.51972 18.4409 5.05974 18.4409C4.59976 18.4409 4.22342 18.8173 4.22342 19.2772V22.3382C4.22342 22.7981 4.59976 23.1745 5.05974 23.1745H7.57706C8.03704 23.1745 8.41338 22.7981 8.41338 22.3382C8.41338 21.8782 7.95998 22 7.5 22Z" fill=""/>
<path d="M11.8172 16.9437C11.8172 16.4838 11.4409 16.1074 10.9809 16.1074H0.83632C0.376344 16.1074 0 16.4838 0 16.9437C0 17.4037 0.376344 17.7801 0.83632 17.7801H10.9809C11.4409 17.7801 11.8172 17.4121 11.8172 16.9437Z" fill=""/>
<path d="M2.53405 13.9246L12.6786 13.9831C13.1386 13.9831 13.5149 13.6152 13.5233 13.1552C13.5317 12.6868 13.1553 12.3105 12.6953 12.3105L2.55078 12.252C2.54241 12.252 2.54241 12.252 2.54241 12.252C2.08244 12.252 1.70609 12.6199 1.70609 13.0799C1.69773 13.5482 2.07407 13.9246 2.53405 13.9246Z" fill=""/>
<path d="M4.24014 10.1277H14.3847C14.8447 10.1277 15.221 9.75137 15.221 9.2914C15.221 8.83142 14.8447 8.45508 14.3847 8.45508H4.24014C3.78017 8.45508 3.40382 8.83142 3.40382 9.2914C3.40382 9.75137 3.78017 10.1277 4.24014 10.1277Z" fill=""/>
<path d="M40.7623 8.9988L34.7742 4.03943C34.6237 3.91398 34.4397 3.84707 34.239 3.84707H27.1971V0.83632C27.1971 0.376344 26.8208 0 26.3608 0H5.05974C4.59976 0 4.22342 0.376344 4.22342 0.83632V6.95819C4.22342 7.41816 4.59976 7.79451 5.05974 7.79451C5.51972 7.79451 5.5 7.41816 5.5 6.95819V1H15.5H26V21.5018H18.675C18.2151 21.5018 17.8387 21.8781 17.8387 22.3381C17.8387 22.7981 18.2151 23.1744 18.675 23.1744H28.8865C29.3465 23.1744 29.7228 22.7981 29.7228 22.3381C29.7228 21.8781 29.3465 21.5018 28.8865 21.5018H27.2055L27.1971 5H34L40 10V21.4851H38.4707C38.0108 21.4851 37.6344 21.8614 37.6344 22.3214C37.6344 22.7814 38.0108 23.1577 38.4707 23.1577H40.1685C40.6284 23.1577 41.0048 22.7897 41.0048 22.3298L41.0717 9.65113C41.0633 9.40024 40.9546 9.1577 40.7623 8.9988Z" fill=""/>
</svg>
