<svg width="48" height="48" viewBox="0 0 48 48" fill="none" xmlns="http://www.w3.org/2000/svg">
<circle cx="24" cy="24" r="24"  fill-opacity="0.02" fill=""/>
<path d="M24.0041 6H23.9819C17.7982 6.039 12.6451 10.7475 12.0499 16.9026C11.7593 20.1702 12.4962 22.2787 13.9577 25.0272C14.4097 25.8268 14.9264 26.5881 15.5021 27.3036C15.8976 27.8219 16.2703 28.3116 16.6021 28.8348C17.3502 30.0175 17.8221 31.354 17.982 32.7443C17.1464 33.2332 16.6894 34.1786 16.8248 35.1368C16.9602 36.0954 17.6617 36.8768 18.5999 37.1149V39.6C18.6019 40.4232 19.0262 41.1878 19.7238 41.6251C19.7593 41.649 19.7969 41.669 19.8367 41.685C20.1908 41.8888 20.5915 41.9973 20.9999 42H27.0001C28.3256 42 29.4 40.9255 29.4 39.6V37.1149C30.3427 36.8776 31.0472 36.0921 31.1804 35.1292C31.3136 34.1662 30.8489 33.2189 30.0059 32.7347C30.1677 31.3477 30.6396 30.015 31.3861 28.8348C31.7179 28.3116 32.0903 27.8219 32.4858 27.3036C33.0615 26.5881 33.5781 25.8268 34.0302 25.0272C35.4911 22.2793 36.2286 20.1707 35.9388 16.9026C35.3428 10.7466 30.1886 6.03818 24.0041 6ZM20.1185 40.4075C19.9144 40.1881 19.8007 39.8997 19.7999 39.6V37.2001H25.5749L20.1185 40.4075ZM28.2001 39.6C28.2001 40.2628 27.6628 40.8 27.0001 40.8H21.8195L27.9433 37.2001H28.2001V39.6ZM28.7999 36.0001H19.2001C18.5373 36.0001 18.0001 35.4629 18.0001 34.8001C18.0001 34.1374 18.5373 33.6001 19.2001 33.6001H28.7999C29.4627 33.6001 29.9999 34.1374 29.9999 34.8001C29.9999 35.4629 29.4627 36.0001 28.7999 36.0001ZM21.6 21.6H19.7999C19.1372 21.6 18.5999 21.0628 18.5999 20.4001C18.5999 19.7373 19.1372 19.2001 19.7999 19.2001H20.4C21.0628 19.2001 21.6 19.7373 21.6 20.4001V21.6ZM24 22.8H25.2V32.3999H22.8V22.8H24ZM32.9687 24.4631C32.5471 25.2055 32.0656 25.9119 31.5289 26.5757C31.1359 27.0918 30.7297 27.6252 30.3701 28.1921C29.5626 29.4684 29.0391 30.9035 28.8353 32.3999H26.4V22.8H28.2001C29.5256 22.8 30.6 21.7256 30.6 20.4001C30.6 19.0746 29.5256 18.0001 28.2001 18.0001H27.5999C26.2744 18.0001 25.2 19.0746 25.2 20.4001V21.6H22.8V20.4001C22.8 19.0746 21.7255 18.0001 20.4 18.0001H19.7999C18.4744 18.0001 17.4 19.0746 17.4 20.4001C17.4 21.7256 18.4744 22.8 19.7999 22.8H21.6V32.3999H19.1509C18.9468 30.9035 18.4233 29.4684 17.6153 28.1921C17.2555 27.6252 16.8498 27.0918 16.4568 26.5757C15.9201 25.9119 15.4386 25.2055 15.0167 24.4631C13.6333 21.8615 12.9769 19.9944 13.2444 17.0089C13.7517 11.4514 18.4121 7.19724 23.9926 7.19724C29.5731 7.19724 34.2332 11.4514 34.7405 17.0089C35.0064 19.9949 34.3524 21.8623 32.9687 24.4631ZM26.4 21.6V20.4001C26.4 19.7373 26.9372 19.2001 27.5999 19.2001H28.2001C28.8628 19.2001 29.4 19.7373 29.4 20.4001C29.4 21.0628 28.8628 21.6 28.2001 21.6H26.4Z" />
<path d="M23.9945 8.3999C19.0679 8.4801 14.9717 12.2163 14.4402 17.1148C14.4111 17.4449 14.655 17.7361 14.9849 17.7655H15.0384C15.3499 17.7666 15.6105 17.529 15.6383 17.2186C16.1058 12.9362 19.687 9.67075 23.9945 9.59988C24.326 9.59988 24.5946 9.33127 24.5946 9.00003C24.5946 8.66852 24.326 8.3999 23.9945 8.3999Z" />
<path d="M6 18C6 18.3313 6.26862 18.5999 6.60013 18.5999H9.59995C9.93146 18.5999 10.2001 18.3313 10.2001 18C10.2001 17.6685 9.93146 17.3999 9.59995 17.3999H6.60013C6.26862 17.3999 6 17.6685 6 18Z" />
<path d="M11.2295 24.6804L8.63147 26.1805C8.44443 26.2868 8.32852 26.4854 8.32825 26.7007C8.3277 26.9161 8.44251 27.1149 8.62927 27.2223C8.81604 27.3294 9.04593 27.3286 9.2316 27.2196L11.8296 25.7197C12.1141 25.553 12.2105 25.1877 12.0457 24.902C11.881 24.6164 11.5162 24.5175 11.2295 24.6804Z" />
<path d="M35.9515 24.9C35.7859 25.187 35.8839 25.554 36.1709 25.7196L38.7689 27.2195C39.0557 27.3827 39.4201 27.2835 39.5852 26.9979C39.75 26.7125 39.6536 26.3472 39.369 26.1805L36.7711 24.6803C36.484 24.5147 36.1171 24.613 35.9515 24.9Z" />
<path d="M41.3999 17.3999H38.4001C38.0685 17.3999 37.7999 17.6685 37.7999 18C37.7999 18.3313 38.0685 18.5999 38.4001 18.5999H41.3999C41.7314 18.5999 42 18.3313 42 18C42 17.6685 41.7314 17.3999 41.3999 17.3999Z" />
<path d="M39.588 9.00011C39.4223 8.7131 39.0554 8.61477 38.7684 8.78039L36.1704 10.2803C35.9833 10.3869 35.8674 10.5854 35.8669 10.8008C35.8666 11.0161 35.9814 11.215 36.1682 11.3223C36.3547 11.4295 36.5846 11.4286 36.7705 11.3196L39.3685 9.81969C39.6552 9.6538 39.7536 9.28686 39.588 9.00011Z" />
<path d="M11.8291 10.2802L9.23107 8.78034C8.94433 8.61747 8.57986 8.71634 8.41479 9.00199C8.24999 9.28763 8.3464 9.65265 8.63095 9.81965L11.2289 11.3196C11.4146 11.4286 11.6445 11.4294 11.8313 11.3223C12.018 11.2149 12.1328 11.0161 12.1326 10.8007C12.132 10.5854 12.0161 10.3868 11.8291 10.2802Z" />
</svg>
