<svg width="24" height="30" viewBox="0 0 21 26" fill="" xmlns="http://www.w3.org/2000/svg">
<path fill-rule="evenodd" clip-rule="evenodd" d="M4.70693 3.88265H12.1673C12.6969 3.88265 12.669 4.09424 12.6219 4.63379L12.3217 8.42546C12.2702 9.02848 12.3131 8.88249 11.6655 8.97559L6.34739 9.43473L6.66262 10.3382C9.24875 10.3382 9.85347 10.3382 12.4375 10.3382C12.5254 10.6598 12.6433 11.1803 12.7291 11.5379H11.6633L11.5604 11.1719C9.40743 11.1719 9.22945 11.1719 7.07434 11.1719C5.89707 11.1528 6.01501 11.466 5.7341 10.4631L3.71194 3.6499H3.08792V2.80143H4.44317C4.52252 3.09554 4.63402 3.58643 4.70693 3.88265ZM14.6183 0.139648C14.5239 0.055013 14.391 0 14.2602 0C14.2323 0 14.2044 0 14.1744 0.00846354H1.18799C0.868477 0.00846354 0.566119 0.139648 0.349535 0.353353C0.132952 0.567057 0 0.854818 0 1.18066V24.8278C0 25.1536 0.132952 25.4414 0.349535 25.6551C0.566119 25.8688 0.857756 26 1.18799 26H19.7927C20.1229 26 20.4146 25.8688 20.6312 25.6551C20.8477 25.4414 20.9807 25.1536 20.9807 24.8278V6.83431C20.9893 6.78776 21 6.74967 21 6.70313C21 6.54443 20.9249 6.40479 20.8199 6.30322L14.6826 0.175618C14.6633 0.156576 14.6548 0.148112 14.6355 0.137533L14.6183 0.139648ZM14.1959 1.06006V5.17757C14.1959 5.61556 14.376 6.01546 14.6676 6.30322C14.9593 6.59098 15.3645 6.76872 15.8084 6.76872H19.8956V24.8299C19.8956 24.8574 19.8871 24.8955 19.857 24.9146C19.8377 24.9336 19.8099 24.9526 19.7713 24.9526H1.17727C1.14939 24.9526 1.11079 24.9442 1.09149 24.9146C1.07219 24.8955 1.05289 24.8595 1.05289 24.8299V1.18066C1.05289 1.14258 1.06147 1.11507 1.09149 1.09603C1.11079 1.07699 1.13867 1.05794 1.17727 1.05794H14.1959V1.06006ZM15.2595 5.17757V1.89795L19.0743 5.71712H15.8063C15.6562 5.71712 15.5232 5.65153 15.4203 5.55843C15.3259 5.46533 15.2595 5.32568 15.2595 5.17757ZM4.40029 14.7456C4.10865 14.7456 3.86419 14.9784 3.86419 15.2746C3.86419 15.5623 4.10007 15.8057 4.40029 15.8057H16.4367C16.7284 15.8057 16.975 15.5729 16.975 15.2746C16.975 14.9868 16.7391 14.7456 16.4367 14.7456H4.40029ZM4.60186 21.0277C4.31022 21.0277 4.06362 21.2604 4.06362 21.5588C4.06362 21.8465 4.2995 22.0877 4.60186 22.0877H16.559C16.8506 22.0877 17.0972 21.855 17.0972 21.5566C17.0972 21.2689 16.8613 21.0277 16.559 21.0277H4.60186ZM4.40029 17.9977C4.10865 17.9977 3.86419 18.2305 3.86419 18.5267C3.86419 18.8145 4.10007 19.0557 4.40029 19.0557H16.559C16.8506 19.0557 17.0951 18.8229 17.0951 18.5267C17.0951 18.2389 16.8592 17.9977 16.559 17.9977H4.40029ZM7.93424 4.83903H9.47605V6.38363H10.8635L8.70622 8.45296L6.54682 6.38151H7.93424V4.83903ZM7.08292 11.6818C7.53753 11.6818 7.90636 12.0457 7.90636 12.4943C7.90636 12.9429 7.53753 13.3068 7.08292 13.3068C6.62831 13.3068 6.25947 12.9429 6.25947 12.4943C6.25947 12.0457 6.62831 11.6818 7.08292 11.6818ZM10.4775 11.6818C10.9321 11.6818 11.3009 12.0457 11.3009 12.4943C11.3009 12.9429 10.9321 13.3068 10.4775 13.3068C10.0229 13.3068 9.65404 12.9429 9.65404 12.4943C9.65404 12.0457 10.0229 11.6818 10.4775 11.6818Z"/>
</svg>
