<svg width="36" height="36" viewBox="0 0 36 36" fill="" xmlns="http://www.w3.org/2000/svg">
<path d="M32.625 19.7077C32.625 19.5586 32.5657 19.4155 32.4602 19.31C32.3548 19.2045 32.2117 19.1452 32.0625 19.1452H16.875V3.9375C16.875 3.78832 16.8157 3.64524 16.7102 3.53975C16.6048 3.43426 16.4617 3.375 16.3125 3.375C7.31813 3.375 0 10.6819 0 19.6639C0 28.9766 7.02338 36 16.3361 36C25.0132 36 32.625 28.386 32.625 19.7077ZM1.125 19.6639C1.125 11.4896 7.63538 4.80712 15.75 4.51012V19.7077C15.75 20.0182 16.002 20.2702 16.3125 20.25H31.4887C31.1704 28.1137 24.2269 34.875 16.3361 34.875C7.66462 34.875 1.125 28.3365 1.125 19.6639Z" />
<path d="M19.6875 16.875H35.4364C35.7469 16.8952 36 16.623 36 16.3125C36 7.31813 28.6819 0 19.6875 0C19.5383 0 19.3952 0.0592632 19.2898 0.164752C19.1843 0.270242 19.125 0.413316 19.125 0.5625V16.3327C19.125 16.6432 19.377 16.8952 19.6875 16.875ZM20.25 1.13512C28.1959 1.4265 34.6039 7.85137 34.8682 15.7702H20.25V1.13512Z"/>
</svg>
