<svg width="10" height="12" viewBox="0 0 10 12" fill="none" xmlns="http://www.w3.org/2000/svg">
<path d="M6.43219 6.53457L8.62103 4.36557C8.8886 4.09905 9.03975 3.73743 9.04142 3.35978C9.0431 2.98213 8.89517 2.61919 8.62999 2.3503L6.4605 0.161934C6.37129 0.0749971 6.2515 0.0265789 6.12693 0.0271079C6.00236 0.0276369 5.88298 0.0770707 5.79451 0.164762C5.70604 0.252453 5.65555 0.371385 5.65391 0.495943C5.65227 0.620501 5.69963 0.740719 5.78577 0.830703L7.81572 2.87925L0.491985 2.84672C0.365988 2.84616 0.244928 2.89567 0.155439 2.98437C0.0659496 3.07307 0.0153604 3.19368 0.0148006 3.31968C0.0142408 3.44568 0.0637563 3.56673 0.152454 3.65622C0.241152 3.74571 0.361766 3.7963 0.487764 3.79686L7.81197 3.8294L5.76342 5.85983C5.71785 5.90346 5.68143 5.95572 5.65627 6.01357C5.63112 6.07142 5.61773 6.1337 5.61691 6.19678C5.61608 6.25985 5.62782 6.32246 5.65145 6.38096C5.67507 6.43945 5.71011 6.49265 5.75452 6.53745C5.79893 6.58225 5.85182 6.61777 5.9101 6.64191C5.96837 6.66606 6.03088 6.67836 6.09396 6.67809C6.15704 6.67782 6.21944 6.66499 6.27751 6.64035C6.33558 6.61571 6.38817 6.57975 6.43219 6.53457V6.53457Z" />
<path d="M2.62931 5.15869L0.438691 7.3259C0.170906 7.5922 0.019462 7.95369 0.0174741 8.33134C0.0154862 8.70899 0.163117 9.07206 0.428083 9.34116L2.59577 11.5313C2.68491 11.6183 2.80467 11.6668 2.92923 11.6664C3.0538 11.666 3.17322 11.6166 3.26176 11.529C3.35031 11.4414 3.4009 11.3225 3.40264 11.198C3.40438 11.0734 3.35712 10.9531 3.27106 10.8631L1.24278 8.81288L8.56649 8.85143C8.69249 8.85209 8.81359 8.80267 8.90315 8.71405C8.99271 8.62543 9.0434 8.50485 9.04406 8.37886C9.04473 8.25286 8.99531 8.13176 8.90669 8.0422C8.81806 7.95263 8.69749 7.90195 8.57149 7.90128L1.24731 7.86273L3.29753 5.83398C3.34313 5.7904 3.3796 5.73817 3.4048 5.68034C3.43001 5.62251 3.44344 5.56024 3.44432 5.49716C3.4452 5.43408 3.43351 5.37146 3.40993 5.31295C3.38635 5.25444 3.35136 5.20121 3.30698 5.15637C3.26261 5.11153 3.20976 5.07598 3.1515 5.05178C3.09324 5.02759 3.03074 5.01524 2.96766 5.01545C2.90458 5.01567 2.84217 5.02845 2.78408 5.05304C2.72599 5.07763 2.67338 5.11355 2.62931 5.15869Z" />
</svg>
