<svg width="28" height="28" viewBox="0 0 28 28" fill="none" xmlns="http://www.w3.org/2000/svg">
<g clip-path="url(#clip0_32_843)">
<path d="M23.1327 3.98302L20.517 1.36735C20.0846 0.932543 19.5702 0.587812 19.0037 0.35311C18.4372 0.118408 17.8297 -0.00160495 17.2165 1.62072e-05H7C6.07174 1.62072e-05 5.1815 0.368765 4.52513 1.02514C3.86875 1.68152 3.5 2.57176 3.5 3.50002V28H24.5V7.28235C24.4969 6.04533 24.0055 4.85957 23.1327 3.98302ZM21.483 5.63268C21.5417 5.69634 21.5966 5.76334 21.6475 5.83335H18.6667V2.85252C18.7367 2.90343 18.8037 2.95836 18.8673 3.01702L21.483 5.63268ZM5.83333 25.6667V3.50002C5.83333 3.1906 5.95625 2.89385 6.17504 2.67506C6.39383 2.45627 6.69058 2.33335 7 2.33335H16.3333V8.16668H22.1667V25.6667H5.83333ZM8.16667 18.6667H19.8333V11.6667H8.16667V18.6667ZM10.5 14H17.5V16.3334H10.5V14ZM8.16667 21H19.8333V23.3334H8.16667V21Z" />
</g>
<defs>
<clipPath id="clip0_32_843">
<rect width="28" height="28" />
</clipPath>
</defs>
</svg>
