<svg width="20" height="24" viewBox="0 0 20 24" fill="none" xmlns="http://www.w3.org/2000/svg">
<path d="M10.417 9.39137C10.417 9.16097 10.2304 8.97437 9.99998 8.97437C9.76958 8.97437 9.58298 9.16097 9.58298 9.39137C9.58298 13.6308 6.54927 17.1854 2.36952 17.8434C2.14199 17.8792 1.98646 18.0927 2.02237 18.3202C2.05476 18.5258 2.2319 18.6724 2.43374 18.6724C2.45521 18.6724 2.47719 18.6707 2.49913 18.6673C7.08712 17.9451 10.417 14.0438 10.417 9.39137Z" />
<path d="M9.99996 0C4.8215 0 0.608276 4.21294 0.608276 9.39169C0.608276 9.62184 0.794886 9.80869 1.02528 9.80869C1.25567 9.80869 1.44228 9.62184 1.44228 9.39169C1.44228 4.67278 5.2812 0.833859 9.99996 0.833859C14.7187 0.833859 18.5575 4.67278 18.5575 9.39155C18.5575 11.3103 18.2481 13.1964 17.6378 14.9976C17.5638 15.2156 17.6808 15.4524 17.899 15.5262C17.9431 15.5415 17.9884 15.5485 18.0327 15.5485C18.2067 15.5485 18.3689 15.4391 18.4278 15.2653C19.0674 13.3777 19.3917 11.4017 19.3917 9.39169C19.3917 4.21294 15.1784 0 9.99996 0Z" />
<path d="M12.2117 9.39179C12.2117 8.17233 11.2194 7.18018 9.99996 7.18018C8.77989 7.18018 7.7875 8.17233 7.7875 9.39179C7.7875 12.8858 5.16743 15.7786 1.69305 16.1208C1.46397 16.1437 1.29658 16.3476 1.31904 16.5769C1.34149 16.806 1.5445 16.9726 1.77489 16.9508C5.67827 16.5664 8.6216 13.3169 8.6216 9.39179C8.6216 8.63218 9.23997 8.01418 9.99991 8.01418C10.7595 8.01418 11.3775 8.63218 11.3775 9.39179C11.3775 14.1796 7.98921 18.4257 3.3213 19.4881C3.09677 19.5393 2.95614 19.7626 3.00714 19.9872C3.0513 20.1806 3.22329 20.3116 3.41346 20.3116C3.44407 20.3116 3.47524 20.3082 3.50646 20.3012C8.55049 19.1534 12.2117 14.5652 12.2117 9.39179Z"/>
<path d="M10.3778 22.6226C10.3637 22.6066 10.349 22.5909 10.3364 22.5734C10.2047 22.3912 9.95284 22.346 9.76599 22.4709C9.38776 22.7245 9.02101 22.9488 8.64531 23.1564C8.4437 23.2676 8.37062 23.5214 8.48209 23.723C8.59332 23.9246 8.84701 23.9977 9.04862 23.8862C9.34168 23.7244 9.62907 23.5532 9.9197 23.3672C10.0712 23.5377 10.2327 23.7087 10.4016 23.8779C10.4831 23.9594 10.5898 24 10.6965 24C10.8029 24 10.9098 23.9594 10.9913 23.8779C11.1542 23.7151 11.1542 23.451 10.9913 23.2882C10.7729 23.0697 10.5689 22.8486 10.3778 22.6226Z" />
<path d="M14.711 21.708C13.5997 20.9667 12.6942 19.9507 12.0923 18.7689C11.7937 18.1834 11.571 17.5558 11.4301 16.9035C11.3956 16.7442 11.2718 16.6197 11.1131 16.5843C10.9536 16.5487 10.7892 16.6092 10.6905 16.7388C9.13861 18.778 7.03308 20.2517 4.60149 21.0006C4.38141 21.0684 4.25803 21.3018 4.32586 21.5219C4.39364 21.742 4.62718 21.8653 4.84725 21.7977C7.1821 21.0784 9.23541 19.7344 10.8312 17.8886C10.9704 18.3231 11.1433 18.7442 11.3491 19.1475C12.0179 20.4604 13.024 21.5884 14.2595 22.4095C14.3279 22.4551 14.4098 22.4794 14.492 22.4794C14.7224 22.4794 14.908 22.2925 14.9084 22.0622C14.9084 21.9127 14.8293 21.7817 14.711 21.708Z"/>
<path d="M17.1413 18.9747C15.7268 18.27 14.8482 16.8541 14.8482 15.2795C14.8482 14.9377 14.8909 14.5964 14.9757 14.2646C15.3071 13.3193 15.5412 12.3388 15.6715 11.3518C15.7579 10.7209 15.8015 10.0614 15.8015 9.39171C15.8015 6.19264 13.1987 3.59009 9.99984 3.59009C6.80091 3.59009 4.19822 6.19264 4.19822 9.39171C4.19822 11.1259 2.78859 12.5487 1.056 12.5629C0.825609 12.5649 0.640688 12.753 0.642469 12.9832C0.64425 13.2123 0.830766 13.3969 1.05947 13.3969C1.06055 13.3969 1.06163 13.3969 1.06294 13.3969C3.25163 13.3788 5.03231 11.5822 5.03231 9.39171C5.03231 6.65248 7.2607 4.42409 9.99994 4.42409C12.7392 4.42409 14.9676 6.65248 14.9676 9.39171C14.9676 10.0238 14.9265 10.6452 14.845 11.2407C14.7212 12.1786 14.4986 13.1084 14.183 14.0051C14.179 14.0161 14.1754 14.0274 14.1724 14.0387C14.0674 14.4442 14.0143 14.8616 14.0143 15.2796C14.0143 17.173 15.0701 18.8749 16.7696 19.7213C16.8293 19.7511 16.8927 19.7651 16.9551 19.7651C17.1083 19.7651 17.2558 19.6804 17.3288 19.5336C17.4312 19.3277 17.3475 19.0771 17.1413 18.9747Z"/>
<path d="M16.066 20.437C14.2074 19.3884 13.0528 17.412 13.0528 15.2794C13.0528 14.7655 13.1206 14.2517 13.2541 13.7517C13.4545 13.1897 13.6194 12.5987 13.7447 11.9934C13.919 11.1399 14.0071 10.2642 14.0071 9.39158C14.0071 7.18264 12.2095 5.3855 10 5.3855C7.79031 5.3855 5.99247 7.18264 5.99247 9.39158C5.99247 12.0503 3.91454 14.2295 1.26193 14.353C1.03187 14.3637 0.853935 14.5587 0.864857 14.789C0.875544 15.019 1.075 15.1976 1.30056 15.1862C4.39918 15.042 6.82642 12.4967 6.82642 9.39172C6.82642 7.64258 8.24997 6.21978 9.99995 6.21978C11.7496 6.21978 13.1729 7.64272 13.1729 9.39172C13.1729 10.2087 13.0902 11.028 12.9277 11.8256C12.8086 12.4006 12.6515 12.9621 12.4603 13.4946C12.454 13.5119 12.449 13.5299 12.4451 13.5482C12.295 14.1147 12.2186 14.697 12.2186 15.2795C12.2186 17.7125 13.5358 19.9673 15.6562 21.1635C15.721 21.2 15.7912 21.2173 15.8606 21.2173C16.0062 21.2173 16.1477 21.1409 16.2241 21.0048C16.3375 20.8044 16.2665 20.55 16.066 20.437Z"/>
<path d="M17.9773 17.385C17.1666 17.0013 16.6429 16.1747 16.6429 15.2796C16.6429 15.1068 16.6628 14.9332 16.7021 14.7628L16.7088 14.7453C16.7111 14.7395 16.7132 14.7335 16.7152 14.7276C16.9815 13.95 17.1881 13.1516 17.3298 12.3567C17.4854 11.5047 17.5731 10.6337 17.5904 9.77576C17.5951 9.64929 17.5971 9.52146 17.5971 9.3919C17.5971 5.20282 14.1889 1.79468 10 1.79468C5.81107 1.79468 2.40297 5.20272 2.40297 9.3918C2.40297 10.1411 1.79336 10.7591 1.04435 10.7694C0.813957 10.7724 0.629879 10.9616 0.632973 11.1919C0.635973 11.4221 0.819348 11.599 1.0555 11.6033C2.25836 11.5868 3.23697 10.5945 3.23697 9.39171C3.23697 5.66233 6.27068 2.62849 9.99991 2.62849C13.7291 2.62849 16.7629 5.66233 16.7629 9.39171C16.7629 9.51049 16.7612 9.6274 16.7565 9.75124C16.7402 10.5725 16.6568 11.3986 16.5086 12.2086C16.3751 12.9609 16.1801 13.7145 15.9291 14.4489C15.9208 14.4703 15.9126 14.4918 15.9056 14.5131C15.902 14.5239 15.8988 14.535 15.8962 14.5463C15.8382 14.7873 15.8088 15.0341 15.8088 15.2796C15.8088 16.4954 16.5199 17.6178 17.6203 18.1387C17.6778 18.166 17.7386 18.1789 17.7984 18.1789C17.9547 18.1789 18.1042 18.0909 18.1755 17.9405C18.2743 17.7322 18.1854 17.4836 17.9773 17.385Z"/>
<path d="M13.0463 22.7225C12.5725 22.343 12.1364 21.9203 11.7501 21.4653C11.3714 21.0208 11.0361 20.5473 10.7534 20.0583C10.6911 19.9507 10.5844 19.8765 10.4617 19.8558C10.3393 19.8354 10.2138 19.87 10.12 19.9512C8.98474 20.9309 7.70988 21.7168 6.33049 22.2876C6.16695 22.3438 6.0498 22.4992 6.0498 22.6822C6.0498 22.9123 6.23749 23.0992 6.46765 23.0992C6.52212 23.0992 6.57602 23.0882 6.62651 23.0676C7.94665 22.524 9.17665 21.7945 10.2889 20.8966C10.5366 21.2799 10.8131 21.6513 11.1146 22.0053C11.5348 22.5004 12.0093 22.9608 12.5252 23.3734C12.602 23.435 12.6938 23.4647 12.7855 23.4647C12.9078 23.4647 13.0289 23.4112 13.1114 23.3085C13.2553 23.1286 13.2262 22.8662 13.0463 22.7225Z"/>
</svg>
