<svg width="27" height="27" viewBox="0 0 27 27" fill="none" xmlns="http://www.w3.org/2000/svg">
<path d="M3.67875 10.7045C3.59775 10.64 3.54825 10.559 3.53025 10.4615C3.513 10.364 3.53925 10.262 3.609 10.1555C4.78575 8.59023 6.237 7.36361 7.96275 6.47561C9.68775 5.58686 11.5286 5.14248 13.4854 5.14248C15.4624 5.14248 17.3272 5.56923 19.08 6.42273C20.8335 7.27548 22.2937 8.50098 23.4607 10.0992C23.5627 10.2245 23.5942 10.3419 23.5552 10.4514C23.5155 10.5616 23.4465 10.649 23.3482 10.7135C23.2507 10.7787 23.145 10.8072 23.031 10.799C22.9177 10.7915 22.8187 10.7255 22.734 10.601C21.6735 9.10998 20.3254 7.97186 18.6896 7.18661C17.0546 6.40061 15.3199 6.00761 13.4854 6.00761C11.6666 6.00761 9.95287 6.40773 8.34412 7.20798C6.73612 8.00748 5.4 9.13848 4.33575 10.601C4.23825 10.7412 4.12875 10.8132 4.00725 10.817C3.88575 10.8215 3.777 10.784 3.67875 10.7045ZM16.6849 24.6151C14.7926 24.1276 13.2349 23.1676 12.0116 21.7351C10.7891 20.3026 10.1779 18.5517 10.1779 16.4825C10.1779 15.5735 10.5079 14.8149 11.1679 14.2066C11.8279 13.5976 12.6154 13.2931 13.5304 13.2931C14.4454 13.2931 15.2246 13.5976 15.8681 14.2066C16.5131 14.8149 16.8356 15.5735 16.8356 16.4825C16.8356 17.138 17.0824 17.6892 17.5759 18.1362C18.0694 18.5825 18.6514 18.8056 19.3219 18.8056C19.9924 18.8056 20.5672 18.5806 21.0465 18.1306C21.525 17.6791 21.7642 17.1297 21.7642 16.4825C21.7642 14.2707 20.9505 12.4119 19.323 10.9059C17.697 9.39986 15.7545 8.64685 13.4955 8.64685C11.2372 8.64685 9.30037 9.4021 7.68487 10.9126C6.06937 12.4231 5.26162 14.2775 5.26162 16.4757C5.26162 16.9332 5.3145 17.5047 5.42025 18.1902C5.526 18.8757 5.73112 19.6689 6.03562 20.5696C6.07762 20.6949 6.07687 20.8051 6.03337 20.9004C5.98987 20.9956 5.90737 21.0714 5.78587 21.1276C5.66437 21.1839 5.55112 21.1857 5.44612 21.1332C5.34112 21.0807 5.268 20.9952 5.22675 20.8767C4.93125 20.102 4.719 19.361 4.59 18.6537C4.461 17.9465 4.3965 17.2227 4.3965 16.4825C4.3965 14.0195 5.2905 11.9544 7.0785 10.2871C8.8665 8.62061 11.0021 7.78736 13.4854 7.78736C15.9874 7.78736 18.1369 8.62061 19.9339 10.2871C21.7309 11.9536 22.6294 14.0187 22.6294 16.4825C22.6294 17.3892 22.3091 18.1464 21.6686 18.7539C21.0289 19.3614 20.2489 19.6651 19.3286 19.6651C18.4151 19.6651 17.6272 19.3614 16.965 18.7539C16.302 18.1464 15.9705 17.3892 15.9705 16.4825C15.9705 15.8352 15.7305 15.2862 15.2505 14.8355C14.769 14.3847 14.1949 14.1594 13.5281 14.1594C12.8494 14.1594 12.2655 14.3825 11.7765 14.8287C11.2867 15.2757 11.0419 15.827 11.0419 16.4825C11.0419 18.3447 11.5954 19.8995 12.7024 21.1467C13.8094 22.3947 15.216 23.2625 16.9222 23.75C17.0557 23.7927 17.1487 23.864 17.2012 23.9637C17.2537 24.0627 17.2612 24.1692 17.2237 24.2832C17.1862 24.383 17.1255 24.473 17.0415 24.5532C16.9582 24.632 16.8394 24.6526 16.6849 24.6151ZM7.16062 4.87023C7.08337 4.92048 6.98775 4.92948 6.87375 4.89723C6.75975 4.86498 6.6795 4.79523 6.633 4.68798C6.58725 4.58148 6.57225 4.47798 6.588 4.37748C6.603 4.27773 6.66412 4.19523 6.77137 4.12998C7.80712 3.55248 8.89687 3.11748 10.0406 2.82498C11.1844 2.53248 12.3469 2.38623 13.5281 2.38623C14.7094 2.38623 15.8629 2.53173 16.9886 2.82273C18.1136 3.11298 19.2022 3.52998 20.2545 4.07373C20.409 4.15323 20.4964 4.24773 20.5166 4.35723C20.5376 4.46673 20.5275 4.57286 20.4862 4.67561C20.4442 4.77761 20.3685 4.85186 20.259 4.89836C20.1495 4.94411 20.037 4.93473 19.9215 4.87023C18.942 4.32048 17.9119 3.91323 16.8311 3.64848C15.7511 3.38373 14.6467 3.25136 13.518 3.25136C12.408 3.25136 11.3209 3.39236 10.2566 3.67436C9.19237 3.95636 8.16037 4.35423 7.16062 4.87023ZM10.6965 24.2641C9.633 23.1309 8.80237 21.956 8.20462 20.7395C7.60687 19.523 7.308 18.1036 7.308 16.4814C7.308 14.8044 7.91625 13.3944 9.13275 12.2514C10.3492 11.1084 11.8147 10.5369 13.5292 10.5369C15.2437 10.5369 16.7107 11.1084 17.9302 12.2514C19.1505 13.3944 19.7606 14.8047 19.7606 16.4825C19.7606 16.6122 19.7212 16.7169 19.6425 16.7964C19.563 16.8759 19.458 16.9156 19.3275 16.9156C19.221 16.9156 19.1224 16.8759 19.0316 16.7964C18.9409 16.7169 18.8959 16.6122 18.8966 16.4825C18.8966 15.0477 18.3652 13.8425 17.3025 12.8667C16.2405 11.891 14.9824 11.4031 13.5281 11.4031C12.0746 11.4031 10.8184 11.8906 9.75937 12.8656C8.70187 13.8421 8.17312 15.0474 8.17312 16.4814C8.17312 18.0294 8.44312 19.337 8.98312 20.4042C9.52237 21.4707 10.2982 22.5515 11.3107 23.6465C11.4232 23.7612 11.4686 23.8756 11.4469 23.9896C11.4251 24.1036 11.3797 24.1951 11.3107 24.2641C11.2267 24.3481 11.1277 24.3935 11.0137 24.4002C10.8997 24.4077 10.794 24.3616 10.6965 24.2641ZM19.1036 22.3077C17.4776 22.3077 16.0616 21.7557 14.8556 20.6517C13.6489 19.5477 13.0455 18.158 13.0455 16.4825C13.0455 16.367 13.0849 16.2657 13.1636 16.1787C13.2424 16.0925 13.3459 16.0494 13.4741 16.0494C13.6024 16.0494 13.7074 16.0929 13.7891 16.1799C13.8701 16.2661 13.9106 16.367 13.9106 16.4825C13.9106 17.933 14.4281 19.1225 15.4631 20.051C16.4966 20.9795 17.7101 21.4437 19.1036 21.4437C19.2881 21.4437 19.4831 21.4344 19.6886 21.4156C19.8941 21.3969 20.103 21.3687 20.3152 21.3312C20.4262 21.308 20.5211 21.3241 20.5999 21.3796C20.6779 21.4351 20.7356 21.527 20.7731 21.6552C20.8106 21.7692 20.79 21.8694 20.7112 21.9556C20.6317 22.0411 20.5312 22.1026 20.4097 22.1401C20.202 22.1904 19.9789 22.2312 19.7404 22.2627C19.5019 22.2927 19.2896 22.3077 19.1036 22.3077Z" fill="black"/>
</svg>
