<?xml version="1.0" standalone="no"?>
<!DOCTYPE svg PUBLIC "-//W3C//DTD SVG 20010904//EN"
 "http://www.w3.org/TR/2001/REC-SVG-20010904/DTD/svg10.dtd">
<svg version="1.0" xmlns="http://www.w3.org/2000/svg"
 width="512.000000pt" height="512.000000pt" viewBox="0 0 512.000000 512.000000"
 preserveAspectRatio="xMidYMid meet">

<g transform="translate(0.000000,512.000000) scale(0.100000,-0.100000)"
fill="" stroke="none">
<path d="M994 5105 c-224 -49 -402 -206 -482 -427 l-27 -73 -3 -1853 -2 -1852
-128 -64 c-131 -66 -163 -90 -181 -139 -7 -18 -11 -131 -11 -296 0 -260 1
-269 23 -311 16 -30 37 -51 67 -67 l43 -23 1803 2 1803 3 27 21 c15 11 37 33
48 48 20 26 21 43 24 299 2 150 0 286 -3 304 -10 56 -51 91 -186 159 l-129 64
0 1135 c0 624 4 1135 8 1135 5 0 35 -17 68 -38 99 -65 177 -161 221 -272 16
-41 18 -109 23 -780 5 -704 6 -737 26 -790 72 -199 247 -323 454 -323 207 0
381 124 455 323 20 54 20 76 23 1310 2 856 0 1266 -7 1291 -6 20 -23 49 -38
64 -16 15 -180 103 -366 196 -362 181 -381 187 -453 153 -49 -23 -77 -68 -82
-129 -8 -96 26 -131 215 -224 107 -52 110 -55 103 -80 -4 -15 -3 -56 1 -91 18
-132 117 -274 249 -356 l60 -37 0 -991 0 -991 -23 -40 c-24 -43 -91 -85 -137
-85 -42 0 -113 42 -135 80 -19 34 -20 55 -25 765 l-5 730 -24 70 c-67 199
-190 360 -363 472 -66 42 -202 103 -232 103 -13 0 -15 64 -18 553 -3 503 -5
557 -22 607 -34 101 -80 182 -144 251 -79 85 -164 142 -267 177 l-80 27 -1055
2 c-850 1 -1067 -1 -1116 -12z m2188 -338 c65 -32 121 -89 152 -156 l21 -46 5
-1905 c5 -1893 5 -1905 25 -1940 17 -29 46 -48 158 -105 l137 -70 0 -112 0
-113 -1600 0 -1600 0 0 113 0 112 137 70 c112 57 141 76 158 105 20 35 20 47
25 1935 l5 1900 23 50 c40 87 122 157 212 181 34 10 281 12 1065 11 l1020 -2
57 -28z"/>
<path d="M1215 4306 c-41 -18 -83 -69 -90 -109 -3 -18 -5 -334 -3 -704 3 -660
3 -672 24 -699 11 -15 33 -37 48 -48 27 -21 34 -21 886 -21 852 0 859 0 886
21 15 11 37 33 48 48 21 27 21 36 21 726 0 690 0 699 -21 726 -11 15 -33 37
-48 48 -27 21 -36 21 -874 23 -689 2 -853 0 -877 -11z m1505 -786 l0 -480
-640 0 -640 0 0 480 0 480 640 0 640 0 0 -480z"/>
</g>
</svg>
