<svg width="28" height="28" viewBox="0 0 28 28" fill="none" xmlns="http://www.w3.org/2000/svg">
<path d="M7.40717 12.8333H3.5C3.19058 12.8333 2.89383 12.9563 2.67504 13.175C2.45625 13.3938 2.33333 13.6906 2.33333 14V17.5H0V14C0 13.0717 0.368749 12.1815 1.02513 11.5251C1.6815 10.8688 2.57174 10.5 3.5 10.5H8.79317C8.18281 11.1795 7.71189 11.9723 7.40717 12.8333ZM24.5 10.5H19.2068C19.8172 11.1795 20.2881 11.9723 20.5928 12.8333H24.5C24.8094 12.8333 25.1062 12.9563 25.325 13.175C25.5438 13.3938 25.6667 13.6906 25.6667 14V17.5H28V14C28 13.0717 27.6313 12.1815 26.9749 11.5251C26.3185 10.8688 25.4283 10.5 24.5 10.5ZM18.6667 15.1667C18.6667 14.2437 18.393 13.3414 17.8802 12.574C17.3674 11.8066 16.6386 11.2084 15.7859 10.8552C14.9331 10.502 13.9948 10.4096 13.0896 10.5897C12.1843 10.7697 11.3528 11.2142 10.7002 11.8668C10.0475 12.5195 9.60307 13.351 9.423 14.2562C9.24294 15.1615 9.33535 16.0998 9.68856 16.9525C10.0418 17.8052 10.6399 18.5341 11.4073 19.0469C12.1748 19.5596 13.077 19.8333 14 19.8333C15.2377 19.8333 16.4247 19.3417 17.2998 18.4665C18.175 17.5913 18.6667 16.4043 18.6667 15.1667ZM16.3333 15.1667C16.3333 15.6282 16.1965 16.0793 15.9401 16.463C15.6837 16.8467 15.3193 17.1458 14.8929 17.3224C14.4666 17.499 13.9974 17.5452 13.5448 17.4552C13.0922 17.3651 12.6764 17.1429 12.3501 16.8166C12.0238 16.4903 11.8015 16.0745 11.7115 15.6219C11.6215 15.1693 11.6677 14.7001 11.8443 14.2737C12.0209 13.8474 12.32 13.483 12.7037 13.2266C13.0874 12.9702 13.5385 12.8333 14 12.8333C14.6188 12.8333 15.2123 13.0792 15.6499 13.5168C16.0875 13.9543 16.3333 14.5478 16.3333 15.1667ZM21 24.5C21 23.5717 20.6313 22.6815 19.9749 22.0251C19.3185 21.3687 18.4283 21 17.5 21H10.5C9.57174 21 8.6815 21.3687 8.02513 22.0251C7.36875 22.6815 7 23.5717 7 24.5V28H9.33333V24.5C9.33333 24.1906 9.45625 23.8938 9.67504 23.675C9.89383 23.4562 10.1906 23.3333 10.5 23.3333H17.5C17.8094 23.3333 18.1062 23.4562 18.325 23.675C18.5437 23.8938 18.6667 24.1906 18.6667 24.5V28H21V24.5ZM25.6667 4.66667C25.6667 3.74369 25.393 2.84144 24.8802 2.07401C24.3674 1.30658 23.6386 0.70844 22.7859 0.355231C21.9331 0.00202198 20.9948 -0.0903936 20.0896 0.0896708C19.1843 0.269735 18.3528 0.714192 17.7002 1.36684C17.0475 2.01948 16.6031 2.851 16.423 3.75625C16.2429 4.66149 16.3354 5.5998 16.6886 6.45252C17.0418 7.30525 17.6399 8.03408 18.4073 8.54686C19.1748 9.05964 20.077 9.33333 21 9.33333C22.2377 9.33333 23.4247 8.84167 24.2998 7.9665C25.175 7.09133 25.6667 5.90435 25.6667 4.66667ZM23.3333 4.66667C23.3333 5.12816 23.1965 5.57928 22.9401 5.963C22.6837 6.34671 22.3193 6.64578 21.8929 6.82239C21.4666 6.99899 20.9974 7.0452 20.5448 6.95517C20.0922 6.86514 19.6764 6.64291 19.3501 6.31658C19.0238 5.99026 18.8015 5.5745 18.7115 5.12188C18.6215 4.66926 18.6677 4.2001 18.8443 3.77374C19.0209 3.34738 19.32 2.98296 19.7037 2.72657C20.0874 2.47018 20.5385 2.33334 21 2.33334C21.6188 2.33334 22.2123 2.57917 22.6499 3.01675C23.0875 3.45434 23.3333 4.04783 23.3333 4.66667ZM11.6667 4.66667C11.6667 3.74369 11.393 2.84144 10.8802 2.07401C10.3674 1.30658 9.63858 0.70844 8.78586 0.355231C7.93313 0.00202198 6.99482 -0.0903936 6.08958 0.0896708C5.18433 0.269735 4.35281 0.714192 3.70017 1.36684C3.04752 2.01948 2.60307 2.851 2.423 3.75625C2.24294 4.66149 2.33535 5.5998 2.68856 6.45252C3.04177 7.30525 3.63991 8.03408 4.40734 8.54686C5.17477 9.05964 6.07702 9.33333 7 9.33333C8.23768 9.33333 9.42466 8.84167 10.2998 7.9665C11.175 7.09133 11.6667 5.90435 11.6667 4.66667ZM9.33333 4.66667C9.33333 5.12816 9.19649 5.57928 8.94009 5.963C8.68371 6.34671 8.31929 6.64578 7.89293 6.82239C7.46657 6.99899 6.99741 7.0452 6.54479 6.95517C6.09217 6.86514 5.67641 6.64291 5.35008 6.31658C5.02376 5.99026 4.80153 5.5745 4.7115 5.12188C4.62147 4.66926 4.66768 4.2001 4.84428 3.77374C5.02088 3.34738 5.31995 2.98296 5.70367 2.72657C6.08738 2.47018 6.53851 2.33334 7 2.33334C7.61884 2.33334 8.21233 2.57917 8.64992 3.01675C9.0875 3.45434 9.33333 4.04783 9.33333 4.66667Z"  fill-opacity="0.5"/>
</svg>
