<svg width="28" height="28" viewBox="0 0 28 28" fill="none" xmlns="http://www.w3.org/2000/svg">
<g clip-path="url(#clip0_550_1247)">
<path d="M24.2667 12.6205V3.26667C24.2646 1.46339 22.8033 0.00205737 21 0H3.26667C1.46339 0.00205737 0.00205737 1.46339 0 3.26667V21C0.00205737 22.8033 1.46339 24.2646 3.26667 24.2667H12.6205C14.507 27.0912 17.9093 28.501 21.2407 27.8386C24.572 27.1762 27.1762 24.572 27.8386 21.2407C28.501 17.9093 27.0912 14.507 24.2667 12.6205ZM3.26667 23.3333C1.97864 23.3318 0.934876 22.288 0.933333 21V3.26667C0.934876 1.97864 1.97864 0.934876 3.26667 0.933333H21C22.288 0.934876 23.3318 1.97864 23.3333 3.26667V12.0867C22.5938 11.7179 21.8035 11.4612 20.9883 11.3251C20.9911 11.2831 21 11.2429 21 11.2005C21 10.1695 20.1643 9.3338 19.1333 9.3338H10.7333C9.7024 9.3338 8.86667 10.1695 8.86667 11.2005C8.86667 12.2314 9.7024 13.0671 10.7333 13.0671H12.1333C12.3911 13.0671 12.6 12.8582 12.6 12.6005C12.6 12.3427 12.3911 12.1338 12.1333 12.1338H10.7333C10.2179 12.1338 9.8 11.7159 9.8 11.2005C9.8 10.685 10.2179 10.2671 10.7333 10.2671H19.1333C19.6488 10.2671 20.0667 10.685 20.0667 11.2005C20.0667 11.2084 20.0667 11.2159 20.0643 11.2238C19.9099 11.2154 19.7568 11.2005 19.6 11.2005C17.0019 11.2024 14.5515 12.4089 12.9659 14.4671H10.7333C9.7024 14.4671 8.86667 15.3029 8.86667 16.3338C8.86667 17.3647 9.7024 18.2005 10.7333 18.2005H11.3265C11.0154 19.9486 11.2823 21.7504 12.0867 23.3333H3.26667ZM11.5365 17.2667H10.7333C10.2179 17.2667 9.8 16.8488 9.8 16.3333C9.8 15.8179 10.2179 15.4 10.7333 15.4H12.3363C11.9948 15.9874 11.7262 16.6142 11.5365 17.2667ZM19.6 27.0667C15.4763 27.0667 12.1333 23.7237 12.1333 19.6C12.1333 15.4763 15.4763 12.1333 19.6 12.1333C23.7237 12.1333 27.0667 15.4763 27.0667 19.6C27.0618 23.7217 23.7217 27.0618 19.6 27.0667Z" fill-opacity="0.75"/>
<path d="M19.6 22.8666C17.7959 22.8666 16.3333 21.404 16.3333 19.5999C16.3333 17.7958 17.7959 16.3332 19.6 16.3332C21.4041 16.3332 22.8667 17.7958 22.8667 19.5999C22.8667 19.8576 23.0756 20.0666 23.3333 20.0666C23.5911 20.0666 23.8 19.8576 23.8 19.5999C23.8 17.2803 21.9196 15.3999 19.6 15.3999C17.2804 15.3999 15.4 17.2803 15.4 19.5999C15.4 21.9195 17.2804 23.7999 19.6 23.7999C19.8577 23.7999 20.0667 23.591 20.0667 23.3332C20.0667 23.0755 19.8577 22.8666 19.6 22.8666Z" fill-opacity="0.75"/>
<path d="M21.3584 18.8346C21.1916 18.6439 20.9031 18.6211 20.7084 18.7833C20.5138 18.9455 20.4841 19.2334 20.6416 19.4319L22.9749 22.2319C23.0636 22.3382 23.1949 22.3997 23.3333 22.3997C23.4718 22.3997 23.6031 22.3382 23.6917 22.2319L26.0251 19.4319C26.1366 19.3044 26.1703 19.1265 26.1131 18.967C26.0559 18.8076 25.9168 18.6917 25.7496 18.6642C25.5825 18.6367 25.4136 18.7019 25.3083 18.8346L23.3333 21.2043L21.3584 18.8346Z" fill-opacity="0.75"/>
<path d="M5.13333 4.19995C4.1024 4.19995 3.26666 5.03569 3.26666 6.06662C3.26666 7.09755 4.1024 7.93328 5.13333 7.93328C6.16426 7.93328 7 7.09755 7 6.06662C7 5.57155 6.80333 5.09675 6.45326 4.74669C6.10319 4.39662 5.6284 4.19995 5.13333 4.19995ZM5.13333 6.99995C4.61786 6.99995 4.2 6.58208 4.2 6.06662C4.2 5.55115 4.61786 5.13328 5.13333 5.13328C5.6488 5.13328 6.06666 5.55115 6.06666 6.06662C6.06666 6.58208 5.6488 6.99995 5.13333 6.99995Z" fill-opacity="0.75"/>
<path d="M10.7333 7.93328H16.8C17.0577 7.93328 17.2667 7.72435 17.2667 7.46662C17.2667 7.20889 17.0577 6.99995 16.8 6.99995H10.7333C10.2179 6.99995 9.8 6.58208 9.8 6.06662C9.8 5.55115 10.2179 5.13328 10.7333 5.13328H19.1333C19.6488 5.13328 20.0667 5.55115 20.0667 6.06662C20.0667 6.58208 19.6488 6.99995 19.1333 6.99995C18.8756 6.99995 18.6667 7.20889 18.6667 7.46662C18.6667 7.72435 18.8756 7.93328 19.1333 7.93328C20.1643 7.93328 21 7.09755 21 6.06662C21 5.03569 20.1643 4.19995 19.1333 4.19995H10.7333C9.7024 4.19995 8.86667 5.03569 8.86667 6.06662C8.86667 7.09755 9.7024 7.93328 10.7333 7.93328Z" fill-opacity="0.75"/>
<path d="M5.13333 9.33325C4.1024 9.33325 3.26666 10.169 3.26666 11.1999C3.26666 12.2309 4.1024 13.0666 5.13333 13.0666C6.16426 13.0666 7 12.2309 7 11.1999C7 10.169 6.16426 9.33325 5.13333 9.33325ZM5.13333 12.1333C4.61786 12.1333 4.2 11.7154 4.2 11.1999C4.2 10.6845 4.61786 10.2666 5.13333 10.2666C5.6488 10.2666 6.06666 10.6845 6.06666 11.1999C6.06666 11.7154 5.6488 12.1333 5.13333 12.1333Z" fill-opacity="0.75"/>
<path d="M5.13333 14.4666C4.1024 14.4666 3.26666 15.3023 3.26666 16.3332C3.26666 17.3642 4.1024 18.1999 5.13333 18.1999C6.16426 18.1999 7 17.3642 7 16.3332C7 15.3023 6.16426 14.4666 5.13333 14.4666ZM5.13333 17.2666C4.61786 17.2666 4.2 16.8487 4.2 16.3332C4.2 15.8178 4.61786 15.3999 5.13333 15.3999C5.6488 15.3999 6.06666 15.8178 6.06666 16.3332C6.06666 16.8487 5.6488 17.2666 5.13333 17.2666Z" fill-opacity="0.75"/>
</g>
<defs>
<clipPath id="clip0_550_1247">
<rect width="28" height="28" />
</clipPath>
</defs>
</svg>
