<svg width="28" height="28" viewBox="0 0 28 28" fill="none" xmlns="http://www.w3.org/2000/svg">
<g clip-path="url(#clip0_631_391)">
<path d="M27.7023 11.3785L14.4298 1.66066C14.1739 1.4733 13.8262 1.4733 13.5704 1.66066L0.297805 11.3785C-0.0263824 11.6159 -0.09682 12.0711 0.140578 12.3953C0.377977 12.7195 0.83325 12.7898 1.15738 12.5525L14 3.14931L26.8427 12.5524C26.9722 12.6473 27.1227 12.693 27.2719 12.693C27.4959 12.693 27.7169 12.5899 27.8594 12.3952C28.0969 12.0711 28.0264 11.6159 27.7023 11.3785Z" fill-opacity="0.75"/>
<path d="M24.1853 12.7172C23.7835 12.7172 23.4578 13.0429 23.4578 13.4447V25.0247H17.6378V18.7036C17.6378 16.6976 16.0058 15.0658 14 15.0658C11.9942 15.0658 10.3622 16.6978 10.3622 18.7036V25.0247H4.54217V13.4447C4.54217 13.0429 4.2164 12.7172 3.81467 12.7172C3.41293 12.7172 3.08716 13.0429 3.08716 13.4447V25.7523C3.08716 26.1541 3.41293 26.4798 3.81467 26.4798H11.0897C11.4723 26.4798 11.7854 26.1842 11.8144 25.809C11.8161 25.792 11.8172 25.7734 11.8172 25.7523V18.7036C11.8172 17.5 12.7964 16.5208 14 16.5208C15.2036 16.5208 16.1828 17.5001 16.1828 18.7036V25.7523C16.1828 25.7733 16.1839 25.7915 16.1856 25.8083C16.2143 26.1839 16.5275 26.4798 16.9103 26.4798H24.1853C24.5871 26.4798 24.9128 26.1541 24.9128 25.7523V13.4447C24.9128 13.0429 24.5871 12.7172 24.1853 12.7172Z" fill-opacity="0.75"/>
</g>
<defs>
<clipPath id="clip0_631_391">
<rect width="28" height="28" />
</clipPath>
</defs>
</svg>
