<svg width="28" height="28" viewBox="0 0 28 28" fill="none" xmlns="http://www.w3.org/2000/svg">
<path d="M2.00317 17.15L6.825 28H9.69033C10.2249 27.9997 10.751 27.8659 11.2208 27.6108C11.6906 27.3556 12.0892 26.9872 12.3805 26.539C12.6719 26.0908 12.8467 25.5769 12.8891 25.044C12.9315 24.5111 12.8401 23.976 12.6233 23.4873L9.96217 17.5H12.8333C14.3799 17.5019 15.8625 18.117 16.9561 19.2106C18.0496 20.3041 18.6648 21.7868 18.6667 23.3333H21V0H18.6667C18.6648 1.54653 18.0496 3.02918 16.9561 4.12274C15.8625 5.2163 14.3799 5.83148 12.8333 5.83333H3.5C2.57174 5.83333 1.6815 6.20208 1.02513 6.85846C0.368749 7.51484 0 8.40508 0 9.33333L0 14C0.00260282 14.6606 0.192095 15.3069 0.546572 15.8644C0.90105 16.4218 1.40604 16.8675 2.00317 17.15ZM10.4907 24.4335C10.5502 24.5669 10.5754 24.7131 10.564 24.8588C10.5526 25.0044 10.505 25.1449 10.4255 25.2675C10.3459 25.39 10.237 25.4908 10.1086 25.5605C9.98023 25.6302 9.83644 25.6667 9.69033 25.6667H8.34167L4.71217 17.5H7.40833L10.4907 24.4335ZM2.33333 9.33333C2.33333 9.02391 2.45625 8.72717 2.67504 8.50838C2.89383 8.28958 3.19058 8.16667 3.5 8.16667H12.8333C13.9209 8.16692 14.9975 7.9491 15.9994 7.52608C17.0014 7.10306 17.9083 6.48343 18.6667 5.70383V17.6295C17.9083 16.8499 17.0014 16.2303 15.9994 15.8073C14.9975 15.3842 13.9209 15.1664 12.8333 15.1667H3.5C3.19058 15.1667 2.89383 15.0437 2.67504 14.825C2.45625 14.6062 2.33333 14.3094 2.33333 14V9.33333ZM26.0085 18.3248L23.3392 15.6555L24.9888 14.0058L27.6582 16.6752L26.0085 18.3248ZM25.0332 9.28317L23.3835 7.6335L26.0085 5.0085L27.6582 6.65817L25.0332 9.28317ZM24.5 10.5H28V12.8333H24.5V10.5Z"  fill-opacity="0.5"/>
</svg>
