<svg width="26" height="28" viewBox="0 0 26 28" fill="none" xmlns="http://www.w3.org/2000/svg">
<path d="M18.1124 4.74501C16.7141 3.55993 15.2738 2.33055 13.8161 0.877506L12.9853 0.0524902L12.1696 0.878654C9.54542 3.50983 8.3056 7.54982 7.76725 9.97357C7.35518 9.33487 7.04943 8.63362 6.86185 7.89708L6.36895 5.99423L4.9357 7.34129C2.42445 9.69854 0.749973 12.0373 0.749973 15.7824C0.701739 21.3405 4.44072 26.2189 9.82039 27.6168C10.6082 27.8084 11.4123 27.9255 12.222 27.9664C12.488 27.9856 13.2497 28.0048 13.3803 27.9967C19.9802 27.7981 25.226 22.3876 25.2205 15.7847C25.2205 10.7811 21.9263 7.98442 18.1124 4.74501ZM13.211 25.6511C13.089 25.6616 12.978 25.6627 12.8546 25.6616C10.6756 25.5949 8.94227 23.8121 8.93697 21.6321C8.93697 20.1555 9.7289 19.4194 11.5212 17.8939C11.973 17.5096 12.4645 17.0915 12.9815 16.6128C13.4346 17.0239 13.8748 17.3966 14.2812 17.7424C16.0816 19.2703 17.0214 20.138 17.0214 21.6286C17.0174 23.7671 15.3461 25.5313 13.211 25.6511ZM19.0571 23.5886L19.0338 23.6049C19.2428 22.9681 19.3497 22.3023 19.3506 21.6321C19.3506 18.9943 17.62 17.5246 15.7893 15.9699C15.1407 15.4202 14.471 14.8519 13.8026 14.1834L12.978 13.36L12.1547 14.1834C11.4 14.9369 10.6617 15.5657 10.0107 16.1201C8.18463 17.6737 6.60662 19.0164 6.60662 21.6321C6.60908 22.331 6.72715 23.0248 6.95602 23.6852C4.49869 21.7983 3.06446 18.8713 3.07917 15.7731C3.06003 13.7295 3.85097 11.7615 5.27903 10.2996C5.52501 10.7986 5.81661 11.2738 6.15015 11.7192C6.64797 12.391 7.49743 12.7026 8.31161 12.5123C9.13931 12.328 9.78282 11.6768 9.95716 10.8469C10.4448 8.1703 11.4995 5.62903 13.0503 3.39362C14.2789 4.55819 15.4959 5.58883 16.5941 6.52169C20.2415 9.61947 22.8828 11.8578 22.8828 15.7801C22.8886 18.8358 21.4747 21.7209 19.056 23.5886H19.0571Z"  fill-opacity="0.5"/>
</svg>
