<svg width="36" height="36" viewBox="0 0 36 36" fill="none" xmlns="http://www.w3.org/2000/svg">
<path d="M27.24 3.99006L18.24 0.0504571C18.087 -0.0163308 17.913 -0.0163308 17.76 0.0504571L8.75999 3.99006C8.54144 4.08544 8.40012 4.3012 8.39999 4.53966V13.9597C8.40325 16.0767 9.42054 18.0639 11.136 19.3045L17.3562 23.7907C17.7404 24.0687 18.2596 24.0687 18.6438 23.7907L24.864 19.3051C26.5794 18.0645 27.5967 16.0773 27.6 13.9603V4.53966C27.5999 4.3012 27.4585 4.08544 27.24 3.99006ZM26.4 13.9603C26.3972 15.6918 25.5651 17.3172 24.162 18.3319L18 22.7761L11.838 18.3319C10.4349 17.3172 9.60274 15.6918 9.59999 13.9603V4.93206L18 1.25526L26.4 4.93206V13.9603Z" />
<path d="M17.76 2.67009L11.16 5.55969C10.9415 5.65507 10.8001 5.87083 10.8 6.10929V13.9603C10.8019 15.3065 11.4489 16.5702 12.54 17.3587L17.649 21.0439C17.8586 21.1951 18.1414 21.1951 18.351 21.0439L23.46 17.3587C24.5511 16.5702 25.1982 15.3065 25.2 13.9603V6.10929C25.1999 5.87083 25.0586 5.65507 24.84 5.55969L18.24 2.67009C18.087 2.6033 17.913 2.6033 17.76 2.67009ZM24 6.50109V13.9603C23.9982 14.9209 23.5364 15.8226 22.758 16.3855L18 19.8175L13.242 16.3855C12.4636 15.8226 12.0019 14.9209 12 13.9603V6.50109L18 3.87489L24 6.50109Z" />
<path d="M4.97101 19.9201L3.67321 16.8877C3.39722 16.2625 2.80867 15.832 2.12925 15.7585C1.44984 15.6849 0.782779 15.9794 0.379352 16.531C-0.0240752 17.0826 -0.102581 17.8075 0.173407 18.4327L2.52481 23.6053C2.84203 24.3055 3.28334 24.9426 3.82741 25.4857L7.52521 29.1841C7.31695 29.4048 7.20066 29.6966 7.20001 30.0001V34.8001C7.20001 35.4628 7.73727 36.0001 8.40001 36.0001H15C15.6628 36.0001 16.2 35.4628 16.2 34.8001V30.0001C16.2 29.3373 15.6628 28.8001 15 28.8001V27.6835C15.0184 26.2625 14.5548 24.8772 13.6848 23.7535C13.1747 23.0826 12.4796 22.5756 11.685 22.2949C10.4213 21.7639 9.25913 21.0181 8.25001 20.0905C7.31332 19.319 5.98262 19.2499 4.97101 19.9201ZM15 34.8001H8.40001V30.0001H15V34.8001ZM12.7482 24.5029C13.4476 25.4141 13.8183 26.535 13.8 27.6835V28.8001H8.83861L4.67581 24.6373C4.23369 24.1958 3.87493 23.6781 3.61681 23.1091L1.26541 17.9365C1.16506 17.7157 1.18373 17.4591 1.31499 17.2551C1.44624 17.0512 1.6721 16.928 1.91461 16.9279C2.19999 16.9276 2.45791 17.0979 2.56981 17.3605L3.91201 20.4907C4.26842 21.3258 4.78215 22.0846 5.42521 22.7257L8.16601 25.4671C8.31665 25.623 8.53973 25.6856 8.74951 25.6307C8.95929 25.5758 9.12312 25.4119 9.17803 25.2022C9.23294 24.9924 9.17038 24.7693 9.01441 24.6187L6.27361 21.8773C5.99801 21.6023 5.7502 21.3009 5.53381 20.9773C6.11001 20.5339 6.91611 20.5473 7.47721 21.0097C8.59881 22.039 9.89514 22.8599 11.3052 23.4337C11.8797 23.6426 12.3811 24.0141 12.7482 24.5029Z" />
<path d="M13.2 31.8H12.6C12.2686 31.8 12 32.0687 12 32.4C12 32.7314 12.2686 33 12.6 33H13.2C13.5314 33 13.8 32.7314 13.8 32.4C13.8 32.0687 13.5314 31.8 13.2 31.8Z" />
<path d="M33.4752 23.6052L35.8266 18.4326C36.1157 17.8053 36.0442 17.0709 35.6395 16.5111C35.2348 15.9514 34.5597 15.6534 33.8734 15.7314C33.1871 15.8094 32.5962 16.2513 32.3274 16.8876L31.0326 19.9086C30.0175 19.2417 28.6861 19.3147 27.75 20.0886C26.7409 21.0162 25.5787 21.7621 24.315 22.293C23.5204 22.5737 22.8253 23.0808 22.3152 23.7516C21.4449 24.8758 20.9812 26.2618 21 27.6834V28.8C20.3373 28.8 19.8 29.3373 19.8 30V34.8C19.8 35.4627 20.3373 36 21 36H27.6C28.2628 36 28.8 35.4627 28.8 34.8V30C28.7994 29.6965 28.6831 29.4047 28.4748 29.184L32.1726 25.4856C32.7167 24.9425 33.158 24.3054 33.4752 23.6052ZM27.6 34.8H21V30H27.6V34.8ZM27.1614 28.8H22.2V27.6834C22.1819 26.5351 22.5526 25.4144 23.2518 24.5034C23.6181 24.0149 24.1184 23.6433 24.6918 23.4336C26.1021 22.86 27.3987 22.0391 28.5204 21.0096C29.0809 20.5437 29.8893 20.528 30.4674 20.9718C30.2504 21.2978 30.0014 21.6013 29.724 21.8778L26.9832 24.6192C26.7558 24.8546 26.7591 25.2289 26.9905 25.4603C27.222 25.6917 27.5962 25.695 27.8316 25.4676L30.5724 22.7262C31.2155 22.0851 31.7292 21.3263 32.0856 20.4912L33.4278 17.3604C33.54 17.0982 33.7978 16.9282 34.083 16.9284C34.3255 16.9285 34.5514 17.0518 34.6826 17.2557C34.8139 17.4596 34.8326 17.7162 34.7322 17.937L32.3808 23.1096C32.1227 23.6786 31.7639 24.1963 31.3218 24.6378L27.1614 28.8Z" />
<path d="M23.4 31.8H22.8C22.4686 31.8 22.2 32.0687 22.2 32.4C22.2 32.7314 22.4686 33 22.8 33H23.4C23.7314 33 24 32.7314 24 32.4C24 32.0687 23.7314 31.8 23.4 31.8Z" />
<path d="M14.76 12.72C14.4949 12.5212 14.1188 12.5749 13.92 12.84C13.7212 13.1051 13.7749 13.4812 14.04 13.68L16.44 15.48C16.5439 15.5579 16.6702 15.6 16.8 15.6C16.834 15.5999 16.8679 15.5971 16.9014 15.5916C17.0639 15.5637 17.2078 15.4702 17.2992 15.333L22.0992 8.13303C22.2182 7.95468 22.233 7.72641 22.138 7.53421C22.043 7.34201 21.8527 7.21507 21.6388 7.20121C21.4249 7.18735 21.2198 7.28868 21.1008 7.46703L16.6524 14.1396L14.76 12.72Z" />
</svg>
