<svg width="48" height="48" viewBox="0 0 48 48" fill="none" xmlns="http://www.w3.org/2000/svg">
<circle cx="24" cy="24" r="24" fill="" fill-opacity="0.02"/>
<g clip-path="url(#clip0_39_806)">
<path d="M25.3758 17.2242C25.6112 17.4516 25.9854 17.4484 26.2169 17.2169C26.4483 16.9855 26.4516 16.6113 26.2242 16.3758L22.6242 12.7758C22.3888 12.5485 22.0145 12.5517 21.7831 12.7832C21.5517 13.0146 21.5484 13.3888 21.7758 13.6242L25.3758 17.2242Z" />
<path d="M25.8 13.8001C26.1314 13.8001 26.4 13.5315 26.4 13.2001C26.4 12.8687 26.1314 12.6001 25.8 12.6001C25.4686 12.6001 25.2 12.8687 25.2 13.2001C25.2 13.5315 25.4686 13.8001 25.8 13.8001Z" />
<path d="M22.2 17.4001C22.5314 17.4001 22.8 17.1314 22.8 16.8001C22.8 16.4687 22.5314 16.2001 22.2 16.2001C21.8687 16.2001 21.6 16.4687 21.6 16.8001C21.6 17.1314 21.8687 17.4001 22.2 17.4001Z" />
<path d="M12.6 14.4001C12.9314 14.4001 13.2 14.1315 13.2 13.8001V8.64849L13.9758 9.42429C14.2112 9.65168 14.5855 9.64842 14.8169 9.41698C15.0483 9.18554 15.0516 8.81132 14.8242 8.57589L13.0242 6.77589C12.7899 6.54166 12.4101 6.54166 12.1758 6.77589L10.3758 8.57589C10.2198 8.72654 10.1573 8.94962 10.2122 9.1594C10.2671 9.36917 10.4309 9.533 10.6407 9.58791C10.8505 9.64282 11.0736 9.58027 11.2242 9.42429L12 8.64849V13.8001C12 14.1315 12.2686 14.4001 12.6 14.4001Z" />
<path d="M35.4 14.4001C35.7314 14.4001 36 14.1315 36 13.8001V8.64849L36.7758 9.42429C37.0112 9.65168 37.3855 9.64842 37.6169 9.41698C37.8483 9.18554 37.8516 8.81132 37.6242 8.57589L35.8242 6.77589C35.5899 6.54166 35.2101 6.54166 34.9758 6.77589L33.1758 8.57589C32.9484 8.81132 32.9517 9.18554 33.1831 9.41698C33.4146 9.64842 33.7888 9.65168 34.0242 9.42429L34.8 8.64849V13.8001C34.8 14.1315 35.0686 14.4001 35.4 14.4001Z" />
<path d="M7.20001 27.3061V30.2941C7.20083 31.0966 7.73287 31.8017 8.50441 32.0227L11.0586 32.7601C11.7268 34.2258 12.7015 35.5311 13.917 36.5881L14.295 40.3819C14.3848 41.3027 15.1608 42.0038 16.086 42.0001H18.714C19.64 42.0038 20.4164 41.3017 20.5056 40.3801L20.5566 39.8467C22.828 40.3183 25.172 40.3183 27.4434 39.8467L27.495 40.3813C27.5845 41.3023 28.3606 42.0038 29.286 42.0001H31.914C32.8399 42.004 33.6163 41.3017 33.705 40.3801L34.0836 36.5863C36.1077 34.8793 37.4134 32.4716 37.74 29.8441C38.0489 29.9498 38.3735 30.0025 38.7 30.0001C39.78 30.0027 40.686 29.1857 40.7945 28.1111C40.903 27.0365 40.1788 26.0548 39.12 25.8415C38.7951 25.7752 38.478 25.9849 38.4117 26.3098C38.3454 26.6347 38.5551 26.9518 38.88 27.0181C39.3331 27.1101 39.6428 27.5305 39.5964 27.9905C39.5499 28.4506 39.1624 28.8005 38.7 28.8001C38.375 28.8141 38.0544 28.7212 37.7874 28.5355C37.6578 24.0523 34.2528 20.1331 28.8 18.1801V13.8001H30.48C31.0454 13.8003 31.5469 13.4372 31.7232 12.9001C31.9217 12.3497 31.7441 11.7342 31.2828 11.3743L24.8112 6.29226C24.3437 5.90501 23.6676 5.9025 23.1972 6.28626L16.7172 11.3725C16.2557 11.7324 16.0777 12.3482 16.2762 12.8989C16.4522 13.4367 16.9541 13.8003 17.52 13.8001H19.2V18.1243C18.6942 18.2767 18.1956 18.4525 17.7834 18.6241L14.0634 16.9321C13.5722 16.706 12.996 16.7722 12.5688 17.1037C12.1371 17.4378 11.9269 17.9842 12.0234 18.5215L12.705 22.2475C12.0321 23.0297 11.4773 23.9062 11.058 24.8491L8.50861 25.5763C7.73498 25.7958 7.20083 26.5019 7.20001 27.3061H7.20001ZM17.52 12.6001C17.5008 12.6001 17.4438 12.6001 17.4114 12.5071C17.3836 12.4398 17.4028 12.3622 17.4588 12.3157L23.9472 7.22286C23.9844 7.19226 24.0156 7.19226 24.0618 7.22946L30.5418 12.3169C30.5975 12.3633 30.6165 12.4407 30.5886 12.5077C30.5562 12.6001 30.4992 12.6001 30.48 12.6001H28.8C28.1373 12.6001 27.6 13.1373 27.6 13.8001V21.6001H20.4V13.8001C20.4 13.1373 19.8628 12.6001 19.2 12.6001H17.52ZM8.83501 26.7313L11.565 25.9513C11.8043 25.8661 11.9982 25.6865 12.1014 25.4545C12.4946 24.5375 13.0311 23.6889 13.6908 22.9405C13.8748 22.734 13.9555 22.4555 13.9104 22.1827L13.203 18.3109C13.1838 18.2136 13.2218 18.1139 13.3008 18.0541C13.3752 17.994 13.4776 17.9823 13.5636 18.0241L17.4 19.7695C17.6305 19.8729 17.8934 19.8773 18.1272 19.7815C18.4422 19.6459 18.8136 19.5097 19.1982 19.3837V21.6001H18.6C18.2686 21.6001 18 21.8687 18 22.2001C18 22.5314 18.2686 22.8001 18.6 22.8001H29.4C29.7314 22.8001 30 22.5314 30 22.2001C30 21.8687 29.7314 21.6001 29.4 21.6001H28.8V19.4569C33.6312 21.3157 36.6 24.8401 36.6 28.8001C36.545 31.545 35.2692 34.1225 33.12 35.8309C33.0013 35.9313 32.9262 36.0739 32.9106 36.2287L32.5086 40.2619C32.4793 40.5704 32.2185 40.8051 31.9086 40.8019H29.286C28.9761 40.8051 28.7153 40.5704 28.686 40.2619L28.602 39.3835C28.5744 39.1272 28.4382 38.8951 28.228 38.746C28.0179 38.5968 27.7538 38.5449 27.5028 38.6035C25.1966 39.1315 22.801 39.1315 20.4948 38.6035C20.2425 38.5435 19.9765 38.5954 19.7652 38.7457C19.5538 38.896 19.4176 39.1302 19.3914 39.3883L19.311 40.2601C19.2818 40.5675 19.0228 40.8018 18.714 40.8001H16.086C15.7772 40.8018 15.5182 40.5675 15.489 40.2601L15.1002 36.3523C15.0787 36.1211 14.9686 35.9072 14.793 35.7553C13.6298 34.7667 12.7065 33.5267 12.093 32.1289C11.9844 31.8922 11.778 31.7145 11.5278 31.6423L8.82781 30.8671C8.5737 30.7924 8.3994 30.5589 8.40001 30.2941V27.3061C8.39951 27.0385 8.57741 26.8035 8.83501 26.7313Z" />
<path d="M15.9 28.2C17.0598 28.2 18 27.2598 18 26.1C18 24.9402 17.0598 24 15.9 24C14.7402 24 13.8 24.9402 13.8 26.1C13.8 27.2598 14.7402 28.2 15.9 28.2ZM15.9 25.2C16.397 25.2 16.8 25.6029 16.8 26.1C16.8 26.5971 16.397 27 15.9 27C15.4029 27 15 26.5971 15 26.1C15 25.6029 15.4029 25.2 15.9 25.2Z" />
</g>
<defs>
<clipPath id="clip0_39_806">
<rect width="36" height="36" fill="white" transform="translate(6 6)"/>
</clipPath>
</defs>
</svg>
