<svg width="36" height="36" viewBox="0 0 36 36" fill="none" xmlns="http://www.w3.org/2000/svg">
<g clip-path="url(#clip0_804_1338)">
<path d="M30.75 16.5C30.3 16.5 30 16.2 30 15.75V8.25C30 7.05 28.95 6 27.75 6H15.75C15.3 6 15 5.7 15 5.25C15 4.8 15.3 4.5 15.75 4.5H27.75C29.85 4.5 31.5 6.15 31.5 8.25V15.75C31.5 16.2 31.2 16.5 30.75 16.5Z" />
<path d="M30.75 16.5C30.6 16.5 30.3 16.5 30.15 16.35L27.15 13.35C26.85 13.05 26.85 12.6 27.15 12.3C27.45 12 27.9 12 28.2 12.3L30.6 14.7L33 12.3C33.3 12 33.75 12 34.05 12.3C34.35 12.6 34.35 13.05 34.05 13.35L31.05 16.35C31.2 16.5 30.9 16.5 30.75 16.5V16.5Z" />
<path d="M17.25 31.5H8.25C6.15 31.5 4.5 29.85 4.5 27.75V20.25C4.5 19.8 4.8 19.5 5.25 19.5C5.7 19.5 6 19.8 6 20.25V27.75C6 28.95 7.05 30 8.25 30H17.25C17.7 30 18 30.3 18 30.75C18 31.2 17.7 31.5 17.25 31.5Z" />
<path d="M8.25001 24C8.10001 24 7.80001 24 7.65001 23.85L5.25001 21.45L2.85001 23.85C2.55001 24.15 2.10001 24.15 1.80001 23.85C1.50001 23.55 1.50001 23.1 1.80001 22.8L4.80001 19.8C5.10001 19.5 5.55001 19.5 5.85001 19.8L8.85001 22.8C9.15001 23.1 9.15001 23.55 8.85001 23.85C8.70001 24 8.40001 24 8.25001 24V24Z" />
<path fill-rule="evenodd" clip-rule="evenodd" d="M6.48935 3.08817C6.66568 2.97061 6.8954 2.97061 7.0718 3.08817L13.3264 7.25789C13.7586 7.54602 13.5546 8.21972 13.0351 8.21972H0.52597C0.0065272 8.21972 -0.19745 7.54603 0.234752 7.25789L6.48935 3.08817ZM6.78058 3.79541L1.26909 7.46972H12.292L6.78058 3.79541ZM12.9103 7.88193C12.9103 7.88186 12.9101 7.88179 12.91 7.88171L12.9103 7.88193Z" />
<path fill-rule="evenodd" clip-rule="evenodd" d="M11.2806 13.8447C11.0735 13.8447 10.9056 13.6768 10.9056 13.4697V9.34473C10.9056 9.13765 11.0735 8.96973 11.2806 8.96973C11.4877 8.96973 11.6556 9.13765 11.6556 9.34473V13.4697C11.6556 13.6768 11.4877 13.8447 11.2806 13.8447Z" />
<path fill-rule="evenodd" clip-rule="evenodd" d="M8.28058 13.8447C8.0735 13.8447 7.90558 13.6768 7.90558 13.4697V9.34473C7.90558 9.13765 8.0735 8.96973 8.28058 8.96973C8.48765 8.96973 8.65558 9.13765 8.65558 9.34473V13.4697C8.65558 13.6768 8.48765 13.8447 8.28058 13.8447Z" />
<path fill-rule="evenodd" clip-rule="evenodd" d="M5.28058 13.8447C5.07347 13.8447 4.90558 13.6768 4.90558 13.4697V9.34473C4.90558 9.13765 5.07347 8.96973 5.28058 8.96973C5.48765 8.96973 5.65558 9.13765 5.65558 9.34473V13.4697C5.65558 13.6768 5.48765 13.8447 5.28058 13.8447Z" />
<path fill-rule="evenodd" clip-rule="evenodd" d="M2.28058 13.8447C2.07347 13.8447 1.90558 13.6768 1.90558 13.4697V9.34473C1.90558 9.13765 2.07347 8.96973 2.28058 8.96973C2.48768 8.96973 2.65558 9.13765 2.65558 9.34473V13.4697C2.65558 13.6768 2.48768 13.8447 2.28058 13.8447Z" />
<path fill-rule="evenodd" clip-rule="evenodd" d="M0.405579 15.7197C0.405579 15.0984 0.909256 14.5947 1.53058 14.5947H12.0306C12.6519 14.5947 13.1556 15.0984 13.1556 15.7197C13.1556 16.341 12.6519 16.8447 12.0306 16.8447H1.53058C0.909256 16.8447 0.405579 16.341 0.405579 15.7197ZM1.53058 15.3447C1.32347 15.3447 1.15558 15.5127 1.15558 15.7197C1.15558 15.9268 1.32347 16.0947 1.53058 16.0947H12.0306C12.2377 16.0947 12.4056 15.9268 12.4056 15.7197C12.4056 15.5127 12.2377 15.3447 12.0306 15.3447H1.53058Z" />
<path fill-rule="evenodd" clip-rule="evenodd" d="M28.4894 18.0882C28.6657 17.9706 28.8954 17.9706 29.0718 18.0882L35.3264 22.2579C35.7586 22.546 35.5546 23.2197 35.0351 23.2197H22.526C22.0065 23.2197 21.8025 22.546 22.2348 22.2579L28.4894 18.0882ZM28.7806 18.7954L23.2691 22.4697H34.292L28.7806 18.7954ZM34.9103 22.8819C34.9103 22.8819 34.9101 22.8818 34.91 22.8817L34.9103 22.8819Z" />
<path fill-rule="evenodd" clip-rule="evenodd" d="M33.2806 28.8447C33.0735 28.8447 32.9056 28.6768 32.9056 28.4697V24.3447C32.9056 24.1377 33.0735 23.9697 33.2806 23.9697C33.4877 23.9697 33.6556 24.1377 33.6556 24.3447V28.4697C33.6556 28.6768 33.4877 28.8447 33.2806 28.8447Z" />
<path fill-rule="evenodd" clip-rule="evenodd" d="M30.2806 28.8447C30.0735 28.8447 29.9056 28.6768 29.9056 28.4697V24.3447C29.9056 24.1377 30.0735 23.9697 30.2806 23.9697C30.4877 23.9697 30.6556 24.1377 30.6556 24.3447V28.4697C30.6556 28.6768 30.4877 28.8447 30.2806 28.8447Z" />
<path fill-rule="evenodd" clip-rule="evenodd" d="M27.2806 28.8447C27.0735 28.8447 26.9056 28.6768 26.9056 28.4697V24.3447C26.9056 24.1377 27.0735 23.9697 27.2806 23.9697C27.4877 23.9697 27.6556 24.1377 27.6556 24.3447V28.4697C27.6556 28.6768 27.4877 28.8447 27.2806 28.8447Z" />
<path fill-rule="evenodd" clip-rule="evenodd" d="M24.2806 28.8447C24.0735 28.8447 23.9056 28.6768 23.9056 28.4697V24.3447C23.9056 24.1377 24.0735 23.9697 24.2806 23.9697C24.4877 23.9697 24.6556 24.1377 24.6556 24.3447V28.4697C24.6556 28.6768 24.4877 28.8447 24.2806 28.8447Z" />
<path fill-rule="evenodd" clip-rule="evenodd" d="M22.4056 30.7197C22.4056 30.0984 22.9093 29.5947 23.5306 29.5947H34.0306C34.6519 29.5947 35.1556 30.0984 35.1556 30.7197C35.1556 31.341 34.6519 31.8447 34.0306 31.8447H23.5306C22.9093 31.8447 22.4056 31.341 22.4056 30.7197ZM23.5306 30.3447C23.3235 30.3447 23.1556 30.5127 23.1556 30.7197C23.1556 30.9268 23.3235 31.0947 23.5306 31.0947H34.0306C34.2377 31.0947 34.4056 30.9268 34.4056 30.7197C34.4056 30.5127 34.2377 30.3447 34.0306 30.3447H23.5306Z" />
</g>
<defs>
<clipPath id="clip0_804_1338">
<rect width="36" height="36" fill="white"/>
</clipPath>
</defs>
</svg>
