<svg width="48" height="48" viewBox="0 0 48 48" fill="none" xmlns="http://www.w3.org/2000/svg">
<circle cx="24" cy="24" r="24" fill="" fill-opacity="0.02"/>
<g clip-path="url(#clip0_32_171)">
<path d="M40.2 6H7.8C6.80589 6 6 6.80589 6 7.8V31.8C6 32.7941 6.80589 33.6 7.8 33.6H11.7072C13.6827 38.6654 18.563 42.0004 24 42.0004C29.437 42.0004 34.3173 38.6654 36.2928 33.6H40.2C41.1941 33.6 42 32.7941 42 31.8V7.8C42 6.80589 41.1941 6 40.2 6ZM7.8 7.2H40.2C40.5314 7.2 40.8 7.46863 40.8 7.8V10.8H7.2V7.8C7.2 7.46863 7.46863 7.2 7.8 7.2ZM16.8162 29.4C16.8484 31.1679 17.0869 32.926 17.5266 34.6386C16.32 34.8048 15.1225 35.0313 13.9386 35.3172C12.7898 33.5486 12.1314 31.5066 12.0306 29.4H16.8162ZM24.6 23.3916C26.1936 23.3724 27.7554 23.2806 29.2572 23.1144C29.7038 24.7741 29.948 26.4817 29.9844 28.2H24.6V23.3916ZM24.6 22.1916V16.863C26.3478 17.229 27.9 19.1748 28.8846 21.9462C27.5004 22.0914 26.0652 22.1736 24.6 22.1916ZM23.4 16.863V22.1916C21.9348 22.1736 20.4996 22.0914 19.1154 21.9462C20.1 19.1748 21.6522 17.229 23.4 16.863ZM23.4 23.3916V28.2H18.0156C18.052 26.4817 18.2962 24.7741 18.7428 23.1144C20.2446 23.28 21.8064 23.3724 23.4 23.3916ZM18.0156 29.4H23.4V34.2084C21.8064 34.2276 20.2446 34.3194 18.7428 34.4856C18.2962 32.8259 18.052 31.1183 18.0156 29.4ZM23.4 35.4084V40.74C21.6522 40.374 20.1 38.4282 19.1154 35.6568C20.4996 35.5086 21.9348 35.4264 23.4 35.4084ZM24.6 40.74V35.4084C26.0652 35.4264 27.5004 35.5086 28.8846 35.6538C27.9 38.4252 26.3478 40.371 24.6 40.74ZM24.6 34.2114V29.4H29.9844C29.948 31.1183 29.7038 32.8259 29.2572 34.4856C27.7554 34.32 26.1936 34.2276 24.6 34.2084V34.2114ZM31.1838 29.4H35.9694C35.8686 31.5066 35.2102 33.5486 34.0614 35.3172C32.8775 35.0313 31.68 34.8048 30.4734 34.6386C30.9131 32.926 31.1516 31.1679 31.1838 29.4ZM31.1838 28.2C31.1516 26.4321 30.9131 24.674 30.4734 22.9614C31.68 22.7952 32.8775 22.5687 34.0614 22.2828C35.2102 24.0514 35.8686 26.0934 35.9694 28.2H31.1838ZM30.1266 21.7974C29.6232 20.1596 28.7743 18.6488 27.6372 17.367C29.8594 18.0787 31.8268 19.4209 33.3 21.2304C32.2914 21.4596 31.2288 21.6486 30.1266 21.7974ZM17.8734 21.7974C16.7712 21.6486 15.7086 21.4596 14.6994 21.2304C16.1728 19.4208 18.1404 18.0786 20.3628 17.367C19.2257 18.6488 18.3768 20.1596 17.8734 21.7974ZM13.9386 22.2828C15.1225 22.5687 16.32 22.7952 17.5266 22.9614C17.0869 24.674 16.8484 26.4321 16.8162 28.2H12.0306C12.1314 26.0934 12.7898 24.0514 13.9386 22.2828ZM14.7 36.3696C15.7092 36.1404 16.7718 35.9496 17.874 35.8026C18.3774 37.4404 19.2263 38.9512 20.3634 40.233C18.141 39.5214 16.1734 38.1792 14.7 36.3696ZM27.6378 40.233C28.7749 38.9512 29.6238 37.4404 30.1272 35.8026C31.2294 35.9514 32.292 36.1404 33.3012 36.3696C31.8276 38.1793 29.8598 39.5215 27.6372 40.233H27.6378ZM40.2 32.4H36.6966C38.228 27.015 36.1958 21.2497 31.6261 18.0153C27.0565 14.7808 20.9435 14.7808 16.3739 18.0153C11.8042 21.2497 9.77204 27.015 11.3034 32.4H7.8C7.46863 32.4 7.2 32.1314 7.2 31.8V12H40.8V31.8C40.8 32.1314 40.5314 32.4 40.2 32.4Z" fill=""/>
<path d="M8.99999 9.60002C9.33136 9.60002 9.59999 9.3314 9.59999 9.00002C9.59999 8.66865 9.33136 8.40002 8.99999 8.40002C8.66862 8.40002 8.39999 8.66865 8.39999 9.00002C8.39999 9.3314 8.66862 9.60002 8.99999 9.60002Z" fill=""/>
<path d="M11.4 9.60002C11.7314 9.60002 12 9.3314 12 9.00002C12 8.66865 11.7314 8.40002 11.4 8.40002C11.0686 8.40002 10.8 8.66865 10.8 9.00002C10.8 9.3314 11.0686 9.60002 11.4 9.60002Z" fill=""/>
<path d="M13.8 9.60002C14.1314 9.60002 14.4 9.3314 14.4 9.00002C14.4 8.66865 14.1314 8.40002 13.8 8.40002C13.4686 8.40002 13.2 8.66865 13.2 9.00002C13.2 9.3314 13.4686 9.60002 13.8 9.60002Z" fill=""/>
<path d="M22.2 9.60002H25.8C26.1314 9.60002 26.4 9.3314 26.4 9.00002C26.4 8.66865 26.1314 8.40002 25.8 8.40002H22.2C21.8686 8.40002 21.6 8.66865 21.6 9.00002C21.6 9.3314 21.8686 9.60002 22.2 9.60002Z" fill=""/>
<path d="M32.4 9.60002H39C39.3314 9.60002 39.6 9.3314 39.6 9.00002C39.6 8.66865 39.3314 8.40002 39 8.40002H32.4C32.0686 8.40002 31.8 8.66865 31.8 9.00002C31.8 9.3314 32.0686 9.60002 32.4 9.60002Z" fill=""/>
<path d="M8.99999 15H10.2C10.5314 15 10.8 14.7314 10.8 14.4C10.8 14.0687 10.5314 13.8 10.2 13.8H8.99999C8.66862 13.8 8.39999 14.0687 8.39999 14.4C8.39999 14.7314 8.66862 15 8.99999 15Z" fill=""/>
<path d="M10.2 18.6H8.99999C8.66862 18.6 8.39999 18.8686 8.39999 19.2C8.39999 19.5313 8.66862 19.8 8.99999 19.8H10.2C10.5314 19.8 10.8 19.5313 10.8 19.2C10.8 18.8686 10.5314 18.6 10.2 18.6Z" fill=""/>
<path d="M18 13.8H12.6C12.2686 13.8 12 14.0687 12 14.4C12 14.7314 12.2686 15 12.6 15H18C18.3314 15 18.6 14.7314 18.6 14.4C18.6 14.0687 18.3314 13.8 18 13.8Z" fill=""/>
<path d="M13.8 16.2H8.99999C8.66862 16.2 8.39999 16.4686 8.39999 16.8C8.39999 17.1313 8.66862 17.4 8.99999 17.4H13.8C14.1314 17.4 14.4 17.1313 14.4 16.8C14.4 16.4686 14.1314 16.2 13.8 16.2Z" fill=""/>
</g>
<defs>
<clipPath id="clip0_32_171">
<rect width="36" height="36" fill="white" transform="translate(6 6)"/>
</clipPath>
</defs>
</svg>
