<svg width="34" height="34" viewBox="0 0 34 34" fill="none" xmlns="http://www.w3.org/2000/svg">
<g clip-path="url(#clip0_147_1567)">
<path d="M7.44868 32.3228L4.81522 32.7805L3.297 24.121L6.44122 23.5759C6.72759 23.5259 7.02126 23.537 7.30306 23.6083C7.58486 23.6797 7.84844 23.8096 8.07659 23.9898C8.30361 24.1674 8.49054 24.391 8.62513 24.6459C8.75972 24.9008 8.83892 25.1813 8.85757 25.4689L9.14184 30.1986C9.17006 30.6988 9.01302 31.192 8.70069 31.5838C8.38837 31.9757 7.94266 32.2388 7.44868 32.3228Z" fill="white"/>
<path d="M30.7781 25.1675C30.7803 25.2597 30.7592 25.3509 30.7169 25.4327C30.6746 25.5146 30.6124 25.5845 30.536 25.6361L24.1898 29.9768C21.6937 31.6886 18.6306 32.3645 15.6459 31.8621L10.0228 30.9249C10.0767 30.6683 10.0966 30.4057 10.0822 30.1439L9.79167 25.4206C9.76718 25.0459 9.67233 24.6792 9.51208 24.3397L12.3783 23.843C13.3362 23.6772 14.3197 23.738 15.25 24.0203C16.1802 24.3027 17.0315 24.7988 17.7358 25.469C17.789 25.5195 17.8533 25.5569 17.9236 25.5781C17.9938 25.5992 18.0681 25.6036 18.1403 25.5908L20.5036 25.18C20.6388 25.1559 20.7774 25.1587 20.9114 25.1885C21.0455 25.2183 21.1723 25.2743 21.2846 25.3534C21.5055 25.5086 21.656 25.7451 21.7032 26.011C21.7133 26.0724 21.7191 26.1346 21.7203 26.1968C21.7207 26.3601 21.681 26.521 21.6048 26.6654C20.6253 27.0247 19.5913 27.2128 18.548 27.2215L14.0964 27.2559C13.9722 27.2559 13.853 27.3052 13.7651 27.3931C13.6772 27.481 13.6278 27.6002 13.6278 27.7244C13.6278 27.8487 13.6772 27.9679 13.7651 28.0558C13.853 28.1437 13.9722 28.193 14.0964 28.193L18.548 28.1587C20.1843 28.1458 21.7927 27.734 23.2339 26.9591C24.6631 26.189 26.6061 25.1503 27.7526 24.5818C28.1876 24.3676 28.6702 24.2683 29.1544 24.2935C29.6387 24.3186 30.1084 24.4674 30.5189 24.7255C30.595 24.7723 30.6585 24.8371 30.7037 24.9141C30.7489 24.9912 30.7745 25.0782 30.7781 25.1675Z" fill="white"/>
<path d="M21.4704 12.9702H14.4697L15.4256 10.0337H20.5145L21.4704 12.9702Z" fill="white"/>
<path d="M17.3249 16.8438H10.3226L11.2801 13.9073H16.3674L17.3249 16.8438Z" fill="white"/>
<path d="M25.6158 16.8438H18.6151L19.5726 13.9073H24.6599L25.6158 16.8438Z" fill="white"/>
<path d="M29.7628 20.7175H22.7621L23.718 17.781H28.8053L29.7628 20.7175Z" fill="white"/>
<path d="M21.4704 20.7175H14.4697L15.4256 17.781H20.5145L21.4704 20.7175Z" fill="white"/>
<path d="M13.1779 20.7175H6.17725L7.13316 17.781H12.222L13.1779 20.7175Z" fill="white"/>
<path d="M11.9003 8.46081C11.962 8.4624 12.0235 8.45177 12.0811 8.42952C12.1387 8.40727 12.1914 8.37384 12.2361 8.33116L16.7439 3.84522L18.7963 5.89295C18.8841 5.98022 19.0029 6.02921 19.1267 6.02921C19.2504 6.02921 19.3692 5.98022 19.457 5.89295L23.5634 1.80531V2.60503C23.5634 2.7293 23.6128 2.84849 23.7006 2.93637C23.7885 3.02425 23.9077 3.07361 24.032 3.07361C24.1563 3.07361 24.2754 3.02425 24.3633 2.93637C24.4512 2.84849 24.5006 2.7293 24.5006 2.60503V0.677572C24.5006 0.553295 24.4512 0.434108 24.3633 0.34623C24.2754 0.258353 24.1563 0.208984 24.032 0.208984L22.103 0.208984C21.9787 0.208984 21.8595 0.258353 21.7716 0.34623C21.6837 0.434108 21.6344 0.553295 21.6344 0.677572C21.6344 0.801849 21.6837 0.921036 21.7716 1.00891C21.8595 1.09679 21.9787 1.14616 22.103 1.14616H22.9042L19.1321 4.89486L17.0688 2.84557C16.981 2.75829 16.8622 2.70931 16.7384 2.70931C16.6146 2.70931 16.4959 2.75829 16.4081 2.84557L11.566 7.66108C11.4782 7.74894 11.429 7.86804 11.429 7.99222C11.429 8.1164 11.4782 8.23549 11.566 8.32335C11.6098 8.36725 11.662 8.40201 11.7193 8.4256C11.7767 8.4492 11.8382 8.46117 11.9003 8.46081Z" fill="white"/>
</g>
<defs>
<clipPath id="clip0_147_1567">
<rect width="33.5821" height="33.5821" fill="white" transform="translate(0.208984 0.208984)"/>
</clipPath>
</defs>
</svg>
