<svg width="28" height="28" viewBox="0 0 28 28" fill="none" xmlns="http://www.w3.org/2000/svg">
<g clip-path="url(#clip0_32_830)">
<path d="M25.6666 1.40927e-05H23.1326C22.6728 -0.00129547 22.2173 0.0886751 21.7925 0.26471C21.3678 0.440746 20.9822 0.699344 20.6581 1.02551L10.9036 10.7788C9.03606 10.297 7.06191 10.4425 5.28523 11.193C3.50854 11.9435 2.02788 13.2573 1.0713 14.932C0.114733 16.6068 -0.264682 18.5496 -0.00849728 20.4612C0.247687 22.3728 1.12526 24.1471 2.48905 25.5109C3.85283 26.8747 5.62717 27.7522 7.53877 28.0084C9.45036 28.2646 11.3932 27.8852 13.0679 26.9286C14.7427 25.972 16.0565 24.4914 16.8069 22.7147C17.5574 20.938 17.7029 18.9639 17.2211 17.0963L18.6666 15.6508V12.8333H22.1666V9.33335H24.9829L26.9744 7.34185C27.3005 7.01743 27.559 6.63161 27.735 6.20667C27.911 5.78174 28.0011 5.32613 27.9999 4.86618V2.33335C27.9999 1.71451 27.7541 1.12102 27.3165 0.683432C26.8789 0.245847 26.2854 1.40927e-05 25.6666 1.40927e-05ZM25.6666 4.86618C25.6667 5.01957 25.6366 5.17148 25.5779 5.31322C25.5193 5.45495 25.4332 5.58373 25.3247 5.69218L24.0169 7.00001H19.8332V10.5H16.3332V14.6825L14.5307 16.485C14.9412 17.3495 15.1582 18.2931 15.1666 19.25C15.1666 20.5191 14.7902 21.7597 14.0852 22.8149C13.3801 23.8701 12.378 24.6926 11.2055 25.1782C10.033 25.6639 8.74279 25.791 7.49808 25.5434C6.25337 25.2958 5.11003 24.6847 4.21264 23.7873C3.31526 22.8899 2.70413 21.7466 2.45654 20.5018C2.20895 19.2571 2.33602 17.967 2.82169 16.7945C3.30735 15.622 4.12979 14.6198 5.185 13.9148C6.24022 13.2097 7.48082 12.8333 8.74991 12.8333C9.71341 12.7704 10.6743 12.991 11.5137 13.468L22.3077 2.67518C22.5271 2.45734 22.8234 2.33455 23.1326 2.33335H25.6666V4.86618ZM5.83325 21C5.83325 21.2308 5.90167 21.4563 6.02986 21.6482C6.15806 21.84 6.34027 21.9896 6.55345 22.0779C6.76663 22.1662 7.00121 22.1893 7.22752 22.1443C7.45383 22.0992 7.66171 21.9881 7.82487 21.825C7.98803 21.6618 8.09915 21.4539 8.14416 21.2276C8.18918 21.0013 8.16607 20.7667 8.07777 20.5535C7.98947 20.3404 7.83993 20.1582 7.64808 20.03C7.45622 19.9018 7.23066 19.8333 6.99991 19.8333C6.69049 19.8333 6.39375 19.9563 6.17495 20.1751C5.95616 20.3938 5.83325 20.6906 5.83325 21Z" fill=""/>
</g>
<defs>
<clipPath id="clip0_32_830">
<rect width="28" height="28" fill="white"/>
</clipPath>
</defs>
</svg>
