<?xml version="1.0" encoding="UTF-8"?>
<svg xmlns="http://www.w3.org/2000/svg" id="Layer_3" data-name="Layer 3" viewBox="0 0 64 64" width="512" height="512"><path d="M9.753,39.341a1.034,1.034,0,0,0-1.506,0L3.223,45.083A8.982,8.982,0,0,0,1,51a8,8,0,0,0,16,0,8.982,8.982,0,0,0-2.223-5.917ZM9,57a6.006,6.006,0,0,1-6-6,6.974,6.974,0,0,1,1.729-4.6L9,41.518,13.271,46.4A6.974,6.974,0,0,1,15,51,6.006,6.006,0,0,1,9,57Z"/><path d="M9,53v2a4,4,0,0,0,4-4H11A2,2,0,0,1,9,53Z"/><path d="M32,37A13,13,0,1,0,45,50,13.015,13.015,0,0,0,32,37Zm0,24A11,11,0,1,1,43,50,11.013,11.013,0,0,1,32,61Z"/><path d="M37.707,44.293a1,1,0,0,0-1.414,0L29,51.586l-1.293-1.293a1,1,0,0,0-1.414,0l-2,2a1,1,0,0,0,0,1.414l4,4a1,1,0,0,0,1.414,0l10-10a1,1,0,0,0,0-1.414ZM29,55.586,26.414,53,27,52.414l1.293,1.293a1,1,0,0,0,1.414,0L37,46.414l.586.586Z"/><path d="M62,18H51V17a1,1,0,0,0-1-1H44a1,1,0,0,0-1,1v4H37a1,1,0,0,1-1-1,7,7,0,0,0-4-6.315V11h6a3,3,0,0,0,0-6H32V4a3,3,0,0,0-6,0V5H20a3,3,0,0,0,0,6h6v2.685A7,7,0,0,0,22,20a1,1,0,0,1-1,1H13a9.01,9.01,0,0,0-9,9v6a1,1,0,0,0,1,1h8a1,1,0,0,0,1-1V32a1,1,0,0,1,1-1h6.587a10.655,10.655,0,0,0,14.825,0H43v4a1,1,0,0,0,1,1h6a1,1,0,0,0,1-1V34H62a1,1,0,0,0,1-1V19A1,1,0,0,0,62,18ZM28,4a1,1,0,0,1,2,0V5H28ZM19,8a1,1,0,0,1,1-1H38a1,1,0,0,1,0,2H20A1,1,0,0,1,19,8Zm9,3h2v2.08a6.29,6.29,0,0,0-2,0Zm8,18a1,1,0,0,0-.706.292l-.174.173a8.654,8.654,0,0,1-12.242,0l-.173-.172A1,1,0,0,0,22,29H15a3,3,0,0,0-3,3v3H6V30a7.008,7.008,0,0,1,7-7h8a3,3,0,0,0,3-3,5,5,0,0,1,10,0,3,3,0,0,0,3,3h6v6Zm13,5H45V18h4Zm12-2H51V20H61Z"/></svg>
