<svg width="36" height="36" viewBox="0 0 36 36" fill="" xmlns="http://www.w3.org/2000/svg">
<path d="M17.8493 23.1429H19.6365V28.2857H17.8493V23.1429ZM26 20.5714H27.8183V28.2857H26V20.5714ZM9.50008 15.4286H11.4547V28.2857H9.5L9.50008 22V15.4286Z" />
<path d="M32.7273 3.85713H26V2.49999C26 1.81801 26.1138 1.23538 25.5 0.753146C24.8862 0.270909 23.868 0.753146 23 0.753146H17L11.4545 0.753154C10.5866 0.753154 10.1138 0.517764 9.5 1C8.88624 1.48224 9 2.31801 9 3V4L3.27273 3.85713C2.40475 3.85713 1.57231 4.12805 0.958559 4.61029C0.344804 5.09253 0 5.74658 0 6.42856V33.4286C0 34.1105 0.344804 34.7646 0.958559 35.2468C1.57231 35.7291 2.40475 36 3.27273 36H32.7273C33.5953 36 34.4277 35.7291 35.0414 35.2468C35.6552 34.7646 36 34.1105 36 33.4286V6.42856C36 5.74658 35.6552 5.09253 35.0414 4.61029C34.4277 4.12805 33.5953 3.85713 32.7273 3.85713ZM11.4545 2.57142H24.5455V7.71428H11.4545V2.57142ZM34 34.5H17H2V20V5.5H9V9L18 8.99999H26V5.99999H34V20.5V34.5Z" />
</svg>
