<?xml version="1.0" standalone="no"?>
<!DOCTYPE svg PUBLIC "-//W3C//DTD SVG 20010904//EN"
 "http://www.w3.org/TR/2001/REC-SVG-20010904/DTD/svg10.dtd">
<svg version="1.0" xmlns="http://www.w3.org/2000/svg"
 width="28.000000pt" height="28.000000pt" viewBox="0 0 512.000000 512.000000"
 preserveAspectRatio="xMidYMid meet">

<g transform="translate(0.000000,512.000000) scale(0.100000,-0.100000)"
fill="" stroke="none">
<path d="M1755 4642 c-140 -48 -235 -148 -270 -282 l-11 -45 -313 -5 -313 -5
-19 -24 c-19 -23 -19 -65 -19 -1748 l0 -1724 25 -24 24 -25 1726 0 1726 0 24
25 25 24 0 1724 c0 1683 0 1725 -19 1748 l-19 24 -313 5 -313 5 -8 38 c-36
173 -207 307 -393 307 -137 0 -278 -77 -344 -186 -11 -19 -11 -19 -22 0 -6 10
-28 37 -48 59 -163 181 -473 166 -616 -30 -16 -23 -32 -42 -35 -42 -3 0 -19
19 -35 42 -94 129 -290 191 -440 139z m249 -166 c47 -28 100 -94 112 -139 l6
-27 -246 0 c-174 0 -246 3 -246 11 0 25 55 111 87 135 81 61 202 70 287 20z
m655 24 c73 -21 150 -97 167 -164 l6 -26 -246 0 c-174 0 -246 3 -246 11 0 25
56 111 88 136 65 49 153 66 231 43z m710 0 c55 -16 111 -61 142 -115 16 -27
29 -56 29 -62 0 -10 -56 -13 -245 -13 -173 0 -245 3 -245 11 0 25 56 111 88
136 65 49 153 66 231 43z m-1883 -357 c33 -100 118 -200 210 -246 51 -26 134
-47 184 -47 42 0 83 39 83 78 0 47 -25 69 -91 77 -31 3 -81 17 -109 31 -51 25
-113 86 -113 111 0 11 55 13 271 11 l271 -3 20 -53 c40 -107 172 -215 296
-241 76 -16 106 -14 136 10 20 16 26 29 26 58 0 50 -21 68 -95 76 -72 9 -146
46 -186 94 -52 63 -57 62 242 59 l271 -3 20 -53 c26 -70 114 -165 187 -201 57
-29 140 -51 190 -51 46 0 81 35 81 79 0 50 -21 68 -95 76 -33 4 -81 19 -109
33 -48 26 -106 86 -106 109 0 10 115 13 570 13 l570 0 0 -255 0 -255 -1625 0
-1625 0 0 248 c0 137 3 252 7 255 3 4 120 7 260 7 233 0 254 -1 259 -17z
m2724 -1938 l0 -1295 -1625 0 -1625 0 0 1295 0 1295 1625 0 1625 0 0 -1295z"/>
<path d="M1345 2865 l-25 -24 0 -534 c0 -512 1 -536 19 -558 l19 -24 540 0
c517 0 541 1 561 19 21 19 21 23 21 562 l0 543 -26 20 c-26 21 -36 21 -556 21
l-529 0 -24 -25z m985 -555 l0 -430 -430 0 -430 0 0 430 0 430 430 0 430 0 0
-430z"/>
<path d="M3393 2780 c-27 -11 -43 -40 -43 -76 0 -22 29 -57 147 -176 l147
-148 -457 0 c-444 0 -458 -1 -477 -20 -30 -30 -27 -83 6 -109 26 -21 37 -21
478 -21 l451 0 -149 -149 c-131 -131 -149 -154 -149 -182 0 -37 40 -79 76 -79
14 0 94 72 249 227 210 209 228 230 228 262 0 32 -17 52 -207 244 -187 188
-245 238 -270 236 -4 0 -18 -4 -30 -9z"/>
</g>
</svg>
