<svg width="48" height="48" viewBox="0 0 48 48" fill="none" xmlns="http://www.w3.org/2000/svg">
<circle cx="24" cy="24" r="24" fill="" fill-opacity="0.02"/>
<g clip-path="url(#clip0_39_362)">
<path d="M41.3103 19.3275C40.8621 18.9138 40.2759 18.6379 39.6207 18.6379C39.6552 18.6379 39.6897 18.6379 39.7241 18.6379V15.0862C39.7241 13.6379 39.1379 12.3275 38.1724 11.362C37.2069 10.3965 35.8966 9.8103 34.4483 9.8103H11.2759C9.82759 9.8103 8.51724 10.3965 7.55172 11.362C6.58621 12.3275 6 13.6379 6 15.0862V32.9138C6 34.362 6.58621 35.6724 7.55172 36.6379C8.51724 37.6034 9.82759 38.1896 11.2759 38.1896H34.4483C35.8966 38.1896 37.2069 37.6034 38.1724 36.6379C39.1379 35.6724 39.7241 34.362 39.7241 32.9138V29.3275C39.6897 29.3275 39.6552 29.3275 39.6207 29.3275C40.2759 29.3275 40.8621 29.0517 41.3103 28.6379C41.7241 28.2241 42 27.6034 42 26.9482V21.0172C42 20.362 41.7241 19.7758 41.3103 19.3275ZM37.8276 32.8793C37.8276 33.8103 37.4483 34.6379 36.8276 35.2586C36.2069 35.8793 35.3793 36.2586 34.4483 36.2586H11.2759C10.3448 36.2586 9.51724 35.8793 8.89655 35.2586C8.27586 34.6379 7.89655 33.8103 7.89655 32.8793V15.0862C7.89655 14.1551 8.27586 13.3275 8.89655 12.7069C9.51724 12.0862 10.3448 11.7069 11.2759 11.7069H34.4483C35.3793 11.7069 36.2069 12.0862 36.8276 12.7069C37.4483 13.3275 37.8276 14.1551 37.8276 15.0862V18.6379H27.1379C25.6897 18.6379 24.4138 19.2241 23.4483 20.1551C22.5172 21.0862 21.931 22.3965 21.931 23.8448V24.0862C21.931 25.5344 22.5172 26.8103 23.4483 27.7758C24.3793 28.7069 25.6897 29.2931 27.1379 29.2931H37.8276V32.8793ZM40.1035 26.9482C40.1035 27.0862 40.0345 27.2241 39.9655 27.2931C39.8621 27.3965 39.7586 27.431 39.6207 27.431H27.1379C26.2414 27.431 25.3793 27.0517 24.7931 26.4655C24.2069 25.8793 23.8276 25.0172 23.8276 24.1206V23.8793C23.8276 22.9482 24.2069 22.1206 24.7931 21.5344C25.4138 20.9138 26.2414 20.5689 27.1379 20.5689H39.6207C39.7586 20.5689 39.8966 20.6379 39.9655 20.7069C40.069 20.8103 40.1035 20.9138 40.1035 21.0517V26.9482Z" fill=""/>
<path d="M27.3793 22.431C26.9655 22.431 26.5862 22.6034 26.3103 22.8793C26.0345 23.1552 25.8621 23.5345 25.8621 23.9483C25.8621 24.3621 26.0345 24.7414 26.3103 25.0172C26.5862 25.2931 26.9655 25.4655 27.3793 25.4655C27.7931 25.4655 28.1724 25.2931 28.4827 25.0172C28.7586 24.7414 28.931 24.3621 28.931 23.9138C28.931 23.5 28.7586 23.1207 28.4827 22.8103C28.1724 22.6034 27.7931 22.431 27.3793 22.431Z" fill=""/>
</g>
<defs>
<clipPath id="clip0_39_362">
<rect width="36" height="36" fill="white" transform="translate(6 6)"/>
</clipPath>
</defs>
</svg>
