<?xml version="1.0" encoding="UTF-8"?>
<!DOCTYPE svg PUBLIC "-//W3C//DTD SVG 1.1//EN" "http://www.w3.org/Graphics/SVG/1.1/DTD/svg11.dtd">
<svg xmlns="http://www.w3.org/2000/svg" version="1.1" width="32px" height="32px" style="shape-rendering:geometricPrecision; text-rendering:geometricPrecision; image-rendering:optimizeQuality; fill-rule:evenodd; clip-rule:evenodd" xmlns:xlink="http://www.w3.org/1999/xlink">
<g><path style="opacity:0.986" fill="" d="M 30.5,7.5 C 84.501,7.33334 138.501,7.50001 192.5,8C 198.74,11.3187 201.074,16.4854 199.5,23.5C 206.515,21.9265 211.681,24.2598 215,30.5C 215.5,40.1609 215.666,49.8276 215.5,59.5C 222.515,57.9265 227.681,60.2598 231,66.5C 231.667,96.5 231.667,126.5 231,156.5C 227.681,162.74 222.515,165.074 215.5,163.5C 215.667,189.169 215.5,214.835 215,240.5C 213.5,243.333 211.333,245.5 208.5,247C 154.5,247.667 100.5,247.667 46.5,247C 40.2598,243.681 37.9265,238.515 39.5,231.5C 32.4854,233.074 27.3187,230.74 24,224.5C 23.3333,154.5 23.3333,84.5 24,14.5C 25.6941,11.6424 27.8607,9.30904 30.5,7.5 Z M 35.5,15.5 C 39.5,15.5 43.5,15.5 47.5,15.5C 47.3336,24.5062 47.5002,33.5062 48,42.5C 50.0639,43.5914 52.2305,43.7581 54.5,43C 56.0456,40.7432 57.7123,38.5765 59.5,36.5C 61.2877,38.5765 62.9544,40.7432 64.5,43C 66.7695,43.7581 68.9361,43.5914 71,42.5C 71.4998,33.5062 71.6664,24.5062 71.5,15.5C 110.168,15.3333 148.835,15.5 187.5,16C 189.333,16.5 190.5,17.6667 191,19.5C 191.5,32.8292 191.667,46.1625 191.5,59.5C 148.499,59.3333 105.499,59.5 62.5,60C 59.6667,61.5 57.5,63.6667 56,66.5C 55.3333,96.5 55.3333,126.5 56,156.5C 57.5,159.333 59.6667,161.5 62.5,163C 105.499,163.5 148.499,163.667 191.5,163.5C 191.667,182.17 191.5,200.836 191,219.5C 190.5,221.333 189.333,222.5 187.5,223C 136.084,223.991 84.7503,223.657 33.5,222C 32.8742,221.25 32.3742,220.416 32,219.5C 31.3333,152.833 31.3333,86.1667 32,19.5C 32.6897,17.6498 33.8564,16.3164 35.5,15.5 Z M 55.5,15.5 C 58.1667,15.5 60.8333,15.5 63.5,15.5C 63.6646,18.5184 63.498,21.5184 63,24.5C 60.6667,23.1667 58.3333,23.1667 56,24.5C 55.502,21.5184 55.3354,18.5184 55.5,15.5 Z M 199.5,31.5 C 202.961,31.1459 205.461,32.4792 207,35.5C 207.5,43.4931 207.666,51.4931 207.5,59.5C 204.833,59.5 202.167,59.5 199.5,59.5C 199.5,50.1667 199.5,40.8333 199.5,31.5 Z M 67.5,67.5 C 118.917,67.0091 170.251,67.5091 221.5,69C 222.126,69.7504 222.626,70.5838 223,71.5C 223.167,84.8333 223.333,98.1667 223.5,111.5C 223.65,125.59 223.15,139.59 222,153.5C 221.25,154.126 220.416,154.626 219.5,155C 194.167,155.167 168.833,155.333 143.5,155.5C 117.415,155.658 91.415,155.158 65.5,154C 64.8742,153.25 64.3742,152.416 64,151.5C 63.3333,124.833 63.3333,98.1667 64,71.5C 64.6897,69.6498 65.8564,68.3164 67.5,67.5 Z M 135.5,95.5 C 138.187,95.3359 140.854,95.5026 143.5,96C 145.333,96.5 146.5,97.6667 147,99.5C 147.667,107.5 147.667,115.5 147,123.5C 146.5,125.333 145.333,126.5 143.5,127C 140.833,127.667 138.167,127.667 135.5,127C 133.667,126.5 132.5,125.333 132,123.5C 131.333,115.5 131.333,107.5 132,99.5C 132.69,97.6498 133.856,96.3164 135.5,95.5 Z M 199.5,163.5 C 202.167,163.5 204.833,163.5 207.5,163.5C 207.667,187.502 207.5,211.502 207,235.5C 206.5,237.333 205.333,238.5 203.5,239C 152.833,239.667 102.167,239.667 51.5,239C 48.4792,237.461 47.1459,234.961 47.5,231.5C 95.8345,231.667 144.168,231.5 192.5,231C 195.333,229.5 197.5,227.333 199,224.5C 199.5,204.169 199.667,183.836 199.5,163.5 Z"/></g>
<g><path style="opacity:0.995" fill="" d="M 91.5,87.5 C 94.1667,87.5 96.8333,87.5 99.5,87.5C 99.5,100.833 99.5,114.167 99.5,127.5C 104.833,127.5 110.167,127.5 115.5,127.5C 115.5,130.167 115.5,132.833 115.5,135.5C 107.58,135.815 99.747,135.482 92,134.5C 91.5001,118.837 91.3334,103.17 91.5,87.5 Z"/></g>
<g><path style="opacity:0.946" fill="" d="M 130.5,87.5 C 136.509,87.3338 142.509,87.5005 148.5,88C 151.333,89.5 153.5,91.6667 155,94.5C 155.667,105.833 155.667,117.167 155,128.5C 153.5,131.333 151.333,133.5 148.5,135C 142.5,135.667 136.5,135.667 130.5,135C 127.667,133.5 125.5,131.333 124,128.5C 123.333,117.167 123.333,105.833 124,94.5C 125.694,91.6424 127.861,89.309 130.5,87.5 Z M 135.5,95.5 C 133.856,96.3164 132.69,97.6498 132,99.5C 131.333,107.5 131.333,115.5 132,123.5C 132.5,125.333 133.667,126.5 135.5,127C 138.167,127.667 140.833,127.667 143.5,127C 145.333,126.5 146.5,125.333 147,123.5C 147.667,115.5 147.667,107.5 147,99.5C 146.5,97.6667 145.333,96.5 143.5,96C 140.854,95.5026 138.187,95.3359 135.5,95.5 Z"/></g>
<g><path style="opacity:0.943" fill="" d="M 170.5,87.5 C 176.509,87.3338 182.509,87.5005 188.5,88C 193.523,90.2151 195.856,94.0484 195.5,99.5C 190.878,100.091 186.878,98.9239 183.5,96C 179.756,95.0715 176.256,95.5715 173,97.5C 171.891,102.056 171.391,106.722 171.5,111.5C 171.391,116.278 171.891,120.944 173,125.5C 183.457,130.193 188.29,126.86 187.5,115.5C 184.833,115.5 182.167,115.5 179.5,115.5C 179.5,112.833 179.5,110.167 179.5,107.5C 184.762,107.195 189.928,107.529 195,108.5C 200.515,130.312 192.349,139.146 170.5,135C 167.667,133.5 165.5,131.333 164,128.5C 163.333,117.167 163.333,105.833 164,94.5C 165.694,91.6424 167.861,89.309 170.5,87.5 Z"/></g>
</svg>
