<?xml version="1.0" standalone="no"?>
<!DOCTYPE svg PUBLIC "-//W3C//DTD SVG 20010904//EN"
 "http://www.w3.org/TR/2001/REC-SVG-20010904/DTD/svg10.dtd">
<svg version="1.0" xmlns="http://www.w3.org/2000/svg"
 width="28.000000pt" height="28.000000pt" viewBox="0 0 256.000000 256.000000"
 preserveAspectRatio="xMidYMid meet">

<g transform="translate(0.000000,256.000000) scale(0.100000,-0.100000)"
fill="" stroke="none">
<path d="M315 2471 c-11 -5 -31 -21 -45 -36 l-25 -27 0 -1049 0 -1049 31 -31
c23 -23 44 -33 77 -36 45 -5 45 -5 50 -50 3 -33 13 -54 36 -77 l31 -31 810 0
810 0 32 33 33 32 3 384 3 383 46 6 c33 3 54 13 77 36 l31 31 0 450 0 450 -31
31 c-23 23 -44 33 -77 36 l-46 5 -3 144 -3 144 -31 31 c-23 23 -44 33 -77 36
-45 5 -45 5 -50 50 -3 33 -13 54 -36 77 l-31 31 -798 2 c-438 1 -806 -2 -817
-6z m165 -199 c0 -132 6 -152 42 -152 10 0 30 18 44 40 15 22 30 40 34 40 4 0
19 -18 34 -40 14 -22 34 -40 44 -40 36 0 42 20 42 152 l0 128 588 0 c444 0
591 -3 600 -12 9 -9 12 -72 12 -220 l0 -208 -645 -2 -645 -3 -32 -33 -33 -32
0 -450 0 -450 33 -32 32 -33 645 -3 645 -2 0 -288 c0 -211 -3 -291 -12 -300
-17 -17 -1559 -17 -1576 0 -17 17 -17 2039 0 2056 7 7 40 12 80 12 l68 0 0
-128z m160 78 c0 -48 -1 -50 -20 -38 -16 10 -24 10 -40 0 -19 -12 -20 -10 -20
38 l0 50 40 0 40 0 0 -50z m1428 -122 c8 -8 12 -54 12 -140 l0 -128 -40 0 -40
0 0 140 0 140 28 0 c15 0 33 -5 40 -12z m160 -360 c17 -17 17 -839 0 -856 -17
-17 -1559 -17 -1576 0 -17 17 -17 839 0 856 17 17 1559 17 1576 0z m-148
-1316 c0 -273 -3 -371 -12 -380 -17 -17 -1559 -17 -1576 0 -7 7 -12 25 -12 40
l0 28 725 2 725 3 32 33 33 32 3 305 3 305 39 0 40 0 0 -368z"/>
<path d="M920 1452 c0 -164 3 -231 12 -240 8 -8 49 -12 120 -12 l108 0 0 40 0
40 -80 0 -80 0 0 200 0 200 -40 0 -40 0 0 -228z"/>
<path d="M1315 1671 c-11 -5 -31 -21 -45 -36 -25 -26 -25 -29 -25 -196 l0
-169 33 -32 c32 -32 34 -33 122 -33 88 0 90 1 122 33 l33 32 0 170 0 170 -33
32 c-30 31 -37 33 -110 35 -42 2 -86 -1 -97 -6z m153 -83 c8 -8 12 -56 12
-148 0 -92 -4 -140 -12 -148 -16 -16 -120 -16 -136 0 -8 8 -12 56 -12 148 0
92 4 140 12 148 7 7 37 12 68 12 31 0 61 -5 68 -12z"/>
<path d="M1715 1671 c-11 -5 -31 -21 -45 -36 -25 -26 -25 -29 -25 -196 l0
-169 33 -32 c32 -32 34 -33 122 -33 88 0 90 1 122 33 32 31 33 36 37 122 4
115 0 120 -90 120 l-69 0 0 -40 0 -40 40 0 40 0 0 -48 c0 -26 -5 -53 -12 -60
-16 -16 -120 -16 -136 0 -8 8 -12 56 -12 148 0 92 4 140 12 148 7 7 38 12 70
12 47 0 60 -4 70 -20 9 -14 24 -20 51 -20 38 0 39 1 32 28 -3 15 -19 40 -36
57 -27 27 -35 30 -107 32 -42 2 -86 -1 -97 -6z"/>
</g>
</svg>
