<svg width="100" height="100" viewBox="0 0 100 100" fill="none" xmlns="http://www.w3.org/2000/svg">
<g clip-path="url(#clip0_2_136)">
<path d="M33.3334 81.6667C29.6567 81.6667 26.6667 84.6567 26.6667 88.3333C26.6667 92.01 29.6567 95 33.3334 95C37.0101 95 40.0001 92.01 40.0001 88.3333C40.0001 84.6567 37.0101 81.6667 33.3334 81.6667ZM33.3334 91.6667C31.4951 91.6667 30.0001 90.1717 30.0001 88.3333C30.0001 86.495 31.4951 85 33.3334 85C35.1717 85 36.6667 86.495 36.6667 88.3333C36.6667 90.1717 35.1717 91.6667 33.3334 91.6667Z" fill=""/>
<path d="M28.3334 8.33333H35.0001C35.9201 8.33333 36.6667 7.58833 36.6667 6.66667C36.6667 5.745 35.9201 5 35.0001 5H28.3334C27.4134 5 26.6667 5.745 26.6667 6.66667C26.6667 7.58833 27.4134 8.33333 28.3334 8.33333Z" fill=""/>
<path d="M40.0002 8.33333H41.6668C42.5868 8.33333 43.3335 7.58833 43.3335 6.66667C43.3335 5.745 42.5868 5 41.6668 5H40.0002C39.0802 5 38.3335 5.745 38.3335 6.66667C38.3335 7.58833 39.0802 8.33333 40.0002 8.33333Z" fill=""/>
<path d="M93.3334 20H63.3334V7.34167C63.3334 3.295 60.0401 0 55.9918 0H14.0084C9.96008 0 6.66675 3.295 6.66675 7.34167V92.6567C6.66675 96.705 9.96008 100 14.0084 100H55.9901C60.0401 100 63.3334 96.705 63.3334 92.6583V55H93.3334V20ZM14.0084 3.33333H55.9901C58.2018 3.33333 60.0001 5.13167 60.0001 7.34167V10H10.0001V7.34167C10.0001 5.13167 11.7984 3.33333 14.0084 3.33333ZM55.9918 96.6667H14.0084C11.7984 96.6667 10.0001 94.8683 10.0001 92.6583V80H60.0001V92.6583C60.0001 94.8683 58.2018 96.6667 55.9918 96.6667ZM60.0001 76.6667H10.0001V13.3333H60.0001V20H30.0001V55H36.6667V66.6667L52.2218 55H60.0001V76.6667ZM90.0001 51.6667H63.3334H51.1118L40.0001 60V51.6667H33.3334V23.3333H63.3334H90.0001V51.6667Z" fill=""/>
<path d="M41.6667 35H58.3333C59.2533 35 60 34.255 60 33.3333C60 32.4117 59.2533 31.6667 58.3333 31.6667H41.6667C40.7467 31.6667 40 32.4117 40 33.3333C40 34.255 40.7467 35 41.6667 35Z" fill=""/>
<path d="M40 41.6667C40 42.5883 40.7467 43.3333 41.6667 43.3333H81.6667C82.5867 43.3333 83.3333 42.5883 83.3333 41.6667C83.3333 40.745 82.5867 40 81.6667 40H41.6667C40.7467 40 40 40.745 40 41.6667Z" fill=""/>
</g>
<defs>
<clipPath id="clip0_2_136">
<rect width="100" height="100" fill="white"/>
</clipPath>
</defs>
</svg>
