<svg width="100" height="100" viewBox="0 0 100 100" fill="none" xmlns="http://www.w3.org/2000/svg">
<g clip-path="url(#clip0_2_145)">
<path d="M70.9918 0H29.0084C24.9617 0 21.6667 3.295 21.6667 7.34167V92.6567C21.6667 96.705 24.9617 100 29.0084 100H70.9901C75.0384 100 78.3334 96.705 78.3334 92.6583V7.34167C78.3334 3.295 75.0384 0 70.9918 0ZM25.0001 13.3333H75.0001V76.6667H25.0001V13.3333ZM29.0084 3.33333H70.9901C73.2018 3.33333 75.0001 5.13167 75.0001 7.34167V10H25.0001V7.34167C25.0001 5.13167 26.7984 3.33333 29.0084 3.33333ZM70.9918 96.6667H29.0084C26.7984 96.6667 25.0001 94.8683 25.0001 92.6583V80H75.0001V92.6583C75.0001 94.8683 73.2018 96.6667 70.9918 96.6667Z" fill=""/>
<path d="M50.0002 81.6667C46.3235 81.6667 43.3335 84.6567 43.3335 88.3333C43.3335 92.01 46.3235 95 50.0002 95C53.6768 95 56.6668 92.01 56.6668 88.3333C56.6668 84.6567 53.6768 81.6667 50.0002 81.6667ZM50.0002 91.6667C48.1618 91.6667 46.6668 90.1717 46.6668 88.3333C46.6668 86.495 48.1618 85 50.0002 85C51.8385 85 53.3335 86.495 53.3335 88.3333C53.3335 90.1717 51.8385 91.6667 50.0002 91.6667Z" fill=""/>
<path d="M43.3334 8.33333H50.0001C50.9217 8.33333 51.6667 7.58833 51.6667 6.66667C51.6667 5.745 50.9217 5 50.0001 5H43.3334C42.4117 5 41.6667 5.745 41.6667 6.66667C41.6667 7.58833 42.4117 8.33333 43.3334 8.33333Z" fill=""/>
<path d="M55.0002 8.33333H56.6668C57.5885 8.33333 58.3335 7.58833 58.3335 6.66667C58.3335 5.745 57.5885 5 56.6668 5H55.0002C54.0785 5 53.3335 5.745 53.3335 6.66667C53.3335 7.58833 54.0785 8.33333 55.0002 8.33333Z" fill=""/>
<path d="M94.3535 7.615C93.7018 6.96333 92.6485 6.96333 91.9968 7.615C91.3451 8.26667 91.3451 9.32 91.9968 9.97167C98.2235 16.1983 98.2235 26.33 91.9968 32.5583C91.3451 33.21 91.3451 34.2633 91.9968 34.915C92.3218 35.24 92.7485 35.4033 93.1751 35.4033C93.6018 35.4033 94.0285 35.24 94.3535 34.915C101.88 27.39 101.88 15.1417 94.3535 7.615Z" fill=""/>
<path d="M87.3352 11.4083C86.6835 10.7567 85.6302 10.7567 84.9785 11.4083C84.3268 12.06 84.3268 13.1133 84.9785 13.765C87.0402 15.8267 88.1752 18.5733 88.1752 21.4967C88.1752 24.42 87.0402 27.165 84.9785 29.2267C84.3268 29.8783 84.3268 30.9317 84.9785 31.5833C85.3035 31.9083 85.7302 32.0717 86.1568 32.0717C86.5835 32.0717 87.0102 31.9083 87.3352 31.5833C90.0268 28.8933 91.5085 25.31 91.5085 21.4967C91.5085 17.6833 90.0285 14.0983 87.3352 11.4083Z" fill=""/>
<path d="M8.00338 9.97167C8.65504 9.32 8.65504 8.26667 8.00338 7.615C7.35171 6.96333 6.29838 6.96333 5.64671 7.615C-1.87996 15.1417 -1.87996 27.3883 5.64671 34.915C5.97171 35.24 6.39838 35.4033 6.82504 35.4033C7.25171 35.4033 7.67838 35.24 8.00338 34.915C8.65504 34.2633 8.65504 33.21 8.00338 32.5583C1.77504 26.3317 1.77504 16.2 8.00338 9.97167Z" fill=""/>
<path d="M15.0217 10.9483C14.37 10.2967 13.3167 10.2967 12.665 10.9483C9.97337 13.6383 8.4917 17.2217 8.4917 21.035C8.4917 24.8483 9.97337 28.4317 12.665 31.1233C12.99 31.4483 13.4167 31.6117 13.8434 31.6117C14.27 31.6117 14.6967 31.4483 15.0217 31.1233C15.6734 30.4717 15.6734 29.4183 15.0217 28.7667C12.96 26.705 11.825 23.9583 11.825 21.035C11.825 18.1117 12.9584 15.3667 15.0217 13.305C15.6717 12.655 15.6717 11.6 15.0217 10.9483Z" fill=""/>
</g>
<defs>
<clipPath id="clip0_2_145">
<rect width="100" height="100" fill="white"/>
</clipPath>
</defs>
</svg>
