<svg xmlns="http://www.w3.org/2000/svg" data-name="Layer 1" viewBox="0 0 512 512"><path d="M256,172.5a7.5,7.5,0,1,0,7.5,7.5A7.5,7.5,0,0,0,256,172.5ZM509.80322,417.63672l-81.56006-81.56055a7.50041,7.50041,0,0,0-12.80322,5.30371v37.46973H362.25726A162.1829,162.1829,0,0,0,418.5,256c0-89.60254-72.89746-162.5-162.5-162.5a161.517,161.517,0,0,0-85.94476,24.65039H89.06006a7.49974,7.49974,0,0,0-7.5,7.5v26.86328L18.10645,89.05957,81.56006,25.60645V52.46973a7.49975,7.49975,0,0,0,7.5,7.5H223.89014a7.5,7.5,0,0,0,0-15H96.56006V7.5A7.50041,7.50041,0,0,0,83.75684,2.19629L2.19678,83.75586a7.50079,7.50079,0,0,0,0,10.60742l81.56006,81.56055a7.50041,7.50041,0,0,0,12.80322-5.30371V133.15039h53.18268A162.1829,162.1829,0,0,0,93.5,256c0,89.60254,72.89746,162.5,162.5,162.5a161.517,161.517,0,0,0,85.94476-24.65039h80.99518a7.49974,7.49974,0,0,0,7.5-7.5V359.48633l63.45361,63.4541-63.45361,63.45312V459.53027a7.49975,7.49975,0,0,0-7.5-7.5H288.10986a7.5,7.5,0,0,0,0,15H415.43994V504.5a7.50023,7.50023,0,0,0,12.80322,5.30371l81.56006-81.55957a7.50079,7.50079,0,0,0,0-10.60742ZM256,403.5c-81.33154,0-147.5-66.168-147.5-147.5S174.66846,108.5,256,108.5,403.5,174.668,403.5,256,337.33154,403.5,256,403.5Zm85.28174-196.93018a7.45138,7.45138,0,0,0-.17615-1.00463c-.0152-.06324-.03162-.12561-.04846-.18848a7.44516,7.44516,0,0,0-.78742-1.87427c-.03479-.05884-.06988-.11694-.10632-.1748a7.503,7.503,0,0,0-.59039-.82007c-.02307-.02759-.0492-.05274-.07276-.08008a7.54905,7.54905,0,0,0-.67413-.68506c-.0293-.02624-.05225-.05737-.082-.08325l-71.25293-62.03711a17.56985,17.56985,0,0,0-22.98242,0l-71.25293,62.03711c-.02972.02588-.05267.057-.082.08325a7.54905,7.54905,0,0,0-.67413.68506c-.02356.02734-.04969.05249-.07276.08008a7.503,7.503,0,0,0-.59039.82007c-.03644.05786-.07153.116-.10632.1748a7.44516,7.44516,0,0,0-.78742,1.87427c-.01684.06287-.03326.12524-.04846.18848a7.45138,7.45138,0,0,0-.17615,1.00463c-.0014.014-.00079.02808-.00207.042-.02161.23193-.03553.46606-.03553.70361v20a17.52,17.52,0,0,0,17.5,17.5H188.5v59.15723a17.47568,17.47568,0,0,0-9.65186,10.49316l-7.77783,23.18164a7.5,7.5,0,0,0,7.11035,9.88574H333.81934a7.5,7.5,0,0,0,7.11035-9.88574l-7.77783-23.18262A17.47619,17.47619,0,0,0,323.5,303.97253v-59.1571h.31934a17.52,17.52,0,0,0,17.5-17.5v-20c0-.23755-.01392-.47168-.03553-.70361C341.28253,206.5979,341.28314,206.58386,341.28174,206.56982ZM254.3584,150.93457a2.51128,2.51128,0,0,1,3.2832,0l56.14209,48.88086H198.21631ZM188.60791,332.5332l4.46094-13.29492a2.498,2.498,0,0,1,2.37011-1.70508H316.561a2.49844,2.49844,0,0,1,2.37011,1.7041l4.46094,13.2959Zm14.89209-30V244.81543h15V302.5332Zm30,0V244.81543h15V302.5332Zm30,0V244.81543h15V302.5332Zm30,0V244.81543h15V302.5332Zm32.81934-75.21777a2.50263,2.50263,0,0,1-2.5,2.5H188.18066a2.50263,2.50263,0,0,1-2.5-2.5v-12.5H326.31934Z"/></svg>