<svg width="24" height="24" viewBox="0 0 24 24" fill="none" xmlns="http://www.w3.org/2000/svg">
<g clip-path="url(#clip0_39_461)">
<path d="M23.259 16.2001L20.659 6.82905C20.1038 4.82447 18.894 3.06319 17.2223 1.82554C15.5505 0.587883 13.5128 -0.055026 11.4334 -0.000866288C9.35411 0.0532934 7.35263 0.801409 5.74756 2.12441C4.14249 3.44742 3.02607 5.26928 2.57598 7.30005L0.564976 16.35C0.467669 16.7885 0.470043 17.2432 0.571922 17.6806C0.673801 18.118 0.872586 18.5269 1.15361 18.8773C1.43464 19.2276 1.79073 19.5103 2.19562 19.7047C2.60051 19.899 3.04387 19.9999 3.49298 20H7.09998C7.32949 21.1303 7.94271 22.1465 8.83572 22.8764C9.72873 23.6063 10.8466 24.0051 12 24.0051C13.1533 24.0051 14.2712 23.6063 15.1642 22.8764C16.0572 22.1465 16.6705 21.1303 16.9 20H20.37C20.8321 19.9998 21.2879 19.8929 21.7019 19.6875C22.1158 19.4821 22.4768 19.1839 22.7565 18.8161C23.0362 18.4483 23.2272 18.0208 23.3145 17.567C23.4019 17.1132 23.3832 16.6454 23.26 16.2001H23.259ZM12 22C11.3817 21.9975 10.7793 21.804 10.2753 21.446C9.77121 21.088 9.39006 20.583 9.18398 20H14.816C14.6099 20.583 14.2287 21.088 13.7247 21.446C13.2206 21.804 12.6182 21.9975 12 22V22ZM21.165 17.605C21.0717 17.7287 20.9507 17.8289 20.8118 17.8975C20.6729 17.966 20.5199 18.0012 20.365 18H3.49298C3.34324 18 3.19542 17.9664 3.06042 17.9016C2.92543 17.8368 2.80671 17.7425 2.71303 17.6257C2.61935 17.5089 2.5531 17.3725 2.51916 17.2267C2.48523 17.0808 2.48448 16.9292 2.51698 16.7831L4.52798 7.73305C4.88233 6.13926 5.75928 4.70965 7.01943 3.6715C8.27958 2.63334 9.8506 2.04622 11.4827 2.00346C13.1149 1.96071 14.7145 2.46477 16.0273 3.43552C17.3401 4.40627 18.2907 5.788 18.728 7.36105L21.328 16.732C21.3704 16.8802 21.3778 17.0363 21.3495 17.1878C21.3212 17.3393 21.258 17.4822 21.165 17.605V17.605Z" fill="white"/>
</g>
<circle cx="19" cy="4" r="4" fill="#F6911B"/>
<defs>
<clipPath id="clip0_39_461">
<rect width="24" height="24" fill="white"/>
</clipPath>
</defs>
</svg>
