<?xml version="1.0" standalone="no"?>
<!DOCTYPE svg PUBLIC "-//W3C//DTD SVG 20010904//EN"
 "http://www.w3.org/TR/2001/REC-SVG-20010904/DTD/svg10.dtd">
<svg version="1.0" xmlns="http://www.w3.org/2000/svg"
 width="28.000000pt" height="28.000000pt" viewBox="0 0 512.000000 512.000000"
 preserveAspectRatio="xMidYMid meet">

<g transform="translate(0.000000,512.000000) scale(0.100000,-0.100000)"
fill="" stroke="none">
<path d="M2380 4314 c-429 -39 -825 -190 -1170 -447 -122 -91 -346 -315 -437
-437 -411 -553 -549 -1238 -383 -1901 39 -157 88 -286 171 -454 79 -160 129
-232 179 -257 96 -49 207 13 225 124 6 31 2 49 -18 86 -197 373 -267 569 -293
824 l-7 67 186 3 c203 3 212 6 261 72 29 39 29 133 0 172 -49 66 -58 69 -261
72 l-186 3 7 67 c33 319 185 688 394 955 l45 57 132 -129 c121 -119 135 -130
178 -136 105 -16 198 77 182 182 -6 43 -17 57 -136 178 l-129 132 57 45 c264
207 639 362 955 394 l67 7 3 -186 c3 -203 6 -212 72 -261 39 -29 133 -29 172
0 66 49 69 58 72 261 l3 186 67 -7 c319 -33 688 -185 955 -394 l57 -45 -129
-132 c-119 -121 -130 -135 -136 -178 -16 -105 77 -198 182 -182 43 6 57 17
178 136 l132 129 45 -57 c122 -156 246 -386 308 -573 36 -109 76 -284 86 -382
l7 -67 -186 -3 c-203 -3 -212 -6 -261 -72 -29 -39 -29 -133 0 -172 49 -66 58
-69 261 -72 l186 -3 -7 -65 c-26 -257 -97 -456 -293 -826 -28 -53 -26 -101 7
-156 23 -37 86 -72 132 -72 86 0 143 63 247 275 113 229 170 401 213 655 29
168 31 509 5 675 -78 482 -276 883 -605 1227 -341 355 -787 587 -1277 663 -97
15 -425 27 -515 19z"/>
<path d="M3235 2706 c-16 -7 -40 -24 -51 -37 -12 -13 -137 -224 -278 -469
l-256 -444 -73 2 c-314 12 -560 -291 -482 -591 67 -258 329 -417 580 -352 257
67 415 329 350 580 -14 53 -45 120 -84 181 -12 19 9 60 248 473 165 285 263
466 267 490 8 50 -23 120 -66 151 -40 28 -113 36 -155 16z m-612 -1280 c103
-43 128 -177 48 -257 -65 -65 -157 -65 -222 0 -124 123 13 325 174 257z"/>
</g>
</svg>
