<svg width="39" height="39" viewBox="0 0 39 39" fill="" xmlns="http://www.w3.org/2000/svg">
<path d="M17.9247 0.0738704C11.069 0.740088 5.05583 5.46071 2.01619 12.5417C-1.61816 21.0121 -0.247018 31.2148 5.38622 37.9341L6.27829 39L7.71551 37.344C8.49194 36.4493 9.13621 35.6499 9.13621 35.5737C9.13621 35.4976 8.88841 35.193 8.57454 34.8885L8.01287 34.3174L7.1208 35.3453L6.22873 36.3732L5.83226 35.8402C3.45341 32.7185 1.88403 28.3025 1.6032 23.8483L1.57016 23.2392H2.82566H4.08116V22.3065V21.3738H2.8587H1.63624V20.8599C1.63624 20.1175 1.99967 17.8714 2.29703 16.6341C2.99086 13.8931 4.2794 11.1902 5.99745 8.84891L6.29481 8.43014L7.13732 9.40091L7.99635 10.3527L8.57454 9.6674L9.15273 8.98215L8.34326 8.04944C7.89723 7.53551 7.53379 7.09771 7.53379 7.05964C7.53379 6.96446 8.64062 5.97465 9.53268 5.25133C11.7959 3.46206 15.1164 2.09156 17.8752 1.82507L18.7012 1.74893V3.11944V4.47091H19.5106H20.3201V3.11944V1.80604L21.1626 1.88218C23.0789 2.07252 25.5899 2.87198 27.4236 3.89986C28.4809 4.48994 29.9016 5.55589 30.8762 6.46956L31.504 7.0406L30.6945 7.97331C30.2485 8.48724 29.885 8.96311 29.885 9.03925C29.885 9.11539 30.1328 9.41995 30.4467 9.7245L31.0084 10.2955L31.8344 9.34381L32.6604 8.39207L33.2881 9.24864C35.5678 12.4465 37.1042 16.6341 37.352 20.4792L37.4181 21.4119H36.1791H34.9566V22.3446V23.2773H36.2121H37.4676L37.385 24.3813C37.1207 28.1692 35.7826 32.0523 33.6681 35.174C33.3046 35.707 32.9742 36.1638 32.9082 36.2209C32.8421 36.259 32.396 35.8402 31.8839 35.2692L30.9753 34.2223L30.3972 34.8885L29.8355 35.5547L31.2397 37.2298C32.0161 38.1625 32.6769 38.9239 32.7099 38.9429C32.743 38.9619 33.1725 38.5051 33.6515 37.915C38.6075 31.9191 40.276 23.2773 37.9962 15.4159C35.1548 5.59396 26.8289 -0.76366 17.9247 0.0738704Z" />
<path d="M26.7132 17.2814L21.08 20.4221L20.7826 20.2127C19.2959 19.1849 17.4456 20.1937 17.2144 22.1352C17.1153 22.8776 17.33 23.62 17.7595 24.2291C18.2221 24.8572 18.7838 25.1618 19.5106 25.1618C20.221 25.1618 20.7992 24.8572 21.2452 24.2291C21.6252 23.7151 21.8399 23.087 21.8399 22.4398V22.0401L27.4566 18.9374C30.5293 17.2243 33.1394 15.7396 33.2385 15.6254C33.6681 15.1495 33.2551 14.1216 32.6438 14.1406C32.4786 14.1406 29.8024 15.5683 26.7132 17.2814ZM20.1384 22.002C20.6505 22.8015 19.6758 23.8103 18.9985 23.1822C18.6681 22.8776 18.6186 22.3446 18.8829 21.9449C19.0811 21.6594 19.1802 21.6213 19.5271 21.6594C19.8245 21.6784 19.9732 21.7736 20.1384 22.002Z" />
</svg>
