<svg width="35" height="30" viewBox="0 0 35 30" fill="" xmlns="http://www.w3.org/2000/svg">
<path d="M16.0863 0.0568234C9.93374 0.569298 4.53728 4.20055 1.8094 9.64743C-1.45219 16.1632 -0.221682 24.0114 4.83379 29.18L5.63436 30L6.92418 28.7261C7.62097 28.038 8.19916 27.423 8.19916 27.3644C8.19916 27.3058 7.97678 27.0716 7.6951 26.8373L7.19103 26.398L6.39046 27.1887L5.58989 27.9794L5.23408 27.5694C3.09921 25.1681 1.6908 21.7711 1.43877 18.3449L1.40912 17.8763H2.53585H3.66258V17.1588V16.4414H2.5655H1.46842V16.046C1.46842 15.475 1.79458 13.7472 2.06143 12.7955C2.6841 10.687 3.84049 8.60783 5.38233 6.80685L5.64919 6.48472L6.40529 7.23147L7.17621 7.96358L7.6951 7.43646L8.21399 6.90934L7.48754 6.19188C7.08726 5.79654 6.7611 5.45977 6.7611 5.43049C6.7611 5.35728 7.7544 4.59589 8.55497 4.03949C10.5861 2.66312 13.566 1.60889 16.0418 1.4039L16.7831 1.34533V2.39957V3.43916H17.5095H18.236V2.39957V1.38926L18.9921 1.44783C20.7118 1.59425 22.9653 2.20922 24.6109 2.99989C25.5597 3.4538 26.8347 4.27376 27.7094 4.97658L28.2728 5.41585L27.5464 6.13331C27.1461 6.52865 26.8199 6.8947 26.8199 6.95327C26.8199 7.01184 27.0423 7.24611 27.324 7.48039L27.828 7.91965L28.5693 7.18755L29.3106 6.45544L29.8739 7.11433C31.9199 9.57421 33.2986 12.7955 33.521 15.7532L33.5803 16.4707H32.4684H31.3713V17.1881V17.9056H32.498H33.6248L33.5507 18.7548C33.3134 21.6686 32.1126 24.6556 30.2149 27.0569C29.8888 27.4669 29.5923 27.8183 29.533 27.8622C29.4737 27.8915 29.0734 27.5694 28.6138 27.1301L27.7984 26.3248L27.2795 26.8373L26.7754 27.3498L28.0356 28.6383C28.7324 29.3557 29.3254 29.9414 29.3551 29.9561C29.3847 29.9707 29.7702 29.6193 30.2001 29.1654C34.6477 24.5531 36.1451 17.9056 34.0992 11.8584C31.5492 4.30304 24.0772 -0.587431 16.0863 0.0568234Z" />
<path d="M23.6035 12.8503L18.8369 15.1857L18.5853 15.03C17.3272 14.2657 15.7617 15.0158 15.566 16.4596C15.4821 17.0116 15.6638 17.5636 16.0273 18.0165C16.4187 18.4836 16.8939 18.71 17.509 18.71C18.11 18.71 18.5993 18.4836 18.9767 18.0165C19.2982 17.6343 19.4799 17.1673 19.4799 16.686V16.3888L24.2325 14.0817C26.8325 12.8078 29.041 11.7038 29.1249 11.6189C29.4883 11.265 29.1389 10.5007 28.6217 10.5148C28.4819 10.5148 26.2174 11.5764 23.6035 12.8503ZM18.0401 16.3605C18.4735 16.9549 17.6487 17.7051 17.0756 17.238C16.7961 17.0116 16.7541 16.6152 16.9778 16.318C17.1455 16.1057 17.2294 16.0774 17.5229 16.1057C17.7745 16.1199 17.9004 16.1906 18.0401 16.3605Z"/>
</svg>
