<svg width="25" height="25" viewBox="0 0 25 25" fill="none" xmlns="http://www.w3.org/2000/svg">
<path d="M11.4902 0.0473528C7.09553 0.474415 3.24092 3.50046 1.29243 8.03952C-1.03728 13.4693 -0.158345 20.0095 3.45271 24.3167L4.02455 25L4.94584 23.9384C5.44355 23.365 5.85655 22.8525 5.85655 22.8037C5.85655 22.7549 5.6977 22.5596 5.4965 22.3644L5.13645 21.9984L4.56461 22.6573L3.99278 23.3162L3.73863 22.9745C2.21372 20.9734 1.20771 18.1426 1.02769 15.2874L1.00651 14.8969H1.81132H2.61613V14.299V13.7011H1.8325H1.04887V13.3717C1.04887 12.8958 1.28184 11.456 1.47245 10.6629C1.91722 8.90585 2.7432 7.17319 3.84452 5.67238L4.03514 5.40394L4.5752 6.02623L5.12586 6.63632L5.4965 6.19705L5.86714 5.75779L5.34825 5.1599C5.06233 4.83045 4.82935 4.54981 4.82935 4.52541C4.82935 4.4644 5.53886 3.82991 6.1107 3.36624C7.56147 2.21927 9.68998 1.34074 11.4584 1.16992L11.9879 1.12111V1.99964V2.86596H12.5068H13.0257V1.99964V1.15772L13.5658 1.20652C14.7942 1.32854 16.4038 1.84102 17.5792 2.49991C18.257 2.87817 19.1677 3.56147 19.7925 4.14715L20.1949 4.51321L19.676 5.11109C19.39 5.44054 19.1571 5.74559 19.1571 5.79439C19.1571 5.8432 19.3159 6.03843 19.5171 6.23366L19.8772 6.59971L20.4067 5.98962L20.9361 5.37953L21.3385 5.92861C22.7999 7.97851 23.7847 10.6629 23.9436 13.1277L23.9859 13.7256H23.1917H22.4081V14.3234V14.9213H23.2129H24.0177L23.9648 15.629C23.7953 18.0572 22.9376 20.5464 21.5821 22.5474C21.3491 22.8891 21.1373 23.1819 21.095 23.2185C21.0526 23.2429 20.7667 22.9745 20.4384 22.6085L19.856 21.9374L19.4854 22.3644L19.1253 22.7915L20.0254 23.8652C20.5231 24.4631 20.9467 24.9512 20.9679 24.9634C20.9891 24.9756 21.2644 24.6828 21.5715 24.3045C24.7484 20.4609 25.8179 14.9213 24.3566 9.88199C22.5352 3.58587 17.198 -0.489526 11.4902 0.0473528Z" fill="black"/>
<path d="M17.1239 11.0777L13.5128 13.091L13.3222 12.9567C12.3691 12.2978 11.1831 12.9445 11.0348 14.1891C10.9713 14.665 11.109 15.1409 11.3843 15.5313C11.6808 15.934 12.0409 16.1292 12.5068 16.1292C12.9621 16.1292 13.3328 15.934 13.6187 15.5313C13.8623 15.2019 13.9999 14.7992 13.9999 14.3844V14.1281L17.6004 12.1392C19.5701 11.0411 21.2432 10.0893 21.3067 10.0161C21.5821 9.71107 21.3173 9.05217 20.9255 9.06438C20.8196 9.06438 19.1041 9.97951 17.1239 11.0777ZM12.9092 14.1037C13.2375 14.6162 12.6127 15.2629 12.1785 14.8602C11.9667 14.665 11.935 14.3233 12.1044 14.0671C12.2315 13.8841 12.295 13.8597 12.5174 13.8841C12.708 13.8963 12.8033 13.9573 12.9092 14.1037Z" fill="black"/>
</svg>
