<svg width="36" height="28" viewBox="0 0 36 28" fill="" xmlns="http://www.w3.org/2000/svg">
<path d="M17.5806 19.2534L17.5939 19.4529C17.6267 20.0065 18.0888 20.44 18.6454 20.44C19.2254 20.44 19.6983 19.9672 19.6983 19.3847C19.6983 18.8053 19.2274 18.3344 18.6473 18.3344H18.441L14.5396 15.4651L17.5806 19.2534Z"/>
<path d="M5.87707 5.77566L6.35997 5.32998C9.15344 2.76173 12.6062 1.21464 16.3459 0.859259L17.0358 0.793651L17.0383 5.11164H18.1453V0.784127L18.8037 0.815697C22.9469 1.00829 26.8792 2.6866 29.8748 5.54392L30.3406 5.98765L27.6353 8.69982L28.4205 9.48307L31.0929 6.80864L31.5316 7.36667C33.2945 9.60741 34.4804 12.2811 34.9596 15.0981L35.084 15.8328L31.3624 15.8353V16.945H35.1792L35.2095 17.7069C35.2159 17.8041 35.2222 17.8995 35.2222 17.9984C35.2222 21.0168 34.4182 23.9966 32.8956 26.6153L32.4847 27.3222L29.5238 24.3646L28.7418 25.1485L31.3159 27.7231H33.1437C35.0134 24.8203 35.9998 21.4667 35.9998 17.9977C35.9998 8.07478 27.9243 0 17.9989 0C8.07425 0.000176367 0 8.07496 0 17.9979C0 21.4707 0.987831 24.8242 2.85679 27.7233H4.72258L7.35079 25.427L6.6224 24.5914L3.51323 27.3093L3.12751 26.6517C1.58995 24.0203 0.778307 21.0296 0.778307 17.9981C0.778307 17.8989 0.784656 17.8037 0.792769 17.7065L0.821869 16.9466L4.503 16.9429V15.8332H0.915168L1.03951 15.0972C1.5381 12.1584 2.79171 9.39683 4.65997 7.11076L5.10053 6.57178L7.74603 9.21429L7.83192 9.13034L7.92099 9.0381L8.53016 8.42963L5.87707 5.77566Z"/>
</svg>
