<svg width="48" height="37" viewBox="0 0 48 37" fill="" xmlns="http://www.w3.org/2000/svg">
<path d="M21.2907 0.291633C16.2239 1.70899 15.4765 1.23654 10.601 3.83503C9.23542 4.80088 6.03177 7.3845 5.01318 8.67938C0.412703 14.5488 -1.08009 21.6019 0.778013 28.6388C1.21455 30.3052 1.09458 31.5802 2.02363 33.3633C2.90791 35.0615 2.95873 35.4603 3.5184 35.7256C4.59296 36.2457 5.78786 36.1053 5.98934 34.9271C6.0565 34.5981 6.01173 34.4071 5.78786 34.0144C3.58277 30.0554 2.79923 27.9751 2.50821 25.2686L2.42985 24.5575L4.51182 24.5257C6.78407 24.4938 6.88481 24.462 7.43329 23.7615C7.7579 23.3476 7.7579 22.3499 7.43329 21.9359C6.88481 21.2354 6.78407 21.2036 4.51182 21.1717L2.42985 21.1399L2.50821 20.4288C2.87759 17.043 4.57898 13.1265 6.91839 10.2927L7.42209 9.68768L8.89962 11.0569C10.254 12.3199 10.4107 12.4366 10.892 12.5003C12.0673 12.6701 13.1083 11.6831 12.9292 10.5686C12.8621 10.1122 12.7389 9.96364 11.4069 8.67938L9.96299 7.27836L10.601 6.80074C13.5561 4.6037 17.7536 2.95857 21.2907 2.61893L22.0406 2.54464L22.0742 4.51879C22.1078 6.67338 22.1414 6.7689 22.8801 7.28898C23.3167 7.59677 24.3689 7.59677 24.8054 7.28898C25.5442 6.7689 25.5777 6.67338 25.6113 4.51879L25.6449 2.54464L26.3949 2.61893C29.9655 2.96919 34.0959 4.58247 37.0845 6.80074L37.7226 7.27836L36.2786 8.67938C34.9466 9.96364 34.8235 10.1122 34.7563 10.5686C34.5772 11.6831 35.6182 12.6701 36.7935 12.5003C37.2748 12.4366 37.4315 12.3199 38.7859 11.0569L40.2634 9.68768L40.7671 10.2927C42.1327 11.9484 43.5207 14.3896 44.2147 16.3743C44.6177 17.5312 45.0654 19.3886 45.1773 20.4288L45.2557 21.1399L43.1737 21.1717C40.9015 21.2036 40.8007 21.2354 40.2523 21.9359C39.9276 22.3499 39.9276 23.3476 40.2523 23.7615C40.8007 24.462 40.9015 24.4938 43.1737 24.5257L45.2557 24.5575L45.1773 25.2474C44.8863 27.9751 44.0916 30.0873 41.8977 34.0144C41.5843 34.5769 41.6066 35.0863 41.976 35.6701C42.2335 36.0628 42.8639 36.1981 43.3788 36.1981C44.3414 36.1981 44.0916 35.6135 45.2557 33.3633C46.5205 30.9328 47.1327 28.7362 47.614 26.0403C47.9386 24.2572 48.1541 21.1879 47.8631 19.426C46.99 14.3102 44.8193 10.4519 41.1367 6.80074C37.3197 3.03287 33.1685 1.09828 27.6838 0.291633C26.598 0.132428 22.2981 0.206724 21.2907 0.291633Z" fill=""/>
<path d="M31.6698 16.3743C31.4907 16.4486 31.2947 16.6895 31.1715 16.8275C31.0372 16.9655 29.5112 19.1879 27.9329 21.7882L25.4416 26.2663H24.0332C21.2064 27.6939 19.4625 28.875 19.7117 32.4184C20.4617 35.1568 22.452 35.4894 25.0853 35.3719C27.7158 33.7184 28.182 32.4184 28.4311 29.8199C28.2744 29.2574 28.1523 28.3413 27.7158 27.6939C27.5815 27.4922 27.7489 27.1166 30.4242 22.7331C32.2711 19.7082 33.1198 18.0271 33.1645 17.7724C33.2541 17.2417 33.3967 16.9203 32.9154 16.5912C32.4677 16.2941 32.1399 16.1621 31.6698 16.3743ZM24.8503 29.1113C26.0032 29.5676 25.9808 32.0418 25.0853 32.8909C24.3578 33.5808 22.6814 33.2077 21.9538 32.5178C20.5659 31.2124 23.0481 28.3895 24.8503 29.1113Z" fill=""/>
</svg>
