<svg width="28" height="37" viewBox="0 0 28 37" fill="" xmlns="http://www.w3.org/2000/svg">
<rect x="6" y="27" width="16" height="1" rx="0.5" fill=""/>
<path d="M15.625 1V12.6667H27M1 1V36H27V11.8333L26.5417 11.6233C22.1303 9.61238 18.6029 5.99458 16.6423 1.47L16.4375 1H1Z" stroke=""/>
<path d="M12.0789 21.7897H16.8523C17.0761 21.7897 17.3045 21.6452 17.3884 21.4494L18.964 17.8367C19.02 17.7061 19.0107 17.557 18.9361 17.4451C18.8661 17.3379 18.7449 17.2726 18.6098 17.2726H11.0673L10.9228 16.62C10.8436 16.2704 10.4986 16 10.135 16H8.23308C8.10722 16 8 16.1026 8 16.2331C8 16.3636 8.10255 16.4662 8.23308 16.4662H10.135C10.2842 16.4662 10.4427 16.5874 10.4706 16.7272L11.9437 23.3094C11.4822 23.4352 11.1372 23.8594 11.1372 24.3629C11.1372 24.9642 11.6267 25.4537 12.2281 25.4537C12.8294 25.4537 13.3189 24.9642 13.3189 24.3629C13.3189 24.1391 13.2536 23.934 13.1371 23.7615H16.1811C16.0645 23.934 15.9993 24.1438 15.9993 24.3629C15.9993 24.9642 16.4887 25.4537 17.0901 25.4537C17.6914 25.4537 18.1809 24.9642 18.1809 24.3629C18.1809 23.7615 17.6914 23.2721 17.0901 23.2721C17.0108 23.2721 16.9363 23.2814 16.8617 23.2954H12.4611C12.4471 23.2907 12.4332 23.2907 12.4192 23.2861L12.0789 21.7897ZM18.5025 17.7388L16.9642 21.2629C16.9549 21.2862 16.899 21.3235 16.8523 21.3235H11.9763L11.1699 17.7388H18.5025ZM12.8574 24.3582C12.8574 24.7032 12.5777 24.9875 12.2281 24.9875C11.8784 24.9875 11.5987 24.7078 11.5987 24.3582C11.5987 24.0272 11.8551 23.7522 12.1814 23.7336C12.2094 23.7475 12.242 23.7569 12.2793 23.7569H12.4005C12.6616 23.8315 12.8574 24.0739 12.8574 24.3582ZM17.7147 24.3582C17.7147 24.7032 17.435 24.9875 17.0854 24.9875C16.7358 24.9875 16.4561 24.7078 16.4561 24.3582C16.4561 24.0739 16.6472 23.8315 16.9129 23.7569H17.0248C17.0575 23.7569 17.0947 23.7475 17.1227 23.7336C17.4537 23.7522 17.7147 24.0272 17.7147 24.3582Z" fill="black"/>
</svg>
