<svg width="32" height="36" viewBox="0 0 35 43" fill="" xmlns="http://www.w3.org/2000/svg">
<path d="M1.56921 0.776879C1.56921 0.790317 1.53463 0.814504 1.49474 0.827942C1.38304 0.865567 1.22878 1.06982 1.20751 1.20419C1.19687 1.266 1.18091 1.31707 1.16761 1.31707C1.15432 1.31707 1.14368 10.0353 1.14368 21.5002C1.14368 32.9651 1.15432 41.6833 1.16761 41.6833C1.18091 41.6833 1.19687 41.7344 1.20751 41.7962C1.22878 41.9306 1.38304 42.1348 1.49474 42.1724C1.53463 42.1859 1.56921 42.2101 1.56921 42.2235C1.56921 42.2558 33.5027 42.2558 33.516 42.2262C33.5213 42.2128 33.5586 42.1859 33.6038 42.1644C33.7102 42.1133 33.8538 41.9144 33.8724 41.7881C33.883 41.7317 33.899 41.6833 33.9123 41.6833C33.9256 41.6833 33.9362 34.3787 33.9362 24.7789C33.9362 13.5264 33.9283 7.87457 33.9096 7.87457C33.8963 7.87457 33.883 7.85038 33.883 7.82082C33.883 7.79126 33.8644 7.72138 33.8431 7.66494C33.7926 7.54669 27.2128 0.881692 27.0958 0.830629C27.0559 0.814504 27.0213 0.790317 27.0213 0.776879C27.0213 0.763442 21.5905 0.752692 14.2953 0.752692C6.75006 0.752692 1.56921 0.763442 1.56921 0.776879ZM26.2421 1.92982C26.2687 1.94594 26.2767 2.63125 26.282 5.03119C26.29 7.92026 26.2926 8.11376 26.3378 8.16213C26.3618 8.19169 26.383 8.22663 26.383 8.24276C26.383 8.27501 26.4814 8.34757 26.6091 8.41207C26.6783 8.44701 27.0931 8.45507 29.7208 8.46582L32.7527 8.47926L32.7607 24.7709L32.766 41.0652L32.7075 41.0786C32.6729 41.0867 25.8245 41.0894 17.4868 41.0867L2.32719 41.0786L2.31921 21.5271C2.31655 10.7744 2.31921 1.95938 2.32719 1.94057C2.33517 1.91638 4.75006 1.90832 14.274 1.90832C20.8378 1.90832 26.2261 1.91907 26.2421 1.92982ZM29.665 5.01238C30.8884 6.24863 31.8884 7.26719 31.8884 7.28063C31.8884 7.29407 31.8697 7.31288 31.8458 7.32094C31.7926 7.34244 27.4628 7.34244 27.4096 7.32094C27.3724 7.30482 27.3671 7.08176 27.3671 5.05538C27.3671 3.81644 27.3751 2.79519 27.3857 2.78713C27.3937 2.77638 27.4096 2.76832 27.4203 2.76832C27.4309 2.76832 28.4415 3.77882 29.665 5.01238Z" fill=""/>
<path d="M8.87511 12.2554C8.74213 12.3038 8.48415 12.5296 8.48415 12.5994C8.48415 12.6209 8.46288 12.6962 8.43894 12.7661C8.39639 12.8897 8.39639 12.9031 8.44692 13.0644C8.48681 13.1961 8.52671 13.2632 8.63841 13.3761C8.72617 13.4648 8.80064 13.5186 8.83788 13.5186C8.87245 13.5186 8.91235 13.532 8.93096 13.5508C8.94958 13.5696 9.0666 13.5857 9.22352 13.5938C9.65969 13.6072 9.90171 13.7604 10.0905 14.1367C10.1517 14.2576 10.1863 14.4995 10.2927 15.5476C10.3086 15.7089 10.3405 15.9588 10.3618 16.0986C10.3831 16.241 10.399 16.4291 10.399 16.5151C10.399 16.6038 10.4123 16.7194 10.4256 16.7758C10.4416 16.8296 10.4655 17.0096 10.4788 17.1789C10.4948 17.3456 10.5161 17.5417 10.5294 17.617C10.5453 17.6896 10.556 17.8347 10.5586 17.9395C10.5586 18.0416 10.5772 18.2002 10.5985 18.2889C10.6198 18.3776 10.6384 18.5361 10.6384 18.6436C10.6384 18.7484 10.657 18.9124 10.6783 19.0064C10.6996 19.1005 10.7235 19.294 10.7288 19.4391C10.7368 19.5842 10.7501 19.7132 10.7581 19.7267C10.7661 19.7401 10.79 19.9229 10.8113 20.1352C10.8326 20.3475 10.8618 20.6162 10.8778 20.7345C10.8937 20.8527 10.9017 20.971 10.8937 20.9952C10.8884 21.0221 10.899 21.1161 10.9203 21.2048C10.9416 21.2962 10.9682 21.5085 10.9842 21.6832C10.9975 21.8552 11.0214 22.0567 11.0347 22.132C11.0506 22.2046 11.0613 22.3443 11.0613 22.4411C11.0639 22.5378 11.0772 22.6587 11.0905 22.7098C11.1065 22.7609 11.1225 22.906 11.1304 23.0323C11.1517 23.3575 11.2155 23.7579 11.3006 24.067C11.3352 24.1933 11.4842 24.4997 11.5294 24.5373C11.5506 24.5561 11.5693 24.5884 11.5693 24.6072C11.5693 24.669 12.0506 25.1527 12.1863 25.2307C12.2581 25.271 12.3139 25.3113 12.3139 25.3221C12.3139 25.3355 12.3352 25.3436 12.3592 25.3436C12.3831 25.3436 12.423 25.3624 12.4469 25.3839C12.4735 25.4081 12.5161 25.4296 12.5453 25.4376C12.5772 25.443 12.6225 25.4591 12.649 25.4726C12.806 25.5505 13.0719 25.6123 13.2554 25.6123C13.4416 25.6123 13.4576 25.6177 13.4576 25.6687C13.4576 25.6983 13.407 25.787 13.3432 25.8622C13.2049 26.0316 13.0852 26.2573 13.0586 26.4051C13.0453 26.4642 13.024 26.5879 13.0054 26.6766C12.9788 26.8163 12.9815 26.8701 13.0161 27.0098C13.04 27.1012 13.0586 27.2006 13.0586 27.2302C13.0586 27.2786 13.0959 27.3672 13.1703 27.4936C13.181 27.5151 13.2102 27.5715 13.2315 27.6199C13.2714 27.7032 13.6038 28.0579 13.6464 28.0579C13.657 28.0579 13.7129 28.0848 13.7687 28.1171C14.0214 28.2702 14.1437 28.2998 14.4948 28.2998C14.7368 28.2998 14.8485 28.2891 14.9044 28.2595C14.9443 28.238 15.0001 28.2192 15.0267 28.2192C15.0533 28.2192 15.0879 28.2004 15.1065 28.1789C15.1251 28.1574 15.157 28.1386 15.1756 28.1386C15.2209 28.1386 15.5214 27.9047 15.5985 27.8107C15.6889 27.7005 15.7714 27.5769 15.7714 27.5527C15.7714 27.5392 15.79 27.5124 15.8113 27.4936C15.8326 27.4747 15.8512 27.4398 15.8512 27.4156C15.8512 27.3914 15.8725 27.335 15.8964 27.292C15.9336 27.2275 15.9416 27.1361 15.9443 26.819C15.9443 26.5717 15.9336 26.4024 15.9123 26.3621C15.8964 26.3272 15.8512 26.2277 15.8113 26.1391C15.7714 26.0531 15.6916 25.9294 15.6331 25.8649C15.5613 25.787 15.5294 25.7306 15.5373 25.6876L15.5453 25.6257L17.5746 25.6177C19.5453 25.6123 19.6012 25.6123 19.6012 25.6634C19.6012 25.6902 19.5826 25.7306 19.556 25.7494C19.4496 25.8407 19.2714 26.1659 19.1836 26.432C19.1171 26.6255 19.1225 27.0662 19.1889 27.1979C19.2102 27.2409 19.2288 27.3054 19.2288 27.3431C19.2288 27.3807 19.2395 27.4183 19.2554 27.4264C19.2687 27.4344 19.3033 27.4936 19.3299 27.5581C19.3911 27.6951 19.7129 28.0284 19.8485 28.0929C19.9017 28.1197 19.9522 28.152 19.9602 28.1654C19.9682 28.1816 19.9975 28.1923 20.0214 28.1923C20.0453 28.195 20.1145 28.2165 20.173 28.2434C20.2581 28.2864 20.3405 28.2944 20.6198 28.2944C20.9788 28.2944 20.9895 28.2917 21.3299 28.1305C21.4975 28.0499 21.8379 27.7139 21.923 27.5419C22.0693 27.2436 22.1065 27.0797 22.0959 26.7706C22.0852 26.5019 22.0639 26.3971 21.9788 26.2224C21.9576 26.1794 21.9416 26.131 21.9416 26.1122C21.9416 26.0934 21.9177 26.0557 21.8884 26.0289C21.8592 26.002 21.8352 25.9671 21.8352 25.9482C21.8352 25.9294 21.8113 25.8945 21.7794 25.8649C21.6836 25.7789 21.6145 25.6634 21.6411 25.6365C21.6517 25.6257 22.0533 25.6123 22.532 25.6123C23.3565 25.6096 23.4017 25.6069 23.4443 25.5559C23.4709 25.529 23.5081 25.5048 23.5267 25.5048C23.5453 25.5048 23.6012 25.4537 23.6544 25.3946C23.9363 25.0614 23.8671 24.6179 23.4921 24.3707L23.3405 24.2686H18.3166C13.8592 24.2686 13.2847 24.2632 13.2155 24.2256C13.173 24.2041 13.1278 24.1933 13.1145 24.1987C13.1012 24.2067 13.0613 24.1906 13.024 24.1611C12.9868 24.1315 12.9469 24.1073 12.9336 24.1073C12.9017 24.1073 12.7155 23.9138 12.6703 23.8332C12.5693 23.6531 12.5294 23.5053 12.5214 23.2607L12.5134 23.0189L16.9017 23.0054C21.665 22.9893 21.3618 23.0001 21.7022 22.8361C21.9975 22.6937 22.3751 22.2717 22.4363 22.0164C22.4469 21.9761 22.4709 21.9197 22.4895 21.8901C22.5107 21.8606 22.5267 21.8041 22.5267 21.7611C22.5267 21.7181 22.54 21.659 22.5586 21.6267C22.5772 21.5945 22.5985 21.5058 22.6092 21.4332C22.6251 21.3042 22.6464 21.2048 22.7129 20.9361C22.7288 20.8689 22.7528 20.7479 22.7634 20.6646C22.7767 20.584 22.798 20.4899 22.8166 20.4577C22.8326 20.4281 22.8459 20.369 22.8459 20.3287C22.8459 20.2884 22.8618 20.1862 22.8831 20.1056C22.9416 19.8691 22.9842 19.681 23.0959 19.1435C23.1171 19.036 23.149 18.9258 23.1623 18.8962C23.1783 18.8667 23.1916 18.7995 23.1916 18.7457C23.1916 18.6947 23.2102 18.606 23.2315 18.5522C23.2528 18.5012 23.2714 18.4152 23.2714 18.3641C23.2714 18.3157 23.29 18.2297 23.3113 18.176C23.3326 18.1249 23.3512 18.0389 23.3512 17.9879C23.3512 17.9395 23.3698 17.8535 23.3911 17.7997C23.4123 17.7487 23.431 17.6707 23.431 17.6304C23.431 17.5901 23.4469 17.4961 23.4682 17.4262C23.4895 17.3536 23.5187 17.2273 23.5347 17.1467C23.5506 17.0661 23.5826 16.9129 23.6038 16.8107C23.7155 16.284 23.7342 16.1254 23.6969 15.9024C23.665 15.6954 23.6464 15.6471 23.5294 15.4052C23.4416 15.2332 23.056 14.8892 22.9443 14.8892C22.9256 14.8892 22.8778 14.8704 22.8326 14.8462C22.79 14.822 22.7235 14.7951 22.6863 14.7871C22.649 14.779 20.1384 14.7656 17.1065 14.7548C12.2448 14.7441 11.5905 14.736 11.5693 14.7011C11.5453 14.6634 11.54 14.6097 11.5294 14.392C11.5294 14.3463 11.5134 14.2576 11.4948 14.1904C11.4788 14.1232 11.4549 14.0157 11.4389 13.9486C11.4123 13.8142 11.3618 13.661 11.3272 13.5992C11.3139 13.5777 11.2953 13.5401 11.2873 13.5186C11.2501 13.4218 11.2368 13.4003 11.0879 13.1692C10.9336 12.9327 10.524 12.5672 10.3459 12.5107C10.3166 12.5027 10.2927 12.4812 10.2927 12.4677C10.2927 12.4543 10.2714 12.4436 10.2448 12.4436C10.2182 12.4436 10.173 12.4247 10.1437 12.4032C10.1171 12.3817 10.0719 12.3629 10.0453 12.3629C10.0161 12.3629 9.96288 12.3468 9.92564 12.3253C9.81926 12.2689 9.39639 12.2017 9.18628 12.2044C9.08522 12.2071 8.94426 12.2286 8.87511 12.2554ZM13.8671 15.8889C13.9097 16.0529 13.9469 16.2974 13.9655 16.5554C13.9762 16.7247 13.9948 16.9048 14.0054 16.9559C14.0373 17.1198 14.0427 17.1198 12.9203 17.1198C11.9655 17.1198 11.9123 17.1171 11.8645 17.0687C11.8086 17.0123 11.7661 16.7677 11.79 16.6414C11.798 16.6011 11.782 16.4721 11.7528 16.3539C11.6943 16.1066 11.6889 15.9346 11.7342 15.8889C11.782 15.8406 13.8538 15.8432 13.8671 15.8889ZM19.5161 15.8889C19.5586 15.9319 19.556 16.1039 19.5081 16.3001C19.4868 16.3888 19.4709 16.5527 19.4682 16.6629C19.4682 16.9048 19.431 17.0553 19.3618 17.0929C19.3299 17.1091 18.5985 17.1198 17.2794 17.1198C15.3326 17.1198 15.2448 17.1171 15.2022 17.0687C15.149 17.0096 15.1012 16.7409 15.1225 16.6092C15.1304 16.5554 15.1198 16.4399 15.0985 16.3512C15.032 16.0851 15.0161 15.94 15.0533 15.897C15.0826 15.8621 15.3698 15.8567 17.2847 15.8567C18.9602 15.8567 19.4921 15.8647 19.5161 15.8889ZM22.4921 15.9373C22.6198 16.0341 22.6384 16.0824 22.5905 16.2222C22.5693 16.2786 22.5533 16.3673 22.5533 16.413C22.5533 16.4614 22.5373 16.5474 22.5161 16.6011C22.4948 16.6576 22.4709 16.7704 22.4602 16.8511C22.4496 16.9451 22.423 17.0204 22.3884 17.058C22.3326 17.1198 22.3299 17.1198 21.4735 17.1198C20.6384 17.1198 20.6118 17.1171 20.5852 17.0661C20.5639 17.0284 20.5639 16.9827 20.5852 16.9102C20.5985 16.8564 20.6118 16.7247 20.6118 16.6226C20.6118 16.5178 20.6304 16.3619 20.6517 16.2732C20.673 16.1846 20.6889 16.069 20.6916 16.0152C20.6916 15.9642 20.7049 15.9077 20.7235 15.8889C20.7475 15.8647 20.9709 15.8567 21.5693 15.8567H22.3831L22.4921 15.9373ZM14.1517 18.2781C14.1677 18.3104 14.1916 18.4582 14.2076 18.6087C14.2209 18.7565 14.2501 18.9876 14.2714 19.1166C14.3033 19.3021 14.306 19.3612 14.282 19.3934C14.2368 19.4472 12.1916 19.4499 12.1171 19.3961C12.0799 19.3692 12.0613 19.2859 12.032 18.9849C11.9576 18.2432 11.9576 18.2727 11.9975 18.2459C12.0187 18.2324 12.5028 18.2217 13.0772 18.2217C14.1145 18.2217 14.1198 18.2217 14.1517 18.2781ZM19.282 18.2862C19.2953 18.3238 19.2953 18.4125 19.282 18.5066C19.2687 18.5952 19.2421 18.821 19.2262 19.0091C19.2049 19.2349 19.181 19.3692 19.157 19.3934C19.1038 19.4472 15.5161 19.4499 15.4443 19.3961C15.407 19.3719 15.3884 19.2806 15.3592 18.9742C15.3352 18.7592 15.3113 18.52 15.3033 18.4447C15.29 18.348 15.298 18.2889 15.3193 18.262C15.3485 18.2271 15.5985 18.2217 17.3033 18.2217H19.2554L19.282 18.2862ZM22.1225 18.3426C22.1278 18.4017 22.1145 18.5173 22.0932 18.5979C22.0347 18.8076 21.9948 18.9903 21.9655 19.1731C21.923 19.4445 21.9682 19.4311 21.0852 19.4311C20.407 19.4311 20.3166 19.4257 20.3006 19.3881C20.2927 19.3639 20.298 19.2644 20.3166 19.1677C20.3326 19.0682 20.3538 18.8882 20.3592 18.7646C20.3751 18.5146 20.415 18.3077 20.4576 18.2566C20.4788 18.2271 20.657 18.2217 21.3006 18.2271L22.1145 18.2351L22.1225 18.3426ZM14.4177 20.6189C14.4336 20.6485 14.4522 20.7802 14.4602 20.9065C14.4655 21.0328 14.4895 21.2344 14.5107 21.3526C14.5347 21.4709 14.548 21.6267 14.5427 21.702L14.5347 21.8364H13.4602H12.3831L12.3352 21.6214C12.3113 21.5031 12.2873 21.3204 12.2873 21.2182C12.2873 21.1134 12.2687 20.9414 12.2475 20.8312C12.2155 20.6807 12.2129 20.627 12.2368 20.5974C12.2607 20.5652 12.4522 20.5598 13.3272 20.5598C14.3857 20.5598 14.3857 20.5598 14.4177 20.6189ZM19.0134 20.5974C19.0373 20.627 19.0373 20.67 19.0161 20.7802C19.0001 20.8581 18.9762 21.0677 18.9629 21.2451C18.9496 21.4225 18.923 21.6267 18.9017 21.702L18.8671 21.8364L17.298 21.8444L15.7262 21.8498L15.6783 21.6294C15.6517 21.5058 15.6198 21.272 15.6092 21.1107C15.5959 20.9468 15.5772 20.7694 15.5693 20.7103C15.556 20.6377 15.5639 20.6001 15.5879 20.584C15.6092 20.5706 16.3804 20.5598 17.3033 20.5598C18.7235 20.5598 18.9868 20.5652 19.0134 20.5974ZM21.6171 20.6727C21.6225 20.7264 21.6065 20.8151 21.5852 20.8689C21.5613 20.9253 21.5427 21.0086 21.5427 21.057C21.5427 21.1054 21.524 21.1967 21.5028 21.2586C21.4815 21.3204 21.4629 21.3983 21.4629 21.4279C21.4629 21.5085 21.3671 21.6966 21.2873 21.7719C21.2209 21.8364 21.2129 21.8364 20.6225 21.8444L20.0267 21.8525V21.7504C20.0267 21.6939 20.0453 21.5649 20.0666 21.4601C20.0879 21.358 20.1065 21.1994 20.1065 21.1081C20.1065 20.9172 20.1517 20.6431 20.1916 20.5921C20.2129 20.5679 20.3804 20.5598 20.915 20.5652L21.6092 20.5732L21.6171 20.6727ZM14.7102 26.5046C14.9762 26.7034 14.8698 27.1334 14.5427 27.1872C14.3485 27.2194 14.1331 27.0609 14.1092 26.862C14.0932 26.7437 14.1251 26.6631 14.2288 26.5422C14.3086 26.4508 14.3246 26.4454 14.4709 26.4454C14.5932 26.4454 14.649 26.4589 14.7102 26.5046ZM20.8592 26.5341C21.0719 26.7169 21.0267 27.0501 20.774 27.1603C20.6597 27.2087 20.5879 27.2087 20.4709 27.1576C20.3219 27.0958 20.2661 27.0017 20.2661 26.8136C20.2661 26.6604 20.274 26.6416 20.3645 26.5476C20.4549 26.4535 20.4735 26.4454 20.6118 26.4454C20.7368 26.4454 20.7714 26.4589 20.8592 26.5341Z" fill=""/>
<path d="M7.93352 31.5703C7.87767 31.5783 7.80587 31.624 7.71544 31.7154C7.60906 31.8229 7.5798 31.8686 7.56384 31.9707C7.52395 32.2556 7.60374 32.4491 7.82182 32.5861L7.92555 32.6533H17.5319L27.141 32.6506L27.2474 32.5888C27.4495 32.4733 27.5452 32.2556 27.508 31.9949C27.4947 31.8954 27.4654 31.8417 27.3617 31.7261C27.2899 31.6455 27.2101 31.5783 27.1862 31.5756C27.1011 31.5649 8.01863 31.5595 7.93352 31.5703Z" fill=""/>
</svg>
