<svg width="32" height="32" viewBox="0 0 46 46" fill="" xmlns="http://www.w3.org/2000/svg">
<path d="M6.70834 15.3334C6.70872 13.5163 7.17882 11.73 8.07304 10.1481C8.96725 8.56621 10.2552 7.2423 11.8119 6.30489C13.3686 5.36748 15.1412 4.84839 16.9577 4.798C18.7742 4.74761 20.5728 5.16763 22.1791 6.0173C23.7854 6.86697 25.1447 8.11744 26.1253 9.64735C27.1058 11.1773 27.6742 12.9347 27.7753 14.749C27.8765 16.5634 27.5068 18.373 26.7024 20.0024C25.8979 21.6318 24.6859 23.0256 23.184 24.0485C26.4184 25.2348 29.2237 27.3619 31.2391 30.156C33.2544 32.9501 34.3874 36.2834 34.4923 39.7268C34.4879 40.0981 34.3401 40.4533 34.0799 40.7182C33.8198 40.9831 33.4673 41.1372 33.0962 41.1483C32.7251 41.1594 32.364 41.0267 32.0884 40.7779C31.8128 40.5291 31.644 40.1834 31.6173 39.8131C31.5032 36.0784 29.9394 32.5349 27.2573 29.9334C24.5751 27.332 20.9855 25.8772 17.249 25.8772C13.5126 25.8772 9.92296 27.332 7.24084 29.9334C4.55872 32.5349 2.99489 36.0784 2.88075 39.8131C2.86156 40.1884 2.69614 40.5413 2.41991 40.7962C2.14368 41.051 1.77863 41.1876 1.40295 41.1766C1.02728 41.1655 0.67086 41.0078 0.410058 40.7372C0.149256 40.4666 0.00481208 40.1046 0.00767104 39.7287C0.112228 36.2849 1.24508 32.9512 3.26042 30.1568C5.27575 27.3623 8.08133 25.2349 11.316 24.0485C9.89543 23.0818 8.7329 21.7823 7.92977 20.2632C7.12665 18.7442 6.70732 17.0517 6.70834 15.3334ZM17.25 7.66675C15.2167 7.66675 13.2666 8.47448 11.8289 9.91226C10.3911 11.35 9.58334 13.3001 9.58334 15.3334C9.58334 17.3667 10.3911 19.3168 11.8289 20.7546C13.2666 22.1923 15.2167 23.0001 17.25 23.0001C19.2833 23.0001 21.2334 22.1923 22.6712 20.7546C24.1089 19.3168 24.9167 17.3667 24.9167 15.3334C24.9167 13.3001 24.1089 11.35 22.6712 9.91226C21.2334 8.47448 19.2833 7.66675 17.25 7.66675ZM33.1392 15.3334C32.8555 15.3334 32.5795 15.3526 32.3073 15.3909C32.1173 15.4249 31.9224 15.4203 31.7342 15.3774C31.546 15.3345 31.3683 15.254 31.2119 15.141C31.0554 15.0279 30.9234 14.8844 30.8235 14.7192C30.7237 14.554 30.6582 14.3703 30.6309 14.1792C30.6036 13.9881 30.6151 13.7935 30.6646 13.6069C30.7142 13.4203 30.8008 13.2456 30.9194 13.0933C31.0379 12.9409 31.1859 12.814 31.3546 12.72C31.5232 12.6261 31.7091 12.5671 31.901 12.5466C33.8073 12.271 35.7511 12.637 37.4265 13.5872C39.1019 14.5373 40.4138 16.0176 41.1558 17.795C41.8978 19.5725 42.0277 21.5462 41.525 23.4055C41.0224 25.2649 39.9158 26.9043 38.3793 28.0658C40.6379 29.0771 42.5556 30.7204 43.901 32.7974C45.2464 34.8743 45.9621 37.2963 45.9617 39.7709C45.9617 40.1522 45.8102 40.5178 45.5406 40.7874C45.271 41.057 44.9054 41.2084 44.5242 41.2084C44.1429 41.2084 43.7773 41.057 43.5077 40.7874C43.2381 40.5178 43.0867 40.1522 43.0867 39.7709C43.0864 37.6322 42.3973 35.5504 41.1214 33.834C39.8455 32.1176 38.0506 30.8578 36.0027 30.2412L34.9792 29.9346V26.7222L35.765 26.3217C36.9299 25.7316 37.8619 24.7662 38.4106 23.5813C38.9593 22.3964 39.0927 21.0611 38.7892 19.7911C38.4857 18.5211 37.763 17.3904 36.7379 16.5816C35.7128 15.7728 34.445 15.3331 33.1392 15.3334Z" />
</svg>
