<svg width="24" height="24" viewBox="0 0 24 24" fill="" xmlns="http://www.w3.org/2000/svg">
<path d="M3.49999 8.00007C3.50019 7.05199 3.74546 6.12005 4.21201 5.29471C4.67855 4.46936 5.35053 3.77862 6.16273 3.28954C6.97492 2.80045 7.89976 2.52963 8.84748 2.50334C9.7952 2.47705 10.7336 2.69619 11.5717 3.13949C12.4097 3.5828 13.119 4.23522 13.6306 5.03343C14.1421 5.83165 14.4387 6.74855 14.4915 7.69517C14.5442 8.64178 14.3514 9.58597 13.9317 10.4361C13.5119 11.2862 12.8796 12.0134 12.096 12.5471C13.7835 13.166 15.2472 14.2758 16.2986 15.7336C17.3501 17.1914 17.9412 18.9305 17.996 20.7271C17.9937 20.9208 17.9166 21.1061 17.7808 21.2443C17.6451 21.3825 17.4612 21.4629 17.2676 21.4687C17.0739 21.4745 16.8855 21.4053 16.7418 21.2755C16.598 21.1456 16.5099 20.9653 16.496 20.7721C16.4364 18.8235 15.6205 16.9747 14.2212 15.6175C12.8218 14.2602 10.9489 13.5012 8.99949 13.5012C7.05004 13.5012 5.17718 14.2602 3.77782 15.6175C2.37845 16.9747 1.56254 18.8235 1.50299 20.7721C1.49298 20.9679 1.40667 21.152 1.26255 21.285C1.11843 21.418 0.927967 21.4892 0.731962 21.4835C0.535957 21.4777 0.350001 21.3954 0.21393 21.2542C0.0778594 21.113 0.00249738 20.9242 0.00398901 20.7281C0.0585404 18.9313 0.649596 17.192 1.70107 15.734C2.75255 14.276 4.21633 13.1661 5.90399 12.5471C5.16282 12.0427 4.55628 11.3647 4.13726 10.5721C3.71824 9.7796 3.49946 8.89658 3.49999 8.00007ZM8.99999 4.00007C7.93912 4.00007 6.92171 4.4215 6.17156 5.17165C5.42142 5.92179 4.99999 6.93921 4.99999 8.00007C4.99999 9.06094 5.42142 10.0784 6.17156 10.8285C6.92171 11.5786 7.93912 12.0001 8.99999 12.0001C10.0609 12.0001 11.0783 11.5786 11.8284 10.8285C12.5786 10.0784 13 9.06094 13 8.00007C13 6.93921 12.5786 5.92179 11.8284 5.17165C11.0783 4.4215 10.0609 4.00007 8.99999 4.00007ZM17.29 8.00007C17.142 8.00007 16.998 8.01007 16.856 8.03007C16.7568 8.04783 16.6551 8.04543 16.5569 8.02302C16.4588 8.00062 16.3661 7.95866 16.2845 7.89966C16.2028 7.84066 16.1339 7.76582 16.0818 7.67961C16.0298 7.5934 15.9956 7.49759 15.9813 7.39788C15.9671 7.29818 15.9731 7.19662 15.9989 7.09928C16.0248 7.00194 16.07 6.9108 16.1318 6.8313C16.1937 6.7518 16.2709 6.68558 16.3589 6.63658C16.4469 6.58757 16.5438 6.55679 16.644 6.54607C17.6386 6.40228 18.6527 6.59327 19.5269 7.089C20.401 7.58472 21.0855 8.35704 21.4726 9.2844C21.8597 10.2118 21.9275 11.2415 21.6652 12.2116C21.403 13.1817 20.8256 14.0371 20.024 14.6431C21.2024 15.1707 22.2029 16.0281 22.9049 17.1117C23.6068 18.1953 23.9802 19.4589 23.98 20.7501C23.98 20.949 23.901 21.1398 23.7603 21.2804C23.6197 21.4211 23.4289 21.5001 23.23 21.5001C23.0311 21.5001 22.8403 21.4211 22.6997 21.2804C22.559 21.1398 22.48 20.949 22.48 20.7501C22.4799 19.6342 22.1203 18.5481 21.4546 17.6526C20.7889 16.757 19.8525 16.0997 18.784 15.7781L18.25 15.6181V13.9421L18.66 13.7331C19.2677 13.4252 19.754 12.9215 20.0403 12.3033C20.3266 11.6851 20.3962 10.9885 20.2378 10.3258C20.0795 9.66321 19.7024 9.07329 19.1676 8.6513C18.6327 8.22931 17.9713 7.99989 17.29 8.00007Z"/>
</svg>
