<svg width="100" height="100" viewBox="0 0 100 100" fill="none" xmlns="http://www.w3.org/2000/svg">
<path d="M5.00031 100H84.9998C87.7617 100 90.0002 97.7615 90.0002 94.9997V75C90.0002 72.2389 87.7617 69.9997 84.9998 69.9997H56.2248L60.125 67.0853C70.4979 59.6893 76.6586 47.7386 76.667 34.9998V8.33359C76.667 7.70187 76.31 7.12433 75.7446 6.84204C66.0934 2.41928 55.616 0.0877381 44.9997 0C34.3842 0.0877381 23.9067 2.41928 14.2548 6.84204C13.6902 7.12433 13.3331 7.70187 13.3331 8.33359V34.9998C13.3408 47.7386 19.5007 59.6886 29.8714 67.0853L33.773 69.9997H5.00031C2.23846 69.9997 0 72.2389 0 75V94.9997C0 97.7615 2.23846 100 5.00031 100ZM16.6664 34.9998V9.39865C25.618 5.52597 35.2478 3.46451 44.9997 3.33328C54.7523 3.46451 64.3822 5.52597 73.333 9.39865V34.9998C73.3139 46.685 67.6514 57.6408 58.1299 64.415L45.9999 73.4764C45.4056 73.9151 44.5946 73.9151 44.0002 73.4764L31.8718 64.415C22.3488 57.6424 16.6855 46.6858 16.6664 34.9998ZM3.33328 75C3.33328 74.0799 4.07944 73.333 5.00031 73.333H38.2347L42.0013 76.1467C43.7828 77.4689 46.2204 77.4689 48.0019 76.1467L51.7632 73.333H84.9998C85.9207 73.333 86.6669 74.0799 86.6669 75V94.9997C86.6669 95.9206 85.9207 96.6667 84.9998 96.6667H5.00031C4.07944 96.6667 3.33328 95.9206 3.33328 94.9997V75Z" fill=""/>
<path d="M7.92835 84.9503L12.1596 86.0085L8.66688 90.667C8.11451 91.4032 8.26328 92.4477 8.99952 93C9.73652 93.5524 10.781 93.4029 11.3334 92.6666L15 87.7785L18.6667 92.6666C19.2191 93.4029 20.2636 93.5524 20.9998 93C21.736 92.4477 21.8856 91.4032 21.3332 90.667L17.8336 86.0001L22.0649 84.9419C22.6462 84.8007 23.107 84.3582 23.2726 83.7837C23.4389 83.2085 23.2833 82.589 22.8659 82.1602C22.4494 81.7314 21.8344 81.559 21.2546 81.7085L16.6663 82.8651V78.3333C16.6663 77.4132 15.9201 76.667 15 76.667C14.0792 76.667 13.333 77.4132 13.333 78.3333V82.8651L8.7386 81.7169C8.15876 81.5674 7.54383 81.7398 7.1265 82.1686C6.70994 82.5974 6.5543 83.2169 6.71986 83.7921C6.88542 84.3666 7.34699 84.8091 7.92835 84.9503Z" fill=""/>
<path d="M27.9282 84.9503L32.1603 86.0085L28.6599 90.6754C28.1075 91.4116 28.2571 92.4561 28.9933 93.0084C29.7295 93.5608 30.7748 93.4113 31.3264 92.675L34.9999 87.7785L38.6666 92.6666C39.219 93.4029 40.2635 93.5524 41.0005 93C41.7367 92.4477 41.8855 91.4032 41.3331 90.667L37.8335 86.0001L42.0648 84.9419C42.6461 84.8007 43.1077 84.3582 43.2732 83.7837C43.4388 83.2085 43.2839 82.589 42.8666 82.1602C42.4493 81.7314 41.8343 81.559 41.2553 81.7085L36.667 82.8651V78.3333C36.667 77.4132 35.9208 76.667 34.9999 76.667C34.0798 76.667 33.3337 77.4132 33.3337 78.3333V82.8651L28.7385 81.7169C27.8481 81.5002 26.9509 82.0427 26.7281 82.9315C26.5054 83.8196 27.0417 84.7214 27.9282 84.9503Z" fill=""/>
<path d="M47.9285 84.9503L52.1598 86.0085L48.6602 90.6754C48.3024 91.1514 48.2268 91.7824 48.4603 92.3294C48.6945 92.8772 49.2026 93.2587 49.7939 93.3296C50.3852 93.4006 50.9696 93.1511 51.3267 92.675L55.0002 87.7785L58.6669 92.6666C59.024 93.1427 59.6084 93.3929 60.1997 93.3212C60.7902 93.2503 61.2991 92.8688 61.5325 92.321C61.7667 91.774 61.6904 91.143 61.3334 90.667L57.833 86.0001L62.065 84.9419C62.6464 84.8007 63.1072 84.3582 63.2728 83.7837C63.4383 83.2085 63.2835 82.589 62.8661 82.1602C62.4496 81.7314 61.8339 81.559 61.2548 81.7085L56.6665 82.8651V78.3333C56.6665 77.4132 55.9203 76.667 55.0002 76.667C54.0794 76.667 53.3332 77.4132 53.3332 78.3333V82.8651L48.738 81.7169C47.8484 81.5002 46.9504 82.0427 46.7284 82.9315C46.5057 83.8196 47.0412 84.7214 47.9285 84.9503Z" fill=""/>
<path d="M67.9283 84.9503L72.1603 86.0085L68.6599 90.6754C68.3029 91.1514 68.2266 91.7824 68.4608 92.3294C68.6943 92.8772 69.2032 93.2587 69.7937 93.3296C70.3849 93.4006 70.9694 93.1511 71.3264 92.675L75 87.7785L78.6667 92.6666C79.0237 93.1427 79.6081 93.3929 80.1994 93.3212C80.7907 93.2503 81.2988 92.8688 81.533 92.321C81.7665 91.774 81.6909 91.143 81.3331 90.667L77.8335 86.0001L82.0648 84.9419C82.9521 84.713 83.4877 83.8112 83.2649 82.9231C83.0429 82.0343 82.1449 81.4919 81.2553 81.7085L76.667 82.8651V78.3333C76.667 77.4132 75.9201 76.667 75 76.667C74.0799 76.667 73.3329 77.4132 73.3329 78.3333V82.8651L68.7385 81.7169C68.1587 81.5674 67.5438 81.7398 67.1272 82.1686C66.7099 82.5974 66.5542 83.2169 66.7205 83.7921C66.8861 84.3666 67.3469 84.8091 67.9283 84.9503Z" fill=""/>
<path d="M47.7753 66.8198L55.9998 61.3335C65.2886 54.393 69.9998 45.533 69.9998 34.9998V13.3331C70.0013 12.6694 69.6084 12.0689 69.0003 11.8034C53.7301 4.98504 36.2801 4.98504 21.0099 11.8034C20.398 12.0659 20.0005 12.6671 19.9998 13.3331V34.9998C19.9998 45.533 24.7117 54.393 33.9997 61.3335L34.0737 61.3853L42.2234 66.8182C43.9026 67.9428 46.0946 67.9428 47.773 66.8182L47.7753 66.8198ZM35.962 58.638C27.5818 52.3636 23.333 44.4115 23.333 34.9998V14.4386C37.172 8.5205 52.8283 8.5205 66.6665 14.4386V34.9998C66.6665 44.4252 62.4047 52.3865 54.0749 58.6136L45.9267 64.0465C45.366 64.4218 44.6343 64.4218 44.0735 64.0465L35.962 58.638Z" fill=""/>
<path d="M56.6665 44.9997V34.9998C56.6581 32.8888 55.3237 31.0104 53.3332 30.307V28.3333C53.3332 23.7312 49.6024 19.9997 44.9996 19.9997C40.3976 19.9997 36.6668 23.7312 36.6668 28.3333V30.307C34.6763 31.0104 33.3419 32.8888 33.3335 34.9998V44.9997C33.3335 47.7615 35.572 50 38.333 50H51.6669C54.428 50 56.6665 47.7615 56.6665 44.9997ZM40.0001 28.3333C40.0001 25.5722 42.2385 23.333 44.9996 23.333C47.7614 23.333 49.9999 25.5722 49.9999 28.3333V30.0003H40.0001V28.3333ZM36.6668 44.9997V34.9998C36.6668 34.0797 37.4129 33.3336 38.333 33.3336H51.6669C52.587 33.3336 53.3332 34.0797 53.3332 34.9998V44.9997C53.3332 45.9206 52.587 46.6667 51.6669 46.6667H38.333C37.4129 46.6667 36.6668 45.9206 36.6668 44.9997Z" fill=""/>
<path d="M44.9998 36.6669C44.0797 36.6669 43.3335 37.413 43.3335 38.3331V41.6664C43.3335 42.5873 44.0797 43.3334 44.9998 43.3334C45.9206 43.3334 46.6668 42.5873 46.6668 41.6664V38.3331C46.6668 37.413 45.9206 36.6669 44.9998 36.6669Z" fill=""/>
</svg>
