<svg width="12" height="20" viewBox="0 0 12 20" fill="none" xmlns="http://www.w3.org/2000/svg">
<path d="M10.3876 0H1.6124C0.865213 0 0.257324 0.607889 0.257324 1.35508V18.6449C0.257324 19.3921 0.865213 20 1.6124 20H10.3876C11.1348 20 11.7427 19.3921 11.7427 18.6449V1.35508C11.7427 0.607889 11.1348 0 10.3876 0ZM11.1177 18.6449C11.1177 19.0475 10.7902 19.375 10.3876 19.375H1.6124C1.20982 19.375 0.882323 19.0475 0.882323 18.6449V1.35508C0.882323 0.952498 1.20982 0.624999 1.6124 0.624999H10.3876C10.7902 0.624999 11.1177 0.952498 11.1177 1.35508V18.6449H11.1177ZM7.33336 1.68093C7.33336 1.85351 7.19344 1.99343 7.02087 1.99343H4.97911C4.80653 1.99343 4.66661 1.85351 4.66661 1.68093C4.66661 1.50836 4.80653 1.36843 4.97911 1.36843H7.02087C7.19344 1.36843 7.33336 1.50832 7.33336 1.68093ZM5.99997 16.8881C5.42048 16.8881 4.94903 17.3595 4.94903 17.939C4.94903 18.5185 5.42048 18.99 5.99997 18.99C6.57946 18.99 7.0509 18.5185 7.0509 17.939C7.0509 17.3595 6.57946 16.8881 5.99997 16.8881ZM5.99997 18.365C5.76513 18.365 5.57403 18.1739 5.57403 17.939C5.57403 17.7041 5.76513 17.5131 5.99997 17.5131C6.23481 17.5131 6.42591 17.7042 6.42591 17.939C6.42591 18.1739 6.23485 18.365 5.99997 18.365Z" fill=""/>
</svg>
