<?xml version="1.0" standalone="no"?>
<!DOCTYPE svg PUBLIC "-//W3C//DTD SVG 20010904//EN"
 "http://www.w3.org/TR/2001/REC-SVG-20010904/DTD/svg10.dtd">
<svg version="1.0" xmlns="http://www.w3.org/2000/svg"
 width="28.000000pt" height="28.000000pt" viewBox="0 0 512.000000 512.000000"
 preserveAspectRatio="xMidYMid meet">

<g transform="translate(0.000000,512.000000) scale(0.100000,-0.100000)"
fill="" stroke="none">
<path d="M2580 4835 l0 -285 150 0 150 0 0 285 0 285 -150 0 -150 0 0 -285z"/>
<path d="M2005 4971 c-71 -27 -130 -52 -132 -58 -2 -5 35 -115 83 -244 47
-129 90 -246 96 -260 l9 -26 137 50 c75 27 138 51 140 52 5 5 -190 535 -197
534 -3 0 -64 -22 -136 -48z"/>
<path d="M3311 4998 c-83 -224 -181 -497 -181 -505 0 -9 244 -103 268 -103 12
0 10 -4 117 289 47 129 83 236 81 238 -5 5 -265 103 -273 103 -2 0 -7 -10 -12
-22z"/>
<path d="M1240 3604 c-63 -118 -117 -219 -118 -225 -2 -6 206 -8 559 -7 l562
3 49 90 c27 50 81 150 120 223 l70 132 -564 0 -563 0 -115 -216z"/>
<path d="M2990 3814 c0 -3 53 -105 117 -225 l118 -219 563 0 563 0 -61 114
c-34 63 -87 163 -120 223 l-58 108 -561 3 c-309 1 -561 -1 -561 -4z"/>
<path d="M2578 3363 l-154 -288 -557 -3 -557 -2 0 -350 0 -350 48 24 c66 33
198 73 306 93 124 22 398 22 522 0 175 -32 334 -99 441 -186 l62 -50 358 -3
359 -3 78 -39 c52 -25 98 -58 138 -98 32 -32 63 -58 67 -56 4 2 111 75 239
163 l232 159 0 348 0 348 -557 0 -558 0 -130 243 c-71 133 -141 264 -156 290
l-26 48 -155 -288z"/>
<path d="M4873 2535 c-130 -29 -307 -150 -431 -296 -60 -71 -100 -102 -378
-294 l-310 -214 -18 -63 c-47 -169 -194 -306 -361 -337 -37 -7 -246 -11 -577
-11 l-518 0 0 150 0 150 518 0 c483 0 520 2 558 19 57 26 87 72 92 140 4 62
-17 105 -71 145 -28 20 -40 21 -438 24 l-409 3 -24 37 c-75 119 -229 189 -467
212 -147 15 -352 -4 -454 -42 -112 -41 -238 -123 -318 -206 l-39 -39 334 -622
333 -621 771 0 771 0 502 367 502 366 331 530 c182 291 331 536 332 545 1 21
-73 58 -129 66 -22 3 -68 -1 -102 -9z"/>
<path d="M385 1925 c-203 -107 -371 -198 -373 -204 -2 -5 198 -394 444 -865
l446 -855 32 16 c166 85 743 387 749 393 11 9 -903 1710 -917 1709 -6 0 -177
-87 -381 -194z"/>
</g>
</svg>
