<?xml version="1.0" standalone="no"?>
<!DOCTYPE svg PUBLIC "-//W3C//DTD SVG 20010904//EN"
 "http://www.w3.org/TR/2001/REC-SVG-20010904/DTD/svg10.dtd">
<svg version="1.0" xmlns="http://www.w3.org/2000/svg"
 width="28.000000pt" height="28.000000pt" viewBox="0 0 512.000000 512.000000"
 preserveAspectRatio="xMidYMid meet">

<g transform="translate(0.000000,512.000000) scale(0.100000,-0.100000)"
fill="" stroke="none">
<path d="M1840 4627 c-49 -16 -133 -102 -148 -153 -9 -31 -12 -314 -12 -1176
l0 -1135 -102 -58 c-57 -31 -170 -104 -251 -161 -81 -57 -151 -104 -155 -104
-5 0 -31 34 -60 75 -55 79 -84 97 -127 77 -23 -11 -671 -461 -782 -544 -92
-67 -114 -24 373 -720 439 -626 441 -629 496 -614 36 9 821 563 835 588 18 34
16 49 -17 101 l-30 48 45 28 c137 87 323 110 562 70 187 -32 350 -30 483 4
116 30 1736 618 1803 655 98 53 148 137 155 258 4 73 1 88 -23 142 -28 63
-102 143 -143 156 l-22 7 0 1131 c0 859 -3 1141 -12 1172 -16 55 -99 138 -154
154 -56 16 -2661 16 -2714 -1z m960 -307 l0 -160 -480 0 -480 0 0 135 c0 131
1 137 25 160 l24 25 456 0 455 0 0 -160z m640 -182 l0 -342 -104 102 c-89 88
-108 102 -136 102 -28 0 -47 -14 -136 -102 l-104 -102 0 342 0 342 240 0 240
0 0 -342z m1095 317 c24 -23 25 -29 25 -160 l0 -135 -480 0 -480 0 0 160 0
160 455 0 456 0 24 -25z m-1735 -670 c0 -216 0 -216 25 -240 15 -16 35 -25 56
-25 28 0 51 18 176 142 l143 142 143 -142 c125 -124 148 -142 176 -142 21 0
41 9 56 25 25 24 25 24 25 240 l0 215 480 0 480 0 0 -899 0 -899 -32 -7 c-18
-4 -98 -32 -178 -61 l-145 -54 -283 0 c-266 0 -285 1 -308 19 -42 33 -105 48
-514 120 -541 95 -535 94 -715 94 -175 -1 -327 -23 -467 -67 l-78 -24 0 889 0
889 480 0 480 0 0 -215z m-275 -1635 c135 -12 951 -157 986 -175 60 -32 96
-111 79 -176 -21 -76 -80 -121 -159 -120 -25 0 -235 34 -466 75 -230 42 -420
74 -422 73 -5 -6 -26 -148 -22 -152 12 -11 872 -157 926 -157 114 1 215 64
271 169 l31 58 410 149 c359 130 415 148 454 144 135 -15 186 -181 85 -275
-28 -26 -1687 -632 -1803 -659 -108 -24 -258 -23 -411 5 -265 46 -474 17 -663
-94 l-55 -33 -248 355 c-136 195 -248 358 -248 363 0 12 273 203 368 256 183
105 408 175 620 194 123 10 154 10 267 0z m-1168 -862 c197 -282 358 -518 358
-525 0 -6 -110 -89 -245 -184 -135 -94 -280 -196 -322 -226 l-77 -54 -361 517
c-199 284 -362 521 -363 527 -2 10 621 454 640 456 6 1 172 -230 370 -511z"/>
</g>
</svg>
