<svg width="36" height="36" viewBox="0 0 36 36" fill="none" xmlns="http://www.w3.org/2000/svg">
<path d="M0.373592 35.9817C0.502583 36.0193 0.639624 35.9985 0.75501 35.9239C0.870396 35.8494 0.954829 35.727 0.990008 35.5834C2.02744 31.2595 6.24364 30.1389 8.7637 29.4683C9.39522 29.3007 9.89379 29.1679 10.2181 29.0115C13.0887 27.6197 14.0244 25.3807 14.3044 23.747C14.321 23.6498 14.3144 23.5494 14.2853 23.456C14.2561 23.3626 14.2054 23.2794 14.1382 23.2148C12.6435 21.7735 11.3825 19.6099 10.5868 17.1211C10.5643 17.0498 10.529 16.9843 10.483 16.9287C9.43047 15.6506 8.82614 14.2993 8.82614 13.2225C8.82614 12.5936 9.03867 12.1717 9.51709 11.8533C9.58876 11.8054 9.64865 11.7384 9.69137 11.6583C9.73409 11.5781 9.75831 11.4874 9.76185 11.3942C9.98444 5.66279 13.6386 1.15101 18.1207 1.12176L18.2285 1.12963C22.7328 1.19939 26.3638 5.80793 26.4937 11.6204C26.4955 11.6998 26.5125 11.7779 26.5434 11.8495C26.5743 11.9211 26.6185 11.9845 26.673 12.0355C26.9883 12.3337 27.1353 12.7117 27.1353 13.2248C27.1353 14.126 26.7052 15.2343 25.9256 16.3437C25.8885 16.397 25.8599 16.4572 25.841 16.5214C25.0353 19.3748 23.5889 21.8939 21.8746 23.4354C21.8036 23.4994 21.7494 23.5838 21.7179 23.6795C21.6863 23.7751 21.6785 23.8786 21.6953 23.9788C21.9753 25.6114 22.911 27.8493 25.7816 29.2433C26.121 29.4076 26.6478 29.5358 27.3156 29.6967C29.8105 30.2998 33.9854 31.3113 35.0097 35.5834C35.0269 35.6548 35.0565 35.7217 35.0969 35.7802C35.1372 35.8388 35.1875 35.888 35.2448 35.9248C35.3021 35.9617 35.3654 35.9856 35.431 35.9952C35.4966 36.0048 35.5633 35.9998 35.6271 35.9806C35.691 35.9614 35.7509 35.9283 35.8033 35.8832C35.8558 35.8382 35.8998 35.782 35.9328 35.718C35.9658 35.6539 35.9872 35.5833 35.9958 35.51C36.0043 35.4367 35.9999 35.3622 35.9827 35.2909C34.7992 30.3549 30.0693 29.2107 27.5291 28.5963C26.9399 28.4535 26.4313 28.3308 26.1835 28.2093C24.3101 27.3002 23.1558 25.9152 22.7479 24.0857C24.4873 22.4171 25.9428 19.8428 26.7747 16.9557C27.6581 15.6731 28.1435 14.3522 28.1435 13.2237C28.1435 12.471 27.926 11.8431 27.4949 11.3526C27.2552 5.04734 23.2273 0.0821346 18.2285 0.00225026L18.0784 0C13.1703 0.0292534 9.12529 4.86394 8.77175 11.06C8.14124 11.5776 7.82094 12.3033 7.82094 13.2248C7.82094 14.5558 8.49477 16.1479 9.67422 17.6083C10.4891 20.1095 11.7521 22.3069 13.2559 23.8449C12.85 25.6811 11.6947 27.0707 9.81724 27.9809C9.57451 28.099 9.09104 28.2284 8.53103 28.3769C5.9717 29.0565 1.20958 30.3223 0.0170376 35.2931C-0.0174026 35.4373 0.00081212 35.5908 0.0676762 35.7199C0.13454 35.849 0.244578 35.9432 0.373592 35.9817V35.9817Z" fill="#111111"/>
</svg>
