<svg width="28" height="28" viewBox="0 0 28 28" fill="none" xmlns="http://www.w3.org/2000/svg">
<path d="M14 23.335C13.227 23.335 12.6003 23.9617 12.6003 24.7347C12.6003 25.5077 13.227 26.1344 14 26.1344C14.7731 26.1344 15.3998 25.5077 15.3998 24.7347C15.3998 23.9616 14.7731 23.335 14 23.335ZM14 25.2012C13.7424 25.2012 13.5335 24.9924 13.5335 24.7347C13.5335 24.477 13.7424 24.2681 14 24.2681C14.2577 24.2681 14.4666 24.477 14.4666 24.7347C14.4666 24.9923 14.2577 25.2012 14 25.2012Z" fill-opacity="0.75"/>
<path d="M25.2994 9.95329C26.7881 8.89394 27.4209 6.99345 26.8645 5.25311C26.308 3.51272 24.69 2.33199 22.8629 2.33286C21.0357 2.33374 19.4188 3.51605 18.864 5.25694C18.3092 6.99783 18.9438 8.89771 20.4336 9.95564C19.9415 10.0997 19.484 10.343 19.0894 10.6704C18.8781 9.22161 17.8405 8.02946 16.4346 7.62048C17.923 6.56135 18.5559 4.66141 18 2.92123C17.444 1.18106 15.8268 0 14 0C12.1733 0 10.556 1.18106 10.0001 2.92123C9.44415 4.66141 10.0771 6.56135 11.5655 7.62048C10.1596 8.02951 9.12195 9.22161 8.91068 10.6704C8.51608 10.343 8.0586 10.0997 7.56647 9.95564C9.05622 8.89771 9.69085 6.99788 9.13605 5.25694C8.58125 3.51605 6.96437 2.33374 5.13721 2.33286C3.31004 2.33199 1.69201 3.51277 1.13557 5.25311C0.579137 6.99345 1.2119 8.89394 2.70068 9.95329C1.1049 10.4156 0.00580336 11.8756 0.00296021 13.537V17.5028C0.00427243 18.1452 0.382084 18.7272 0.968266 18.9898C1.12623 20.1404 2.10761 20.9987 3.26893 21.0021H6.12805C6.59886 24.9929 9.98151 28 14 28C18.0185 28 21.4012 24.9929 21.8719 21.0021H24.731C25.8912 20.9975 26.8712 20.14 27.0298 18.9908C27.6171 18.7285 27.9957 18.146 27.9971 17.5028V13.537C27.9943 11.8756 26.8952 10.4156 25.2994 9.95329ZM19.5989 6.53849C19.5989 4.73473 21.0611 3.27253 22.8648 3.27253C24.6685 3.27253 26.1308 4.73478 26.1308 6.53849C26.1308 8.3422 24.6685 9.80446 22.8648 9.80446C21.0621 9.80216 19.6012 8.34127 19.5989 6.53849ZM10.734 4.20563C10.734 2.40187 12.1963 0.939663 14 0.939663C15.8037 0.939663 17.2659 2.40192 17.2659 4.20563C17.2659 6.00934 15.8037 7.47159 14 7.47159C12.1972 7.4693 10.7364 6.00841 10.734 4.20563ZM12.6003 8.40475H15.3997C16.9452 8.40628 18.1976 9.65875 18.1992 11.2042V13.3504C17.7566 13.0732 17.2878 12.8403 16.7995 12.6552V11.2041C16.7995 10.9464 16.5906 10.7376 16.3329 10.7376C16.0752 10.7376 15.8663 10.9464 15.8663 11.2041V12.3705C14.6412 12.0626 13.3589 12.0626 12.1338 12.3705V11.2041C12.1338 10.9464 11.9249 10.7376 11.6672 10.7376C11.4096 10.7376 11.2007 10.9464 11.2007 11.2041V12.657C10.7124 12.8421 10.2435 13.075 9.80097 13.3522V11.2042C9.80244 9.65875 11.0549 8.40628 12.6003 8.40475ZM1.86922 6.53849C1.86922 4.73473 3.33148 3.27253 5.13518 3.27253C6.93889 3.27253 8.40115 4.73478 8.40115 6.53849C8.40115 8.3422 6.93889 9.80446 5.13518 9.80446C3.3324 9.80216 1.87152 8.34127 1.86922 6.53849ZM3.26893 20.069C2.66607 20.0669 2.13259 19.6782 1.94571 19.1051C2.71511 18.9594 3.27133 18.2859 3.26893 17.5029V13.5371C3.26893 13.2794 3.06001 13.0705 2.80238 13.0705C2.54474 13.0705 2.33582 13.2795 2.33582 13.5371V17.5029C2.33582 17.8894 2.02248 18.2028 1.63597 18.2028C1.24947 18.2028 0.936117 17.8894 0.936117 17.5029V13.5371C0.937648 11.9917 2.19011 10.7392 3.73553 10.7377H6.53495C7.47685 10.7341 8.35588 11.21 8.86781 12.0007V14.0326C8.53139 14.3182 8.21924 14.6313 7.93465 14.9686V13.5371C7.93465 13.2795 7.72574 13.0706 7.4681 13.0706C7.21047 13.0706 7.00155 13.2795 7.00155 13.5371V16.3445C6.38809 17.4901 6.06752 18.7696 6.0684 20.0691H3.26893V20.069ZM14 27.0676C10.1349 27.0676 7.0015 23.9342 7.0015 20.069C7.0015 16.2039 10.1349 13.0705 14 13.0705C17.8652 13.0705 20.9986 16.2039 20.9986 20.069C20.9942 23.9324 17.8634 27.0632 14 27.0676ZM27.064 17.5028C27.064 17.8894 26.7506 18.2027 26.3641 18.2027C25.9776 18.2027 25.6642 17.8894 25.6642 17.5028V13.537C25.6642 13.2793 25.4553 13.0705 25.1977 13.0705C24.9401 13.0705 24.7311 13.2794 24.7311 13.537V17.5028C24.7287 18.2859 25.285 18.9594 26.0544 19.105C25.8675 19.6782 25.334 20.0668 24.7311 20.069H21.9317C21.9326 18.7695 21.612 17.4899 20.9986 16.3443V13.537C20.9986 13.2793 20.7897 13.0704 20.532 13.0704C20.2743 13.0704 20.0655 13.2793 20.0655 13.537V14.9684C19.7809 14.6311 19.4688 14.318 19.1323 14.0325V12.0005C19.6442 11.2099 20.5233 10.734 21.4652 10.7375H24.2646C25.81 10.739 27.0625 11.9915 27.064 13.5369V17.5028H27.064Z" fill-opacity="0.75"/>
<path d="M14.6406 14.0573C13.5753 13.8736 12.4826 14.1602 11.6445 14.843C10.8065 15.5259 10.3051 16.5381 10.2698 17.6186C10.2281 18.3416 10.7294 18.9832 11.4409 19.1178C11.8463 19.1842 12.2605 19.0691 12.5735 18.8031C12.8866 18.5371 13.0669 18.147 13.0669 17.7363C13.0643 17.2574 13.4247 16.8543 13.9008 16.8034C14.377 16.7525 14.8143 17.0703 14.9131 17.5389C14.9675 17.7899 14.9162 18.0522 14.771 18.2642C14.6259 18.4761 14.3998 18.6188 14.146 18.6586C13.2626 18.829 12.6183 19.5937 12.6003 20.4932V20.9523C12.5915 21.6487 13.0828 22.2515 13.7667 22.3833C13.8438 22.3957 13.9218 22.4019 14 22.4019C14.6964 22.4031 15.2877 21.8921 15.3875 21.2028C16.9398 20.5843 17.8918 19.0095 17.7182 17.3476C17.5446 15.6857 16.2876 14.3417 14.641 14.0574H14.6406V14.0573ZM14.7997 20.4194C14.6021 20.4784 14.4666 20.6602 14.4666 20.8664V21.0022C14.4666 21.1402 14.4056 21.2712 14.2998 21.3599C14.194 21.4486 14.0543 21.4859 13.9184 21.4617C13.6854 21.4047 13.5246 21.1919 13.5335 20.9522V20.4931C13.5483 20.0519 13.8595 19.6765 14.2903 19.58C15.1884 19.44 15.855 18.6731 15.8687 17.7642C15.8824 16.8554 15.2393 16.0688 14.3458 15.9017C14.2327 15.8807 14.1179 15.8701 14.0029 15.8699C13.5074 15.8692 13.032 16.0655 12.6814 16.4156C12.3308 16.7656 12.1338 17.2407 12.1338 17.7362C12.1338 17.8731 12.0738 18.003 11.9695 18.0917C11.8634 18.1808 11.7236 18.219 11.587 18.1962C11.3401 18.1345 11.1757 17.9012 11.2006 17.648C11.2458 16.2184 12.3614 15.0528 13.7877 14.945C15.2139 14.8373 16.492 15.8219 16.7516 17.2285C17.0111 18.635 16.1686 20.0111 14.7979 20.4194H14.7997V20.4194Z" fill-opacity="0.75"/>
</svg>
