<svg width="28" height="28" viewBox="0 0 28 28" fill="none" xmlns="http://www.w3.org/2000/svg">
<g clip-path="url(#clip0_32_822)">
<path d="M21 0H16.3333V1.16667C16.3333 1.78551 16.0875 2.379 15.6499 2.81658C15.2123 3.25417 14.6188 3.5 14 3.5C13.3812 3.5 12.7877 3.25417 12.3501 2.81658C11.9125 2.379 11.6667 1.78551 11.6667 1.16667V0H7C6.07174 0 5.1815 0.368749 4.52513 1.02513C3.86875 1.6815 3.5 2.57174 3.5 3.5V28H11.6667V26.8333C11.6667 26.2145 11.9125 25.621 12.3501 25.1834C12.7877 24.7458 13.3812 24.5 14 24.5C14.6188 24.5 15.2123 24.7458 15.6499 25.1834C16.0875 25.621 16.3333 26.2145 16.3333 26.8333V28H24.5V3.5C24.5 2.57174 24.1313 1.6815 23.4749 1.02513C22.8185 0.368749 21.9283 0 21 0V0ZM18.5197 25.6667C18.2618 24.6639 17.6778 23.7753 16.8596 23.1409C16.0414 22.5064 15.0354 22.1621 14 22.1621C12.9646 22.1621 11.9586 22.5064 11.1404 23.1409C10.3222 23.7753 9.73816 24.6639 9.48033 25.6667H5.83333V19.8333H9.33333V17.5H5.83333V3.5C5.83333 3.19058 5.95625 2.89383 6.17504 2.67504C6.39383 2.45625 6.69058 2.33333 7 2.33333H9.48033C9.73816 3.33611 10.3222 4.22467 11.1404 4.85914C11.9586 5.4936 12.9646 5.83794 14 5.83794C15.0354 5.83794 16.0414 5.4936 16.8596 4.85914C17.6778 4.22467 18.2618 3.33611 18.5197 2.33333H21C21.3094 2.33333 21.6062 2.45625 21.825 2.67504C22.0438 2.89383 22.1667 3.19058 22.1667 3.5V17.5H18.6667V19.8333H22.1667V25.6667H18.5197Z" fill=""/>
<path d="M16.3334 17.5H11.6667V19.8333H16.3334V17.5Z" fill=""/>
</g>
<defs>
<clipPath id="clip0_32_822">
<rect width="28" height="28" fill="white"/>
</clipPath>
</defs>
</svg>
