<svg width="16" height="14" viewBox="0 0 16 14" fill="none" xmlns="http://www.w3.org/2000/svg">
<path d="M14.6667 6.23336V4.60003C14.667 4.4196 14.6316 4.2409 14.5627 4.07416C14.4938 3.90742 14.3926 3.75592 14.265 3.62835C14.1375 3.50077 13.986 3.39962 13.8192 3.3307C13.6525 3.26177 13.4738 3.22643 13.2934 3.22669H12.4L5.10002 0.186694C4.9759 0.134268 4.84254 0.107192 4.7078 0.107056C4.57306 0.106921 4.43965 0.13373 4.31542 0.185906C4.1912 0.238082 4.07865 0.314572 3.98442 0.410878C3.89018 0.507184 3.81615 0.621361 3.76669 0.746694L2.77335 3.22669H2.04002C1.8596 3.22643 1.6809 3.26177 1.51416 3.3307C1.34742 3.39962 1.19592 3.50077 1.06834 3.62835C0.940763 3.75592 0.839614 3.90742 0.770691 4.07416C0.701768 4.2409 0.666425 4.4196 0.666688 4.60003V12.52C0.666425 12.7004 0.701768 12.8792 0.770691 13.0459C0.839614 13.2126 0.940763 13.3641 1.06834 13.4917C1.19592 13.6193 1.34742 13.7204 1.51416 13.7894C1.6809 13.8583 1.8596 13.8936 2.04002 13.8934H13.2934C13.4738 13.8936 13.6525 13.8583 13.8192 13.7894C13.986 13.7204 14.1375 13.6193 14.265 13.4917C14.3926 13.3641 14.4938 13.2126 14.5627 13.0459C14.6316 12.8792 14.667 12.7004 14.6667 12.52V10.8867C14.845 10.8805 15.014 10.8055 15.1382 10.6775C15.2625 10.5495 15.3324 10.3784 15.3334 10.2V6.92003C15.3324 6.74163 15.2625 6.57051 15.1382 6.44251C15.014 6.31451 14.845 6.23956 14.6667 6.23336ZM4.38669 0.993361C4.40268 0.949945 4.42754 0.910334 4.45967 0.877049C4.49181 0.843764 4.53053 0.817533 4.57336 0.800027C4.65913 0.766753 4.75425 0.766753 4.84002 0.800027L10.6667 3.22669H9.05335L5.10669 1.91336C5.02527 1.88502 4.93603 1.88932 4.85772 1.92537C4.77941 1.96142 4.71811 2.02641 4.68669 2.10669L4.25336 3.22669H3.49336L4.38669 0.993361ZM6.94669 3.22669H4.97335L5.19336 2.64669L6.94669 3.22669ZM14 12.52C13.9998 12.7074 13.9253 12.887 13.7928 13.0195C13.6604 13.152 13.4807 13.2265 13.2934 13.2267H2.04002C1.85266 13.2265 1.67302 13.152 1.54053 13.0195C1.40804 12.887 1.33353 12.7074 1.33336 12.52V4.60003C1.33458 4.41298 1.40942 4.23395 1.54168 4.10169C1.67395 3.96943 1.85298 3.89458 2.04002 3.89336H13.2934C13.4804 3.89458 13.6594 3.96943 13.7917 4.10169C13.924 4.23395 13.9988 4.41298 14 4.60003V6.22669H11C10.3812 6.22669 9.78769 6.47253 9.35011 6.91011C8.91252 7.3477 8.66669 7.94119 8.66669 8.56003C8.66669 9.17887 8.91252 9.77236 9.35011 10.2099C9.78769 10.6475 10.3812 10.8934 11 10.8934H14V12.52ZM14.6667 10.2C14.6662 10.2069 14.6633 10.2135 14.6584 10.2184C14.6535 10.2233 14.6469 10.2262 14.64 10.2267H11C10.558 10.2267 10.1341 10.0511 9.82151 9.73854C9.50895 9.42598 9.33335 9.00205 9.33335 8.56003C9.33335 8.118 9.50895 7.69408 9.82151 7.38152C10.1341 7.06895 10.558 6.89336 11 6.89336L14.6667 6.92003V10.2Z" fill="#555555"/>
<path d="M11 7.56006C10.8022 7.56006 10.6089 7.61871 10.4444 7.72859C10.28 7.83847 10.1518 7.99465 10.0761 8.17738C10.0004 8.3601 9.98063 8.56117 10.0192 8.75515C10.0578 8.94913 10.153 9.12731 10.2929 9.26717C10.4327 9.40702 10.6109 9.50226 10.8049 9.54084C10.9989 9.57943 11.2 9.55963 11.3827 9.48394C11.5654 9.40825 11.7216 9.28008 11.8315 9.11563C11.9414 8.95118 12 8.75784 12 8.56006C12 8.29484 11.8946 8.04049 11.7071 7.85295C11.5196 7.66542 11.2652 7.56006 11 7.56006ZM11 8.89339C10.9341 8.89339 10.8696 8.87384 10.8148 8.83721C10.76 8.80059 10.7173 8.74853 10.692 8.68762C10.6668 8.62671 10.6602 8.55969 10.6731 8.49503C10.6859 8.43037 10.7177 8.37097 10.7643 8.32436C10.8109 8.27774 10.8703 8.24599 10.935 8.23313C10.9996 8.22027 11.0667 8.22687 11.1276 8.2521C11.1885 8.27733 11.2405 8.32005 11.2772 8.37487C11.3138 8.42968 11.3333 8.49413 11.3333 8.56006C11.3333 8.64846 11.2982 8.73325 11.2357 8.79576C11.1732 8.85827 11.0884 8.89339 11 8.89339Z" fill="#555555"/>
<path d="M4.66669 5.56002C4.66669 5.64842 4.63157 5.73321 4.56906 5.79572C4.50654 5.85823 4.42176 5.89335 4.33335 5.89335H3.00002C2.91161 5.89335 2.82683 5.85823 2.76432 5.79572C2.70181 5.73321 2.66669 5.64842 2.66669 5.56002C2.66669 5.47161 2.70181 5.38683 2.76432 5.32432C2.82683 5.2618 2.91161 5.22668 3.00002 5.22668H4.33335C4.42176 5.22668 4.50654 5.2618 4.56906 5.32432C4.63157 5.38683 4.66669 5.47161 4.66669 5.56002Z" fill="#555555"/>
<path d="M6.00002 6.89339C6.00002 6.9818 5.9649 7.06658 5.90239 7.12909C5.83988 7.19161 5.75509 7.22673 5.66669 7.22673H3.00002C2.91161 7.22673 2.82683 7.19161 2.76432 7.12909C2.70181 7.06658 2.66669 6.9818 2.66669 6.89339C2.66669 6.80499 2.70181 6.7202 2.76432 6.65769C2.82683 6.59518 2.91161 6.56006 3.00002 6.56006H5.66669C5.75509 6.56006 5.83988 6.59518 5.90239 6.65769C5.9649 6.7202 6.00002 6.80499 6.00002 6.89339Z" fill="#555555"/>
</svg>
