<svg width="30" height="30" viewBox="0 0 30 30" fill="none" xmlns="http://www.w3.org/2000/svg">
<path d="M1.79998 8.39876V1.79876H8.39998C9.19438 1.79876 9.19318 0.598755 8.39998 0.598755H1.19998C0.868776 0.598755 0.599976 0.867555 0.599976 1.19875V8.39876C0.599976 9.19316 1.79998 9.19196 1.79998 8.39876Z" fill=""/>
<path d="M8.39998 28.2012H1.79998V21.6012C1.79998 20.8068 0.599976 20.808 0.599976 21.6012V28.8012C0.599976 29.1324 0.868776 29.4012 1.19998 29.4012H8.39998C9.19438 29.4012 9.19318 28.2012 8.39998 28.2012Z" fill=""/>
<path d="M29.4 1.19875C29.4 0.867555 29.1312 0.598755 28.8 0.598755H21.6C20.8056 0.598755 20.8068 1.79876 21.6 1.79876H28.2V8.39876C28.2 9.19316 29.4 9.19196 29.4 8.39876V1.19875Z" fill=""/>
<path d="M28.2 21.6012V28.2012H21.6C20.8056 28.2012 20.8068 29.4012 21.6 29.4012H28.8C29.1312 29.4012 29.4 29.1324 29.4 28.8012V21.6012C29.4 20.8068 28.2 20.808 28.2 21.6012Z" fill=""/>
<path d="M6.59998 8.39875C6.59998 8.72995 6.86878 8.99875 7.19998 8.99875H8.39998C8.73118 8.99875 8.99998 8.72995 8.99998 8.39875V7.19875C8.99998 6.86755 8.73118 6.59875 8.39998 6.59875H7.19998C6.86878 6.59875 6.59998 6.86755 6.59998 7.19875V8.39875Z" fill=""/>
<path d="M4.79995 4.19873C4.46875 4.19873 4.19995 4.46753 4.19995 4.79873V10.7987C4.19995 11.1299 4.46875 11.3987 4.79995 11.3987H10.8C11.1312 11.3987 11.4 11.1299 11.4 10.7987V4.79873C11.4 4.46753 11.1312 4.19873 10.8 4.19873H4.79995ZM5.39995 5.39873H10.2V10.1987H5.39995V5.39873Z" fill=""/>
<path d="M8.99998 21.5988C8.99998 21.2676 8.73118 20.9988 8.39998 20.9988H7.19998C6.86878 20.9988 6.59998 21.2676 6.59998 21.5988V22.7988C6.59998 23.13 6.86878 23.3988 7.19998 23.3988H8.39998C8.73118 23.3988 8.99998 23.13 8.99998 22.7988V21.5988Z" fill=""/>
<path d="M11.4 19.1988C11.4 18.8676 11.1312 18.5988 10.8 18.5988H4.79995C4.46875 18.5988 4.19995 18.8676 4.19995 19.1988V25.1988C4.19995 25.53 4.46875 25.7988 4.79995 25.7988H10.8C11.1312 25.7988 11.4 25.53 11.4 25.1988V19.1988ZM10.2 24.5988H5.39995V19.7988H10.2V24.5988Z" fill=""/>
<path d="M21 8.39875C21 8.72995 21.2688 8.99875 21.6 8.99875H22.8C23.1312 8.99875 23.4 8.72995 23.4 8.39875V7.19875C23.4 6.86755 23.1312 6.59875 22.8 6.59875H21.6C21.2688 6.59875 21 6.86755 21 7.19875V8.39875Z" fill=""/>
<path d="M18.6 10.7987C18.6 11.1299 18.8688 11.3987 19.2 11.3987H25.2C25.5312 11.3987 25.8 11.1299 25.8 10.7987V4.79873C25.8 4.46753 25.5312 4.19873 25.2 4.19873H19.2C18.8688 4.19873 18.6 4.46753 18.6 4.79873V10.7987ZM19.8 5.39873H24.6V10.1987H19.8V5.39873Z" fill=""/>
<path d="M8.39998 17.3988C8.53078 17.3988 13.3776 17.3988 13.2 17.3988C13.9944 17.3988 13.9932 16.1988 13.2 16.1988H11.4V14.3988C11.4 13.6044 10.2 13.6056 10.2 14.3988V16.1988H8.39998C7.60558 16.1988 7.60678 17.3988 8.39998 17.3988Z" fill=""/>
<path d="M13.8 5.99872V4.79872C13.8 4.00432 12.6 4.00552 12.6 4.79872V5.99872C12.6 6.79312 13.8 6.79192 13.8 5.99872Z" fill=""/>
<path d="M13.2 8.9988H15.6C15.9312 8.9988 16.2 8.73 16.2 8.3988V6.5988H16.8C17.5944 6.5988 17.5932 5.3988 16.8 5.3988H15.6C15.2688 5.3988 15 5.6676 15 5.9988V7.7988H13.2C12.4056 7.7988 12.4068 8.9988 13.2 8.9988Z" fill=""/>
<path d="M13.2 14.9987H15.6C16.3944 14.9987 16.3932 13.7987 15.6 13.7987H15V11.3987H16.8C17.5944 11.3987 17.5932 10.1987 16.8 10.1987H14.4C14.0688 10.1987 13.8 10.4675 13.8 10.7987V13.7987H13.2C12.4056 13.7987 12.4068 14.9987 13.2 14.9987Z" fill=""/>
<path d="M17.4 14.3987C17.4 15.1931 18.6 15.1919 18.6 14.3987V13.1987C18.6 12.4043 17.4 12.4055 17.4 13.1987V14.3987Z" fill=""/>
<path d="M13.8 20.9988H15V21.5988C15 22.3932 16.2 22.392 16.2 21.5988V17.9988C16.2 17.2044 15 17.2056 15 17.9988V19.7988H13.2C12.8688 19.7988 12.6 20.0676 12.6 20.3988V21.5988C12.6 22.3932 13.8 22.392 13.8 21.5988V20.9988Z" fill=""/>
<path d="M18.6 21.5988V22.1988H18C17.6688 22.1988 17.4 22.4676 17.4 22.7988V24.5988H14.4C13.6056 24.5988 13.6068 25.7988 14.4 25.7988H18C18.3312 25.7988 18.6 25.53 18.6 25.1988V23.3988H19.2C19.5312 23.3988 19.8 23.13 19.8 22.7988V21.5988C19.8 20.8044 18.6 20.8056 18.6 21.5988Z" fill=""/>
<path d="M22.2 22.7987V24.5987H21.6C20.8056 24.5987 20.8068 25.7987 21.6 25.7987H25.2C25.9944 25.7987 25.9932 24.5987 25.2 24.5987H23.4V22.7987C23.4 22.0043 22.2 22.0055 22.2 22.7987Z" fill=""/>
<path d="M25.8 19.1988C25.8 18.8676 25.5312 18.5988 25.2 18.5988H21.6C20.8056 18.5988 20.8068 19.7988 21.6 19.7988H24.6V21.6012C24.6 22.3956 25.8 22.3944 25.8 21.6012V19.1988Z" fill=""/>
<path d="M25.8 14.3988C25.8 13.6044 24.6 13.6056 24.6 14.3988V16.1988H24C23.2056 16.1988 23.2068 17.3988 24 17.3988H25.2C25.5312 17.3988 25.8 17.13 25.8 16.7988V14.3988Z" fill=""/>
<path d="M22.2 16.7988V13.7988H22.8C23.5944 13.7988 23.5932 12.5988 22.8 12.5988H21.6C21.2688 12.5988 21 12.8676 21 13.1988V16.1988H19.2C18.8688 16.1988 18.6 16.4676 18.6 16.7988V18.5988H18C17.2056 18.5988 17.2068 19.7988 18 19.7988H19.2C19.5312 19.7988 19.8 19.53 19.8 19.1988V17.3988H21.6C21.9312 17.3988 22.2 17.13 22.2 16.7988Z" fill=""/>
<path d="M4.19995 13.1987C4.19995 13.3775 4.19995 16.9727 4.19995 16.7987C4.19995 17.5931 5.39995 17.5919 5.39995 16.7987V14.9987H7.19995C7.99435 14.9987 7.99315 13.7987 7.19995 13.7987H5.39995V13.1987C5.39995 12.4043 4.19995 12.4055 4.19995 13.1987Z" fill=""/>
</svg>
