<svg width="24" height="24" viewBox="0 0 24 24" fill="none" xmlns="http://www.w3.org/2000/svg">
<path d="M3.1999 7.59917V3.19917H7.5999C8.1295 3.19917 8.1287 2.39917 7.5999 2.39917H2.7999C2.5791 2.39917 2.3999 2.57837 2.3999 2.79917V7.59917C2.3999 8.12877 3.1999 8.12797 3.1999 7.59917Z" fill="#232323"/>
<path d="M7.5999 20.8008H3.1999V16.4008C3.1999 15.8712 2.3999 15.872 2.3999 16.4008V21.2008C2.3999 21.4216 2.5791 21.6008 2.7999 21.6008H7.5999C8.1295 21.6008 8.1287 20.8008 7.5999 20.8008Z" fill="#232323"/>
<path d="M21.5998 2.79917C21.5998 2.57837 21.4206 2.39917 21.1998 2.39917H16.3998C15.8702 2.39917 15.871 3.19917 16.3998 3.19917H20.7998V7.59917C20.7998 8.12877 21.5998 8.12797 21.5998 7.59917V2.79917Z" fill="#232323"/>
<path d="M20.7998 16.4008V20.8008H16.3998C15.8702 20.8008 15.871 21.6008 16.3998 21.6008H21.1998C21.4206 21.6008 21.5998 21.4216 21.5998 21.2008V16.4008C21.5998 15.8712 20.7998 15.872 20.7998 16.4008Z" fill="#232323"/>
<path d="M6.3999 7.59917C6.3999 7.81997 6.5791 7.99917 6.7999 7.99917H7.5999C7.8207 7.99917 7.9999 7.81997 7.9999 7.59917V6.79917C7.9999 6.57837 7.8207 6.39917 7.5999 6.39917H6.7999C6.5791 6.39917 6.3999 6.57837 6.3999 6.79917V7.59917Z" fill="#232323"/>
<path d="M5.1998 4.79919C4.979 4.79919 4.7998 4.97839 4.7998 5.19919V9.19919C4.7998 9.41999 4.979 9.59919 5.1998 9.59919H9.19981C9.42061 9.59919 9.59981 9.41999 9.59981 9.19919V5.19919C9.59981 4.97839 9.42061 4.79919 9.19981 4.79919H5.1998ZM5.5998 5.59919H8.79981V8.79919H5.5998V5.59919Z" fill="#232323"/>
<path d="M7.9999 16.3991C7.9999 16.1783 7.8207 15.9991 7.5999 15.9991H6.7999C6.5791 15.9991 6.3999 16.1783 6.3999 16.3991V17.1991C6.3999 17.4199 6.5791 17.5991 6.7999 17.5991H7.5999C7.8207 17.5991 7.9999 17.4199 7.9999 17.1991V16.3991Z" fill="#232323"/>
<path d="M9.59981 14.7992C9.59981 14.5784 9.42061 14.3992 9.19981 14.3992H5.1998C4.979 14.3992 4.7998 14.5784 4.7998 14.7992V18.7992C4.7998 19.02 4.979 19.1992 5.1998 19.1992H9.19981C9.42061 19.1992 9.59981 19.02 9.59981 18.7992V14.7992ZM8.79981 18.3992H5.5998V15.1992H8.79981V18.3992Z" fill="#232323"/>
<path d="M16 7.59917C16 7.81997 16.1792 7.99917 16.4 7.99917H17.2C17.4208 7.99917 17.6 7.81997 17.6 7.59917V6.79917C17.6 6.57837 17.4208 6.39917 17.2 6.39917H16.4C16.1792 6.39917 16 6.57837 16 6.79917V7.59917Z" fill="#232323"/>
<path d="M14 9.4C14 9.6208 14.1792 9.8 14.4 9.8H18.4C18.6208 9.8 18.8 9.6208 18.8 9.4V5.4C18.8 5.1792 18.6208 5 18.4 5H14.4C14.1792 5 14 5.1792 14 5.4V9.4ZM14.8 5.8H18V9H14.8V5.8Z" fill="#232323"/>
<path d="M7.59978 13.5992C7.68698 13.5992 10.9182 13.5992 10.7998 13.5992C11.3294 13.5992 11.3286 12.7992 10.7998 12.7992H9.59978V11.5992C9.59978 11.0696 8.79978 11.0704 8.79978 11.5992V12.7992H7.59978C7.07018 12.7992 7.07098 13.5992 7.59978 13.5992Z" fill="#232323"/>
<path d="M11.1999 5.99915V5.19915C11.1999 4.66955 10.3999 4.67035 10.3999 5.19915V5.99915C10.3999 6.52875 11.1999 6.52795 11.1999 5.99915Z" fill="#232323"/>
<path d="M10.8 7.99912H12.4C12.6208 7.99912 12.8 7.81992 12.8 7.59912V6.39912H13.2C13.7296 6.39912 13.7288 5.59912 13.2 5.59912H12.4C12.1792 5.59912 12 5.77832 12 5.99912V7.19912H10.8C10.2704 7.19912 10.2712 7.99912 10.8 7.99912Z" fill="#232323"/>
<path d="M10.8 11.9992H12.4C12.9296 11.9992 12.9288 11.1992 12.4 11.1992H12V9.59919H13.2C13.7296 9.59919 13.7288 8.79919 13.2 8.79919H11.6C11.3792 8.79919 11.2 8.97839 11.2 9.19919V11.1992H10.8C10.2704 11.1992 10.2712 11.9992 10.8 11.9992Z" fill="#232323"/>
<path d="M13.5999 11.5991C13.5999 12.1287 14.3999 12.1279 14.3999 11.5991V10.7991C14.3999 10.2695 13.5999 10.2703 13.5999 10.7991V11.5991Z" fill="#232323"/>
<path d="M11.1999 15.9992H11.9999V16.3992C11.9999 16.9288 12.7999 16.928 12.7999 16.3992V13.9992C12.7999 13.4696 11.9999 13.4704 11.9999 13.9992V15.1992H10.7999C10.5791 15.1992 10.3999 15.3784 10.3999 15.5992V16.3992C10.3999 16.9288 11.1999 16.928 11.1999 16.3992V15.9992Z" fill="#232323"/>
<path d="M14.3998 16.3992V16.7992H13.9998C13.779 16.7992 13.5998 16.9784 13.5998 17.1992V18.3992H11.5998C11.0702 18.3992 11.071 19.1992 11.5998 19.1992H13.9998C14.2206 19.1992 14.3998 19.02 14.3998 18.7992V17.5992H14.7998C15.0206 17.5992 15.1998 17.42 15.1998 17.1992V16.3992C15.1998 15.8696 14.3998 15.8704 14.3998 16.3992Z" fill="#232323"/>
<path d="M16.7998 17.1991V18.3991H16.3998C15.8702 18.3991 15.871 19.1991 16.3998 19.1991H18.7998C19.3294 19.1991 19.3286 18.3991 18.7998 18.3991H17.5998V17.1991C17.5998 16.6695 16.7998 16.6703 16.7998 17.1991Z" fill="#232323"/>
<path d="M19.1998 14.7992C19.1998 14.5784 19.0206 14.3992 18.7998 14.3992H16.3998C15.8702 14.3992 15.871 15.1992 16.3998 15.1992H18.3998V16.4008C18.3998 16.9304 19.1998 16.9296 19.1998 16.4008V14.7992Z" fill="#232323"/>
<path d="M19.1999 11.5992C19.1999 11.0696 18.3999 11.0704 18.3999 11.5992V12.7992H17.9999C17.4703 12.7992 17.4711 13.5992 17.9999 13.5992H18.7999C19.0207 13.5992 19.1999 13.42 19.1999 13.1992V11.5992Z" fill="#232323"/>
<path d="M16.7999 13.1992V11.1992H17.1999C17.7295 11.1992 17.7287 10.3992 17.1999 10.3992H16.3999C16.1791 10.3992 15.9999 10.5784 15.9999 10.7992V12.7992H14.7999C14.5791 12.7992 14.3999 12.9784 14.3999 13.1992V14.3992H13.9999C13.4703 14.3992 13.4711 15.1992 13.9999 15.1992H14.7999C15.0207 15.1992 15.1999 15.02 15.1999 14.7992V13.5992H16.3999C16.6207 13.5992 16.7999 13.42 16.7999 13.1992Z" fill="#232323"/>
<path d="M4.7998 10.7991C4.7998 10.9183 4.7998 13.3151 4.7998 13.1991C4.7998 13.7287 5.5998 13.7279 5.5998 13.1991V11.9991H6.7998C7.3294 11.9991 7.3286 11.1991 6.7998 11.1991H5.5998V10.7991C5.5998 10.2695 4.7998 10.2703 4.7998 10.7991Z" fill="#232323"/>
</svg>
