<svg width="24" height="24" viewBox="0 0 24 24" fill="none" xmlns="http://www.w3.org/2000/svg">
<path d="M1.73338 6.86574V1.73241H6.86672C7.48458 1.73241 7.48365 0.799072 6.86672 0.799072H1.26672C1.00912 0.799072 0.800049 1.00814 0.800049 1.26574V6.86574C0.800049 7.48361 1.73338 7.48267 1.73338 6.86574Z" fill="white"/>
<path d="M6.86672 22.2676H1.73338V17.1343C1.73338 16.5164 0.800049 16.5174 0.800049 17.1343V22.7343C0.800049 22.9919 1.00912 23.201 1.26672 23.201H6.86672C7.48458 23.201 7.48365 22.2676 6.86672 22.2676Z" fill="white"/>
<path d="M23.2 1.26574C23.2 1.00814 22.9909 0.799072 22.7333 0.799072H17.1333C16.5155 0.799072 16.5164 1.73241 17.1333 1.73241H22.2667V6.86574C22.2667 7.48361 23.2 7.48267 23.2 6.86574V1.26574Z" fill="white"/>
<path d="M22.2667 17.1343V22.2676H17.1333C16.5155 22.2676 16.5164 23.201 17.1333 23.201H22.7333C22.9909 23.201 23.2 22.9919 23.2 22.7343V17.1343C23.2 16.5164 22.2667 16.5174 22.2667 17.1343Z" fill="white"/>
<path d="M5.46667 6.8657C5.46667 7.1233 5.67574 7.33236 5.93334 7.33236H6.86667C7.12427 7.33236 7.33334 7.1233 7.33334 6.8657V5.93236C7.33334 5.67476 7.12427 5.4657 6.86667 5.4657H5.93334C5.67574 5.4657 5.46667 5.67476 5.46667 5.93236V6.8657Z" fill="white"/>
<path d="M4.06676 3.59912C3.80916 3.59912 3.6001 3.80819 3.6001 4.06579V8.73245C3.6001 8.99005 3.80916 9.19912 4.06676 9.19912H8.73343C8.99103 9.19912 9.2001 8.99005 9.2001 8.73245V4.06579C9.2001 3.80819 8.99103 3.59912 8.73343 3.59912H4.06676ZM4.53343 4.53245H8.26676V8.26579H4.53343V4.53245Z" fill="white"/>
<path d="M7.33334 17.1324C7.33334 16.8748 7.12427 16.6658 6.86667 16.6658H5.93334C5.67574 16.6658 5.46667 16.8748 5.46667 17.1324V18.0658C5.46667 18.3234 5.67574 18.5324 5.93334 18.5324H6.86667C7.12427 18.5324 7.33334 18.3234 7.33334 18.0658V17.1324Z" fill="white"/>
<path d="M9.2001 15.2657C9.2001 15.0081 8.99103 14.7991 8.73343 14.7991H4.06676C3.80916 14.7991 3.6001 15.0081 3.6001 15.2657V19.9324C3.6001 20.19 3.80916 20.3991 4.06676 20.3991H8.73343C8.99103 20.3991 9.2001 20.19 9.2001 19.9324V15.2657ZM8.26676 19.4657H4.53343V15.7324H8.26676V19.4657Z" fill="white"/>
<path d="M16.6667 6.8657C16.6667 7.1233 16.8758 7.33236 17.1334 7.33236H18.0667C18.3243 7.33236 18.5334 7.1233 18.5334 6.8657V5.93236C18.5334 5.67476 18.3243 5.4657 18.0667 5.4657H17.1334C16.8758 5.4657 16.6667 5.67476 16.6667 5.93236V6.8657Z" fill="white"/>
<path d="M14.8 8.73245C14.8 8.99005 15.0091 9.19912 15.2667 9.19912H19.9334C20.191 9.19912 20.4 8.99005 20.4 8.73245V4.06579C20.4 3.80819 20.191 3.59912 19.9334 3.59912H15.2667C15.0091 3.59912 14.8 3.80819 14.8 4.06579V8.73245ZM15.7334 4.53245H19.4667V8.26579H15.7334V4.53245Z" fill="white"/>
<path d="M6.86674 13.8657C6.96847 13.8657 10.7382 13.8657 10.6001 13.8657C11.2179 13.8657 11.217 12.9324 10.6001 12.9324H9.20007V11.5324C9.20007 10.9145 8.26674 10.9155 8.26674 11.5324V12.9324H6.86674C6.24887 12.9324 6.2498 13.8657 6.86674 13.8657Z" fill="white"/>
<path d="M11.0668 4.99904V4.06571C11.0668 3.44784 10.1334 3.44878 10.1334 4.06571V4.99904C10.1334 5.61691 11.0668 5.61598 11.0668 4.99904Z" fill="white"/>
<path d="M10.6 7.33235H12.4667C12.7243 7.33235 12.9333 7.12328 12.9333 6.86568V5.46568H13.4C14.0179 5.46568 14.0169 4.53235 13.4 4.53235H12.4667C12.2091 4.53235 12 4.74142 12 4.99902V6.39901H10.6C9.98215 6.39901 9.98308 7.33235 10.6 7.33235Z" fill="white"/>
<path d="M10.6 11.9991H12.4667C13.0845 11.9991 13.0836 11.0657 12.4667 11.0657H12V9.19908H13.4C14.0179 9.19908 14.0169 8.26575 13.4 8.26575H11.5333C11.2757 8.26575 11.0667 8.47481 11.0667 8.73241V11.0657H10.6C9.98215 11.0657 9.98308 11.9991 10.6 11.9991Z" fill="white"/>
<path d="M13.8667 11.5324C13.8667 12.1502 14.8 12.1493 14.8 11.5324V10.599C14.8 9.98117 13.8667 9.9821 13.8667 10.599V11.5324Z" fill="white"/>
<path d="M11.0668 16.6658H12.0001V17.1324C12.0001 17.7503 12.9334 17.7494 12.9334 17.1324V14.3324C12.9334 13.7146 12.0001 13.7155 12.0001 14.3324V15.7324H10.6001C10.3425 15.7324 10.1334 15.9415 10.1334 16.1991V17.1324C10.1334 17.7503 11.0668 17.7494 11.0668 17.1324V16.6658Z" fill="white"/>
<path d="M14.8 17.1324V17.599H14.3334C14.0758 17.599 13.8667 17.8081 13.8667 18.0657V19.4657H11.5334C10.9155 19.4657 10.9164 20.399 11.5334 20.399H14.3334C14.591 20.399 14.8 20.19 14.8 19.9324V18.5324H15.2667C15.5243 18.5324 15.7334 18.3233 15.7334 18.0657V17.1324C15.7334 16.5145 14.8 16.5154 14.8 17.1324Z" fill="white"/>
<path d="M17.6 18.0657V19.4657H17.1333C16.5155 19.4657 16.5164 20.399 17.1333 20.399H19.9333C20.5512 20.399 20.5503 19.4657 19.9333 19.4657H18.5333V18.0657C18.5333 17.4478 17.6 17.4488 17.6 18.0657Z" fill="white"/>
<path d="M20.4 15.2657C20.4 15.0081 20.1909 14.7991 19.9333 14.7991H17.1333C16.5155 14.7991 16.5164 15.7324 17.1333 15.7324H19.4667V17.1343C19.4667 17.7521 20.4 17.7512 20.4 17.1343V15.2657Z" fill="white"/>
<path d="M20.4 11.5324C20.4 10.9145 19.4667 10.9155 19.4667 11.5324V12.9324H19C18.3822 12.9324 18.3831 13.8657 19 13.8657H19.9334C20.191 13.8657 20.4 13.6567 20.4 13.3991V11.5324Z" fill="white"/>
<path d="M17.6001 13.3991V11.0658H18.0667C18.6846 11.0658 18.6837 10.1324 18.0667 10.1324H17.1334C16.8758 10.1324 16.6667 10.3415 16.6667 10.5991V12.9324H15.2667C15.0091 12.9324 14.8001 13.1415 14.8001 13.3991V14.7991H14.3334C13.7155 14.7991 13.7165 15.7324 14.3334 15.7324H15.2667C15.5243 15.7324 15.7334 15.5234 15.7334 15.2658V13.8658H17.1334C17.391 13.8658 17.6001 13.6567 17.6001 13.3991Z" fill="white"/>
<path d="M3.6001 10.599C3.6001 10.7381 3.6001 13.5344 3.6001 13.399C3.6001 14.0169 4.53343 14.016 4.53343 13.399V11.999H5.93343C6.5513 11.999 6.55036 11.0657 5.93343 11.0657H4.53343V10.599C4.53343 9.98117 3.6001 9.9821 3.6001 10.599Z" fill="white"/>
</svg>
