<svg width="34" height="34" viewBox="0 0 34 34" fill="none" xmlns="http://www.w3.org/2000/svg">
<g clip-path="url(#clip0_147_1589)">
<path d="M33.791 22.936C33.791 18.7687 31.4003 15.0495 27.8198 13.2404C27.7086 21.2306 21.2306 27.7087 13.2404 27.8198C15.0495 31.4004 18.7686 33.7911 22.9359 33.7911C24.8898 33.7911 26.7898 33.2707 28.4593 32.282L33.7436 33.7437L32.282 28.4594C33.2707 26.7899 33.791 24.8898 33.791 22.936Z" fill="white"/>
<path d="M25.8547 13.0318C25.8547 5.96118 20.1025 0.208984 13.0318 0.208984C5.96118 0.208984 0.208984 5.96118 0.208984 13.0318C0.208984 15.3362 0.822354 17.5798 1.98709 19.5496L0.256127 25.8073L6.51408 24.0766C8.48383 25.2413 10.7275 25.8547 13.0318 25.8547C20.1025 25.8547 25.8547 20.1025 25.8547 13.0318ZM11.0641 10.0475H9.09643C9.09643 7.87738 10.8617 6.11209 13.0318 6.11209C15.2019 6.11209 16.9672 7.87738 16.9672 10.0475C16.9672 11.1489 16.5009 12.2076 15.6875 12.9516L14.0157 14.4817V16.0162H12.048V13.6152L14.359 11.4999C14.772 11.122 14.9995 10.6063 14.9995 10.0475C14.9995 8.96243 14.1169 8.07979 13.0318 8.07979C11.9468 8.07979 11.0641 8.96243 11.0641 10.0475ZM12.048 17.9839H14.0157V19.9516H12.048V17.9839Z" fill="white"/>
</g>
<defs>
<clipPath id="clip0_147_1589">
<rect width="33.5821" height="33.5821" fill="white" transform="translate(0.208984 0.208984)"/>
</clipPath>
</defs>
</svg>
