<svg width="40" height="40" viewBox="0 0 35 35" fill="" xmlns="http://www.w3.org/2000/svg">
<path d="M6.23438 6.23446C5.70938 6.73758 5.6875 6.86883 5.6875 9.60321C5.6875 12.622 5.88438 13.4532 6.65 13.6501C7.48125 13.8688 12.425 13.7813 12.9938 13.5407C13.6938 13.2126 13.7813 12.8407 13.7813 9.55946C13.7813 6.86883 13.7594 6.73758 13.2344 6.23446C12.7313 5.70946 12.6 5.68758 9.73438 5.68758C6.86875 5.68758 6.7375 5.70946 6.23438 6.23446ZM12.3594 9.73446V12.3595H9.73438H7.10938L7.04375 9.66883L6.97813 6.97821L9.66875 7.04383L12.3594 7.10946V9.73446Z" fill=""/>
<path d="M8.75 9.73438V10.7188H9.73437H10.7187V9.73438V8.75H9.73437H8.75V9.73438Z" fill=""/>
<path d="M17.5 7V8.3125H16.1875H15.1808V11.0309L15.1808 13H17.5H20.125V12.3594V10.9375H18.8125H17.5V9.73437V8.53125H18.8125H20.125V7.10937V5.6875H18.8125H17.5V7Z" fill=""/>
<path d="M21.7656 6.23446C21.2406 6.73758 21.2188 6.86883 21.2188 9.60321C21.2188 12.622 21.4156 13.4532 22.1813 13.6501C23.0125 13.8688 27.9563 13.7813 28.525 13.5407C29.225 13.2126 29.3125 12.8407 29.3125 9.55946C29.3125 6.86883 29.2906 6.73758 28.7656 6.23446C28.2625 5.70946 28.1313 5.68758 25.2656 5.68758C22.4 5.68758 22.2688 5.70946 21.7656 6.23446ZM28 9.73446V12.4907L25.3313 12.4251L22.6406 12.3595L22.575 9.97508C22.5531 8.64071 22.575 7.43758 22.6188 7.28446C22.7063 7.06571 23.4063 7.00008 25.375 7.00008H28V9.73446Z" fill=""/>
<path d="M24.2812 9.73438V10.7188H25.2656H26.25V9.73438V8.75H25.2656H24.2812V9.73438Z" fill=""/>
<path d="M5.6875 16.1875V17.5H7H8.3125V18.8125V20.125H9.73438H11.1563V18.8125V17.5H12.4688H13.7813V18.8125V20.125H15.0938H16V17.5V15.5H13.7813H11L10.9375 16.1875V17.5H9.73438H8.53125V16.1875V14.875H7.10938H5.6875V16.1875Z" fill=""/>
<path d="M6.21249 21.7656C5.66561 22.3125 5.66561 22.3562 5.73124 25.4844C5.77499 27.6937 5.88436 28.7219 6.08124 28.9187C6.49686 29.3344 13.1906 29.3344 13.6062 28.9187C13.8031 28.7219 13.9125 27.6937 13.9562 25.4844C14.0219 22.3562 14.0219 22.3125 13.475 21.7656C12.95 21.2406 12.8406 21.2187 9.84374 21.2187C6.84686 21.2187 6.73749 21.2406 6.21249 21.7656ZM12.6437 25.3094L12.7094 28H9.84374H6.99999V25.4187C6.99999 23.9969 7.06561 22.75 7.15311 22.6625C7.24061 22.5969 8.48749 22.5531 9.93124 22.575L12.5781 22.6406L12.6437 25.3094Z" fill=""/>
<path d="M8.96875 25.025V26.0312H9.975H10.9594L10.8938 25.0906C10.8281 24.1719 10.8281 24.1719 9.90938 24.1062L8.96875 24.0406V25.025Z" fill=""/>
<path d="M19 24.0452C19 21.2555 21.2353 19 24 19C26.7647 19 29 21.2555 29 24.0452C29 26.8349 26.7647 29.0904 24 29.0904C21.2353 29.0904 19 26.8349 19 24.0452ZM28.4118 24.0452C28.4118 21.5819 26.4412 19.5936 24 19.5936C21.5588 19.5936 19.5882 21.5819 19.5882 24.0452C19.5882 26.5084 21.5588 28.4968 24 28.4968C26.4412 28.4968 28.4118 26.5084 28.4118 24.0452Z" fill=""/>
<path d="M21.147 23.9565L21.5587 23.541L23.9999 26.0043L26.4411 23.541L26.8528 23.9565L23.9999 26.8352L21.147 23.9565Z" fill=""/>
<path d="M24.2941 21.374L24.2941 26.4192L23.7058 26.4192L23.7058 21.374L24.2941 21.374Z" fill=""/>
</svg>
