<?xml version="1.0" standalone="no"?>
<!DOCTYPE svg PUBLIC "-//W3C//DTD SVG 20010904//EN"
 "http://www.w3.org/TR/2001/REC-SVG-20010904/DTD/svg10.dtd">
<svg version="1.0" xmlns="http://www.w3.org/2000/svg"
 width="28.000000pt" height="28.000000pt" viewBox="0 0 512.000000 512.000000"
 preserveAspectRatio="xMidYMid meet">

<g transform="translate(0.000000,512.000000) scale(0.100000,-0.100000)"
fill="" stroke="none">
<path d="M1682 5101 c-29 -10 -70 -32 -90 -48 -46 -37 -99 -113 -112 -163 -7
-26 -10 -296 -8 -797 l3 -758 23 -43 c35 -66 88 -119 150 -149 l57 -28 883 -3
882 -2 0 -283 c0 -323 2 -333 81 -375 52 -28 97 -25 209 13 121 41 197 90 295
189 101 101 156 194 196 326 21 71 23 97 27 449 2 269 0 381 -8 401 -22 54
-103 61 -129 11 -7 -13 -11 -139 -11 -361 0 -387 -7 -445 -68 -570 -71 -145
-229 -274 -385 -314 l-52 -13 -5 288 c-6 317 -4 312 -74 363 -27 21 -38 21
-919 26 -991 6 -928 1 -979 72 l-23 33 0 752 c0 743 0 752 21 780 11 15 40 38
64 51 l44 22 1118 0 c928 0 1124 -2 1151 -14 39 -16 82 -61 96 -99 7 -18 11
-156 11 -381 0 -341 1 -353 20 -374 30 -32 82 -30 110 5 21 26 21 33 18 397
l-3 371 -26 56 c-32 68 -82 120 -152 157 l-52 27 -1155 2 c-1099 2 -1158 2
-1208 -16z"/>
<path d="M2715 4717 c-56 -15 -85 -29 -132 -64 -36 -28 -73 -96 -73 -136 0
-37 38 -77 81 -83 34 -6 39 -3 79 44 45 54 80 72 142 72 82 0 138 -44 138
-109 0 -45 -27 -82 -114 -156 -88 -76 -115 -127 -123 -226 -5 -66 -3 -77 17
-101 18 -23 29 -28 66 -28 62 0 94 32 94 94 0 70 15 95 114 191 112 108 140
159 141 255 0 108 -60 187 -176 231 -65 25 -188 33 -254 16z"/>
<path d="M2734 3802 c-63 -40 -70 -130 -14 -187 82 -81 226 10 190 120 -24 73
-112 107 -176 67z"/>
<path d="M4303 2420 c-59 -12 -113 -42 -156 -87 -20 -21 -135 -180 -255 -353
l-219 -315 -64 3 c-35 2 -65 5 -67 7 -1 1 9 24 23 51 70 137 48 292 -58 398
-80 79 -84 80 -715 177 -318 49 -600 89 -629 89 -146 0 -227 -39 -558 -273
l-260 -184 -34 39 c-18 21 -46 45 -63 54 -37 19 -119 20 -156 1 -64 -31 -846
-594 -870 -625 -37 -48 -43 -137 -13 -188 27 -46 787 -1121 815 -1153 27 -31
92 -61 134 -61 18 0 49 7 68 15 37 15 797 548 848 594 36 33 65 96 66 142 0
20 -11 57 -24 82 l-24 45 67 30 c178 80 351 114 596 116 193 2 220 8 231 51 9
36 -3 73 -29 86 -30 17 -346 17 -454 0 -151 -22 -347 -82 -462 -140 l-39 -21
-282 398 c-154 218 -281 402 -281 407 -1 12 500 367 559 396 23 11 71 26 107
32 61 10 100 6 643 -77 459 -70 585 -92 615 -109 41 -23 81 -81 92 -134 15
-73 -37 -163 -115 -198 -40 -18 -48 -18 -266 -1 -202 16 -228 16 -248 2 -13
-8 -26 -26 -30 -41 -8 -30 16 -81 41 -89 10 -3 106 -12 213 -21 107 -8 320
-27 472 -41 251 -24 281 -25 320 -12 24 8 190 118 370 245 181 127 344 237
364 243 65 22 146 -11 184 -72 36 -60 21 -157 -31 -204 -33 -30 -603 -431
-659 -464 -52 -31 -140 -65 -208 -81 -30 -8 -149 -11 -334 -10 l-288 2 -25
-25 c-32 -32 -32 -70 0 -101 24 -25 26 -25 232 -27 483 -6 565 14 835 203 561
393 573 402 616 484 23 43 27 62 27 140 0 78 -4 97 -27 141 -34 65 -105 128
-171 152 -47 18 -52 23 -69 71 -19 58 -61 119 -101 151 -66 52 -172 77 -254
60z m147 -169 c28 -20 70 -78 70 -96 0 -6 -15 -18 -33 -27 -18 -9 -155 -102
-304 -207 -149 -105 -273 -191 -276 -191 -7 0 306 454 337 489 52 59 148 74
206 32z m-2864 -923 c219 -309 398 -571 398 -582 1 -14 -25 -38 -88 -83 -49
-34 -91 -62 -92 -60 -13 13 -815 1152 -817 1159 -3 15 154 127 180 128 17 0
100 -112 419 -562z m-311 -238 c407 -575 407 -575 385 -592 -72 -58 -491 -348
-503 -348 -17 0 -808 1112 -815 1145 -3 17 39 51 254 203 142 101 261 179 265
175 4 -4 190 -267 414 -583z"/>
</g>
</svg>
