<?xml version="1.0" standalone="no"?>
<!DOCTYPE svg PUBLIC "-//W3C//DTD SVG 20010904//EN"
 "http://www.w3.org/TR/2001/REC-SVG-20010904/DTD/svg10.dtd">
<svg version="1.0" xmlns="http://www.w3.org/2000/svg"
 width="40.000000pt" height="40.000000pt" viewBox="0 0 131.000000 113.000000"
 preserveAspectRatio="xMidYMid meet">

<g transform="translate(0.000000,113.000000) scale(0.100000,-0.100000)"
fill="" stroke="none">
<path d="M510 1037 c-91 -31 -156 -72 -217 -135 -86 -89 -150 -241 -141 -337
5 -60 22 -40 35 41 37 243 245 424 487 424 167 0 352 -119 426 -274 30 -65 31
-68 13 -82 -17 -13 -17 -15 7 -34 31 -24 39 -25 56 -2 17 22 18 52 2 52 -7 1
-29 35 -48 78 -61 134 -199 249 -340 281 -79 18 -208 13 -280 -12z"/>
<path d="M492 823 l-152 -56 2 -211 3 -211 157 -58 158 -58 160 58 160 58 0
211 0 211 -155 56 c-86 32 -161 57 -168 56 -7 0 -81 -26 -165 -56z m303 -24
c61 -22 113 -44 118 -48 4 -4 -7 -12 -26 -18 -29 -9 -49 -4 -160 36 -70 25
-127 49 -127 52 0 9 55 27 70 22 8 -3 65 -23 125 -44z m-119 -46 c71 -26 123
-48 117 -50 -11 -4 -262 82 -272 93 -14 14 44 -2 155 -43z m27 -60 c25 -8 21
-20 -13 -31 -25 -9 -48 -4 -162 38 l-133 48 35 15 c33 14 39 13 145 -25 60
-22 118 -42 128 -45z m-183 -25 l120 -43 0 -176 0 -177 -92 34 c-51 19 -112
41 -135 50 l-43 16 0 175 c0 150 2 174 15 170 8 -4 68 -25 135 -49z m430 -122
c0 -156 -2 -175 -17 -181 -10 -4 -58 -22 -108 -40 -49 -18 -102 -38 -117 -44
l-28 -11 0 179 0 179 24 6 c13 3 31 9 39 12 12 4 16 -3 19 -28 3 -29 6 -33 32
-31 48 3 76 29 76 68 0 30 5 37 33 49 17 8 35 15 40 15 4 1 7 -77 7 -173z
m-132 83 c-9 -6 -14 -2 -16 13 -2 11 2 25 10 29 9 6 14 2 16 -13 2 -11 -2 -25
-10 -29z"/>
<path d="M436 587 c-16 -11 -17 -17 -7 -36 8 -15 18 -20 30 -16 23 7 90 -21
98 -41 12 -31 -14 -39 -64 -21 -58 21 -73 21 -73 3 0 -18 89 -49 127 -44 19 2
32 12 42 32 12 25 11 31 -6 54 -10 14 -37 31 -58 39 -22 7 -43 20 -48 28 -10
18 -18 19 -41 2z"/>
<path d="M1156 548 c-2 -7 -9 -46 -15 -87 -31 -203 -194 -366 -400 -401 -195
-33 -405 71 -499 248 -34 64 -39 87 -19 96 8 3 5 11 -12 25 -30 27 -45 26 -60
-3 -13 -23 -7 -51 8 -42 4 3 22 -28 40 -67 25 -53 53 -91 105 -143 76 -75 141
-113 241 -139 263 -67 540 96 619 364 18 61 21 161 6 161 -6 0 -12 -6 -14 -12z"/>
</g>
</svg>
