<svg width="48" height="48" viewBox="0 0 48 48" fill="none" xmlns="http://www.w3.org/2000/svg">
<circle cx="24" cy="24" r="22" fill="#0052B4" stroke="white" stroke-width="4"/>
<path d="M13.7333 18.8657V13.7324H18.8667C19.4845 13.7324 19.4836 12.7991 18.8667 12.7991H13.2667C13.0091 12.7991 12.8 13.0081 12.8 13.2657V18.8657C12.8 19.4836 13.7333 19.4827 13.7333 18.8657Z" fill="white"/>
<path d="M18.8667 34.2675H13.7333V29.1342C13.7333 28.5163 12.8 28.5173 12.8 29.1342V34.7342C12.8 34.9918 13.0091 35.2009 13.2667 35.2009H18.8667C19.4845 35.2009 19.4836 34.2675 18.8667 34.2675Z" fill="white"/>
<path d="M35.2 13.2657C35.2 13.0081 34.9909 12.7991 34.7333 12.7991H29.1333C28.5155 12.7991 28.5164 13.7324 29.1333 13.7324H34.2667V18.8657C34.2667 19.4836 35.2 19.4827 35.2 18.8657V13.2657Z" fill="white"/>
<path d="M34.2667 29.1342V34.2675H29.1333C28.5155 34.2675 28.5164 35.2009 29.1333 35.2009H34.7333C34.9909 35.2009 35.2 34.9918 35.2 34.7342V29.1342C35.2 28.5163 34.2667 28.5173 34.2667 29.1342Z" fill="white"/>
<path d="M17.4666 18.8658C17.4666 19.1234 17.6757 19.3325 17.9333 19.3325H18.8666C19.1242 19.3325 19.3333 19.1234 19.3333 18.8658V17.9325C19.3333 17.6749 19.1242 17.4658 18.8666 17.4658H17.9333C17.6757 17.4658 17.4666 17.6749 17.4666 17.9325V18.8658Z" fill="white"/>
<path d="M16.0666 15.5991C15.809 15.5991 15.6 15.8082 15.6 16.0658V20.7325C15.6 20.9901 15.809 21.1991 16.0666 21.1991H20.7333C20.9909 21.1991 21.2 20.9901 21.2 20.7325V16.0658C21.2 15.8082 20.9909 15.5991 20.7333 15.5991H16.0666ZM16.5333 16.5325H20.2666V20.2658H16.5333V16.5325Z" fill="white"/>
<path d="M19.3333 29.1324C19.3333 28.8748 19.1242 28.6658 18.8666 28.6658H17.9333C17.6757 28.6658 17.4666 28.8748 17.4666 29.1324V30.0658C17.4666 30.3234 17.6757 30.5324 17.9333 30.5324H18.8666C19.1242 30.5324 19.3333 30.3234 19.3333 30.0658V29.1324Z" fill="white"/>
<path d="M21.2 27.2657C21.2 27.0081 20.9909 26.7991 20.7333 26.7991H16.0666C15.809 26.7991 15.6 27.0081 15.6 27.2657V31.9324C15.6 32.19 15.809 32.3991 16.0666 32.3991H20.7333C20.9909 32.3991 21.2 32.19 21.2 31.9324V27.2657ZM20.2666 31.4657H16.5333V27.7324H20.2666V31.4657Z" fill="white"/>
<path d="M28.6667 18.8658C28.6667 19.1234 28.8757 19.3325 29.1333 19.3325H30.0667C30.3243 19.3325 30.5333 19.1234 30.5333 18.8658V17.9325C30.5333 17.6749 30.3243 17.4658 30.0667 17.4658H29.1333C28.8757 17.4658 28.6667 17.6749 28.6667 17.9325V18.8658Z" fill="white"/>
<path d="M26.8 20.7325C26.8 20.9901 27.0091 21.1991 27.2667 21.1991H31.9333C32.1909 21.1991 32.4 20.9901 32.4 20.7325V16.0658C32.4 15.8082 32.1909 15.5991 31.9333 15.5991H27.2667C27.0091 15.5991 26.8 15.8082 26.8 16.0658V20.7325ZM27.7333 16.5325H31.4667V20.2658H27.7333V16.5325Z" fill="white"/>
<path d="M18.8666 25.8657C18.9684 25.8657 22.7381 25.8657 22.6 25.8657C23.2178 25.8657 23.2169 24.9324 22.6 24.9324H21.2V23.5324C21.2 22.9145 20.2666 22.9155 20.2666 23.5324V24.9324H18.8666C18.2488 24.9324 18.2497 25.8657 18.8666 25.8657Z" fill="white"/>
<path d="M23.0667 16.9992V16.0658C23.0667 15.448 22.1333 15.4489 22.1333 16.0658V16.9992C22.1333 17.617 23.0667 17.6161 23.0667 16.9992Z" fill="white"/>
<path d="M22.6 19.3325H24.4666C24.7242 19.3325 24.9333 19.1234 24.9333 18.8658V17.4658H25.4C26.0178 17.4658 26.0169 16.5325 25.4 16.5325H24.4666C24.209 16.5325 24 16.7415 24 16.9991V18.3991H22.6C21.9821 18.3991 21.983 19.3325 22.6 19.3325Z" fill="white"/>
<path d="M22.6 23.999H24.4666C25.0845 23.999 25.0836 23.0656 24.4666 23.0656H24V21.199H25.4C26.0178 21.199 26.0169 20.2656 25.4 20.2656H23.5333C23.2757 20.2656 23.0666 20.4747 23.0666 20.7323V23.0656H22.6C21.9821 23.0656 21.983 23.999 22.6 23.999Z" fill="white"/>
<path d="M25.8667 23.5324C25.8667 24.1502 26.8 24.1493 26.8 23.5324V22.599C26.8 21.9812 25.8667 21.9821 25.8667 22.599V23.5324Z" fill="white"/>
<path d="M23.0667 28.6658H24V29.1324C24 29.7503 24.9333 29.7494 24.9333 29.1324V26.3324C24.9333 25.7146 24 25.7155 24 26.3324V27.7324H22.6C22.3424 27.7324 22.1333 27.9415 22.1333 28.1991V29.1324C22.1333 29.7503 23.0667 29.7494 23.0667 29.1324V28.6658Z" fill="white"/>
<path d="M26.8 29.1325V29.5992H26.3333C26.0757 29.5992 25.8667 29.8082 25.8667 30.0658V31.4658H23.5333C22.9155 31.4658 22.9164 32.3992 23.5333 32.3992H26.3333C26.5909 32.3992 26.8 32.1901 26.8 31.9325V30.5325H27.2667C27.5243 30.5325 27.7333 30.3234 27.7333 30.0658V29.1325C27.7333 28.5146 26.8 28.5156 26.8 29.1325Z" fill="white"/>
<path d="M29.6 30.0658V31.4658H29.1333C28.5155 31.4658 28.5164 32.3992 29.1333 32.3992H31.9333C32.5512 32.3992 32.5503 31.4658 31.9333 31.4658H30.5333V30.0658C30.5333 29.448 29.6 29.4489 29.6 30.0658Z" fill="white"/>
<path d="M32.4 27.2657C32.4 27.0081 32.1909 26.7991 31.9333 26.7991H29.1333C28.5155 26.7991 28.5164 27.7324 29.1333 27.7324H31.4667V29.1343C31.4667 29.7521 32.4 29.7512 32.4 29.1343V27.2657Z" fill="white"/>
<path d="M32.4 23.5324C32.4 22.9145 31.4666 22.9155 31.4666 23.5324V24.9324H31C30.3821 24.9324 30.383 25.8657 31 25.8657H31.9333C32.1909 25.8657 32.4 25.6567 32.4 25.3991V23.5324Z" fill="white"/>
<path d="M29.6 25.399V23.0657H30.0667C30.6845 23.0657 30.6836 22.1323 30.0667 22.1323H29.1333C28.8757 22.1323 28.6667 22.3414 28.6667 22.599V24.9323H27.2667C27.0091 24.9323 26.8 25.1414 26.8 25.399V26.799H26.3333C25.7155 26.799 25.7164 27.7323 26.3333 27.7323H27.2667C27.5243 27.7323 27.7333 27.5233 27.7333 27.2657V25.8657H29.1333C29.3909 25.8657 29.6 25.6566 29.6 25.399Z" fill="white"/>
<path d="M15.6 22.599C15.6 22.7381 15.6 25.5344 15.6 25.399C15.6 26.0169 16.5333 26.016 16.5333 25.399V23.999H17.9333C18.5512 23.999 18.5502 23.0657 17.9333 23.0657H16.5333V22.599C16.5333 21.9812 15.6 21.9821 15.6 22.599Z" fill="white"/>
</svg>
