<svg width="28" height="28" viewBox="0 0 28 28" fill="none" xmlns="http://www.w3.org/2000/svg">
<g clip-path="url(#clip0_550_1289)">
<path d="M5.59975 28H22.4003C23.1735 28 23.8004 27.3732 23.8004 26.6V7.76521C23.8009 7.00312 23.4293 6.28882 22.8049 5.8518L14.8027 0.252049C14.3203 -0.0840165 13.6797 -0.0840165 13.1973 0.252049L5.1951 5.85224C4.57088 6.28909 4.19926 7.00323 4.19965 7.76516V26.6C4.1997 27.3733 4.8265 28 5.59975 28ZM5.13303 7.76521C5.13308 7.3085 5.35583 6.88056 5.72991 6.6186L13.7321 1.01841C13.8929 0.905696 14.1071 0.905696 14.2678 1.01841L22.27 6.6186C22.6441 6.88056 22.8669 7.30856 22.8669 7.76521V26.6001C22.8669 26.8578 22.658 27.0667 22.4003 27.0667H5.59969C5.34194 27.0667 5.13303 26.8578 5.13303 26.6001V7.76521Z" fill-opacity="0.75"/>
<path d="M14 5.59941C14.7733 5.59941 15.4001 4.97256 15.4001 4.19936C15.4001 3.42617 14.7732 2.79932 14 2.79932C13.2268 2.79932 12.6 3.42617 12.6 4.19936C12.6 4.97256 13.2268 5.59941 14 5.59941ZM14 3.7327C14.2578 3.7327 14.4667 3.94167 14.4667 4.19936C14.4667 4.45711 14.2578 4.66603 14 4.66603C13.7423 4.66603 13.5334 4.45706 13.5334 4.19936C13.5333 3.94167 13.7423 3.7327 14 3.7327Z" fill-opacity="0.75"/>
<path d="M7.18365 18.6262C7.20088 18.8695 7.17157 19.1139 7.0973 19.3463C6.92525 19.8067 6.93646 20.3155 7.12858 20.7678C7.42708 21.1648 7.86689 21.4317 8.3569 21.5131C8.5901 21.5637 8.8117 21.6576 9.01028 21.7899C9.14295 21.9882 9.23686 22.2099 9.28701 22.4432C9.36909 22.933 9.63625 23.3726 10.0332 23.6711C10.4857 23.8625 10.9943 23.8736 11.4548 23.7024C11.6871 23.6279 11.9315 23.5986 12.1749 23.616C12.3829 23.7206 12.5697 23.863 12.7255 24.036C13.0446 24.4241 13.5012 24.6739 14.0001 24.7333C14.4998 24.6735 14.9571 24.4227 15.276 24.0332C15.4319 23.8602 15.6186 23.7178 15.8266 23.6132C16.07 23.5964 16.3143 23.6257 16.5467 23.6996C17.0071 23.8716 17.5159 23.8604 17.9683 23.6683C18.3647 23.3705 18.6315 22.9317 18.7136 22.4428C18.7642 22.2096 18.858 21.988 18.9903 21.7894C19.1887 21.6567 19.4104 21.5628 19.6437 21.5127C20.1335 21.4306 20.5731 21.1634 20.8715 20.7664C21.0634 20.314 21.0746 19.8053 20.9028 19.3449C20.8285 19.1125 20.7992 18.8682 20.8164 18.6248C20.9211 18.4167 21.0635 18.23 21.2365 18.0741C21.6245 17.7551 21.8743 17.2985 21.9337 16.7996C21.874 16.2998 21.6231 15.8426 21.2337 15.5237C21.0607 15.3678 20.9183 15.1811 20.8137 14.973C20.7964 14.7297 20.8257 14.4853 20.9 14.2529C21.0721 13.7925 21.0609 13.2838 20.8687 12.8314C20.5709 12.435 20.1322 12.1682 19.6432 12.0861C19.41 12.0355 19.1884 11.9416 18.9898 11.8093C18.8571 11.611 18.7632 11.3893 18.7131 11.156C18.631 10.6662 18.3638 10.2266 17.9669 9.92814C17.5144 9.73651 17.0058 9.7253 16.5453 9.89686C16.3129 9.97107 16.0685 10.0003 15.8252 9.98321C15.6172 9.87859 15.4304 9.73618 15.2746 9.5632C14.9555 9.17513 14.4989 8.92536 14 8.86597C13.5003 8.92569 13.043 9.17655 12.7241 9.56599C12.5682 9.73897 12.3815 9.88138 12.1735 9.986C11.9301 10.0035 11.6857 9.97419 11.4534 9.89965C10.993 9.72787 10.4843 9.73903 10.0318 9.93093C9.63543 10.2287 9.3686 10.6675 9.28651 11.1565C9.23593 11.3897 9.14208 11.6113 9.00979 11.8098C8.81143 11.9425 8.58972 12.0364 8.35641 12.0866C7.86661 12.1687 7.42702 12.4358 7.12858 12.8328C6.93673 13.2852 6.92552 13.7939 7.0973 14.2543C7.17157 14.4867 7.20088 14.7311 7.18365 14.9744C7.07903 15.1825 6.93662 15.3692 6.76364 15.5251C6.37556 15.8442 6.1258 16.3008 6.06641 16.7996C6.12613 17.2994 6.37699 17.7566 6.76643 18.0755C6.93843 18.2317 7.07985 18.4184 7.18365 18.6262ZM7.44594 16.1626C7.73361 15.9037 7.95319 15.578 8.08532 15.2142C8.1539 14.823 8.12683 14.4209 8.00646 14.0424C7.92114 13.8044 7.89724 13.5487 7.93695 13.299C8.01302 13.1665 8.35368 13.0656 8.62718 12.9807C9.01203 12.8993 9.37079 12.724 9.67164 12.4706C9.92485 12.1696 10.1 11.8109 10.1817 11.4261C10.2648 11.1526 10.3684 10.8125 10.4995 10.7359C10.7493 10.6962 11.005 10.7203 11.243 10.8059C11.6214 10.9261 12.0232 10.9531 12.4144 10.8848C12.7783 10.7528 13.1042 10.5332 13.3631 10.2454C13.5745 10.0466 13.8377 9.79924 14.0001 9.79924C14.1626 9.79924 14.4257 10.0466 14.6372 10.2454C14.896 10.5331 15.2217 10.7526 15.5855 10.8848C15.9767 10.9535 16.3788 10.9265 16.7573 10.8059C16.9953 10.7206 17.251 10.6967 17.5007 10.7364C17.6333 10.8125 17.7341 11.1531 17.819 11.4266C17.9005 11.8115 18.0756 12.1702 18.3291 12.4711C18.6301 12.7243 18.9888 12.8995 19.3736 12.9812C19.6471 13.0642 19.9872 13.1678 20.0638 13.299C20.103 13.5487 20.079 13.8044 19.9938 14.0424C19.8734 14.4208 19.8464 14.8227 19.9149 15.2138C20.0469 15.5778 20.2665 15.9036 20.5543 16.1626C20.7531 16.374 21.0005 16.6372 21.0005 16.7996C21.0005 16.962 20.7531 17.2252 20.5543 17.4366C20.2667 17.6954 20.0471 18.0211 19.9149 18.3849C19.8464 18.7762 19.8734 19.1782 19.9938 19.5567C20.0791 19.7948 20.103 20.0505 20.0633 20.3002C19.9872 20.4327 19.6466 20.5336 19.3731 20.6185C18.9882 20.6999 18.6295 20.8751 18.3286 21.1286C18.0754 21.4296 17.9002 21.7883 17.8185 22.173C17.7355 22.4465 17.6319 22.7867 17.5007 22.8633C17.251 22.9027 16.9953 22.8786 16.7573 22.7933C16.379 22.6725 15.977 22.6454 15.5859 22.7144C15.2219 22.8464 14.8961 23.066 14.6372 23.3538C14.4257 23.5526 14.1626 23.7999 14.0001 23.7999C13.8377 23.7999 13.5745 23.5526 13.3631 23.3538C13.1043 23.0661 12.7786 22.8465 12.4148 22.7144C12.2959 22.6828 12.1733 22.6671 12.0503 22.6677C11.7773 22.6784 11.5065 22.7198 11.2429 22.7914C11.0051 22.8774 10.7492 22.9014 10.4995 22.8609C10.367 22.7848 10.2661 22.4442 10.1812 22.1707C10.0997 21.7858 9.92452 21.4271 9.67109 21.1262C9.37008 20.873 9.01137 20.6978 8.62663 20.6161C8.35313 20.5331 8.01296 20.4295 7.9364 20.2983C7.89719 20.0486 7.92125 19.7929 8.0064 19.5549C8.12677 19.1765 8.15384 18.7746 8.08526 18.3835C7.9533 18.0195 7.73366 17.6937 7.44589 17.4347C7.24709 17.2252 6.99973 16.962 6.99973 16.7996C6.99979 16.6372 7.24709 16.374 7.44594 16.1626Z" fill-opacity="0.75"/>
<path d="M16.3334 15.8663C17.1066 15.8663 17.7334 15.2394 17.7334 14.4662C17.7334 13.693 17.1066 13.0662 16.3334 13.0662C15.5602 13.0662 14.9333 13.693 14.9333 14.4662C14.9333 15.2394 15.5602 15.8663 16.3334 15.8663ZM16.3334 13.9995C16.5911 13.9995 16.8001 14.2084 16.8001 14.4662C16.8001 14.7239 16.5911 14.9328 16.3334 14.9328C16.0756 14.9328 15.8667 14.7238 15.8667 14.4662C15.8667 14.2085 16.0757 13.9995 16.3334 13.9995Z" fill-opacity="0.75"/>
<path d="M11.6666 20.5332C12.4398 20.5332 13.0666 19.9064 13.0666 19.1332C13.0666 18.36 12.4398 17.7332 11.6666 17.7332C10.8933 17.7332 10.2665 18.36 10.2665 19.1332C10.2665 19.9065 10.8934 20.5332 11.6666 20.5332ZM11.6666 18.6665C11.9243 18.6665 12.1333 18.8755 12.1333 19.1332C12.1333 19.391 11.9243 19.5999 11.6666 19.5999C11.4088 19.5999 11.1999 19.391 11.1999 19.1332C11.1999 18.8755 11.4088 18.6665 11.6666 18.6665Z" fill-opacity="0.75"/>
<path d="M16.9368 20.3965C17.1199 20.5733 17.411 20.5708 17.591 20.3908C17.7711 20.2108 17.7736 19.9197 17.5967 19.7366L11.0631 13.203C10.88 13.0262 10.5889 13.0287 10.4089 13.2087C10.2289 13.3888 10.2264 13.6798 10.4033 13.8629L16.9368 20.3965Z" fill-opacity="0.75"/>
</g>
<defs>
<clipPath id="clip0_550_1289">
<rect width="28" height="28" fill="white"/>
</clipPath>
</defs>
</svg>
