<svg width="28" height="28" viewBox="0 0 28 28" fill="none" xmlns="http://www.w3.org/2000/svg">
<g clip-path="url(#clip0_32_836)">
<path d="M17.4999 28H10.4999V23.9015C9.28339 23.4711 8.15662 22.8201 7.17609 21.9812L3.62476 24.0333L0.124756 17.9667L3.67492 15.9192C3.44172 14.6503 3.44172 13.3497 3.67492 12.0808L0.124756 10.0333L3.62476 3.96667L7.17609 6.01883C8.15662 5.17991 9.28339 4.52893 10.4999 4.0985V0H17.4999V4.0985C18.7165 4.52893 19.8432 5.17991 20.8238 6.01883L24.3751 3.96667L27.8751 10.0333L24.3249 12.0808C24.5581 13.3497 24.5581 14.6503 24.3249 15.9192L27.8751 17.9667L24.3751 24.0333L20.8238 21.9823C19.8431 22.8208 18.7164 23.4714 17.4999 23.9015V28ZM12.8333 25.6667H15.1666V22.1352L16.0428 21.9088C17.4801 21.5365 18.7884 20.7785 19.8263 19.7167L20.4598 19.0715L23.5199 20.839L24.6866 18.8183L21.6299 17.0532L21.8703 16.1828C22.2653 14.7513 22.2653 13.2394 21.8703 11.8078L21.6299 10.9375L24.6866 9.17233L23.5199 7.15167L20.4598 8.92383L19.8263 8.28333C18.7878 7.22323 17.4796 6.46686 16.0428 6.09583L15.1666 5.86483V2.33333H12.8333V5.86483L11.9571 6.09117C10.5197 6.46351 9.21146 7.22153 8.17359 8.28333L7.54009 8.9285L4.47992 7.15633L3.31326 9.177L6.36992 10.9422L6.12959 11.8125C5.73451 13.2441 5.73451 14.7559 6.12959 16.1875L6.36992 17.0578L3.31326 18.823L4.47992 20.8437L7.54009 19.0762L8.17359 19.7213C9.21202 20.7814 10.5203 21.5378 11.9571 21.9088L12.8333 22.1352V25.6667ZM13.9999 18.6667C13.0769 18.6667 12.1747 18.393 11.4073 17.8802C10.6398 17.3674 10.0417 16.6386 9.68848 15.7859C9.33528 14.9331 9.24286 13.9948 9.42292 13.0896C9.60299 12.1843 10.0474 11.3528 10.7001 10.7002C11.3527 10.0475 12.1843 9.60307 13.0895 9.423C13.9947 9.24294 14.9331 9.33535 15.7858 9.68856C16.6385 10.0418 17.3673 10.6399 17.8801 11.4073C18.3929 12.1748 18.6666 13.077 18.6666 14C18.6666 15.2377 18.1749 16.4247 17.2998 17.2998C16.4246 18.175 15.2376 18.6667 13.9999 18.6667ZM13.9999 11.6667C13.5384 11.6667 13.0873 11.8035 12.7036 12.0599C12.3199 12.3163 12.0208 12.6807 11.8442 13.1071C11.6676 13.5334 11.6214 14.0026 11.7114 14.4552C11.8015 14.9078 12.0237 15.3236 12.35 15.6499C12.6763 15.9762 13.0921 16.1985 13.5447 16.2885C13.9973 16.3785 14.4665 16.3323 14.8929 16.1557C15.3192 15.9791 15.6836 15.68 15.94 15.2963C16.1964 14.9126 16.3333 14.4615 16.3333 14C16.3333 13.3812 16.0874 12.7877 15.6498 12.3501C15.2123 11.9125 14.6188 11.6667 13.9999 11.6667Z" fill=""/>
</g>
<defs>
<clipPath id="clip0_32_836">
<rect width="28" height="28" fill="white"/>
</clipPath>
</defs>
</svg>
