<svg width="48" height="48" viewBox="0 0 48 48" fill="none" xmlns="http://www.w3.org/2000/svg">
<circle cx="24" cy="24" r="24" fill="" fill-opacity="0.02"/>
<g clip-path="url(#clip0_39_790)">
<path d="M34.7999 23.1623V13.1999C34.7999 13.1868 34.7932 13.1758 34.7924 13.1629C34.7845 13.0182 34.7251 12.8812 34.6248 12.7767L34.6239 12.7755L28.0243 6.17599L28.0232 6.17515C27.9731 6.1267 27.9148 6.08747 27.8512 6.0592C27.8337 6.05105 27.8155 6.04641 27.7971 6.03994C27.7447 6.0213 27.6898 6.01027 27.6343 6.00703C27.6222 6.00619 27.6121 6 27.5999 6H10.2001C9.20642 6.00105 8.40114 6.80634 8.40009 7.79998V37.7997C8.40114 38.7934 9.20642 39.5986 10.2001 39.5997H22.8407C25.757 42.0591 29.8028 42.6835 33.3248 41.2178C36.8469 39.7521 39.2553 36.4419 39.5659 32.6397C39.8766 28.8374 38.0374 25.1802 34.7999 23.1623ZM28.1999 8.04839L32.7514 12.5999H28.7999C28.4687 12.5995 28.2003 12.3311 28.1999 11.9999V8.04839ZM10.2001 38.3997C9.8689 38.3993 9.60052 38.1309 9.6001 37.7997V7.79998C9.60052 7.46881 9.8689 7.20043 10.2001 7.20001H26.9999V12C27.0009 12.9936 27.8062 13.7989 28.7999 13.8H33.5998V22.5153C31.2017 21.4154 28.4674 21.3022 25.9864 22.1999H19.2C18.2078 22.2046 17.4046 23.0077 17.4 23.9999C17.4011 24.9935 18.2063 25.7988 19.2 25.7999H21.1695C20.6299 26.5378 20.1923 27.3451 19.8684 28.1998H19.2C18.2078 28.2045 17.4046 29.0076 17.4 29.9998C17.4011 30.9935 18.2063 31.7987 19.2 31.7998C19.1993 34.22 20.0637 36.5607 21.6371 38.3998H10.2001V38.3997ZM23.6265 23.3999C23.1096 23.7549 22.6262 24.1566 22.1825 24.5999H19.2C18.8688 24.5994 18.6004 24.3311 18.6 23.9999C18.5995 23.8383 18.6659 23.6837 18.7834 23.5728C18.8929 23.4608 19.0434 23.3984 19.2 23.3999H23.6265V23.3999ZM19.497 29.3998C19.3995 29.795 19.3261 30.1957 19.277 30.5998H19.2C18.8688 30.5994 18.6004 30.331 18.6 29.9998C18.5995 29.8382 18.6659 29.6836 18.7834 29.5727C18.8929 29.4607 19.0434 29.3984 19.2 29.3998H19.497V29.3998ZM29.3999 40.7996C24.4294 40.7996 20.4 36.7702 20.4 31.7997C20.4 26.8292 24.4294 22.7998 29.3999 22.7998C34.3704 22.7998 38.3998 26.8292 38.3998 31.7997C38.3942 36.768 34.3681 40.794 29.3999 40.7996Z" fill=""/>
<path d="M29.3999 23.9999C25.0921 23.9999 21.6 27.4921 21.6 31.7998C21.6 36.1075 25.0922 39.5997 29.3999 39.5997C33.7076 39.5997 37.1998 36.1076 37.1998 31.7998C37.195 27.494 33.7056 24.0047 29.3999 23.9999ZM29.3999 38.3997C25.7548 38.3997 22.7999 35.4448 22.7999 31.7998C22.7999 28.1547 25.7548 25.1998 29.3999 25.1998C33.045 25.1998 35.9998 28.1547 35.9998 31.7998C35.9957 35.4431 33.0432 38.3956 29.3999 38.3997Z" fill=""/>
<path d="M29.9999 31.5514V26.9999C29.9999 26.6685 29.7313 26.3999 29.3999 26.3999C29.0685 26.3999 28.7999 26.6685 28.7999 26.9999V31.7998C28.8 31.959 28.8632 32.1115 28.9757 32.224L31.9757 35.224C32.2106 35.4547 32.5875 35.453 32.8203 35.2202C33.0531 34.9874 33.0548 34.6106 32.8241 34.3757L29.9999 31.5514Z" fill=""/>
<path d="M14.4 10.2H13.2C12.2064 10.201 11.4011 11.0063 11.4 12V13.2C11.4011 14.1936 12.2064 14.9989 13.2 15H14.4C15.3937 14.9989 16.199 14.1936 16.2 13.2V12C16.199 11.0063 15.3938 10.2011 14.4 10.2ZM15.0001 13.2C14.9997 13.5311 14.7313 13.7995 14.4001 13.8H13.2001C12.8689 13.7995 12.6005 13.5311 12.6001 13.2V12C12.6005 11.6688 12.8689 11.4004 13.2001 11.4H14.4001C14.7313 11.4004 14.9997 11.6688 15.0001 12V13.2Z" fill=""/>
<path d="M19.2 13.7999H24C24.9941 13.7999 25.8 12.994 25.8 11.9999C25.8 11.0059 24.9941 10.2 24 10.2H19.2C18.2059 10.2 17.4 11.0058 17.4 11.9999C17.4 12.9941 18.2059 13.7999 19.2 13.7999ZM19.2 11.4H24C24.3314 11.4 24.6 11.6686 24.6 11.9999C24.6 12.3313 24.3314 12.5999 24 12.5999H19.2C18.8686 12.5999 18.6 12.3312 18.6 11.9999C18.6 11.6686 18.8686 11.4 19.2 11.4Z" fill=""/>
<path d="M14.4 16.2H13.2C12.2064 16.201 11.4011 17.0063 11.4 18V19.2C11.4011 20.1936 12.2064 20.9989 13.2 21H14.4C15.3937 20.9989 16.199 20.1936 16.2 19.2V18C16.199 17.0063 15.3938 16.201 14.4 16.2ZM15.0001 19.1999C14.9997 19.5311 14.7313 19.7995 14.4001 19.7999H13.2001C12.8689 19.7995 12.6005 19.5311 12.6001 19.1999V17.9999C12.6005 17.6687 12.8689 17.4003 13.2001 17.3999H14.4001C14.7313 17.4003 14.9997 17.6687 15.0001 17.9999V19.1999Z" fill=""/>
<path d="M19.2 19.7999H30.5999C31.5939 19.7999 32.3999 18.9941 32.3999 17.9999C32.3999 17.0058 31.5939 16.2 30.5999 16.2H19.2C18.2059 16.2 17.4 17.0059 17.4 17.9999C17.4 18.994 18.2059 19.7999 19.2 19.7999ZM19.2 17.3999H30.5999C30.9313 17.3999 31.1998 17.6685 31.1998 17.9999C31.1998 18.3312 30.9312 18.5998 30.5999 18.5998H19.2C18.8686 18.5998 18.6 18.3312 18.6 17.9999C18.6 17.6685 18.8686 17.3999 19.2 17.3999Z" fill=""/>
<path d="M14.4 22.1998H13.2C12.2064 22.2009 11.4011 23.0062 11.4 23.9998V25.1999C11.4011 26.1935 12.2064 26.9988 13.2 26.9999H14.4C15.3937 26.9988 16.199 26.1935 16.2 25.1999V23.9998C16.199 23.0062 15.3938 22.2009 14.4 22.1998ZM15.0001 25.1999C14.9997 25.531 14.7313 25.7994 14.4001 25.7998H13.2001C12.8689 25.7994 12.6005 25.531 12.6001 25.1999V23.9998C12.6005 23.6687 12.8689 23.4003 13.2001 23.3999H14.4001C14.7313 23.4003 14.9997 23.6687 15.0001 23.9998V25.1999Z" fill=""/>
<path d="M14.4 28.1997H13.2C12.2064 28.2008 11.4011 29.0061 11.4 29.9997V31.1997C11.4011 32.1934 12.2064 32.9987 13.2 32.9997H14.4C15.3937 32.9987 16.199 32.1934 16.2 31.1997V29.9997C16.199 29.0061 15.3938 28.2008 14.4 28.1997ZM15.0001 31.1997C14.9997 31.5309 14.7313 31.7993 14.4001 31.7997H13.2001C12.8689 31.7993 12.6005 31.5309 12.6001 31.1997V29.9997C12.6005 29.6685 12.8689 29.4002 13.2001 29.3997H14.4001C14.7313 29.4002 14.9997 29.6685 15.0001 29.9997V31.1997Z" fill=""/>
</g>
<defs>
<clipPath id="clip0_39_790">
<rect width="36" height="36" fill="white" transform="translate(6 6)"/>
</clipPath>
</defs>
</svg>
