<svg width="40" height="40" viewBox="0 0 20 20" fill="" xmlns="http://www.w3.org/2000/svg">
<path d="M12.854 9.854C12.9479 9.76011 13.0006 9.63278 13.0006 9.5C13.0006 9.36722 12.9479 9.23989 12.854 9.146C12.7601 9.05211 12.6328 8.99937 12.5 8.99937C12.3672 8.99937 12.2399 9.05211 12.146 9.146L9 12.293L7.854 11.146C7.80751 11.0995 7.75232 11.0626 7.69158 11.0375C7.63084 11.0123 7.56574 10.9994 7.5 10.9994C7.43426 10.9994 7.36916 11.0123 7.30842 11.0375C7.24768 11.0626 7.19249 11.0995 7.146 11.146C7.09951 11.1925 7.06264 11.2477 7.03748 11.3084C7.01232 11.3692 6.99937 11.4343 6.99937 11.5C6.99937 11.5657 7.01232 11.6308 7.03748 11.6916C7.06264 11.7523 7.09951 11.8075 7.146 11.854L8.646 13.354C8.69245 13.4006 8.74762 13.4375 8.80837 13.4627C8.86911 13.4879 8.93423 13.5009 9 13.5009C9.06577 13.5009 9.13089 13.4879 9.19163 13.4627C9.25238 13.4375 9.30755 13.4006 9.354 13.354L12.854 9.854ZM8.5 2C8.18967 1.99984 7.88694 2.09593 7.63351 2.27503C7.38008 2.45413 7.18844 2.70742 7.085 3H5.5C5.10218 3 4.72064 3.15804 4.43934 3.43934C4.15804 3.72064 4 4.10218 4 4.5V16.5C4 16.8978 4.15804 17.2794 4.43934 17.5607C4.72064 17.842 5.10218 18 5.5 18H14.5C14.8978 18 15.2794 17.842 15.5607 17.5607C15.842 17.2794 16 16.8978 16 16.5V4.5C16 4.10218 15.842 3.72064 15.5607 3.43934C15.2794 3.15804 14.8978 3 14.5 3H12.915C12.8116 2.70742 12.6199 2.45413 12.3665 2.27503C12.1131 2.09593 11.8103 1.99984 11.5 2H8.5ZM8 3.5C8 3.36739 8.05268 3.24022 8.14645 3.14645C8.24021 3.05268 8.36739 3 8.5 3H11.5C11.6326 3 11.7598 3.05268 11.8536 3.14645C11.9473 3.24022 12 3.36739 12 3.5C12 3.63261 11.9473 3.75979 11.8536 3.85355C11.7598 3.94732 11.6326 4 11.5 4H8.5C8.36739 4 8.24021 3.94732 8.14645 3.85355C8.05268 3.75979 8 3.63261 8 3.5ZM5.5 4H7.085C7.18844 4.29258 7.38008 4.54587 7.63351 4.72497C7.88694 4.90407 8.18967 5.00016 8.5 5H11.5C11.8103 5.00016 12.1131 4.90407 12.3665 4.72497C12.6199 4.54587 12.8116 4.29258 12.915 4H14.5C14.6326 4 14.7598 4.05268 14.8536 4.14645C14.9473 4.24022 15 4.36739 15 4.5V16.5C15 16.6326 14.9473 16.7598 14.8536 16.8536C14.7598 16.9473 14.6326 17 14.5 17H5.5C5.36739 17 5.24021 16.9473 5.14645 16.8536C5.05268 16.7598 5 16.6326 5 16.5V4.5C5 4.36739 5.05268 4.24022 5.14645 4.14645C5.24021 4.05268 5.36739 4 5.5 4Z" fill=""/>
</svg>
