<svg width="48" height="48" viewBox="0 0 48 48" fill="none" xmlns="http://www.w3.org/2000/svg">
<circle cx="24" cy="24" r="24" fill="" fill-opacity="0.02"/>
<path d="M39.6 7.80005H12C10.6745 7.80005 9.6 8.87456 9.6 10.2V13.2H9.00002C7.34395 13.202 6.00197 14.544 6 16.2001V34.8C6.0033 37.781 8.41903 40.1967 11.4 40.2H12.6C15.3484 40.1963 17.6565 38.1311 17.9647 35.4H19.2C21.1874 35.3981 22.7981 33.7874 22.8 31.8H39.6C40.9255 31.8 42 30.7255 42 29.4V10.2C42 8.87456 40.9255 7.80005 39.6 7.80005ZM12.6 39H11.4C9.08152 38.9974 7.20262 37.1185 7.20002 34.8V16.2001C7.20002 15.2059 8.00595 14.4001 9.00002 14.4001H9.6V29.4C9.6 30.7255 10.6745 31.8 12 31.8C12.0019 33.7874 13.6126 35.3981 15.6 35.4H16.752C16.4526 37.4638 14.6854 38.9961 12.6 39ZM21.6 31.8C21.6 33.1255 20.5255 34.2 19.2 34.2H15.6C14.2746 34.2 13.2001 33.1255 13.2001 31.8V13.8C13.2001 12.4746 14.2746 11.4 15.6 11.4H19.2C20.5255 11.4 21.6 12.4746 21.6 13.8V31.8ZM40.8 29.4C40.8 30.0628 40.2627 30.6001 39.6 30.6001H22.8V13.8C22.798 11.8126 21.1874 10.202 19.2 10.2H15.6C13.6126 10.202 12.0019 11.8126 12 13.8V30.6C11.3372 30.6 10.8 30.0627 10.8 29.4V10.2C10.8 9.53726 11.3372 9 12 9H39.6C40.2627 9 40.8 9.53726 40.8 10.2V29.4Z" fill=""/>
<path d="M37.8 10.2001H25.8C24.8059 10.2001 24 11.006 24 12.0001V13.2001C24 14.1942 24.8059 15.0001 25.8 15.0001H37.8C38.7941 15.0001 39.6 14.1942 39.6 13.2001V12.0001C39.6 11.006 38.7941 10.2001 37.8 10.2001ZM38.4 13.2001C38.4 13.5315 38.1314 13.8001 37.8 13.8001H25.8C25.4686 13.8001 25.2 13.5314 25.2 13.2001V12.0001C25.2 11.6687 25.4686 11.4001 25.8 11.4001H37.8C38.1314 11.4001 38.4 11.6688 38.4 12.0001V13.2001Z" fill=""/>
<path d="M27 16.2001H25.8C25.1372 16.2001 24.6 16.7373 24.6 17.4001V18.6C24.6 19.2628 25.1372 19.8001 25.8 19.8001H27C27.6628 19.8001 28.2 19.2628 28.2 18.6V17.4C28.2 16.7373 27.6627 16.2001 27 16.2001ZM25.8 18.6V17.4H27V18.6H25.8Z" fill=""/>
<path d="M32.4 16.2001H31.2C30.5373 16.2001 30 16.7373 30 17.4001V18.6C30 19.2628 30.5373 19.8001 31.2 19.8001H32.4C33.0628 19.8001 33.6001 19.2628 33.6001 18.6V17.4C33.6 16.7373 33.0627 16.2001 32.4 16.2001ZM31.2 18.6V17.4H32.4V18.6H31.2Z" fill=""/>
<path d="M37.8001 16.2001H36.6C35.9373 16.2001 35.4 16.7373 35.4 17.4001V18.6C35.4 19.2628 35.9373 19.8001 36.6 19.8001H37.8001C38.4628 19.8001 39.0001 19.2628 39.0001 18.6V17.4C39 16.7373 38.4628 16.2001 37.8001 16.2001ZM36.6 18.6V17.4H37.8001V18.6H36.6Z" fill=""/>
<path d="M27 21H25.8C25.1372 21 24.6 21.5373 24.6 22.2V23.4C24.6 24.0628 25.1372 24.6001 25.8 24.6001H27C27.6628 24.6001 28.2 24.0628 28.2 23.4V22.2C28.2 21.5373 27.6627 21 27 21ZM25.8 23.4V22.2H27V23.4H25.8Z" fill=""/>
<path d="M32.4 21H31.2C30.5373 21 30 21.5373 30 22.2V23.4C30 24.0628 30.5373 24.6001 31.2 24.6001H32.4C33.0628 24.6001 33.6001 24.0628 33.6001 23.4V22.2C33.6 21.5373 33.0627 21 32.4 21ZM31.2 23.4V22.2H32.4V23.4H31.2Z" fill=""/>
<path d="M37.8001 21H36.6C35.9373 21 35.4 21.5373 35.4 22.2V23.4C35.4 24.0628 35.9373 24.6001 36.6 24.6001H37.8001C38.4628 24.6001 39.0001 24.0628 39.0001 23.4V22.2C39 21.5373 38.4628 21 37.8001 21ZM36.6 23.4V22.2H37.8001V23.4H36.6Z" fill=""/>
<path d="M27 25.8H25.8C25.1372 25.8 24.6 26.3373 24.6 27.0001V28.2001C24.6 28.8629 25.1372 29.4001 25.8 29.4001H27C27.6628 29.4001 28.2 28.8629 28.2 28.2001V27.0001C28.2 26.3373 27.6627 25.8 27 25.8ZM25.8 28.2V27H27V28.2H25.8Z" fill=""/>
<path d="M32.4 25.8H31.2C30.5373 25.8 30 26.3373 30 27.0001V28.2001C30 28.8629 30.5373 29.4001 31.2 29.4001H32.4C33.0628 29.4001 33.6001 28.8629 33.6001 28.2001V27.0001C33.6 26.3373 33.0627 25.8 32.4 25.8ZM31.2 28.2V27H32.4V28.2H31.2Z" fill=""/>
<path d="M37.8001 25.8H36.6C35.9373 25.8 35.4 26.3373 35.4 27.0001V28.2001C35.4 28.8629 35.9373 29.4001 36.6 29.4001H37.8001C38.4628 29.4001 39.0001 28.8629 39.0001 28.2001V27.0001C39 26.3373 38.4628 25.8 37.8001 25.8ZM36.6 28.2V27H37.8001V28.2H36.6Z" fill=""/>
<path d="M15 13.2001C14.6686 13.2001 14.4 13.4687 14.4 13.8V22.8C14.4 23.1314 14.6687 23.4 15 23.4C15.3314 23.4 15.6 23.1314 15.6 22.8V13.8C15.6 13.4687 15.3314 13.2001 15 13.2001Z" fill=""/>
</svg>
