<svg width="14" height="14" viewBox="0 0 14 14" fill="" xmlns="http://www.w3.org/2000/svg">
<path fill-rule="evenodd" clip-rule="evenodd" d="M7.0001 13.4C10.5347 13.4 13.4001 10.5346 13.4001 6.99998C13.4001 3.46535 10.5347 0.599976 7.0001 0.599976C3.46548 0.599976 0.600098 3.46535 0.600098 6.99998C0.600098 10.5346 3.46548 13.4 7.0001 13.4ZM9.96578 5.96566C10.2782 5.65324 10.2782 5.14671 9.96578 4.83429C9.65336 4.52187 9.14683 4.52187 8.83441 4.83429L6.2001 7.4686L5.16578 6.43429C4.85336 6.12187 4.34683 6.12187 4.03441 6.43429C3.72199 6.74671 3.72199 7.25324 4.03441 7.56566L5.63441 9.16566C5.94683 9.47808 6.45336 9.47808 6.76578 9.16566L9.96578 5.96566Z" fill=""/>
</svg>
