<svg width="27" height="36" viewBox="0 0 27 36" fill="none" xmlns="http://www.w3.org/2000/svg">
<path d="M26 21C25.949 18.5822 25.1449 16.2406 23.6996 14.3016C23.1054 13.2339 22.238 12.3435 21.1862 11.7216C20.9961 11.61 20.8004 11.5081 20.6 11.4162V3C20.599 2.20464 20.2827 1.44213 19.7202 0.879732C19.1578 0.317329 18.3953 0.000952715 17.6 0L5.59998 0C4.80463 0.000952715 4.04212 0.317329 3.47971 0.879732C2.91731 1.44213 2.60093 2.20464 2.59998 3V10.2C2.11134 10.1978 1.63379 10.3455 1.23166 10.6231C0.829541 10.9007 0.522183 11.2949 0.351011 11.7526C0.179838 12.2103 0.153078 12.7095 0.274337 13.1828C0.395596 13.6562 0.659045 14.081 1.02918 14.4C0.769145 14.6223 0.560366 14.8984 0.417213 15.2091C0.27406 15.5198 0.199933 15.8579 0.199933 16.2C0.199933 16.5421 0.27406 16.8802 0.417213 17.1909C0.560366 17.5016 0.769145 17.7777 1.02918 18C0.769145 18.2223 0.560366 18.4984 0.417213 18.8091C0.27406 19.1198 0.199933 19.4579 0.199933 19.8C0.199933 20.1421 0.27406 20.4802 0.417213 20.7909C0.560366 21.1017 0.769145 21.3777 1.02918 21.6C0.659045 21.919 0.395596 22.3438 0.274337 22.8172C0.153078 23.2905 0.179838 23.7897 0.351011 24.2474C0.522183 24.7051 0.829541 25.0993 1.23166 25.3769C1.63379 25.6545 2.11134 25.8022 2.59998 25.8C2.60093 26.5954 2.91731 27.3579 3.47971 27.9203C4.04212 28.4827 4.80463 28.799 5.59998 28.8H8.76798L10.76 34.7694C10.8793 35.1273 11.1081 35.4386 11.4139 35.6594C11.7198 35.8802 12.0873 35.9994 12.4646 36H23.2646C23.5381 36 23.8081 35.9376 24.0539 35.8176C24.2997 35.6976 24.515 35.5232 24.6833 35.3076C24.8516 35.0919 24.9686 34.8408 25.0253 34.5732C25.082 34.3056 25.077 34.0286 25.0106 33.7632L24.4562 31.5432C24.3116 30.989 24.3345 30.4044 24.5222 29.8632C25.5347 27.0194 26.0351 24.0185 26 21ZM15.2 1.2V1.8C15.2 1.95913 15.1368 2.11174 15.0242 2.22426C14.9117 2.33679 14.7591 2.4 14.6 2.4H8.59998C8.44085 2.4 8.28824 2.33679 8.17572 2.22426C8.0632 2.11174 7.99998 1.95913 7.99998 1.8V1.2H15.2ZM3.79998 3C3.79998 2.52261 3.98962 2.06477 4.32719 1.72721C4.66475 1.38964 5.12259 1.2 5.59998 1.2H6.79998V1.8C6.79998 2.27739 6.98962 2.73523 7.32719 3.07279C7.66476 3.41036 8.12259 3.6 8.59998 3.6H14.6C15.0774 3.6 15.5352 3.41036 15.8728 3.07279C16.2103 2.73523 16.4 2.27739 16.4 1.8V1.2H17.6C18.0774 1.2 18.5352 1.38964 18.8728 1.72721C19.2103 2.06477 19.4 2.52261 19.4 3V10.98C18.8379 10.8298 18.2579 10.7577 17.6762 10.7658C17.5562 10.7658 17.429 10.7736 17.2886 10.7796C16.5139 10.829 15.7363 10.7988 14.9678 10.6896C14.589 10.6368 14.2157 10.5502 13.8524 10.431C13.8344 10.425 13.8164 10.4202 13.799 10.4154C13.4838 10.2709 13.1411 10.1964 12.7944 10.197C12.4477 10.1976 12.1052 10.2734 11.7906 10.419C11.476 10.5646 11.1966 10.7767 10.9718 11.0406C10.747 11.3045 10.582 11.614 10.4882 11.9478C10.3399 12.4978 10.3895 13.0825 10.6282 13.5997C10.8669 14.1169 11.2796 14.5339 11.7944 14.778C13.3938 15.635 15.1656 16.121 16.9784 16.2C17.3129 16.1916 17.6419 16.2861 17.9209 16.4708C18.1999 16.6555 18.4154 16.9214 18.5384 17.2326C19.1 18.489 18.7262 20.631 17.7386 21.816C16.9151 22.7923 16.3399 23.9533 16.0622 25.2H5.59998C5.53086 25.1978 5.46193 25.1914 5.39358 25.1808C5.82866 24.7975 6.10877 24.2684 6.18124 23.6931C6.25372 23.1178 6.11359 22.5359 5.78718 22.0566C6.18441 21.9216 6.53885 21.6839 6.81454 21.3676C7.09023 21.0513 7.27736 20.6678 7.35693 20.2558C7.4365 19.8439 7.40569 19.4182 7.26762 19.0221C7.12956 18.6259 6.88914 18.2733 6.57078 18C6.88914 17.7267 7.12956 17.3741 7.26762 16.9779C7.40569 16.5818 7.4365 16.1561 7.35693 15.7442C7.27736 15.3322 7.09023 14.9487 6.81454 14.6324C6.53885 14.3161 6.18441 14.0784 5.78718 13.9434C6.03096 13.5825 6.17194 13.1621 6.19502 12.7272C6.2181 12.2923 6.12242 11.8593 5.91822 11.4747C5.71402 11.09 5.409 10.7682 5.03585 10.5436C4.6627 10.3191 4.23549 10.2003 3.79998 10.2V3ZM1.39998 12.6C1.39998 12.2817 1.52641 11.9765 1.75145 11.7515C1.9765 11.5264 2.28172 11.4 2.59998 11.4H3.79998C4.11824 11.4 4.42347 11.5264 4.64851 11.7515C4.87355 11.9765 4.99998 12.2817 4.99998 12.6C4.99998 12.9183 4.87355 13.2235 4.64851 13.4485C4.42347 13.6736 4.11824 13.8 3.79998 13.8H2.59998C2.28172 13.8 1.9765 13.6736 1.75145 13.4485C1.52641 13.2235 1.39998 12.9183 1.39998 12.6ZM1.39998 16.2C1.39998 15.8817 1.52641 15.5765 1.75145 15.3515C1.9765 15.1264 2.28172 15 2.59998 15H4.99998C5.31824 15 5.62347 15.1264 5.84851 15.3515C6.07355 15.5765 6.19998 15.8817 6.19998 16.2C6.19998 16.5183 6.07355 16.8235 5.84851 17.0485C5.62347 17.2736 5.31824 17.4 4.99998 17.4H2.59998C2.28172 17.4 1.9765 17.2736 1.75145 17.0485C1.52641 16.8235 1.39998 16.5183 1.39998 16.2ZM1.39998 19.8C1.39998 19.4817 1.52641 19.1765 1.75145 18.9515C1.9765 18.7264 2.28172 18.6 2.59998 18.6H4.99998C5.31824 18.6 5.62347 18.7264 5.84851 18.9515C6.07355 19.1765 6.19998 19.4817 6.19998 19.8C6.19998 20.1183 6.07355 20.4235 5.84851 20.6485C5.62347 20.8736 5.31824 21 4.99998 21H2.59998C2.28172 21 1.9765 20.8736 1.75145 20.6485C1.52641 20.4235 1.39998 20.1183 1.39998 19.8ZM1.39998 23.4C1.39998 23.0817 1.52641 22.7765 1.75145 22.5515C1.9765 22.3264 2.28172 22.2 2.59998 22.2H3.79998C4.11824 22.2 4.42347 22.3264 4.64851 22.5515C4.87355 22.7765 4.99998 23.0817 4.99998 23.4C4.99998 23.7183 4.87355 24.0235 4.64851 24.2485C4.42347 24.4736 4.11824 24.6 3.79998 24.6H2.59998C2.28172 24.6 1.9765 24.4736 1.75145 24.2485C1.52641 24.0235 1.39998 23.7183 1.39998 23.4ZM3.79998 25.8C3.80598 25.8 3.81198 25.8 3.81858 25.8C4.33277 26.1857 4.95724 26.396 5.59998 26.4H15.8852C15.8559 26.7994 15.8541 27.2003 15.8798 27.6H5.59998C5.12259 27.6 4.66475 27.4104 4.32719 27.0728C3.98962 26.7352 3.79998 26.2774 3.79998 25.8ZM23.2898 31.8348L23.8448 34.0548C23.8668 34.1432 23.8685 34.2355 23.8495 34.3247C23.8306 34.4138 23.7916 34.4975 23.7355 34.5693C23.6794 34.6411 23.6077 34.6992 23.5258 34.7392C23.4439 34.7792 23.3539 34.8 23.2628 34.8H12.4628C12.3368 34.8 12.214 34.7604 12.1118 34.6867C12.0096 34.6131 11.9332 34.5091 11.8934 34.3896L10.0322 28.8H16.0352C16.1272 29.2908 16.2656 29.7718 16.4486 30.2364C16.512 30.3814 16.6301 30.4955 16.7773 30.5538C16.9244 30.6121 17.0886 30.6099 17.2341 30.5477C17.3796 30.4855 17.4947 30.3683 17.5542 30.2217C17.6138 30.0751 17.613 29.9108 17.552 29.7648C17.4854 29.6064 15.9416 25.8468 18.6614 22.584C19.9466 21.0408 20.384 18.4206 19.6352 16.743C19.4184 16.2274 19.0544 15.7871 18.5889 15.4771C18.1233 15.1671 17.5767 15.0012 17.0174 15C15.3769 14.9256 13.7741 14.483 12.3278 13.7052C12.0671 13.5835 11.8563 13.3756 11.7313 13.1165C11.6062 12.8574 11.5744 12.563 11.6414 12.2832C11.6881 12.1114 11.7724 11.9522 11.8882 11.817C12.0041 11.6819 12.1485 11.5742 12.3111 11.5018C12.4737 11.4293 12.6504 11.394 12.8283 11.3983C13.0063 11.4026 13.1811 11.4464 13.34 11.5266C13.3918 11.5528 13.4472 11.5712 13.5044 11.5812C13.9256 11.7188 14.358 11.8192 14.7968 11.8812C15.6395 12.002 16.4923 12.036 17.342 11.9826C17.474 11.9772 17.5946 11.9724 17.705 11.97C18.7165 11.9652 19.71 12.2375 20.5778 12.7572C21.4637 13.2793 22.191 14.0323 22.682 14.9358C22.6929 14.9547 22.7049 14.9729 22.718 14.9904C24.0269 16.7247 24.7554 18.8277 24.8 21C24.8337 23.8811 24.3566 26.7454 23.3906 29.46C23.1225 30.2241 23.0874 31.0507 23.2898 31.8348Z" fill=""/>
</svg>
