<svg width="36" height="36" viewBox="0 0 36 36" fill="none" xmlns="http://www.w3.org/2000/svg">
<path d="M30.75 16.5C30.3 16.5 30 16.2 30 15.75V8.25C30 7.05 28.95 6 27.75 6H15.75C15.3 6 15 5.7 15 5.25C15 4.8 15.3 4.5 15.75 4.5H27.75C29.85 4.5 31.5 6.15 31.5 8.25V15.75C31.5 16.2 31.2 16.5 30.75 16.5Z" fill=""/>
<path d="M30.75 16.5C30.6 16.5 30.3 16.5 30.15 16.35L27.15 13.35C26.85 13.05 26.85 12.6 27.15 12.3C27.45 12 27.9 12 28.2 12.3L30.6 14.7L33 12.3C33.3 12 33.75 12 34.05 12.3C34.35 12.6 34.35 13.05 34.05 13.35L31.05 16.35C31.2 16.5 30.9 16.5 30.75 16.5Z" fill=""/>
<path d="M17.25 31.5H8.25C6.15 31.5 4.5 29.85 4.5 27.75V20.25C4.5 19.8 4.8 19.5 5.25 19.5C5.7 19.5 6 19.8 6 20.25V27.75C6 28.95 7.05 30 8.25 30H17.25C17.7 30 18 30.3 18 30.75C18 31.2 17.7 31.5 17.25 31.5Z" fill=""/>
<path d="M8.25001 24C8.10001 24 7.80001 24 7.65001 23.85L5.25001 21.45L2.85001 23.85C2.55001 24.15 2.10001 24.15 1.80001 23.85C1.50001 23.55 1.50001 23.1 1.80001 22.8L4.80001 19.8C5.10001 19.5 5.55001 19.5 5.85001 19.8L8.85001 22.8C9.15001 23.1 9.15001 23.55 8.85001 23.85C8.70001 24 8.40001 24 8.25001 24Z" fill=""/>
<path d="M7.5 7.5C5.4 7.5 3.75 5.85 3.75 3.75C3.75 1.65 5.4 0 7.5 0C9.6 0 11.25 1.65 11.25 3.75C11.25 5.85 9.6 7.5 7.5 7.5ZM7.5 1.5C6.3 1.5 5.25 2.55 5.25 3.75C5.25 4.95 6.3 6 7.5 6C8.7 6 9.75 4.95 9.75 3.75C9.75 2.55 8.7 1.5 7.5 1.5Z" fill=""/>
<path d="M14.25 15C13.8 15 13.5 14.7 13.5 14.25V12.75C13.5 11.55 12.45 10.5 11.25 10.5H3.75C2.55 10.5 1.5 11.55 1.5 12.75V14.25C1.5 14.7 1.2 15 0.75 15C0.3 15 0 14.7 0 14.25V12.75C0 10.65 1.65 9 3.75 9H11.25C13.35 9 15 10.65 15 12.75V14.25C15 14.7 14.7 15 14.25 15Z" fill=""/>
<path d="M28.5 28.5C26.4 28.5 24.75 26.85 24.75 24.75C24.75 22.65 26.4 21 28.5 21C30.6 21 32.25 22.65 32.25 24.75C32.25 26.85 30.6 28.5 28.5 28.5ZM28.5 22.5C27.3 22.5 26.25 23.55 26.25 24.75C26.25 25.95 27.3 27 28.5 27C29.7 27 30.75 25.95 30.75 24.75C30.75 23.55 29.7 22.5 28.5 22.5Z" fill=""/>
<path d="M35.25 36C34.8 36 34.5 35.7 34.5 35.25V33.75C34.5 32.55 33.45 31.5 32.25 31.5H24.75C23.55 31.5 22.5 32.55 22.5 33.75V35.25C22.5 35.7 22.2 36 21.75 36C21.3 36 21 35.7 21 35.25V33.75C21 31.65 22.65 30 24.75 30H32.25C34.35 30 36 31.65 36 33.75V35.25C36 35.7 35.7 36 35.25 36Z" fill=""/>
</svg>
