<svg width="48" height="48" viewBox="0 0 48 48" fill="none" xmlns="http://www.w3.org/2000/svg">
<circle cx="24" cy="24" r="24" fill="" fill-opacity="0.02"/>
<g clip-path="url(#clip0_32_597)">
<path d="M38.4 14.4H30.3564C30.1494 14.0827 29.8906 13.8024 29.5908 13.5708L33.7344 9.01077C34.056 8.65726 34.224 8.19048 34.2014 7.7131C34.1789 7.23573 33.9676 6.78687 33.6141 6.46527C33.2606 6.14367 32.7938 5.97567 32.3164 5.99823C31.8391 6.02079 31.3902 6.23206 31.0686 6.58557L26.001 12.1596C24.6755 11.9468 23.3245 11.9468 21.999 12.1596L16.9302 6.58437C16.7708 6.40949 16.5784 6.26772 16.3642 6.16717C16.15 6.06661 15.9181 6.00923 15.6817 5.99831C15.2042 5.97626 14.7376 6.14477 14.3844 6.46677C14.0312 6.78877 13.8204 7.23788 13.7983 7.71531C13.7763 8.19274 13.9448 8.65938 14.2668 9.01257L18.4068 13.5726C18.108 13.8038 17.85 14.0835 17.6436 14.4H9.6C8.64551 14.4009 7.73039 14.7805 7.05547 15.4554C6.38054 16.1304 6.00095 17.0455 6 18L6 36C6.00095 36.9545 6.38054 37.8696 7.05547 38.5445C7.73039 39.2194 8.64551 39.599 9.6 39.6H10.2V40.2C10.2 40.6774 10.3896 41.1352 10.7272 41.4728C11.0648 41.8103 11.5226 42 12 42H15.6C16.0774 42 16.5352 41.8103 16.8728 41.4728C17.2104 41.1352 17.4 40.6774 17.4 40.2V39.6H30.6V40.2C30.6 40.6774 30.7896 41.1352 31.1272 41.4728C31.4648 41.8103 31.9226 42 32.4 42H36C36.4774 42 36.9352 41.8103 37.2728 41.4728C37.6104 41.1352 37.8 40.6774 37.8 40.2V39.6H38.4C39.3545 39.599 40.2696 39.2194 40.9445 38.5445C41.6195 37.8696 41.9991 36.9545 42 36V18C41.9991 17.0455 41.6195 16.1304 40.9445 15.4554C40.2696 14.7805 39.3545 14.4009 38.4 14.4ZM31.9554 7.39377C32.0087 7.33538 32.0731 7.28807 32.1447 7.25455C32.2163 7.22102 32.2938 7.20193 32.3728 7.19836C32.4519 7.19479 32.5308 7.20683 32.6051 7.23376C32.6795 7.2607 32.7478 7.30202 32.8062 7.35537C32.8646 7.40871 32.9119 7.47303 32.9454 7.54466C32.979 7.61628 32.998 7.69381 33.0016 7.77281C33.0052 7.85182 32.9931 7.93075 32.9662 8.00511C32.9393 8.07946 32.8979 8.14778 32.8446 8.20617L28.5534 12.9282C28.1642 12.7414 27.7607 12.5859 27.3468 12.4632L31.9554 7.39377ZM24 13.2C25.6545 13.1216 27.2947 13.5395 28.71 14.4H19.29C20.7053 13.5395 22.3455 13.1216 24 13.2ZM15.1566 8.20737C15.0486 8.08977 14.9916 7.93407 14.9984 7.77451C15.0051 7.61496 15.075 7.46462 15.1926 7.35657C15.3102 7.24852 15.4659 7.19161 15.6255 7.19836C15.785 7.20511 15.9354 7.27497 16.0434 7.39257L20.6532 12.4632C20.2393 12.5859 19.8358 12.7414 19.4466 12.9282L15.1566 8.20737ZM16.2 40.2C16.2 40.3591 16.1368 40.5117 16.0243 40.6242C15.9117 40.7368 15.7591 40.8 15.6 40.8H12C11.8409 40.8 11.6883 40.7368 11.5757 40.6242C11.4632 40.5117 11.4 40.3591 11.4 40.2V39.6H16.2V40.2ZM36.6 40.2C36.6 40.3591 36.5368 40.5117 36.4243 40.6242C36.3117 40.7368 36.1591 40.8 36 40.8H32.4C32.2409 40.8 32.0883 40.7368 31.9757 40.6242C31.8632 40.5117 31.8 40.3591 31.8 40.2V39.6H36.6V40.2ZM40.8 36C40.8 36.6365 40.5471 37.2469 40.0971 37.697C39.647 38.1471 39.0365 38.4 38.4 38.4H9.6C8.96348 38.4 8.35303 38.1471 7.90294 37.697C7.45286 37.2469 7.2 36.6365 7.2 36V18C7.2 17.3634 7.45286 16.753 7.90294 16.3029C8.35303 15.8528 8.96348 15.6 9.6 15.6H38.4C39.0365 15.6 39.647 15.8528 40.0971 16.3029C40.5471 16.753 40.8 17.3634 40.8 18V36Z" fill=""/>
<path d="M26.4 16.7999H10.8C10.1635 16.7999 9.55306 17.0528 9.10297 17.5029C8.65288 17.953 8.40002 18.5634 8.40002 19.1999V34.7999C8.40002 35.4364 8.65288 36.0469 9.10297 36.497C9.55306 36.9471 10.1635 37.1999 10.8 37.1999H26.4C27.0365 37.1999 27.647 36.9471 28.0971 36.497C28.5472 36.0469 28.8 35.4364 28.8 34.7999V19.1999C28.8 18.5634 28.5472 17.953 28.0971 17.5029C27.647 17.0528 27.0365 16.7999 26.4 16.7999ZM27.6 34.7999C27.6 35.1182 27.4736 35.4234 27.2486 35.6485C27.0235 35.8735 26.7183 35.9999 26.4 35.9999H10.8C10.4818 35.9999 10.1765 35.8735 9.9515 35.6485C9.72645 35.4234 9.60002 35.1182 9.60002 34.7999V19.1999C9.60002 18.8817 9.72645 18.5764 9.9515 18.3514C10.1765 18.1264 10.4818 17.9999 10.8 17.9999H26.4C26.7183 17.9999 27.0235 18.1264 27.2486 18.3514C27.4736 18.5764 27.6 18.8817 27.6 19.1999V34.7999Z" fill=""/>
<path d="M33 16.7999C32.4067 16.7999 31.8266 16.9759 31.3333 17.3055C30.8399 17.6352 30.4554 18.1037 30.2284 18.6519C30.0013 19.2001 29.9419 19.8033 30.0576 20.3852C30.1734 20.9671 30.4591 21.5017 30.8787 21.9212C31.2982 22.3408 31.8328 22.6265 32.4147 22.7423C32.9967 22.858 33.5999 22.7986 34.1481 22.5716C34.6962 22.3445 35.1648 21.96 35.4944 21.4666C35.8241 20.9733 36 20.3933 36 19.7999C35.999 19.0046 35.6827 18.2421 35.1203 17.6797C34.5579 17.1173 33.7954 16.8009 33 16.7999ZM33 21.5999C32.644 21.5999 32.296 21.4944 32 21.2966C31.704 21.0988 31.4733 20.8177 31.337 20.4888C31.2008 20.1599 31.1651 19.7979 31.2346 19.4488C31.304 19.0996 31.4755 18.7789 31.7272 18.5271C31.9789 18.2754 32.2997 18.104 32.6488 18.0345C32.998 17.9651 33.3599 18.0007 33.6888 18.1369C34.0177 18.2732 34.2989 18.5039 34.4966 18.7999C34.6944 19.0959 34.8 19.4439 34.8 19.7999C34.8 20.2773 34.6104 20.7352 34.2728 21.0727C33.9352 21.4103 33.4774 21.5999 33 21.5999Z" fill=""/>
<path d="M33 24C32.4067 24 31.8266 24.1759 31.3333 24.5056C30.8399 24.8352 30.4554 25.3038 30.2284 25.8519C30.0013 26.4001 29.9419 27.0033 30.0576 27.5853C30.1734 28.1672 30.4591 28.7018 30.8787 29.1213C31.2982 29.5409 31.8328 29.8266 32.4147 29.9424C32.9967 30.0581 33.5999 29.9987 34.1481 29.7716C34.6962 29.5446 35.1648 29.1601 35.4944 28.6667C35.8241 28.1734 36 27.5933 36 27C35.999 26.2046 35.6827 25.4421 35.1203 24.8797C34.5579 24.3173 33.7954 24.001 33 24ZM33 28.8C32.644 28.8 32.296 28.6944 32 28.4966C31.704 28.2989 31.4733 28.0177 31.337 27.6888C31.2008 27.3599 31.1651 26.998 31.2346 26.6488C31.304 26.2997 31.4755 25.9789 31.7272 25.7272C31.9789 25.4755 32.2997 25.304 32.6488 25.2346C32.998 25.1651 33.3599 25.2008 33.6888 25.337C34.0177 25.4733 34.2989 25.704 34.4966 26C34.6944 26.296 34.8 26.644 34.8 27C34.8 27.4774 34.6104 27.9352 34.2728 28.2728C33.9352 28.6104 33.4774 28.8 33 28.8Z" fill=""/>
<path d="M31.8 31.2H31.2C31.0408 31.2 30.8882 31.2632 30.7757 31.3757C30.6632 31.4882 30.6 31.6408 30.6 31.8C30.6 31.9591 30.6632 32.1117 30.7757 32.2242C30.8882 32.3367 31.0408 32.4 31.2 32.4H31.8C31.9591 32.4 32.1117 32.3367 32.2242 32.2242C32.3368 32.1117 32.4 31.9591 32.4 31.8C32.4 31.6408 32.3368 31.4882 32.2242 31.3757C32.1117 31.2632 31.9591 31.2 31.8 31.2Z" fill=""/>
<path d="M34.8 31.2H34.2C34.0408 31.2 33.8882 31.2632 33.7757 31.3757C33.6632 31.4882 33.6 31.6408 33.6 31.8C33.6 31.9591 33.6632 32.1117 33.7757 32.2242C33.8882 32.3367 34.0408 32.4 34.2 32.4H34.8C34.9591 32.4 35.1117 32.3367 35.2242 32.2242C35.3368 32.1117 35.4 31.9591 35.4 31.8C35.4 31.6408 35.3368 31.4882 35.2242 31.3757C35.1117 31.2632 34.9591 31.2 34.8 31.2Z" fill=""/>
<path d="M31.8 33.6H31.2C31.0408 33.6 30.8882 33.6632 30.7757 33.7757C30.6632 33.8882 30.6 34.0408 30.6 34.2C30.6 34.3591 30.6632 34.5117 30.7757 34.6242C30.8882 34.7368 31.0408 34.8 31.2 34.8H31.8C31.9591 34.8 32.1117 34.7368 32.2242 34.6242C32.3368 34.5117 32.4 34.3591 32.4 34.2C32.4 34.0408 32.3368 33.8882 32.2242 33.7757C32.1117 33.6632 31.9591 33.6 31.8 33.6Z" fill=""/>
<path d="M34.8 33.6H34.2C34.0408 33.6 33.8882 33.6632 33.7757 33.7757C33.6632 33.8882 33.6 34.0408 33.6 34.2C33.6 34.3591 33.6632 34.5117 33.7757 34.6242C33.8882 34.7368 34.0408 34.8 34.2 34.8H34.8C34.9591 34.8 35.1117 34.7368 35.2242 34.6242C35.3368 34.5117 35.4 34.3591 35.4 34.2C35.4 34.0408 35.3368 33.8882 35.2242 33.7757C35.1117 33.6632 34.9591 33.6 34.8 33.6Z" fill=""/>
<path d="M31.8 36H31.2C31.0408 36 30.8882 36.0632 30.7757 36.1757C30.6632 36.2883 30.6 36.4409 30.6 36.6C30.6 36.7591 30.6632 36.9117 30.7757 37.0243C30.8882 37.1368 31.0408 37.2 31.2 37.2H31.8C31.9591 37.2 32.1117 37.1368 32.2242 37.0243C32.3368 36.9117 32.4 36.7591 32.4 36.6C32.4 36.4409 32.3368 36.2883 32.2242 36.1757C32.1117 36.0632 31.9591 36 31.8 36Z" fill=""/>
<path d="M34.8 36H34.2C34.0408 36 33.8882 36.0632 33.7757 36.1757C33.6632 36.2883 33.6 36.4409 33.6 36.6C33.6 36.7591 33.6632 36.9117 33.7757 37.0243C33.8882 37.1368 34.0408 37.2 34.2 37.2H34.8C34.9591 37.2 35.1117 37.1368 35.2242 37.0243C35.3368 36.9117 35.4 36.7591 35.4 36.6C35.4 36.4409 35.3368 36.2883 35.2242 36.1757C35.1117 36.0632 34.9591 36 34.8 36Z" fill=""/>
<path d="M38.4 19.2C38.7314 19.2 39 18.9314 39 18.6C39 18.2686 38.7314 18 38.4 18C38.0687 18 37.8 18.2686 37.8 18.6C37.8 18.9314 38.0687 19.2 38.4 19.2Z" fill=""/>
<path d="M38.4 21.6C38.7314 21.6 39 21.3314 39 21C39 20.6687 38.7314 20.4 38.4 20.4C38.0687 20.4 37.8 20.6687 37.8 21C37.8 21.3314 38.0687 21.6 38.4 21.6Z" fill=""/>
<path d="M38.4 26.4C38.7314 26.4 39 26.1313 39 25.8C39 25.4686 38.7314 25.2 38.4 25.2C38.0687 25.2 37.8 25.4686 37.8 25.8C37.8 26.1313 38.0687 26.4 38.4 26.4Z" fill=""/>
<path d="M38.4 28.8C38.7314 28.8 39 28.5313 39 28.2C39 27.8686 38.7314 27.6 38.4 27.6C38.0687 27.6 37.8 27.8686 37.8 28.2C37.8 28.5313 38.0687 28.8 38.4 28.8Z" fill=""/>
<path d="M38.4 31.2C38.2409 31.2 38.0883 31.2632 37.9758 31.3757C37.8633 31.4882 37.8 31.6408 37.8 31.8V36.6C37.8 36.7591 37.8633 36.9117 37.9758 37.0242C38.0883 37.1367 38.2409 37.2 38.4 37.2C38.5592 37.2 38.7118 37.1367 38.8243 37.0242C38.9368 36.9117 39 36.7591 39 36.6V31.8C39 31.6408 38.9368 31.4882 38.8243 31.3757C38.7118 31.2632 38.5592 31.2 38.4 31.2Z" fill=""/>
</g>
<defs>
<clipPath id="clip0_32_597">
<rect width="36" height="36" fill="white" transform="translate(6 6)"/>
</clipPath>
</defs>
</svg>
