<?xml version="1.0" standalone="no"?>
<!DOCTYPE svg PUBLIC "-//W3C//DTD SVG 20010904//EN"
 "http://www.w3.org/TR/2001/REC-SVG-20010904/DTD/svg10.dtd">
<svg version="1.0" xmlns="http://www.w3.org/2000/svg"
 width="512.000000pt" height="512.000000pt" viewBox="0 0 512.000000 512.000000"
 preserveAspectRatio="xMidYMid meet">

<g transform="translate(0.000000,512.000000) scale(0.100000,-0.100000)"
fill="" stroke="none">
<path d="M2480 5111 c-87 -28 -128 -66 -773 -710 -362 -361 -671 -676 -687
-701 -40 -62 -64 -160 -56 -224 24 -190 210 -314 391 -261 33 9 82 32 110 51
29 18 213 197 411 396 l359 363 5 -1090 c5 -1027 6 -1093 23 -1137 27 -68 96
-141 159 -168 63 -27 166 -37 225 -21 91 25 182 113 215 209 9 28 14 294 18
1122 l5 1085 380 -382 c437 -438 437 -438 580 -437 95 0 157 25 220 89 64 63
89 125 89 220 1 151 34 111 -721 867 -743 743 -726 729 -857 734 -39 2 -82 0
-96 -5z"/>
<path d="M578 1910 c-105 -18 -189 -89 -231 -193 -19 -48 -21 -76 -25 -381 -6
-467 12 -610 99 -794 50 -107 109 -190 195 -273 122 -116 253 -188 429 -236
l100 -28 1360 -3 c989 -2 1386 0 1455 8 375 46 676 290 783 635 43 139 52 248
52 650 0 420 -2 435 -77 520 -49 55 -94 80 -174 94 -149 27 -281 -38 -343
-169 l-26 -55 -6 -395 c-4 -268 -10 -408 -18 -435 -17 -56 -66 -125 -110 -157
-86 -62 -2 -59 -1496 -56 l-1360 3 -57 28 c-75 37 -123 94 -148 175 -18 59
-20 94 -20 416 0 380 -5 427 -53 509 -63 106 -194 161 -329 137z"/>
</g>
</svg>
