<svg width="38" height="38" viewBox="0 0 38 38" fill="" xmlns="http://www.w3.org/2000/svg">
<path d="M1 1L1 37"  stroke-linecap="round"/>
<path d="M37 37L0.999999 37"  stroke-linecap="round"/>
<path d="M1.90891 36.2288C1.95982 35.6178 2.3046 35.0506 2.48587 34.4722C2.70546 33.7716 2.97888 33.084 3.40901 32.4849C4.47683 30.9976 5.35469 29.3537 6.99901 28.382C7.83859 27.8859 8.77815 27.4772 9.72997 27.2538C10.6422 27.0396 11.5631 27.0967 12.4738 26.9396C14.8821 26.5244 17.1286 25.3408 18.9037 23.6702C20.2308 22.4211 21.2152 20.6989 22.7053 19.6378C23.8986 18.788 25.3319 18.602 26.6414 18.048C28.3961 17.3056 30.0383 15.9605 31.3982 14.6503C31.8768 14.1891 32.1837 13.6549 32.5393 13.1053C32.7465 12.7851 33.0373 12.5848 33.1804 12.2271"  stroke-linecap="round"/>
<circle cx="24" cy="19" r="1" />
<circle cx="10" cy="27" r="1" />
</svg>
