<?xml version="1.0" standalone="no"?>
<!DOCTYPE svg PUBLIC "-//W3C//DTD SVG 20010904//EN"
 "http://www.w3.org/TR/2001/REC-SVG-20010904/DTD/svg10.dtd">
<svg version="1.0" xmlns="http://www.w3.org/2000/svg"
 width="28.000000pt" height="28.000000pt" viewBox="0 0 512.000000 512.000000"
 preserveAspectRatio="xMidYMid meet">

<g transform="translate(0.000000,512.000000) scale(0.100000,-0.100000)"
fill="" stroke="none">
<path d="M2351 5109 c-357 -38 -730 -192 -1017 -420 -34 -27 -65 -60 -68 -73
-14 -55 34 -106 87 -92 14 3 45 22 68 43 24 20 91 67 149 105 597 393 1379
395 1973 6 429 -282 710 -709 803 -1223 22 -123 25 -438 6 -560 -43 -267 -142
-521 -284 -734 -78 -115 -1418 -1942 -1451 -1979 -33 -34 -69 -41 -98 -19 -17
13 -1392 1887 -1469 2002 -349 520 -395 1206 -120 1780 50 104 160 278 223
354 21 23 40 54 43 68 14 53 -37 101 -92 87 -48 -12 -203 -232 -298 -425 -300
-606 -268 -1318 85 -1895 22 -36 371 -518 776 -1070 823 -1124 768 -1059 893
-1059 124 0 72 -62 871 1027 392 535 737 1009 766 1052 326 487 410 1124 222
1691 -288 872 -1152 1429 -2068 1334z"/>
<path d="M2385 4509 c-161 -21 -352 -85 -497 -168 -617 -353 -858 -1112 -558
-1758 126 -271 353 -504 626 -641 84 -42 242 -96 349 -118 121 -25 383 -26
505 -1 422 84 777 353 968 733 43 86 98 249 119 352 24 120 24 384 0 504 -89
449 -388 818 -806 999 -214 92 -470 127 -706 98z m358 -154 c124 -19 253 -62
376 -125 218 -113 399 -294 510 -510 103 -200 135 -335 135 -560 0 -225 -32
-360 -135 -560 -58 -114 -114 -190 -212 -288 -169 -172 -378 -286 -617 -338
-118 -26 -362 -26 -480 0 -238 51 -455 171 -622 342 -93 95 -150 172 -208 285
-183 354 -186 751 -9 1103 66 130 109 189 226 308 269 274 652 401 1036 343z"/>
<path d="M2438 4204 c-174 -42 -326 -183 -378 -352 -27 -87 -27 -227 0 -314
53 -171 204 -311 382 -353 262 -62 539 96 618 353 27 87 27 227 0 314 -79 258
-359 416 -622 352z m233 -154 c160 -50 259 -186 259 -355 0 -169 -99 -305
-259 -355 -80 -25 -142 -25 -222 0 -115 36 -197 114 -240 229 -30 80 -24 214
14 287 50 99 124 162 226 195 74 24 145 23 222 -1z"/>
<path d="M1947 3009 c-149 -36 -269 -176 -284 -332 -5 -59 -3 -70 21 -111 43
-74 191 -221 283 -283 101 -67 225 -122 348 -154 77 -20 113 -23 250 -23 139
1 173 4 257 27 119 31 243 89 343 158 85 59 231 207 271 275 24 41 26 52 21
111 -13 133 -94 248 -217 307 l-65 31 -595 2 c-327 1 -612 -3 -633 -8z m1208
-150 c82 -23 168 -144 151 -213 -8 -32 -140 -171 -210 -221 -82 -58 -212 -120
-311 -146 -114 -32 -335 -32 -450 -1 -102 28 -243 96 -322 156 -73 55 -191
181 -199 212 -17 65 62 181 141 209 33 12 143 14 600 15 380 0 573 -4 600 -11z"/>
</g>
</svg>
