<svg width="36" height="36" viewBox="0 0 36 36" fill="none" xmlns="http://www.w3.org/2000/svg">
<path d="M34.2 5.40005H33.6C32.6059 5.40005 31.8 6.20594 31.8 7.20005V8.40005H25.8V7.80005C25.8 6.80594 24.9941 6.00005 24 6.00005H21.6V3.97085C21.8448 3.69171 22.0211 3.35929 22.1148 3.00005H24.7104C25.0026 3.82658 25.8478 4.32237 26.7118 4.17413C27.5759 4.02588 28.2075 3.27672 28.2075 2.40005C28.2075 1.52338 27.5759 0.774218 26.7118 0.625972C25.8478 0.477726 25.0026 0.973521 24.7104 1.80005H22.1148C21.8454 0.741528 20.8923 0.000610352 19.8 0.000610352C18.7077 0.000610352 17.7546 0.741528 17.4852 1.80005H14.8896C14.5974 0.973521 13.7522 0.477726 12.8882 0.625972C12.0241 0.774218 11.3925 1.52338 11.3925 2.40005C11.3925 3.27672 12.0241 4.02588 12.8882 4.17413C13.7522 4.32237 14.5974 3.82658 14.8896 3.00005H17.4852C17.5789 3.35929 17.7552 3.69171 18 3.97085V6.00005H15.6C14.6059 6.00005 13.8 6.80594 13.8 7.80005V8.40005H7.8C5.15027 8.40303 3.00298 10.5503 3 13.2001V15.6001C2.00589 15.6001 1.2 16.4059 1.2 17.4001V18.0001C1.2 18.9942 2.00589 19.8001 3 19.8001H5.352C5.127 21.3193 4.083 22.5421 2.9802 23.8267C1.5834 25.4539 0 27.3001 0 30.0001C0 33.3138 2.68629 36.0001 6 36.0001C9.31371 36.0001 12 33.3138 12 30.0001C12 27.3001 10.4166 25.4539 9.0198 23.8267C7.92 22.5421 6.873 21.3193 6.648 19.8001H9C9.99411 19.8001 10.8 18.9942 10.8 18.0001V17.4001C10.8 16.4059 9.99411 15.6001 9 15.6001V15.0001C9 14.6687 9.26863 14.4001 9.6 14.4001H13.83C14.1378 17.4663 16.7183 19.8008 19.8 19.8008C22.8817 19.8008 25.4622 17.4663 25.77 14.4001H31.8V15.6001C31.8 16.5942 32.6059 17.4001 33.6 17.4001H34.2C35.1941 17.4001 36 16.5942 36 15.6001V7.20005C36 6.20594 35.1941 5.40005 34.2 5.40005ZM10.8 30.0001C10.8 32.651 8.65097 34.8001 6 34.8001C3.34903 34.8001 1.2 32.651 1.2 30.0001C1.2 27.7423 2.5068 26.2201 3.8904 24.6085C4.71319 23.7284 5.42195 22.7483 6 21.6913C6.57805 22.7483 7.28681 23.7284 8.1096 24.6085C9.4932 26.2201 10.8 27.7423 10.8 30.0001ZM26.4 1.80005C26.7314 1.80005 27 2.06868 27 2.40005C27 2.73142 26.7314 3.00005 26.4 3.00005C26.0686 3.00005 25.8 2.73142 25.8 2.40005C25.8 2.06868 26.0686 1.80005 26.4 1.80005ZM19.8 1.20005C20.4627 1.20005 21 1.73731 21 2.40005C21 3.06279 20.4627 3.60005 19.8 3.60005C19.1373 3.60005 18.6 3.06279 18.6 2.40005C18.6 1.73731 19.1373 1.20005 19.8 1.20005ZM13.2 3.00005C12.8686 3.00005 12.6 2.73142 12.6 2.40005C12.6 2.06868 12.8686 1.80005 13.2 1.80005C13.5314 1.80005 13.8 2.06868 13.8 2.40005C13.8 2.55918 13.7368 2.71179 13.6243 2.82431C13.5117 2.93684 13.3591 3.00005 13.2 3.00005ZM19.2 4.71485C19.5919 4.82845 20.0081 4.82845 20.4 4.71485V6.00005H19.2V4.71485ZM9.6 17.4001V18.0001C9.6 18.3314 9.33137 18.6001 9 18.6001H3C2.66863 18.6001 2.4 18.3314 2.4 18.0001V17.4001C2.4 17.0687 2.66863 16.8001 3 16.8001H9C9.33137 16.8001 9.6 17.0687 9.6 17.4001ZM25.8 13.2001V12.0001C25.8 11.6687 25.5314 11.4001 25.2 11.4001C24.8686 11.4001 24.6 11.6687 24.6 12.0001V13.8001C24.6 16.451 22.451 18.6001 19.8 18.6001C17.149 18.6001 15 16.451 15 13.8001V12.0001C15 11.6687 14.7314 11.4001 14.4 11.4001C14.0686 11.4001 13.8 11.6687 13.8 12.0001V13.2001H9.6C8.60589 13.2001 7.8 14.0059 7.8 15.0001V15.6001H4.2V13.2001C4.20198 11.2126 5.8126 9.60203 7.8 9.60005H17.4C17.7314 9.60005 18 9.33142 18 9.00005C18 8.66868 17.7314 8.40005 17.4 8.40005H15V7.80005C15 7.46868 15.2686 7.20005 15.6 7.20005H24C24.3314 7.20005 24.6 7.46868 24.6 7.80005V8.40005H22.2C21.8686 8.40005 21.6 8.66868 21.6 9.00005C21.6 9.33142 21.8686 9.60005 22.2 9.60005H31.8V13.2001H25.8ZM34.8 15.6001C34.8 15.9314 34.5314 16.2001 34.2 16.2001H33.6C33.2686 16.2001 33 15.9314 33 15.6001V7.20005C33 6.86868 33.2686 6.60005 33.6 6.60005H34.2C34.5314 6.60005 34.8 6.86868 34.8 7.20005V15.6001Z" fill=""/>
</svg>
